M48
METRIC
T1C1.000
T2C1.016
%
G90
G05
T1
X161.0Y-89.19
X161.0Y-91.73
X161.0Y-94.27
X161.0Y-96.81
T2
X125.775Y-81.25
X125.775Y-83.79
X125.775Y-86.33
X125.775Y-88.87
X125.775Y-91.41
X125.775Y-93.95
X125.775Y-96.49
X130.855Y-106.65
X135.935Y-106.65
X141.015Y-81.25
X141.015Y-83.79
X141.015Y-86.33
X141.015Y-88.87
X141.015Y-91.41
X141.015Y-93.95
X141.015Y-96.49
M30
