%TF.GenerationSoftware,KiCad,Pcbnew,9.0.5*%
%TF.CreationDate,2026-02-02T17:22:04-08:00*%
%TF.ProjectId,Display device,44697370-6c61-4792-9064-65766963652e,rev?*%
%TF.SameCoordinates,Original*%
%TF.FileFunction,Copper,L1,Top*%
%TF.FilePolarity,Positive*%
%FSLAX46Y46*%
G04 Gerber Fmt 4.6, Leading zero omitted, Abs format (unit mm)*
G04 Created by KiCad (PCBNEW 9.0.5) date 2026-02-02 17:22:04*
%MOMM*%
%LPD*%
G01*
G04 APERTURE LIST*
G04 Aperture macros list*
%AMRoundRect*
0 Rectangle with rounded corners*
0 $1 Rounding radius*
0 $2 $3 $4 $5 $6 $7 $8 $9 X,Y pos of 4 corners*
0 Add a 4 corners polygon primitive as box body*
4,1,4,$2,$3,$4,$5,$6,$7,$8,$9,$2,$3,0*
0 Add four circle primitives for the rounded corners*
1,1,$1+$1,$2,$3*
1,1,$1+$1,$4,$5*
1,1,$1+$1,$6,$7*
1,1,$1+$1,$8,$9*
0 Add four rect primitives between the rounded corners*
20,1,$1+$1,$2,$3,$4,$5,0*
20,1,$1+$1,$4,$5,$6,$7,0*
20,1,$1+$1,$6,$7,$8,$9,0*
20,1,$1+$1,$8,$9,$2,$3,0*%
G04 Aperture macros list end*
%TA.AperFunction,ComponentPad*%
%ADD10R,1.700000X1.700000*%
%TD*%
%TA.AperFunction,ComponentPad*%
%ADD11C,1.700000*%
%TD*%
%TA.AperFunction,ComponentPad*%
%ADD12O,3.556000X1.778000*%
%TD*%
%TA.AperFunction,ComponentPad*%
%ADD13C,1.905000*%
%TD*%
%TA.AperFunction,SMDPad,CuDef*%
%ADD14RoundRect,0.250000X-0.450000X0.800000X-0.450000X-0.800000X0.450000X-0.800000X0.450000X0.800000X0*%
%TD*%
%TA.AperFunction,SMDPad,CuDef*%
%ADD15RoundRect,0.250000X-0.350000X-0.450000X0.350000X-0.450000X0.350000X0.450000X-0.350000X0.450000X0*%
%TD*%
%TA.AperFunction,SMDPad,CuDef*%
%ADD16RoundRect,0.250000X0.450000X-0.350000X0.450000X0.350000X-0.450000X0.350000X-0.450000X-0.350000X0*%
%TD*%
%TA.AperFunction,SMDPad,CuDef*%
%ADD17RoundRect,0.250000X0.450000X-0.325000X0.450000X0.325000X-0.450000X0.325000X-0.450000X-0.325000X0*%
%TD*%
%TA.AperFunction,SMDPad,CuDef*%
%ADD18RoundRect,0.250000X-0.337500X-0.475000X0.337500X-0.475000X0.337500X0.475000X-0.337500X0.475000X0*%
%TD*%
%TA.AperFunction,Conductor*%
%ADD19C,0.200000*%
%TD*%
G04 APERTURE END LIST*
D10*
%TO.P,J1,1,Pin_1*%
%TO.N,Net-(J1-Pin_1)*%
X161000000Y-96810000D03*
D11*
%TO.P,J1,2,Pin_2*%
%TO.N,Net-(J1-Pin_2)*%
X161000000Y-94270000D03*
%TO.P,J1,3,Pin_3*%
%TO.N,Net-(J1-Pin_3)*%
X161000000Y-91730000D03*
%TO.P,J1,4,Pin_4*%
%TO.N,Net-(J1-Pin_4)*%
X161000000Y-89190000D03*
%TD*%
D12*
%TO.P,U1,1,GPIO1_A0_D0*%
%TO.N,/LED*%
X125013000Y-81250000D03*
%TO.P,U1,2,GPIO2_A1_D1*%
%TO.N,unconnected-(U1-GPIO2_A1_D1-Pad2)*%
X125013000Y-83790000D03*
%TO.P,U1,3,GPIO3_A2_D2*%
%TO.N,unconnected-(U1-GPIO3_A2_D2-Pad3)*%
X125013000Y-86330000D03*
%TO.P,U1,4,GPIO4_A3_D3*%
%TO.N,/DISP_BTN*%
X125013000Y-88870000D03*
%TO.P,U1,5,GPIO4_A3_D3_SDA*%
%TO.N,unconnected-(U1-GPIO4_A3_D3_SDA-Pad5)*%
X125013000Y-91410000D03*
%TO.P,U1,6,GPIO6_A5_D5_SCL*%
%TO.N,/M_A1*%
X125013000Y-93950000D03*
%TO.P,U1,7,GPIO43_TX_D6*%
%TO.N,unconnected-(U1-GPIO43_TX_D6-Pad7)*%
X125013000Y-96490000D03*
%TO.P,U1,8,GPIO44_D7_RX*%
%TO.N,unconnected-(U1-GPIO44_D7_RX-Pad8)*%
X141777000Y-96490000D03*
%TO.P,U1,9,GPIO7_A8_D8_SCK*%
%TO.N,/M_A2*%
X141777000Y-93950000D03*
%TO.P,U1,10,GPIO8_A9_D9_CIPO*%
%TO.N,/M_B1*%
X141777000Y-91410000D03*
%TO.P,U1,11,GPIO9_A10_D10_COPI*%
%TO.N,/M_B2*%
X141777000Y-88870000D03*
%TO.P,U1,12,3V3*%
%TO.N,unconnected-(U1-3V3-Pad12)*%
X141777000Y-86330000D03*
%TO.P,U1,13,GND*%
%TO.N,GND*%
X141777000Y-83790000D03*
%TO.P,U1,14,5V*%
%TO.N,unconnected-(U1-5V-Pad14)*%
X141777000Y-81250000D03*
D13*
%TO.P,U1,15,+BATT*%
%TO.N,/BAT*%
X130855000Y-106650000D03*
%TO.P,U1,16,-BATT*%
%TO.N,GND*%
X135935000Y-106650000D03*
%TD*%
D14*
%TO.P,SW1,1,1*%
%TO.N,/DISP_BTN*%
X118000000Y-103500000D03*
X118000000Y-112600000D03*
%TO.P,SW1,2,2*%
%TO.N,GND*%
X113500000Y-103500000D03*
X113500000Y-112600000D03*
%TD*%
D15*
%TO.P,R5,1*%
%TO.N,/M_B2*%
X150500000Y-89000000D03*
%TO.P,R5,2*%
%TO.N,Net-(J1-Pin_4)*%
X152500000Y-89000000D03*
%TD*%
%TO.P,R4,1*%
%TO.N,/M_B1*%
X150500000Y-91500000D03*
%TO.P,R4,2*%
%TO.N,Net-(J1-Pin_3)*%
X152500000Y-91500000D03*
%TD*%
%TO.P,R3,1*%
%TO.N,/M_A2*%
X150500000Y-94000000D03*
%TO.P,R3,2*%
%TO.N,Net-(J1-Pin_2)*%
X152500000Y-94000000D03*
%TD*%
%TO.P,R2,1*%
%TO.N,/M_A1*%
X150500000Y-96500000D03*
%TO.P,R2,2*%
%TO.N,Net-(J1-Pin_1)*%
X152500000Y-96500000D03*
%TD*%
D16*
%TO.P,R1,1*%
%TO.N,Net-(D1-A)*%
X116975000Y-83000000D03*
%TO.P,R1,2*%
%TO.N,/LED*%
X116975000Y-81000000D03*
%TD*%
D17*
%TO.P,D1,1,K*%
%TO.N,GND*%
X113975000Y-83025000D03*
%TO.P,D1,2,A*%
%TO.N,Net-(D1-A)*%
X113975000Y-80975000D03*
%TD*%
D18*
%TO.P,C2,1*%
%TO.N,/BAT*%
X132425000Y-116000000D03*
%TO.P,C2,2*%
%TO.N,GND*%
X134500000Y-116000000D03*
%TD*%
%TO.P,C1,1*%
%TO.N,/BAT*%
X132425000Y-112500000D03*
%TO.P,C1,2*%
%TO.N,GND*%
X134500000Y-112500000D03*
%TD*%
D19*
%TO.N,/DISP_BTN*%
X125775000Y-88870000D02*
X124981086Y-88870000D01*
X124981086Y-88870000D02*
X118000000Y-95851086D01*
X118000000Y-95851086D02*
X118000000Y-103500000D01*
%TO.N,/M_A1*%
X125775000Y-93950000D02*
X122550000Y-93950000D01*
X121500000Y-95000000D02*
X121500000Y-100000000D01*
X122550000Y-93950000D02*
X121500000Y-95000000D01*
X121500000Y-100000000D02*
X122500000Y-101000000D01*
X122500000Y-101000000D02*
X146000000Y-101000000D01*
X146000000Y-101000000D02*
X150500000Y-96500000D01*
%TO.N,Net-(J1-Pin_1)*%
X152500000Y-96500000D02*
X160690000Y-96500000D01*
X160690000Y-96500000D02*
X161000000Y-96810000D01*
%TO.N,Net-(J1-Pin_2)*%
X152500000Y-94000000D02*
X160730000Y-94000000D01*
X160730000Y-94000000D02*
X161000000Y-94270000D01*
%TO.N,/M_A2*%
X141015000Y-93950000D02*
X141065000Y-94000000D01*
X141065000Y-94000000D02*
X150500000Y-94000000D01*
%TO.N,/M_B1*%
X150500000Y-91500000D02*
X141105000Y-91500000D01*
X141105000Y-91500000D02*
X141015000Y-91410000D01*
%TO.N,Net-(J1-Pin_3)*%
X152500000Y-91500000D02*
X160770000Y-91500000D01*
X160770000Y-91500000D02*
X161000000Y-91730000D01*
%TO.N,Net-(J1-Pin_4)*%
X152500000Y-89000000D02*
X153000000Y-89000000D01*
X153000000Y-89000000D02*
X153190000Y-89190000D01*
X153190000Y-89190000D02*
X161000000Y-89190000D01*
%TO.N,/M_B2*%
X141015000Y-88870000D02*
X141145000Y-89000000D01*
X141145000Y-89000000D02*
X150500000Y-89000000D01*
%TO.N,/BAT*%
X132425000Y-112500000D02*
X132425000Y-116000000D01*
X130855000Y-106650000D02*
X130855000Y-110930000D01*
X130855000Y-110930000D02*
X132425000Y-112500000D01*
%TO.N,/DISP_BTN*%
X118000000Y-103500000D02*
X118000000Y-112600000D01*
%TO.N,/LED*%
X116975000Y-81000000D02*
X125525000Y-81000000D01*
X125525000Y-81000000D02*
X125775000Y-81250000D01*
%TO.N,Net-(D1-A)*%
X116975000Y-83000000D02*
X116000000Y-83000000D01*
X116000000Y-83000000D02*
X113975000Y-80975000D01*
%TD*%
%TA.AperFunction,Conductor*%
%TO.N,GND*%
G36*
X162503032Y-76000648D02*
G01*
X162836929Y-76017052D01*
X162849037Y-76018245D01*
X162952146Y-76033539D01*
X163176699Y-76066849D01*
X163188617Y-76069219D01*
X163509951Y-76149709D01*
X163521588Y-76153240D01*
X163592806Y-76178722D01*
X163833467Y-76264832D01*
X163844688Y-76269479D01*
X164144163Y-76411120D01*
X164154871Y-76416844D01*
X164438988Y-76587137D01*
X164449106Y-76593897D01*
X164715170Y-76791224D01*
X164724576Y-76798944D01*
X164970013Y-77021395D01*
X164978604Y-77029986D01*
X165165755Y-77236475D01*
X165201055Y-77275423D01*
X165208775Y-77284829D01*
X165406102Y-77550893D01*
X165412862Y-77561011D01*
X165541776Y-77776092D01*
X165583148Y-77845116D01*
X165588885Y-77855848D01*
X165730514Y-78155297D01*
X165735170Y-78166540D01*
X165846759Y-78478411D01*
X165850292Y-78490055D01*
X165930777Y-78811369D01*
X165933151Y-78823305D01*
X165981754Y-79150962D01*
X165982947Y-79163071D01*
X165999351Y-79496966D01*
X165999500Y-79503051D01*
X165999500Y-115996948D01*
X165999351Y-116003033D01*
X165982947Y-116336928D01*
X165981754Y-116349037D01*
X165933151Y-116676694D01*
X165930777Y-116688630D01*
X165850292Y-117009944D01*
X165846759Y-117021588D01*
X165735170Y-117333459D01*
X165730514Y-117344702D01*
X165588885Y-117644151D01*
X165583148Y-117654883D01*
X165412862Y-117938988D01*
X165406102Y-117949106D01*
X165208775Y-118215170D01*
X165201055Y-118224576D01*
X164978611Y-118470006D01*
X164970006Y-118478611D01*
X164724576Y-118701055D01*
X164715170Y-118708775D01*
X164449106Y-118906102D01*
X164438988Y-118912862D01*
X164154883Y-119083148D01*
X164144151Y-119088885D01*
X163844702Y-119230514D01*
X163833459Y-119235170D01*
X163521588Y-119346759D01*
X163509944Y-119350292D01*
X163188630Y-119430777D01*
X163176694Y-119433151D01*
X162849037Y-119481754D01*
X162836928Y-119482947D01*
X162521989Y-119498419D01*
X162503031Y-119499351D01*
X162496949Y-119499500D01*
X113003051Y-119499500D01*
X112996968Y-119499351D01*
X112976900Y-119498365D01*
X112663071Y-119482947D01*
X112650962Y-119481754D01*
X112323305Y-119433151D01*
X112311369Y-119430777D01*
X111990055Y-119350292D01*
X111978411Y-119346759D01*
X111666540Y-119235170D01*
X111655301Y-119230515D01*
X111355844Y-119088883D01*
X111345121Y-119083150D01*
X111061011Y-118912862D01*
X111050893Y-118906102D01*
X110784829Y-118708775D01*
X110775423Y-118701055D01*
X110736475Y-118665755D01*
X110529986Y-118478604D01*
X110521395Y-118470013D01*
X110298944Y-118224576D01*
X110291224Y-118215170D01*
X110093897Y-117949106D01*
X110087137Y-117938988D01*
X109916844Y-117654871D01*
X109911120Y-117644163D01*
X109769479Y-117344688D01*
X109764829Y-117333459D01*
X109726200Y-117225499D01*
X109653240Y-117021588D01*
X109649707Y-117009944D01*
X109640958Y-116975015D01*
X109569219Y-116688617D01*
X109566848Y-116676694D01*
X109544342Y-116524973D01*
X109518245Y-116349037D01*
X109517052Y-116336927D01*
X109500649Y-116003032D01*
X109500500Y-115996948D01*
X109500500Y-113449986D01*
X112300001Y-113449986D01*
X112310494Y-113552697D01*
X112365641Y-113719119D01*
X112365643Y-113719124D01*
X112457684Y-113868345D01*
X112581654Y-113992315D01*
X112730875Y-114084356D01*
X112730880Y-114084358D01*
X112897302Y-114139505D01*
X112897309Y-114139506D01*
X113000019Y-114149999D01*
X113249999Y-114149999D01*
X113750000Y-114149999D01*
X113999972Y-114149999D01*
X113999986Y-114149998D01*
X114102697Y-114139505D01*
X114269119Y-114084358D01*
X114269124Y-114084356D01*
X114418345Y-113992315D01*
X114542315Y-113868345D01*
X114634356Y-113719124D01*
X114634358Y-113719119D01*
X114689505Y-113552697D01*
X114689506Y-113552690D01*
X114699999Y-113449986D01*
X114700000Y-113449973D01*
X114700000Y-112850000D01*
X113750000Y-112850000D01*
X113750000Y-114149999D01*
X113249999Y-114149999D01*
X113250000Y-114149998D01*
X113250000Y-112850000D01*
X112300001Y-112850000D01*
X112300001Y-113449986D01*
X109500500Y-113449986D01*
X109500500Y-111750013D01*
X112300000Y-111750013D01*
X112300000Y-112350000D01*
X113250000Y-112350000D01*
X113750000Y-112350000D01*
X114699999Y-112350000D01*
X114699999Y-111750028D01*
X114699998Y-111750013D01*
X114689505Y-111647302D01*
X114634358Y-111480880D01*
X114634356Y-111480875D01*
X114542315Y-111331654D01*
X114418345Y-111207684D01*
X114269124Y-111115643D01*
X114269119Y-111115641D01*
X114102697Y-111060494D01*
X114102690Y-111060493D01*
X113999986Y-111050000D01*
X113750000Y-111050000D01*
X113750000Y-112350000D01*
X113250000Y-112350000D01*
X113250000Y-111050000D01*
X113000029Y-111050000D01*
X113000012Y-111050001D01*
X112897302Y-111060494D01*
X112730880Y-111115641D01*
X112730875Y-111115643D01*
X112581654Y-111207684D01*
X112457684Y-111331654D01*
X112365643Y-111480875D01*
X112365641Y-111480880D01*
X112310494Y-111647302D01*
X112310493Y-111647309D01*
X112300000Y-111750013D01*
X109500500Y-111750013D01*
X109500500Y-104349986D01*
X112300001Y-104349986D01*
X112310494Y-104452697D01*
X112365641Y-104619119D01*
X112365643Y-104619124D01*
X112457684Y-104768345D01*
X112581654Y-104892315D01*
X112730875Y-104984356D01*
X112730880Y-104984358D01*
X112897302Y-105039505D01*
X112897309Y-105039506D01*
X113000019Y-105049999D01*
X113249999Y-105049999D01*
X113750000Y-105049999D01*
X113999972Y-105049999D01*
X113999986Y-105049998D01*
X114102697Y-105039505D01*
X114269119Y-104984358D01*
X114269124Y-104984356D01*
X114418345Y-104892315D01*
X114542315Y-104768345D01*
X114634356Y-104619124D01*
X114634358Y-104619119D01*
X114689505Y-104452697D01*
X114689506Y-104452690D01*
X114699999Y-104349986D01*
X114700000Y-104349973D01*
X114700000Y-103750000D01*
X113750000Y-103750000D01*
X113750000Y-105049999D01*
X113249999Y-105049999D01*
X113250000Y-105049998D01*
X113250000Y-103750000D01*
X112300001Y-103750000D01*
X112300001Y-104349986D01*
X109500500Y-104349986D01*
X109500500Y-102650013D01*
X112300000Y-102650013D01*
X112300000Y-103250000D01*
X113250000Y-103250000D01*
X113750000Y-103250000D01*
X114699999Y-103250000D01*
X114699999Y-102650028D01*
X114699998Y-102650013D01*
X114689505Y-102547302D01*
X114634358Y-102380880D01*
X114634356Y-102380875D01*
X114542315Y-102231654D01*
X114418345Y-102107684D01*
X114269124Y-102015643D01*
X114269119Y-102015641D01*
X114102697Y-101960494D01*
X114102690Y-101960493D01*
X113999986Y-101950000D01*
X113750000Y-101950000D01*
X113750000Y-103250000D01*
X113250000Y-103250000D01*
X113250000Y-101950000D01*
X113000029Y-101950000D01*
X113000012Y-101950001D01*
X112897302Y-101960494D01*
X112730880Y-102015641D01*
X112730875Y-102015643D01*
X112581654Y-102107684D01*
X112457684Y-102231654D01*
X112365643Y-102380875D01*
X112365641Y-102380880D01*
X112310494Y-102547302D01*
X112310493Y-102547309D01*
X112300000Y-102650013D01*
X109500500Y-102650013D01*
X109500500Y-83399986D01*
X112775001Y-83399986D01*
X112785494Y-83502697D01*
X112840641Y-83669119D01*
X112840643Y-83669124D01*
X112932684Y-83818345D01*
X113056654Y-83942315D01*
X113205875Y-84034356D01*
X113205880Y-84034358D01*
X113372302Y-84089505D01*
X113372309Y-84089506D01*
X113475019Y-84099999D01*
X113724999Y-84099999D01*
X113725000Y-84099998D01*
X113725000Y-83275000D01*
X112775001Y-83275000D01*
X112775001Y-83399986D01*
X109500500Y-83399986D01*
X109500500Y-80599983D01*
X112774500Y-80599983D01*
X112774500Y-81350001D01*
X112774501Y-81350019D01*
X112785000Y-81452796D01*
X112785001Y-81452799D01*
X112801569Y-81502796D01*
X112840186Y-81619334D01*
X112932288Y-81768656D01*
X113056344Y-81892712D01*
X113059628Y-81894737D01*
X113059653Y-81894753D01*
X113061445Y-81896746D01*
X113062011Y-81897193D01*
X113061934Y-81897289D01*
X113106379Y-81946699D01*
X113117603Y-82015661D01*
X113089761Y-82079744D01*
X113059665Y-82105826D01*
X113056660Y-82107679D01*
X113056655Y-82107683D01*
X112932684Y-82231654D01*
X112840643Y-82380875D01*
X112840641Y-82380880D01*
X112785494Y-82547302D01*
X112785493Y-82547309D01*
X112775000Y-82650013D01*
X112775000Y-82775000D01*
X113851000Y-82775000D01*
X113918039Y-82794685D01*
X113963794Y-82847489D01*
X113975000Y-82899000D01*
X113975000Y-83025000D01*
X114101000Y-83025000D01*
X114168039Y-83044685D01*
X114213794Y-83097489D01*
X114225000Y-83149000D01*
X114225000Y-84099999D01*
X114474972Y-84099999D01*
X114474986Y-84099998D01*
X114577697Y-84089505D01*
X114744119Y-84034358D01*
X114744124Y-84034356D01*
X114893345Y-83942315D01*
X115017315Y-83818345D01*
X115109356Y-83669124D01*
X115109358Y-83669119D01*
X115164505Y-83502697D01*
X115164506Y-83502690D01*
X115174999Y-83399986D01*
X115174999Y-83323598D01*
X115181237Y-83302351D01*
X115182817Y-83280262D01*
X115190889Y-83269479D01*
X115194683Y-83256558D01*
X115211418Y-83242056D01*
X115224689Y-83224329D01*
X115237306Y-83219622D01*
X115247486Y-83210802D01*
X115269406Y-83207650D01*
X115290153Y-83199912D01*
X115303313Y-83202774D01*
X115316644Y-83200858D01*
X115336787Y-83210056D01*
X115358426Y-83214764D01*
X115376149Y-83228031D01*
X115380201Y-83229882D01*
X115386680Y-83235915D01*
X115515139Y-83364374D01*
X115515149Y-83364385D01*
X115519479Y-83368715D01*
X115519480Y-83368716D01*
X115631284Y-83480520D01*
X115631286Y-83480521D01*
X115631287Y-83480522D01*
X115771373Y-83561400D01*
X115819588Y-83611966D01*
X115827078Y-83629780D01*
X115840116Y-83669124D01*
X115840186Y-83669334D01*
X115932288Y-83818656D01*
X116056344Y-83942712D01*
X116205666Y-84034814D01*
X116372203Y-84089999D01*
X116474991Y-84100500D01*
X117475008Y-84100499D01*
X117475016Y-84100498D01*
X117475019Y-84100498D01*
X117531302Y-84094748D01*
X117577797Y-84089999D01*
X117744334Y-84034814D01*
X117893656Y-83942712D01*
X118017712Y-83818656D01*
X118109814Y-83669334D01*
X118164999Y-83502797D01*
X118175500Y-83400009D01*
X118175499Y-82599992D01*
X118171923Y-82564989D01*
X118164999Y-82497203D01*
X118164998Y-82497200D01*
X118139311Y-82419682D01*
X118109814Y-82330666D01*
X118017712Y-82181344D01*
X117924049Y-82087681D01*
X117890564Y-82026358D01*
X117895548Y-81956666D01*
X117924049Y-81912319D01*
X117943657Y-81892711D01*
X118017712Y-81818656D01*
X118109814Y-81669334D01*
X118109814Y-81669332D01*
X118113605Y-81663187D01*
X118115399Y-81664293D01*
X118154687Y-81619663D01*
X118220908Y-81600500D01*
X122686785Y-81600500D01*
X122753824Y-81620185D01*
X122799579Y-81672989D01*
X122804716Y-81686182D01*
X122836297Y-81783380D01*
X122854272Y-81818657D01*
X122919513Y-81946699D01*
X122935595Y-81978260D01*
X123064142Y-82155193D01*
X123218806Y-82309857D01*
X123369969Y-82419682D01*
X123412635Y-82475011D01*
X123418614Y-82544625D01*
X123386009Y-82606420D01*
X123369969Y-82620318D01*
X123218806Y-82730142D01*
X123064142Y-82884806D01*
X122935595Y-83061739D01*
X122836298Y-83256616D01*
X122836297Y-83256619D01*
X122768714Y-83464623D01*
X122734500Y-83680638D01*
X122734500Y-83899361D01*
X122768714Y-84115376D01*
X122836297Y-84323380D01*
X122836298Y-84323383D01*
X122903782Y-84455825D01*
X122935461Y-84517998D01*
X122935595Y-84518260D01*
X123064142Y-84695193D01*
X123218806Y-84849857D01*
X123369969Y-84959682D01*
X123412635Y-85015011D01*
X123418614Y-85084625D01*
X123386009Y-85146420D01*
X123369969Y-85160318D01*
X123218806Y-85270142D01*
X123064142Y-85424806D01*
X122935595Y-85601739D01*
X122836298Y-85796616D01*
X122836297Y-85796619D01*
X122768714Y-86004623D01*
X122734500Y-86220638D01*
X122734500Y-86439361D01*
X122768714Y-86655376D01*
X122836297Y-86863380D01*
X122836298Y-86863383D01*
X122935595Y-87058260D01*
X123064142Y-87235193D01*
X123218806Y-87389857D01*
X123369969Y-87499682D01*
X123412635Y-87555011D01*
X123418614Y-87624625D01*
X123386009Y-87686420D01*
X123369969Y-87700318D01*
X123218806Y-87810142D01*
X123064142Y-87964806D01*
X122935595Y-88141739D01*
X122836298Y-88336616D01*
X122836297Y-88336619D01*
X122768714Y-88544623D01*
X122734500Y-88760638D01*
X122734500Y-88979361D01*
X122768714Y-89195376D01*
X122836297Y-89403380D01*
X122836298Y-89403383D01*
X122935595Y-89598260D01*
X123064146Y-89775197D01*
X123064558Y-89775680D01*
X123064657Y-89775901D01*
X123067011Y-89779141D01*
X123066330Y-89779635D01*
X123093131Y-89839440D01*
X123082697Y-89908527D01*
X123057952Y-89943896D01*
X117634221Y-95367628D01*
X117634214Y-95367635D01*
X117631286Y-95370564D01*
X117631284Y-95370566D01*
X117519480Y-95482370D01*
X117497607Y-95520256D01*
X117491543Y-95530758D01*
X117491542Y-95530760D01*
X117450149Y-95602455D01*
X117440423Y-95619301D01*
X117399499Y-95772029D01*
X117399499Y-95772031D01*
X117399499Y-95940132D01*
X117399500Y-95940145D01*
X117399500Y-101869699D01*
X117379815Y-101936738D01*
X117327011Y-101982493D01*
X117314507Y-101987403D01*
X117281962Y-101998188D01*
X117230668Y-102015185D01*
X117230663Y-102015187D01*
X117081342Y-102107289D01*
X116957289Y-102231342D01*
X116865187Y-102380663D01*
X116865185Y-102380668D01*
X116865115Y-102380880D01*
X116810001Y-102547203D01*
X116810001Y-102547204D01*
X116810000Y-102547204D01*
X116799500Y-102649983D01*
X116799500Y-104350001D01*
X116799501Y-104350018D01*
X116810000Y-104452796D01*
X116810001Y-104452799D01*
X116865115Y-104619119D01*
X116865186Y-104619334D01*
X116957288Y-104768656D01*
X117081344Y-104892712D01*
X117230666Y-104984814D01*
X117314505Y-105012595D01*
X117371948Y-105052366D01*
X117398772Y-105116882D01*
X117399500Y-105130300D01*
X117399500Y-110969699D01*
X117379815Y-111036738D01*
X117327011Y-111082493D01*
X117314507Y-111087403D01*
X117281962Y-111098188D01*
X117230668Y-111115185D01*
X117230663Y-111115187D01*
X117081342Y-111207289D01*
X116957289Y-111331342D01*
X116865187Y-111480663D01*
X116865185Y-111480668D01*
X116865115Y-111480880D01*
X116810001Y-111647203D01*
X116810001Y-111647204D01*
X116810000Y-111647204D01*
X116799500Y-111749983D01*
X116799500Y-113450001D01*
X116799501Y-113450018D01*
X116810000Y-113552796D01*
X116810001Y-113552799D01*
X116865185Y-113719331D01*
X116865187Y-113719336D01*
X116868680Y-113724999D01*
X116957288Y-113868656D01*
X117081344Y-113992712D01*
X117230666Y-114084814D01*
X117397203Y-114139999D01*
X117499991Y-114150500D01*
X118500008Y-114150499D01*
X118500016Y-114150498D01*
X118500019Y-114150498D01*
X118556302Y-114144748D01*
X118602797Y-114139999D01*
X118769334Y-114084814D01*
X118918656Y-113992712D01*
X119042712Y-113868656D01*
X119134814Y-113719334D01*
X119189999Y-113552797D01*
X119200500Y-113450009D01*
X119200499Y-111749992D01*
X119189999Y-111647203D01*
X119134814Y-111480666D01*
X119042712Y-111331344D01*
X118918656Y-111207288D01*
X118769334Y-111115186D01*
X118685495Y-111087404D01*
X118628051Y-111047632D01*
X118601228Y-110983116D01*
X118600500Y-110969699D01*
X118600500Y-106535646D01*
X129402000Y-106535646D01*
X129402000Y-106764353D01*
X129437778Y-106990246D01*
X129437778Y-106990249D01*
X129508450Y-107207755D01*
X129508452Y-107207758D01*
X129612283Y-107411538D01*
X129746714Y-107596566D01*
X129908434Y-107758286D01*
X130093462Y-107892717D01*
X130186795Y-107940272D01*
X130237590Y-107988245D01*
X130254500Y-108050756D01*
X130254500Y-110843330D01*
X130254499Y-110843348D01*
X130254499Y-111009054D01*
X130254498Y-111009054D01*
X130283059Y-111115643D01*
X130295423Y-111161785D01*
X130321695Y-111207289D01*
X130324358Y-111211900D01*
X130324359Y-111211904D01*
X130324360Y-111211904D01*
X130366846Y-111285494D01*
X130374479Y-111298714D01*
X130374481Y-111298717D01*
X130493349Y-111417585D01*
X130493355Y-111417590D01*
X131300681Y-112224916D01*
X131334166Y-112286239D01*
X131337000Y-112312597D01*
X131337000Y-113025001D01*
X131337001Y-113025019D01*
X131347500Y-113127796D01*
X131347501Y-113127799D01*
X131402615Y-113294119D01*
X131402686Y-113294334D01*
X131494788Y-113443656D01*
X131618844Y-113567712D01*
X131765597Y-113658229D01*
X131812321Y-113710175D01*
X131824500Y-113763767D01*
X131824500Y-114736232D01*
X131804815Y-114803271D01*
X131765598Y-114841769D01*
X131669923Y-114900781D01*
X131618842Y-114932289D01*
X131494789Y-115056342D01*
X131402687Y-115205663D01*
X131402685Y-115205668D01*
X131402615Y-115205880D01*
X131347501Y-115372203D01*
X131347501Y-115372204D01*
X131347500Y-115372204D01*
X131337000Y-115474983D01*
X131337000Y-116525001D01*
X131337001Y-116525019D01*
X131347500Y-116627796D01*
X131347501Y-116627799D01*
X131365700Y-116682719D01*
X131402686Y-116794334D01*
X131494788Y-116943656D01*
X131618844Y-117067712D01*
X131768166Y-117159814D01*
X131934703Y-117214999D01*
X132037491Y-117225500D01*
X132812508Y-117225499D01*
X132812516Y-117225498D01*
X132812519Y-117225498D01*
X132868802Y-117219748D01*
X132915297Y-117214999D01*
X133081834Y-117159814D01*
X133231156Y-117067712D01*
X133355212Y-116943656D01*
X133357252Y-116940347D01*
X133359245Y-116938555D01*
X133359693Y-116937989D01*
X133359789Y-116938065D01*
X133409194Y-116893623D01*
X133478156Y-116882395D01*
X133542240Y-116910234D01*
X133568329Y-116940339D01*
X133570181Y-116943341D01*
X133570183Y-116943344D01*
X133694154Y-117067315D01*
X133843375Y-117159356D01*
X133843380Y-117159358D01*
X134009802Y-117214505D01*
X134009809Y-117214506D01*
X134112519Y-117224999D01*
X134249999Y-117224999D01*
X134750000Y-117224999D01*
X134887472Y-117224999D01*
X134887486Y-117224998D01*
X134990197Y-117214505D01*
X135156619Y-117159358D01*
X135156624Y-117159356D01*
X135305845Y-117067315D01*
X135429815Y-116943345D01*
X135521856Y-116794124D01*
X135521858Y-116794119D01*
X135577005Y-116627697D01*
X135577006Y-116627690D01*
X135587499Y-116524986D01*
X135587500Y-116524973D01*
X135587500Y-116250000D01*
X134750000Y-116250000D01*
X134750000Y-117224999D01*
X134249999Y-117224999D01*
X134250000Y-117224998D01*
X134250000Y-115750000D01*
X134750000Y-115750000D01*
X135587499Y-115750000D01*
X135587499Y-115475028D01*
X135587498Y-115475013D01*
X135577005Y-115372302D01*
X135521858Y-115205880D01*
X135521856Y-115205875D01*
X135429815Y-115056654D01*
X135305845Y-114932684D01*
X135156624Y-114840643D01*
X135156619Y-114840641D01*
X134990197Y-114785494D01*
X134990190Y-114785493D01*
X134887486Y-114775000D01*
X134750000Y-114775000D01*
X134750000Y-115750000D01*
X134250000Y-115750000D01*
X134250000Y-114775000D01*
X134112527Y-114775000D01*
X134112512Y-114775001D01*
X134009802Y-114785494D01*
X133843380Y-114840641D01*
X133843375Y-114840643D01*
X133694154Y-114932684D01*
X133570183Y-115056655D01*
X133570179Y-115056660D01*
X133568326Y-115059665D01*
X133566518Y-115061290D01*
X133565702Y-115062323D01*
X133565525Y-115062183D01*
X133516374Y-115106385D01*
X133447411Y-115117601D01*
X133383331Y-115089752D01*
X133357253Y-115059653D01*
X133357237Y-115059628D01*
X133355212Y-115056344D01*
X133231156Y-114932288D01*
X133084402Y-114841770D01*
X133037679Y-114789823D01*
X133025500Y-114736232D01*
X133025500Y-113763767D01*
X133045185Y-113696728D01*
X133084401Y-113658230D01*
X133231156Y-113567712D01*
X133355212Y-113443656D01*
X133357252Y-113440347D01*
X133359245Y-113438555D01*
X133359693Y-113437989D01*
X133359789Y-113438065D01*
X133409194Y-113393623D01*
X133478156Y-113382395D01*
X133542240Y-113410234D01*
X133568329Y-113440339D01*
X133570181Y-113443341D01*
X133570183Y-113443344D01*
X133694154Y-113567315D01*
X133843375Y-113659356D01*
X133843380Y-113659358D01*
X134009802Y-113714505D01*
X134009809Y-113714506D01*
X134112519Y-113724999D01*
X134249999Y-113724999D01*
X134750000Y-113724999D01*
X134887472Y-113724999D01*
X134887486Y-113724998D01*
X134990197Y-113714505D01*
X135156619Y-113659358D01*
X135156624Y-113659356D01*
X135305845Y-113567315D01*
X135429815Y-113443345D01*
X135521856Y-113294124D01*
X135521858Y-113294119D01*
X135577005Y-113127697D01*
X135577006Y-113127690D01*
X135587499Y-113024986D01*
X135587500Y-113024973D01*
X135587500Y-112750000D01*
X134750000Y-112750000D01*
X134750000Y-113724999D01*
X134249999Y-113724999D01*
X134250000Y-113724998D01*
X134250000Y-112250000D01*
X134750000Y-112250000D01*
X135587499Y-112250000D01*
X135587499Y-111975028D01*
X135587498Y-111975013D01*
X135577005Y-111872302D01*
X135521858Y-111705880D01*
X135521856Y-111705875D01*
X135429815Y-111556654D01*
X135305845Y-111432684D01*
X135156624Y-111340643D01*
X135156619Y-111340641D01*
X134990197Y-111285494D01*
X134990190Y-111285493D01*
X134887486Y-111275000D01*
X134750000Y-111275000D01*
X134750000Y-112250000D01*
X134250000Y-112250000D01*
X134250000Y-111275000D01*
X134112527Y-111275000D01*
X134112512Y-111275001D01*
X134009802Y-111285494D01*
X133843380Y-111340641D01*
X133843375Y-111340643D01*
X133694154Y-111432684D01*
X133570183Y-111556655D01*
X133570179Y-111556660D01*
X133568326Y-111559665D01*
X133566518Y-111561290D01*
X133565702Y-111562323D01*
X133565525Y-111562183D01*
X133516374Y-111606385D01*
X133447411Y-111617601D01*
X133383331Y-111589752D01*
X133357253Y-111559653D01*
X133357237Y-111559628D01*
X133355212Y-111556344D01*
X133231156Y-111432288D01*
X133081834Y-111340186D01*
X132915297Y-111285001D01*
X132915295Y-111285000D01*
X132812516Y-111274500D01*
X132812509Y-111274500D01*
X132100097Y-111274500D01*
X132033058Y-111254815D01*
X132012416Y-111238181D01*
X131491819Y-110717584D01*
X131458334Y-110656261D01*
X131455500Y-110629903D01*
X131455500Y-108050756D01*
X131475185Y-107983717D01*
X131523204Y-107940272D01*
X131616538Y-107892717D01*
X131801566Y-107758286D01*
X131963286Y-107596566D01*
X132097717Y-107411538D01*
X132201548Y-107207758D01*
X132272222Y-106990245D01*
X132308000Y-106764354D01*
X132308000Y-106535686D01*
X134482500Y-106535686D01*
X134482500Y-106764313D01*
X134518265Y-106990124D01*
X134518265Y-106990125D01*
X134588917Y-107207568D01*
X134692711Y-107411276D01*
X134746347Y-107485098D01*
X134746347Y-107485099D01*
X135445504Y-106785941D01*
X135461619Y-106846081D01*
X135528498Y-106961920D01*
X135623080Y-107056502D01*
X135738919Y-107123381D01*
X135799057Y-107139494D01*
X135099899Y-107838651D01*
X135173725Y-107892288D01*
X135173731Y-107892292D01*
X135377431Y-107996082D01*
X135594875Y-108066734D01*
X135820687Y-108102500D01*
X136049313Y-108102500D01*
X136275124Y-108066734D01*
X136275125Y-108066734D01*
X136492568Y-107996082D01*
X136696276Y-107892288D01*
X136770098Y-107838651D01*
X136070942Y-107139495D01*
X136131081Y-107123381D01*
X136246920Y-107056502D01*
X136341502Y-106961920D01*
X136408381Y-106846081D01*
X136424495Y-106785942D01*
X137123651Y-107485098D01*
X137177288Y-107411276D01*
X137281082Y-107207568D01*
X137351734Y-106990125D01*
X137351734Y-106990124D01*
X137387500Y-106764313D01*
X137387500Y-106535686D01*
X137351734Y-106309875D01*
X137351734Y-106309874D01*
X137281082Y-106092431D01*
X137177292Y-105888731D01*
X137177288Y-105888725D01*
X137123651Y-105814900D01*
X137123651Y-105814899D01*
X136424494Y-106514056D01*
X136408381Y-106453919D01*
X136341502Y-106338080D01*
X136246920Y-106243498D01*
X136131081Y-106176619D01*
X136070940Y-106160504D01*
X136770099Y-105461347D01*
X136696276Y-105407711D01*
X136492568Y-105303917D01*
X136275124Y-105233265D01*
X136049313Y-105197500D01*
X135820687Y-105197500D01*
X135594875Y-105233265D01*
X135594874Y-105233265D01*
X135377431Y-105303917D01*
X135173719Y-105407713D01*
X135099900Y-105461346D01*
X135099899Y-105461347D01*
X135799057Y-106160504D01*
X135738919Y-106176619D01*
X135623080Y-106243498D01*
X135528498Y-106338080D01*
X135461619Y-106453919D01*
X135445504Y-106514057D01*
X134746347Y-105814899D01*
X134746346Y-105814900D01*
X134692713Y-105888719D01*
X134588917Y-106092431D01*
X134518265Y-106309874D01*
X134518265Y-106309875D01*
X134482500Y-106535686D01*
X132308000Y-106535686D01*
X132308000Y-106535646D01*
X132272222Y-106309755D01*
X132272221Y-106309751D01*
X132272221Y-106309750D01*
X132201549Y-106092244D01*
X132097851Y-105888725D01*
X132097717Y-105888462D01*
X131963286Y-105703434D01*
X131801566Y-105541714D01*
X131616538Y-105407283D01*
X131412755Y-105303450D01*
X131195248Y-105232778D01*
X131025826Y-105205944D01*
X130969354Y-105197000D01*
X130740646Y-105197000D01*
X130665349Y-105208926D01*
X130514753Y-105232778D01*
X130514750Y-105232778D01*
X130297244Y-105303450D01*
X130093461Y-105407283D01*
X130019051Y-105461346D01*
X129908434Y-105541714D01*
X129908432Y-105541716D01*
X129908431Y-105541716D01*
X129746716Y-105703431D01*
X129746716Y-105703432D01*
X129746714Y-105703434D01*
X129688980Y-105782896D01*
X129612283Y-105888461D01*
X129508450Y-106092244D01*
X129437778Y-106309750D01*
X129437778Y-106309753D01*
X129402000Y-106535646D01*
X118600500Y-106535646D01*
X118600500Y-105130300D01*
X118620185Y-105063261D01*
X118672989Y-105017506D01*
X118685482Y-105012599D01*
X118769334Y-104984814D01*
X118918656Y-104892712D01*
X119042712Y-104768656D01*
X119134814Y-104619334D01*
X119189999Y-104452797D01*
X119200500Y-104350009D01*
X119200499Y-102649992D01*
X119189999Y-102547203D01*
X119134814Y-102380666D01*
X119042712Y-102231344D01*
X118918656Y-102107288D01*
X118769334Y-102015186D01*
X118685495Y-101987404D01*
X118628051Y-101947632D01*
X118601228Y-101883116D01*
X118600500Y-101869699D01*
X118600500Y-96151183D01*
X118620185Y-96084144D01*
X118636819Y-96063502D01*
X120640965Y-94059356D01*
X122688830Y-92011490D01*
X122750151Y-91978007D01*
X122819843Y-91982991D01*
X122875776Y-92024863D01*
X122886993Y-92042877D01*
X122935593Y-92138258D01*
X123064142Y-92315193D01*
X123218806Y-92469857D01*
X123369969Y-92579682D01*
X123412635Y-92635011D01*
X123418614Y-92704625D01*
X123386009Y-92766420D01*
X123369969Y-92780318D01*
X123218806Y-92890142D01*
X123064142Y-93044806D01*
X122935595Y-93221739D01*
X122904995Y-93281795D01*
X122857020Y-93332591D01*
X122794510Y-93349500D01*
X122629057Y-93349500D01*
X122470942Y-93349500D01*
X122318215Y-93390423D01*
X122318214Y-93390423D01*
X122318212Y-93390424D01*
X122318209Y-93390425D01*
X122272847Y-93416616D01*
X122272845Y-93416617D01*
X122181290Y-93469475D01*
X122181282Y-93469481D01*
X121019481Y-94631282D01*
X121019479Y-94631285D01*
X120998165Y-94668203D01*
X120987786Y-94686181D01*
X120969361Y-94718094D01*
X120969359Y-94718096D01*
X120940425Y-94768209D01*
X120940424Y-94768210D01*
X120935010Y-94788416D01*
X120899499Y-94920943D01*
X120899499Y-94920945D01*
X120899499Y-95089046D01*
X120899500Y-95089059D01*
X120899500Y-99913330D01*
X120899499Y-99913348D01*
X120899499Y-100079054D01*
X120899498Y-100079054D01*
X120940423Y-100231785D01*
X120969358Y-100281900D01*
X120969359Y-100281904D01*
X120969360Y-100281904D01*
X121016284Y-100363181D01*
X121019479Y-100368714D01*
X121019481Y-100368717D01*
X121138349Y-100487585D01*
X121138354Y-100487589D01*
X122131284Y-101480520D01*
X122131286Y-101480521D01*
X122131290Y-101480524D01*
X122268209Y-101559573D01*
X122268216Y-101559577D01*
X122420943Y-101600501D01*
X122420945Y-101600501D01*
X122586654Y-101600501D01*
X122586670Y-101600500D01*
X145913331Y-101600500D01*
X145913347Y-101600501D01*
X145920943Y-101600501D01*
X146079054Y-101600501D01*
X146079057Y-101600501D01*
X146231785Y-101559577D01*
X146281904Y-101530639D01*
X146368716Y-101480520D01*
X146480520Y-101368716D01*
X146480520Y-101368714D01*
X146490728Y-101358507D01*
X146490730Y-101358504D01*
X150112416Y-97736818D01*
X150173739Y-97703333D01*
X150200097Y-97700499D01*
X150900002Y-97700499D01*
X150900008Y-97700499D01*
X151002797Y-97689999D01*
X151169334Y-97634814D01*
X151318656Y-97542712D01*
X151412319Y-97449049D01*
X151473642Y-97415564D01*
X151543334Y-97420548D01*
X151587681Y-97449049D01*
X151681344Y-97542712D01*
X151830666Y-97634814D01*
X151997203Y-97689999D01*
X152099991Y-97700500D01*
X152900008Y-97700499D01*
X152900016Y-97700498D01*
X152900019Y-97700498D01*
X152956302Y-97694748D01*
X153002797Y-97689999D01*
X153169334Y-97634814D01*
X153318656Y-97542712D01*
X153442712Y-97418656D01*
X153534814Y-97269334D01*
X153562595Y-97185495D01*
X153602368Y-97128051D01*
X153666884Y-97101228D01*
X153680301Y-97100500D01*
X159525501Y-97100500D01*
X159592540Y-97120185D01*
X159638295Y-97172989D01*
X159649501Y-97224500D01*
X159649501Y-97707876D01*
X159655908Y-97767483D01*
X159706202Y-97902328D01*
X159706206Y-97902335D01*
X159792452Y-98017544D01*
X159792455Y-98017547D01*
X159907664Y-98103793D01*
X159907671Y-98103797D01*
X160042517Y-98154091D01*
X160042516Y-98154091D01*
X160049444Y-98154835D01*
X160102127Y-98160500D01*
X161897872Y-98160499D01*
X161957483Y-98154091D01*
X162092331Y-98103796D01*
X162207546Y-98017546D01*
X162293796Y-97902331D01*
X162344091Y-97767483D01*
X162350500Y-97707873D01*
X162350499Y-95912128D01*
X162344091Y-95852517D01*
X162298644Y-95730668D01*
X162293797Y-95717671D01*
X162293793Y-95717664D01*
X162207547Y-95602455D01*
X162207544Y-95602452D01*
X162092335Y-95516206D01*
X162092328Y-95516202D01*
X161960917Y-95467189D01*
X161904983Y-95425318D01*
X161880566Y-95359853D01*
X161895418Y-95291580D01*
X161916563Y-95263332D01*
X162030104Y-95149792D01*
X162081494Y-95079060D01*
X162155048Y-94977820D01*
X162155047Y-94977820D01*
X162155051Y-94977816D01*
X162251557Y-94788412D01*
X162317246Y-94586243D01*
X162350500Y-94376287D01*
X162350500Y-94163713D01*
X162317246Y-93953757D01*
X162251557Y-93751588D01*
X162155051Y-93562184D01*
X162155049Y-93562181D01*
X162155048Y-93562179D01*
X162030109Y-93390213D01*
X161879786Y-93239890D01*
X161707820Y-93114951D01*
X161707115Y-93114591D01*
X161699054Y-93110485D01*
X161648259Y-93062512D01*
X161631463Y-92994692D01*
X161653999Y-92928556D01*
X161699054Y-92889515D01*
X161707816Y-92885051D01*
X161739016Y-92862383D01*
X161879786Y-92760109D01*
X161879788Y-92760106D01*
X161879792Y-92760104D01*
X162030104Y-92609792D01*
X162030106Y-92609788D01*
X162030109Y-92609786D01*
X162155048Y-92437820D01*
X162155047Y-92437820D01*
X162155051Y-92437816D01*
X162251557Y-92248412D01*
X162317246Y-92046243D01*
X162350500Y-91836287D01*
X162350500Y-91623713D01*
X162317246Y-91413757D01*
X162251557Y-91211588D01*
X162155051Y-91022184D01*
X162155049Y-91022181D01*
X162155048Y-91022179D01*
X162030109Y-90850213D01*
X161879786Y-90699890D01*
X161707820Y-90574951D01*
X161707115Y-90574591D01*
X161699054Y-90570485D01*
X161648259Y-90522512D01*
X161631463Y-90454692D01*
X161653999Y-90388556D01*
X161699054Y-90349515D01*
X161707816Y-90345051D01*
X161770512Y-90299500D01*
X161879786Y-90220109D01*
X161879788Y-90220106D01*
X161879792Y-90220104D01*
X162030104Y-90069792D01*
X162030106Y-90069788D01*
X162030109Y-90069786D01*
X162155048Y-89897820D01*
X162155047Y-89897820D01*
X162155051Y-89897816D01*
X162251557Y-89708412D01*
X162317246Y-89506243D01*
X162350500Y-89296287D01*
X162350500Y-89083713D01*
X162317246Y-88873757D01*
X162251557Y-88671588D01*
X162155051Y-88482184D01*
X162155049Y-88482181D01*
X162155048Y-88482179D01*
X162030109Y-88310213D01*
X161879786Y-88159890D01*
X161707820Y-88034951D01*
X161518414Y-87938444D01*
X161518413Y-87938443D01*
X161518412Y-87938443D01*
X161316243Y-87872754D01*
X161316241Y-87872753D01*
X161316240Y-87872753D01*
X161154957Y-87847208D01*
X161106287Y-87839500D01*
X160893713Y-87839500D01*
X160845042Y-87847208D01*
X160683760Y-87872753D01*
X160481585Y-87938444D01*
X160292179Y-88034951D01*
X160120213Y-88159890D01*
X159969890Y-88310213D01*
X159844948Y-88482184D01*
X159844947Y-88482185D01*
X159824765Y-88521795D01*
X159776791Y-88572591D01*
X159714281Y-88589500D01*
X153721621Y-88589500D01*
X153654582Y-88569815D01*
X153608827Y-88517011D01*
X153598263Y-88478101D01*
X153589999Y-88397203D01*
X153589998Y-88397200D01*
X153561173Y-88310213D01*
X153534814Y-88230666D01*
X153442712Y-88081344D01*
X153318656Y-87957288D01*
X153169334Y-87865186D01*
X153002797Y-87810001D01*
X153002795Y-87810000D01*
X152900010Y-87799500D01*
X152099998Y-87799500D01*
X152099980Y-87799501D01*
X151997203Y-87810000D01*
X151997200Y-87810001D01*
X151830668Y-87865185D01*
X151830663Y-87865187D01*
X151681342Y-87957289D01*
X151587681Y-88050951D01*
X151526358Y-88084436D01*
X151456666Y-88079452D01*
X151412319Y-88050951D01*
X151318657Y-87957289D01*
X151318656Y-87957288D01*
X151169334Y-87865186D01*
X151002797Y-87810001D01*
X151002795Y-87810000D01*
X150900010Y-87799500D01*
X150099998Y-87799500D01*
X150099980Y-87799501D01*
X149997203Y-87810000D01*
X149997200Y-87810001D01*
X149830668Y-87865185D01*
X149830663Y-87865187D01*
X149681342Y-87957289D01*
X149557289Y-88081342D01*
X149465187Y-88230663D01*
X149465186Y-88230666D01*
X149438829Y-88310208D01*
X149437405Y-88314504D01*
X149397632Y-88371949D01*
X149333116Y-88398772D01*
X149319699Y-88399500D01*
X144061729Y-88399500D01*
X143994690Y-88379815D01*
X143951244Y-88331795D01*
X143940245Y-88310208D01*
X143854407Y-88141743D01*
X143846147Y-88130374D01*
X143725857Y-87964806D01*
X143571199Y-87810148D01*
X143570995Y-87810000D01*
X143420028Y-87700316D01*
X143377364Y-87644989D01*
X143371385Y-87575376D01*
X143403990Y-87513580D01*
X143420023Y-87499686D01*
X143571199Y-87389852D01*
X143725852Y-87235199D01*
X143725854Y-87235195D01*
X143725857Y-87235193D01*
X143782229Y-87157601D01*
X143854407Y-87058257D01*
X143953701Y-86863383D01*
X144021286Y-86655375D01*
X144038912Y-86544082D01*
X144055500Y-86439361D01*
X144055500Y-86220638D01*
X144035595Y-86094971D01*
X144021286Y-86004625D01*
X143953701Y-85796617D01*
X143953701Y-85796616D01*
X143919315Y-85729132D01*
X143854407Y-85601743D01*
X143846147Y-85590374D01*
X143725857Y-85424806D01*
X143571197Y-85270146D01*
X143571192Y-85270142D01*
X143419605Y-85160008D01*
X143376939Y-85104678D01*
X143370960Y-85035065D01*
X143403565Y-84973270D01*
X143419605Y-84959371D01*
X143570873Y-84849469D01*
X143725471Y-84694871D01*
X143725475Y-84694866D01*
X143853976Y-84517998D01*
X143953237Y-84323191D01*
X143953238Y-84323188D01*
X144020798Y-84115258D01*
X144032718Y-84040000D01*
X141457251Y-84040000D01*
X141488381Y-83986081D01*
X141523000Y-83856880D01*
X141523000Y-83723120D01*
X141488381Y-83593919D01*
X141457251Y-83540000D01*
X144032718Y-83540000D01*
X144020798Y-83464741D01*
X143953238Y-83256811D01*
X143953237Y-83256808D01*
X143853976Y-83062001D01*
X143725475Y-82885133D01*
X143725471Y-82885128D01*
X143570871Y-82730528D01*
X143570866Y-82730524D01*
X143419605Y-82620627D01*
X143376939Y-82565297D01*
X143370960Y-82495684D01*
X143403565Y-82433889D01*
X143419599Y-82419994D01*
X143571199Y-82309852D01*
X143725852Y-82155199D01*
X143725854Y-82155195D01*
X143725857Y-82155193D01*
X143809549Y-82039999D01*
X143854407Y-81978257D01*
X143953701Y-81783383D01*
X144021286Y-81575375D01*
X144040700Y-81452799D01*
X144055500Y-81359361D01*
X144055500Y-81140638D01*
X144035595Y-81014971D01*
X144021286Y-80924625D01*
X143953701Y-80716617D01*
X143953701Y-80716616D01*
X143894277Y-80599992D01*
X143854407Y-80521743D01*
X143846147Y-80510374D01*
X143725857Y-80344806D01*
X143571193Y-80190142D01*
X143394260Y-80061595D01*
X143394259Y-80061594D01*
X143394257Y-80061593D01*
X143331825Y-80029782D01*
X143199383Y-79962298D01*
X143199380Y-79962297D01*
X142991376Y-79894714D01*
X142775361Y-79860500D01*
X142775356Y-79860500D01*
X140778644Y-79860500D01*
X140778639Y-79860500D01*
X140562623Y-79894714D01*
X140354619Y-79962297D01*
X140354616Y-79962298D01*
X140159739Y-80061595D01*
X139982806Y-80190142D01*
X139828142Y-80344806D01*
X139699595Y-80521739D01*
X139600298Y-80716616D01*
X139600297Y-80716619D01*
X139532714Y-80924623D01*
X139498500Y-81140638D01*
X139498500Y-81359361D01*
X139532714Y-81575376D01*
X139600297Y-81783380D01*
X139600298Y-81783383D01*
X139658337Y-81897289D01*
X139683513Y-81946699D01*
X139699595Y-81978260D01*
X139828142Y-82155193D01*
X139982802Y-82309853D01*
X139982807Y-82309857D01*
X140134394Y-82419991D01*
X140177060Y-82475320D01*
X140183039Y-82544934D01*
X140150434Y-82606729D01*
X140134394Y-82620627D01*
X139983133Y-82730524D01*
X139983128Y-82730528D01*
X139828528Y-82885128D01*
X139828524Y-82885133D01*
X139700023Y-83062001D01*
X139600762Y-83256808D01*
X139600761Y-83256811D01*
X139533201Y-83464741D01*
X139521282Y-83540000D01*
X140572749Y-83540000D01*
X140541619Y-83593919D01*
X140507000Y-83723120D01*
X140507000Y-83856880D01*
X140541619Y-83986081D01*
X140572749Y-84040000D01*
X139521282Y-84040000D01*
X139533201Y-84115258D01*
X139600761Y-84323188D01*
X139600762Y-84323191D01*
X139700023Y-84517998D01*
X139828524Y-84694866D01*
X139828528Y-84694871D01*
X139983128Y-84849471D01*
X139983133Y-84849475D01*
X140134394Y-84959372D01*
X140177060Y-85014701D01*
X140183039Y-85084315D01*
X140150434Y-85146110D01*
X140134394Y-85160008D01*
X139982807Y-85270142D01*
X139982802Y-85270146D01*
X139828142Y-85424806D01*
X139699595Y-85601739D01*
X139600298Y-85796616D01*
X139600297Y-85796619D01*
X139532714Y-86004623D01*
X139498500Y-86220638D01*
X139498500Y-86439361D01*
X139532714Y-86655376D01*
X139600297Y-86863380D01*
X139600298Y-86863383D01*
X139699595Y-87058260D01*
X139828142Y-87235193D01*
X139982806Y-87389857D01*
X140133969Y-87499682D01*
X140176635Y-87555011D01*
X140182614Y-87624625D01*
X140150009Y-87686420D01*
X140133969Y-87700318D01*
X139982806Y-87810142D01*
X139828142Y-87964806D01*
X139699595Y-88141739D01*
X139600298Y-88336616D01*
X139600297Y-88336619D01*
X139532714Y-88544623D01*
X139498500Y-88760638D01*
X139498500Y-88979361D01*
X139532714Y-89195376D01*
X139600297Y-89403380D01*
X139600298Y-89403383D01*
X139699595Y-89598260D01*
X139828142Y-89775193D01*
X139982806Y-89929857D01*
X140133969Y-90039682D01*
X140176635Y-90095011D01*
X140182614Y-90164625D01*
X140150009Y-90226420D01*
X140133969Y-90240318D01*
X139982806Y-90350142D01*
X139828142Y-90504806D01*
X139699595Y-90681739D01*
X139600298Y-90876616D01*
X139600297Y-90876619D01*
X139532714Y-91084623D01*
X139498500Y-91300638D01*
X139498500Y-91519361D01*
X139532714Y-91735376D01*
X139600297Y-91943380D01*
X139600298Y-91943383D01*
X139699595Y-92138260D01*
X139828142Y-92315193D01*
X139982806Y-92469857D01*
X140133969Y-92579682D01*
X140176635Y-92635011D01*
X140182614Y-92704625D01*
X140150009Y-92766420D01*
X140133969Y-92780318D01*
X139982806Y-92890142D01*
X139828142Y-93044806D01*
X139699595Y-93221739D01*
X139600299Y-93416616D01*
X139532714Y-93624623D01*
X139498500Y-93840638D01*
X139498500Y-94059361D01*
X139532714Y-94275376D01*
X139600297Y-94483380D01*
X139600298Y-94483383D01*
X139660344Y-94601228D01*
X139694470Y-94668203D01*
X139699595Y-94678260D01*
X139828142Y-94855193D01*
X139982806Y-95009857D01*
X140133969Y-95119682D01*
X140176635Y-95175011D01*
X140182614Y-95244625D01*
X140150009Y-95306420D01*
X140133969Y-95320318D01*
X139982806Y-95430142D01*
X139828142Y-95584806D01*
X139699595Y-95761739D01*
X139600298Y-95956616D01*
X139600297Y-95956619D01*
X139532714Y-96164623D01*
X139498500Y-96380638D01*
X139498500Y-96599361D01*
X139532714Y-96815376D01*
X139600297Y-97023380D01*
X139600298Y-97023383D01*
X139649622Y-97120185D01*
X139682900Y-97185496D01*
X139699595Y-97218260D01*
X139828142Y-97395193D01*
X139982806Y-97549857D01*
X140148374Y-97670147D01*
X140159743Y-97678407D01*
X140274380Y-97736818D01*
X140354616Y-97777701D01*
X140354619Y-97777702D01*
X140458621Y-97811493D01*
X140562625Y-97845286D01*
X140662672Y-97861132D01*
X140778639Y-97879500D01*
X140778644Y-97879500D01*
X142775361Y-97879500D01*
X142880082Y-97862912D01*
X142991375Y-97845286D01*
X143199383Y-97777701D01*
X143394257Y-97678407D01*
X143493601Y-97606229D01*
X143571193Y-97549857D01*
X143571195Y-97549854D01*
X143571199Y-97549852D01*
X143725852Y-97395199D01*
X143725854Y-97395195D01*
X143725857Y-97395193D01*
X143817296Y-97269336D01*
X143854407Y-97218257D01*
X143953701Y-97023383D01*
X144021286Y-96815375D01*
X144039575Y-96699902D01*
X144055500Y-96599361D01*
X144055500Y-96380638D01*
X144035595Y-96254971D01*
X144021286Y-96164625D01*
X143953701Y-95956617D01*
X143953701Y-95956616D01*
X143900658Y-95852516D01*
X143854407Y-95761743D01*
X143831830Y-95730668D01*
X143725857Y-95584806D01*
X143571199Y-95430148D01*
X143564551Y-95425318D01*
X143420028Y-95320316D01*
X143377364Y-95264989D01*
X143371385Y-95195376D01*
X143403990Y-95133580D01*
X143420023Y-95119686D01*
X143571199Y-95009852D01*
X143725852Y-94855199D01*
X143725854Y-94855195D01*
X143725857Y-94855193D01*
X143854405Y-94678260D01*
X143859530Y-94668203D01*
X143907506Y-94617408D01*
X143970014Y-94600500D01*
X149319699Y-94600500D01*
X149386738Y-94620185D01*
X149432493Y-94672989D01*
X149437403Y-94685492D01*
X149464439Y-94767082D01*
X149465185Y-94769331D01*
X149465187Y-94769336D01*
X149476956Y-94788416D01*
X149557288Y-94918656D01*
X149681344Y-95042712D01*
X149830666Y-95134814D01*
X149830667Y-95134814D01*
X149830670Y-95134816D01*
X149836677Y-95137617D01*
X149889117Y-95183788D01*
X149908271Y-95250981D01*
X149888057Y-95317862D01*
X149836677Y-95362383D01*
X149830670Y-95365183D01*
X149681342Y-95457289D01*
X149557289Y-95581342D01*
X149465187Y-95730663D01*
X149465185Y-95730668D01*
X149451479Y-95772031D01*
X149410001Y-95897203D01*
X149410001Y-95897204D01*
X149410000Y-95897204D01*
X149399500Y-95999983D01*
X149399500Y-96699902D01*
X149379815Y-96766941D01*
X149363181Y-96787583D01*
X145787584Y-100363181D01*
X145726261Y-100396666D01*
X145699903Y-100399500D01*
X122800098Y-100399500D01*
X122733059Y-100379815D01*
X122712417Y-100363181D01*
X122136819Y-99787583D01*
X122103334Y-99726260D01*
X122100500Y-99699902D01*
X122100500Y-95300097D01*
X122120185Y-95233058D01*
X122136819Y-95212416D01*
X122430579Y-94918656D01*
X122725593Y-94623641D01*
X122786914Y-94590158D01*
X122856605Y-94595142D01*
X122912539Y-94637013D01*
X122923755Y-94655026D01*
X122935593Y-94678258D01*
X123064142Y-94855193D01*
X123218806Y-95009857D01*
X123369969Y-95119682D01*
X123412635Y-95175011D01*
X123418614Y-95244625D01*
X123386009Y-95306420D01*
X123369969Y-95320318D01*
X123218806Y-95430142D01*
X123064142Y-95584806D01*
X122935595Y-95761739D01*
X122836298Y-95956616D01*
X122836297Y-95956619D01*
X122768714Y-96164623D01*
X122734500Y-96380638D01*
X122734500Y-96599361D01*
X122768714Y-96815376D01*
X122836297Y-97023380D01*
X122836298Y-97023383D01*
X122885622Y-97120185D01*
X122918900Y-97185496D01*
X122935595Y-97218260D01*
X123064142Y-97395193D01*
X123218806Y-97549857D01*
X123384374Y-97670147D01*
X123395743Y-97678407D01*
X123510380Y-97736818D01*
X123590616Y-97777701D01*
X123590619Y-97777702D01*
X123694621Y-97811493D01*
X123798625Y-97845286D01*
X123898672Y-97861132D01*
X124014639Y-97879500D01*
X124014644Y-97879500D01*
X126011361Y-97879500D01*
X126116082Y-97862912D01*
X126227375Y-97845286D01*
X126435383Y-97777701D01*
X126630257Y-97678407D01*
X126729601Y-97606229D01*
X126807193Y-97549857D01*
X126807195Y-97549854D01*
X126807199Y-97549852D01*
X126961852Y-97395199D01*
X126961854Y-97395195D01*
X126961857Y-97395193D01*
X127053296Y-97269336D01*
X127090407Y-97218257D01*
X127189701Y-97023383D01*
X127257286Y-96815375D01*
X127275575Y-96699902D01*
X127291500Y-96599361D01*
X127291500Y-96380638D01*
X127271595Y-96254971D01*
X127257286Y-96164625D01*
X127189701Y-95956617D01*
X127189701Y-95956616D01*
X127136658Y-95852516D01*
X127090407Y-95761743D01*
X127067830Y-95730668D01*
X126961857Y-95584806D01*
X126807199Y-95430148D01*
X126800551Y-95425318D01*
X126656028Y-95320316D01*
X126613364Y-95264989D01*
X126607385Y-95195376D01*
X126639990Y-95133580D01*
X126656023Y-95119686D01*
X126807199Y-95009852D01*
X126961852Y-94855199D01*
X126961854Y-94855195D01*
X126961857Y-94855193D01*
X127061463Y-94718095D01*
X127090407Y-94678257D01*
X127189701Y-94483383D01*
X127257286Y-94275375D01*
X127274912Y-94164082D01*
X127291500Y-94059361D01*
X127291500Y-93840638D01*
X127271595Y-93714971D01*
X127257286Y-93624625D01*
X127206877Y-93469480D01*
X127189701Y-93416616D01*
X127099653Y-93239890D01*
X127090407Y-93221743D01*
X127012819Y-93114951D01*
X126961857Y-93044806D01*
X126807199Y-92890148D01*
X126806326Y-92889514D01*
X126656028Y-92780316D01*
X126613364Y-92724989D01*
X126607385Y-92655376D01*
X126639990Y-92593580D01*
X126656023Y-92579686D01*
X126807199Y-92469852D01*
X126961852Y-92315199D01*
X126961854Y-92315195D01*
X126961857Y-92315193D01*
X127056086Y-92185496D01*
X127090407Y-92138257D01*
X127189701Y-91943383D01*
X127257286Y-91735375D01*
X127274912Y-91624082D01*
X127291500Y-91519361D01*
X127291500Y-91300638D01*
X127271595Y-91174971D01*
X127257286Y-91084625D01*
X127189701Y-90876617D01*
X127189701Y-90876616D01*
X127155315Y-90809132D01*
X127090407Y-90681743D01*
X127082147Y-90670374D01*
X126961857Y-90504806D01*
X126807199Y-90350148D01*
X126806326Y-90349514D01*
X126656028Y-90240316D01*
X126613364Y-90184989D01*
X126607385Y-90115376D01*
X126639990Y-90053580D01*
X126656023Y-90039686D01*
X126807199Y-89929852D01*
X126961852Y-89775199D01*
X126961854Y-89775195D01*
X126961857Y-89775193D01*
X127018229Y-89697601D01*
X127090407Y-89598257D01*
X127189701Y-89403383D01*
X127257286Y-89195375D01*
X127274912Y-89084082D01*
X127291500Y-88979361D01*
X127291500Y-88760638D01*
X127261715Y-88572591D01*
X127257286Y-88544625D01*
X127189701Y-88336617D01*
X127189701Y-88336616D01*
X127135714Y-88230663D01*
X127090407Y-88141743D01*
X127082147Y-88130374D01*
X126961857Y-87964806D01*
X126807199Y-87810148D01*
X126806995Y-87810000D01*
X126656028Y-87700316D01*
X126613364Y-87644989D01*
X126607385Y-87575376D01*
X126639990Y-87513580D01*
X126656023Y-87499686D01*
X126807199Y-87389852D01*
X126961852Y-87235199D01*
X126961854Y-87235195D01*
X126961857Y-87235193D01*
X127018229Y-87157601D01*
X127090407Y-87058257D01*
X127189701Y-86863383D01*
X127257286Y-86655375D01*
X127274912Y-86544082D01*
X127291500Y-86439361D01*
X127291500Y-86220638D01*
X127271595Y-86094971D01*
X127257286Y-86004625D01*
X127189701Y-85796617D01*
X127189701Y-85796616D01*
X127155315Y-85729132D01*
X127090407Y-85601743D01*
X127082147Y-85590374D01*
X126961857Y-85424806D01*
X126807199Y-85270148D01*
X126807191Y-85270142D01*
X126656028Y-85160316D01*
X126613364Y-85104989D01*
X126607385Y-85035376D01*
X126639990Y-84973580D01*
X126656023Y-84959686D01*
X126807199Y-84849852D01*
X126961852Y-84695199D01*
X126961854Y-84695195D01*
X126961857Y-84695193D01*
X127018229Y-84617601D01*
X127090407Y-84518257D01*
X127189701Y-84323383D01*
X127257286Y-84115375D01*
X127277764Y-83986081D01*
X127291500Y-83899361D01*
X127291500Y-83680638D01*
X127269224Y-83540000D01*
X127257286Y-83464625D01*
X127204561Y-83302351D01*
X127189702Y-83256619D01*
X127189701Y-83256616D01*
X127134867Y-83149000D01*
X127090407Y-83061743D01*
X127063712Y-83025000D01*
X126961857Y-82884806D01*
X126807199Y-82730148D01*
X126807191Y-82730142D01*
X126656028Y-82620316D01*
X126613364Y-82564989D01*
X126607385Y-82495376D01*
X126639990Y-82433580D01*
X126656023Y-82419686D01*
X126807199Y-82309852D01*
X126961852Y-82155199D01*
X126961854Y-82155195D01*
X126961857Y-82155193D01*
X127045549Y-82039999D01*
X127090407Y-81978257D01*
X127189701Y-81783383D01*
X127257286Y-81575375D01*
X127276700Y-81452799D01*
X127291500Y-81359361D01*
X127291500Y-81140638D01*
X127271595Y-81014971D01*
X127257286Y-80924625D01*
X127189701Y-80716617D01*
X127189701Y-80716616D01*
X127130277Y-80599992D01*
X127090407Y-80521743D01*
X127082147Y-80510374D01*
X126961857Y-80344806D01*
X126807193Y-80190142D01*
X126630260Y-80061595D01*
X126630259Y-80061594D01*
X126630257Y-80061593D01*
X126567825Y-80029782D01*
X126435383Y-79962298D01*
X126435380Y-79962297D01*
X126227376Y-79894714D01*
X126011361Y-79860500D01*
X126011356Y-79860500D01*
X124014644Y-79860500D01*
X124014639Y-79860500D01*
X123798623Y-79894714D01*
X123590619Y-79962297D01*
X123590616Y-79962298D01*
X123395739Y-80061595D01*
X123218806Y-80190142D01*
X123064146Y-80344802D01*
X123061543Y-80348386D01*
X123006213Y-80391051D01*
X122961225Y-80399500D01*
X118220908Y-80399500D01*
X118153869Y-80379815D01*
X118115363Y-80335728D01*
X118113605Y-80336813D01*
X118023142Y-80190148D01*
X118017712Y-80181344D01*
X117893656Y-80057288D01*
X117744334Y-79965186D01*
X117577797Y-79910001D01*
X117577795Y-79910000D01*
X117475010Y-79899500D01*
X116474998Y-79899500D01*
X116474980Y-79899501D01*
X116372203Y-79910000D01*
X116372200Y-79910001D01*
X116205668Y-79965185D01*
X116205663Y-79965187D01*
X116056342Y-80057289D01*
X115932289Y-80181342D01*
X115840187Y-80330663D01*
X115840185Y-80330668D01*
X115820176Y-80391051D01*
X115785001Y-80497203D01*
X115785001Y-80497204D01*
X115785000Y-80497204D01*
X115774500Y-80599983D01*
X115774500Y-81400001D01*
X115774501Y-81400019D01*
X115785000Y-81502796D01*
X115785001Y-81502799D01*
X115835005Y-81653698D01*
X115837407Y-81723526D01*
X115801675Y-81783568D01*
X115739155Y-81814761D01*
X115669696Y-81807201D01*
X115629618Y-81780383D01*
X115211818Y-81362583D01*
X115178333Y-81301260D01*
X115175499Y-81274902D01*
X115175499Y-80599998D01*
X115175498Y-80599981D01*
X115164999Y-80497203D01*
X115164998Y-80497200D01*
X115132623Y-80399500D01*
X115109814Y-80330666D01*
X115017712Y-80181344D01*
X114893656Y-80057288D01*
X114744334Y-79965186D01*
X114577797Y-79910001D01*
X114577795Y-79910000D01*
X114475010Y-79899500D01*
X113474998Y-79899500D01*
X113474980Y-79899501D01*
X113372203Y-79910000D01*
X113372200Y-79910001D01*
X113205668Y-79965185D01*
X113205663Y-79965187D01*
X113056342Y-80057289D01*
X112932289Y-80181342D01*
X112840187Y-80330663D01*
X112840185Y-80330668D01*
X112820176Y-80391051D01*
X112785001Y-80497203D01*
X112785001Y-80497204D01*
X112785000Y-80497204D01*
X112774500Y-80599983D01*
X109500500Y-80599983D01*
X109500500Y-79503051D01*
X109500649Y-79496967D01*
X109517052Y-79163072D01*
X109518245Y-79150962D01*
X109566849Y-78823296D01*
X109569218Y-78811385D01*
X109649710Y-78490043D01*
X109653240Y-78478411D01*
X109764835Y-78166525D01*
X109769476Y-78155318D01*
X109911124Y-77855828D01*
X109916840Y-77845136D01*
X110087145Y-77560998D01*
X110093888Y-77550905D01*
X110291232Y-77284818D01*
X110298935Y-77275433D01*
X110521405Y-77029975D01*
X110529975Y-77021405D01*
X110775433Y-76798935D01*
X110784818Y-76791232D01*
X111050905Y-76593888D01*
X111060998Y-76587145D01*
X111345136Y-76416840D01*
X111355828Y-76411124D01*
X111655318Y-76269476D01*
X111666525Y-76264835D01*
X111978412Y-76153239D01*
X111990043Y-76149710D01*
X112311385Y-76069218D01*
X112323296Y-76066849D01*
X112650962Y-76018244D01*
X112663068Y-76017052D01*
X112996967Y-76000648D01*
X113003051Y-76000500D01*
X113065892Y-76000500D01*
X162434108Y-76000500D01*
X162496949Y-76000500D01*
X162503032Y-76000648D01*
G37*
%TD.AperFunction*%
%TD*%
M02*
