%TF.GenerationSoftware,KiCad,Pcbnew,9.0.5*%
%TF.CreationDate,2026-02-02T17:22:04-08:00*%
%TF.ProjectId,Display device,44697370-6c61-4792-9064-65766963652e,rev?*%
%TF.SameCoordinates,Original*%
%TF.FileFunction,Copper,L2,Bot*%
%TF.FilePolarity,Positive*%
%FSLAX46Y46*%
G04 Gerber Fmt 4.6, Leading zero omitted, Abs format (unit mm)*
G04 Created by KiCad (PCBNEW 9.0.5) date 2026-02-02 17:22:04*
%MOMM*%
%LPD*%
G01*
G04 APERTURE LIST*
%TA.AperFunction,ComponentPad*%
%ADD10R,1.700000X1.700000*%
%TD*%
%TA.AperFunction,ComponentPad*%
%ADD11C,1.700000*%
%TD*%
%TA.AperFunction,ComponentPad*%
%ADD12O,3.556000X1.778000*%
%TD*%
%TA.AperFunction,ComponentPad*%
%ADD13C,1.905000*%
%TD*%
G04 APERTURE END LIST*
D10*
%TO.P,J1,1,Pin_1*%
%TO.N,Net-(J1-Pin_1)*%
X161000000Y-96810000D03*
D11*
%TO.P,J1,2,Pin_2*%
%TO.N,Net-(J1-Pin_2)*%
X161000000Y-94270000D03*
%TO.P,J1,3,Pin_3*%
%TO.N,Net-(J1-Pin_3)*%
X161000000Y-91730000D03*
%TO.P,J1,4,Pin_4*%
%TO.N,Net-(J1-Pin_4)*%
X161000000Y-89190000D03*
%TD*%
D12*
%TO.P,U1,1,GPIO1_A0_D0*%
%TO.N,/LED*%
X125013000Y-81250000D03*
%TO.P,U1,2,GPIO2_A1_D1*%
%TO.N,unconnected-(U1-GPIO2_A1_D1-Pad2)*%
X125013000Y-83790000D03*
%TO.P,U1,3,GPIO3_A2_D2*%
%TO.N,unconnected-(U1-GPIO3_A2_D2-Pad3)*%
X125013000Y-86330000D03*
%TO.P,U1,4,GPIO4_A3_D3*%
%TO.N,/DISP_BTN*%
X125013000Y-88870000D03*
%TO.P,U1,5,GPIO4_A3_D3_SDA*%
%TO.N,unconnected-(U1-GPIO4_A3_D3_SDA-Pad5)*%
X125013000Y-91410000D03*
%TO.P,U1,6,GPIO6_A5_D5_SCL*%
%TO.N,/M_A1*%
X125013000Y-93950000D03*
%TO.P,U1,7,GPIO43_TX_D6*%
%TO.N,unconnected-(U1-GPIO43_TX_D6-Pad7)*%
X125013000Y-96490000D03*
%TO.P,U1,8,GPIO44_D7_RX*%
%TO.N,unconnected-(U1-GPIO44_D7_RX-Pad8)*%
X141777000Y-96490000D03*
%TO.P,U1,9,GPIO7_A8_D8_SCK*%
%TO.N,/M_A2*%
X141777000Y-93950000D03*
%TO.P,U1,10,GPIO8_A9_D9_CIPO*%
%TO.N,/M_B1*%
X141777000Y-91410000D03*
%TO.P,U1,11,GPIO9_A10_D10_COPI*%
%TO.N,/M_B2*%
X141777000Y-88870000D03*
%TO.P,U1,12,3V3*%
%TO.N,unconnected-(U1-3V3-Pad12)*%
X141777000Y-86330000D03*
%TO.P,U1,13,GND*%
%TO.N,GND*%
X141777000Y-83790000D03*
%TO.P,U1,14,5V*%
%TO.N,unconnected-(U1-5V-Pad14)*%
X141777000Y-81250000D03*
D13*
%TO.P,U1,15,+BATT*%
%TO.N,/BAT*%
X130855000Y-106650000D03*
%TO.P,U1,16,-BATT*%
%TO.N,GND*%
X135935000Y-106650000D03*
%TD*%
%TA.AperFunction,Conductor*%
%TO.N,GND*%
G36*
X162503032Y-76000648D02*
G01*
X162836929Y-76017052D01*
X162849037Y-76018245D01*
X162952146Y-76033539D01*
X163176699Y-76066849D01*
X163188617Y-76069219D01*
X163509951Y-76149709D01*
X163521588Y-76153240D01*
X163592806Y-76178722D01*
X163833467Y-76264832D01*
X163844688Y-76269479D01*
X164144163Y-76411120D01*
X164154871Y-76416844D01*
X164438988Y-76587137D01*
X164449106Y-76593897D01*
X164715170Y-76791224D01*
X164724576Y-76798944D01*
X164970013Y-77021395D01*
X164978604Y-77029986D01*
X165165755Y-77236475D01*
X165201055Y-77275423D01*
X165208775Y-77284829D01*
X165406102Y-77550893D01*
X165412862Y-77561011D01*
X165541776Y-77776092D01*
X165583148Y-77845116D01*
X165588885Y-77855848D01*
X165730514Y-78155297D01*
X165735170Y-78166540D01*
X165846759Y-78478411D01*
X165850292Y-78490055D01*
X165930777Y-78811369D01*
X165933151Y-78823305D01*
X165981754Y-79150962D01*
X165982947Y-79163071D01*
X165999351Y-79496966D01*
X165999500Y-79503051D01*
X165999500Y-115996948D01*
X165999351Y-116003033D01*
X165982947Y-116336928D01*
X165981754Y-116349037D01*
X165933151Y-116676694D01*
X165930777Y-116688630D01*
X165850292Y-117009944D01*
X165846759Y-117021588D01*
X165735170Y-117333459D01*
X165730514Y-117344702D01*
X165588885Y-117644151D01*
X165583148Y-117654883D01*
X165412862Y-117938988D01*
X165406102Y-117949106D01*
X165208775Y-118215170D01*
X165201055Y-118224576D01*
X164978611Y-118470006D01*
X164970006Y-118478611D01*
X164724576Y-118701055D01*
X164715170Y-118708775D01*
X164449106Y-118906102D01*
X164438988Y-118912862D01*
X164154883Y-119083148D01*
X164144151Y-119088885D01*
X163844702Y-119230514D01*
X163833459Y-119235170D01*
X163521588Y-119346759D01*
X163509944Y-119350292D01*
X163188630Y-119430777D01*
X163176694Y-119433151D01*
X162849037Y-119481754D01*
X162836928Y-119482947D01*
X162521989Y-119498419D01*
X162503031Y-119499351D01*
X162496949Y-119499500D01*
X113003051Y-119499500D01*
X112996968Y-119499351D01*
X112976900Y-119498365D01*
X112663071Y-119482947D01*
X112650962Y-119481754D01*
X112323305Y-119433151D01*
X112311369Y-119430777D01*
X111990055Y-119350292D01*
X111978411Y-119346759D01*
X111666540Y-119235170D01*
X111655301Y-119230515D01*
X111355844Y-119088883D01*
X111345121Y-119083150D01*
X111061011Y-118912862D01*
X111050893Y-118906102D01*
X110784829Y-118708775D01*
X110775423Y-118701055D01*
X110736475Y-118665755D01*
X110529986Y-118478604D01*
X110521395Y-118470013D01*
X110298944Y-118224576D01*
X110291224Y-118215170D01*
X110093897Y-117949106D01*
X110087137Y-117938988D01*
X109916844Y-117654871D01*
X109911120Y-117644163D01*
X109769479Y-117344688D01*
X109764829Y-117333459D01*
X109653240Y-117021588D01*
X109649707Y-117009944D01*
X109640958Y-116975015D01*
X109569219Y-116688617D01*
X109566848Y-116676694D01*
X109518245Y-116349037D01*
X109517052Y-116336927D01*
X109500649Y-116003032D01*
X109500500Y-115996948D01*
X109500500Y-106535646D01*
X129402000Y-106535646D01*
X129402000Y-106764353D01*
X129437778Y-106990246D01*
X129437778Y-106990249D01*
X129508450Y-107207755D01*
X129508452Y-107207758D01*
X129612283Y-107411538D01*
X129746714Y-107596566D01*
X129908434Y-107758286D01*
X130093462Y-107892717D01*
X130296327Y-107996082D01*
X130297244Y-107996549D01*
X130514751Y-108067221D01*
X130514752Y-108067221D01*
X130514755Y-108067222D01*
X130740646Y-108103000D01*
X130740647Y-108103000D01*
X130969353Y-108103000D01*
X130969354Y-108103000D01*
X131195245Y-108067222D01*
X131195248Y-108067221D01*
X131195249Y-108067221D01*
X131412755Y-107996549D01*
X131412755Y-107996548D01*
X131412758Y-107996548D01*
X131616538Y-107892717D01*
X131801566Y-107758286D01*
X131963286Y-107596566D01*
X132097717Y-107411538D01*
X132201548Y-107207758D01*
X132272222Y-106990245D01*
X132308000Y-106764354D01*
X132308000Y-106535686D01*
X134482500Y-106535686D01*
X134482500Y-106764313D01*
X134518265Y-106990124D01*
X134518265Y-106990125D01*
X134588917Y-107207568D01*
X134692711Y-107411276D01*
X134746347Y-107485098D01*
X134746347Y-107485099D01*
X135445504Y-106785941D01*
X135461619Y-106846081D01*
X135528498Y-106961920D01*
X135623080Y-107056502D01*
X135738919Y-107123381D01*
X135799057Y-107139494D01*
X135099899Y-107838651D01*
X135173725Y-107892288D01*
X135173731Y-107892292D01*
X135377431Y-107996082D01*
X135594875Y-108066734D01*
X135820687Y-108102500D01*
X136049313Y-108102500D01*
X136275124Y-108066734D01*
X136275125Y-108066734D01*
X136492568Y-107996082D01*
X136696276Y-107892288D01*
X136770098Y-107838651D01*
X136070942Y-107139495D01*
X136131081Y-107123381D01*
X136246920Y-107056502D01*
X136341502Y-106961920D01*
X136408381Y-106846081D01*
X136424495Y-106785942D01*
X137123651Y-107485098D01*
X137177288Y-107411276D01*
X137281082Y-107207568D01*
X137351734Y-106990125D01*
X137351734Y-106990124D01*
X137387500Y-106764313D01*
X137387500Y-106535686D01*
X137351734Y-106309875D01*
X137351734Y-106309874D01*
X137281082Y-106092431D01*
X137177292Y-105888731D01*
X137177288Y-105888725D01*
X137123651Y-105814900D01*
X137123651Y-105814899D01*
X136424494Y-106514056D01*
X136408381Y-106453919D01*
X136341502Y-106338080D01*
X136246920Y-106243498D01*
X136131081Y-106176619D01*
X136070940Y-106160504D01*
X136770099Y-105461347D01*
X136696276Y-105407711D01*
X136492568Y-105303917D01*
X136275124Y-105233265D01*
X136049313Y-105197500D01*
X135820687Y-105197500D01*
X135594875Y-105233265D01*
X135594874Y-105233265D01*
X135377431Y-105303917D01*
X135173719Y-105407713D01*
X135099900Y-105461346D01*
X135099899Y-105461347D01*
X135799057Y-106160504D01*
X135738919Y-106176619D01*
X135623080Y-106243498D01*
X135528498Y-106338080D01*
X135461619Y-106453919D01*
X135445504Y-106514057D01*
X134746347Y-105814899D01*
X134746346Y-105814900D01*
X134692713Y-105888719D01*
X134588917Y-106092431D01*
X134518265Y-106309874D01*
X134518265Y-106309875D01*
X134482500Y-106535686D01*
X132308000Y-106535686D01*
X132308000Y-106535646D01*
X132272222Y-106309755D01*
X132272221Y-106309751D01*
X132272221Y-106309750D01*
X132201549Y-106092244D01*
X132097851Y-105888725D01*
X132097717Y-105888462D01*
X131963286Y-105703434D01*
X131801566Y-105541714D01*
X131616538Y-105407283D01*
X131412755Y-105303450D01*
X131195248Y-105232778D01*
X131025826Y-105205944D01*
X130969354Y-105197000D01*
X130740646Y-105197000D01*
X130665349Y-105208926D01*
X130514753Y-105232778D01*
X130514750Y-105232778D01*
X130297244Y-105303450D01*
X130093461Y-105407283D01*
X130019051Y-105461346D01*
X129908434Y-105541714D01*
X129908432Y-105541716D01*
X129908431Y-105541716D01*
X129746716Y-105703431D01*
X129746716Y-105703432D01*
X129746714Y-105703434D01*
X129688980Y-105782896D01*
X129612283Y-105888461D01*
X129508450Y-106092244D01*
X129437778Y-106309750D01*
X129437778Y-106309753D01*
X129402000Y-106535646D01*
X109500500Y-106535646D01*
X109500500Y-81140638D01*
X122734500Y-81140638D01*
X122734500Y-81359361D01*
X122768714Y-81575376D01*
X122836297Y-81783380D01*
X122836298Y-81783383D01*
X122935595Y-81978260D01*
X123064142Y-82155193D01*
X123218806Y-82309857D01*
X123369969Y-82419682D01*
X123412635Y-82475011D01*
X123418614Y-82544625D01*
X123386009Y-82606420D01*
X123369969Y-82620318D01*
X123218806Y-82730142D01*
X123064142Y-82884806D01*
X122935595Y-83061739D01*
X122836298Y-83256616D01*
X122836297Y-83256619D01*
X122768714Y-83464623D01*
X122734500Y-83680638D01*
X122734500Y-83899361D01*
X122768714Y-84115376D01*
X122836297Y-84323380D01*
X122836298Y-84323383D01*
X122903782Y-84455825D01*
X122935461Y-84517998D01*
X122935595Y-84518260D01*
X123064142Y-84695193D01*
X123218806Y-84849857D01*
X123369969Y-84959682D01*
X123412635Y-85015011D01*
X123418614Y-85084625D01*
X123386009Y-85146420D01*
X123369969Y-85160318D01*
X123218806Y-85270142D01*
X123064142Y-85424806D01*
X122935595Y-85601739D01*
X122836298Y-85796616D01*
X122836297Y-85796619D01*
X122768714Y-86004623D01*
X122734500Y-86220638D01*
X122734500Y-86439361D01*
X122768714Y-86655376D01*
X122836297Y-86863380D01*
X122836298Y-86863383D01*
X122935595Y-87058260D01*
X123064142Y-87235193D01*
X123218806Y-87389857D01*
X123369969Y-87499682D01*
X123412635Y-87555011D01*
X123418614Y-87624625D01*
X123386009Y-87686420D01*
X123369969Y-87700318D01*
X123218806Y-87810142D01*
X123064142Y-87964806D01*
X122935595Y-88141739D01*
X122836298Y-88336616D01*
X122836297Y-88336619D01*
X122768714Y-88544623D01*
X122734500Y-88760638D01*
X122734500Y-88979361D01*
X122768714Y-89195376D01*
X122836297Y-89403380D01*
X122836298Y-89403383D01*
X122935595Y-89598260D01*
X123064142Y-89775193D01*
X123218806Y-89929857D01*
X123369969Y-90039682D01*
X123412635Y-90095011D01*
X123418614Y-90164625D01*
X123386009Y-90226420D01*
X123369969Y-90240318D01*
X123218806Y-90350142D01*
X123064142Y-90504806D01*
X122935595Y-90681739D01*
X122836298Y-90876616D01*
X122836297Y-90876619D01*
X122768714Y-91084623D01*
X122734500Y-91300638D01*
X122734500Y-91519361D01*
X122768714Y-91735376D01*
X122836297Y-91943380D01*
X122836298Y-91943383D01*
X122935595Y-92138260D01*
X123064142Y-92315193D01*
X123218806Y-92469857D01*
X123369969Y-92579682D01*
X123412635Y-92635011D01*
X123418614Y-92704625D01*
X123386009Y-92766420D01*
X123369969Y-92780318D01*
X123218806Y-92890142D01*
X123064142Y-93044806D01*
X122935595Y-93221739D01*
X122836298Y-93416616D01*
X122836297Y-93416619D01*
X122768714Y-93624623D01*
X122734500Y-93840638D01*
X122734500Y-94059361D01*
X122768714Y-94275376D01*
X122836297Y-94483380D01*
X122836298Y-94483383D01*
X122935595Y-94678260D01*
X123064142Y-94855193D01*
X123218806Y-95009857D01*
X123369969Y-95119682D01*
X123412635Y-95175011D01*
X123418614Y-95244625D01*
X123386009Y-95306420D01*
X123369969Y-95320318D01*
X123218806Y-95430142D01*
X123064142Y-95584806D01*
X122935595Y-95761739D01*
X122836298Y-95956616D01*
X122836297Y-95956619D01*
X122768714Y-96164623D01*
X122734500Y-96380638D01*
X122734500Y-96599361D01*
X122768714Y-96815376D01*
X122836297Y-97023380D01*
X122836298Y-97023383D01*
X122935595Y-97218260D01*
X123064142Y-97395193D01*
X123218806Y-97549857D01*
X123384374Y-97670147D01*
X123395743Y-97678407D01*
X123523132Y-97743315D01*
X123590616Y-97777701D01*
X123590619Y-97777702D01*
X123694621Y-97811493D01*
X123798625Y-97845286D01*
X123898672Y-97861132D01*
X124014639Y-97879500D01*
X124014644Y-97879500D01*
X126011361Y-97879500D01*
X126116082Y-97862912D01*
X126227375Y-97845286D01*
X126435383Y-97777701D01*
X126630257Y-97678407D01*
X126729601Y-97606229D01*
X126807193Y-97549857D01*
X126807195Y-97549854D01*
X126807199Y-97549852D01*
X126961852Y-97395199D01*
X126961854Y-97395195D01*
X126961857Y-97395193D01*
X127018229Y-97317601D01*
X127090407Y-97218257D01*
X127189701Y-97023383D01*
X127257286Y-96815375D01*
X127274912Y-96704082D01*
X127291500Y-96599361D01*
X127291500Y-96380638D01*
X127271595Y-96254971D01*
X127257286Y-96164625D01*
X127189701Y-95956617D01*
X127189701Y-95956616D01*
X127136658Y-95852516D01*
X127090407Y-95761743D01*
X127058382Y-95717664D01*
X126961857Y-95584806D01*
X126807199Y-95430148D01*
X126800551Y-95425318D01*
X126656028Y-95320316D01*
X126613364Y-95264989D01*
X126607385Y-95195376D01*
X126639990Y-95133580D01*
X126656023Y-95119686D01*
X126807199Y-95009852D01*
X126961852Y-94855199D01*
X126961854Y-94855195D01*
X126961857Y-94855193D01*
X127018229Y-94777601D01*
X127090407Y-94678257D01*
X127189701Y-94483383D01*
X127257286Y-94275375D01*
X127274912Y-94164082D01*
X127291500Y-94059361D01*
X127291500Y-93840638D01*
X127271595Y-93714971D01*
X127257286Y-93624625D01*
X127189701Y-93416617D01*
X127189701Y-93416616D01*
X127099653Y-93239890D01*
X127090407Y-93221743D01*
X127012819Y-93114951D01*
X126961857Y-93044806D01*
X126807199Y-92890148D01*
X126806326Y-92889514D01*
X126656028Y-92780316D01*
X126613364Y-92724989D01*
X126607385Y-92655376D01*
X126639990Y-92593580D01*
X126656023Y-92579686D01*
X126807199Y-92469852D01*
X126961852Y-92315199D01*
X126961854Y-92315195D01*
X126961857Y-92315193D01*
X127018229Y-92237601D01*
X127090407Y-92138257D01*
X127189701Y-91943383D01*
X127257286Y-91735375D01*
X127274912Y-91624082D01*
X127291500Y-91519361D01*
X127291500Y-91300638D01*
X127271595Y-91174971D01*
X127257286Y-91084625D01*
X127189701Y-90876617D01*
X127189701Y-90876616D01*
X127099653Y-90699890D01*
X127090407Y-90681743D01*
X127012819Y-90574951D01*
X126961857Y-90504806D01*
X126807199Y-90350148D01*
X126806326Y-90349514D01*
X126656028Y-90240316D01*
X126613364Y-90184989D01*
X126607385Y-90115376D01*
X126639990Y-90053580D01*
X126656023Y-90039686D01*
X126807199Y-89929852D01*
X126961852Y-89775199D01*
X126961854Y-89775195D01*
X126961857Y-89775193D01*
X127018229Y-89697601D01*
X127090407Y-89598257D01*
X127189701Y-89403383D01*
X127257286Y-89195375D01*
X127274912Y-89084082D01*
X127291500Y-88979361D01*
X127291500Y-88760638D01*
X127271595Y-88634971D01*
X127257286Y-88544625D01*
X127189701Y-88336617D01*
X127189701Y-88336616D01*
X127099653Y-88159890D01*
X127090407Y-88141743D01*
X127012819Y-88034951D01*
X126961857Y-87964806D01*
X126807199Y-87810148D01*
X126807191Y-87810142D01*
X126656028Y-87700316D01*
X126613364Y-87644989D01*
X126607385Y-87575376D01*
X126639990Y-87513580D01*
X126656023Y-87499686D01*
X126807199Y-87389852D01*
X126961852Y-87235199D01*
X126961854Y-87235195D01*
X126961857Y-87235193D01*
X127018229Y-87157601D01*
X127090407Y-87058257D01*
X127189701Y-86863383D01*
X127257286Y-86655375D01*
X127274912Y-86544082D01*
X127291500Y-86439361D01*
X127291500Y-86220638D01*
X127271595Y-86094971D01*
X127257286Y-86004625D01*
X127189701Y-85796617D01*
X127189701Y-85796616D01*
X127155315Y-85729132D01*
X127090407Y-85601743D01*
X127082147Y-85590374D01*
X126961857Y-85424806D01*
X126807199Y-85270148D01*
X126807191Y-85270142D01*
X126656028Y-85160316D01*
X126613364Y-85104989D01*
X126607385Y-85035376D01*
X126639990Y-84973580D01*
X126656023Y-84959686D01*
X126807199Y-84849852D01*
X126961852Y-84695199D01*
X126961854Y-84695195D01*
X126961857Y-84695193D01*
X127018229Y-84617601D01*
X127090407Y-84518257D01*
X127189701Y-84323383D01*
X127257286Y-84115375D01*
X127277764Y-83986081D01*
X127291500Y-83899361D01*
X127291500Y-83680638D01*
X127269224Y-83540000D01*
X127257286Y-83464625D01*
X127209197Y-83316619D01*
X127189702Y-83256619D01*
X127189701Y-83256616D01*
X127155315Y-83189132D01*
X127090407Y-83061743D01*
X127082147Y-83050374D01*
X126961857Y-82884806D01*
X126807199Y-82730148D01*
X126807191Y-82730142D01*
X126656028Y-82620316D01*
X126613364Y-82564989D01*
X126607385Y-82495376D01*
X126639990Y-82433580D01*
X126656023Y-82419686D01*
X126807199Y-82309852D01*
X126961852Y-82155199D01*
X126961854Y-82155195D01*
X126961857Y-82155193D01*
X127018229Y-82077601D01*
X127090407Y-81978257D01*
X127189701Y-81783383D01*
X127257286Y-81575375D01*
X127274912Y-81464082D01*
X127291500Y-81359361D01*
X127291500Y-81140638D01*
X139498500Y-81140638D01*
X139498500Y-81359361D01*
X139532714Y-81575376D01*
X139600297Y-81783380D01*
X139600298Y-81783383D01*
X139699595Y-81978260D01*
X139828142Y-82155193D01*
X139982802Y-82309853D01*
X139982807Y-82309857D01*
X140134394Y-82419991D01*
X140177060Y-82475320D01*
X140183039Y-82544934D01*
X140150434Y-82606729D01*
X140134394Y-82620627D01*
X139983133Y-82730524D01*
X139983128Y-82730528D01*
X139828528Y-82885128D01*
X139828524Y-82885133D01*
X139700023Y-83062001D01*
X139600762Y-83256808D01*
X139600761Y-83256811D01*
X139533201Y-83464741D01*
X139521282Y-83540000D01*
X140572749Y-83540000D01*
X140541619Y-83593919D01*
X140507000Y-83723120D01*
X140507000Y-83856880D01*
X140541619Y-83986081D01*
X140572749Y-84040000D01*
X139521282Y-84040000D01*
X139533201Y-84115258D01*
X139600761Y-84323188D01*
X139600762Y-84323191D01*
X139700023Y-84517998D01*
X139828524Y-84694866D01*
X139828528Y-84694871D01*
X139983128Y-84849471D01*
X139983133Y-84849475D01*
X140134394Y-84959372D01*
X140177060Y-85014701D01*
X140183039Y-85084315D01*
X140150434Y-85146110D01*
X140134394Y-85160008D01*
X139982807Y-85270142D01*
X139982802Y-85270146D01*
X139828142Y-85424806D01*
X139699595Y-85601739D01*
X139600298Y-85796616D01*
X139600297Y-85796619D01*
X139532714Y-86004623D01*
X139498500Y-86220638D01*
X139498500Y-86439361D01*
X139532714Y-86655376D01*
X139600297Y-86863380D01*
X139600298Y-86863383D01*
X139699595Y-87058260D01*
X139828142Y-87235193D01*
X139982806Y-87389857D01*
X140133969Y-87499682D01*
X140176635Y-87555011D01*
X140182614Y-87624625D01*
X140150009Y-87686420D01*
X140133969Y-87700318D01*
X139982806Y-87810142D01*
X139828142Y-87964806D01*
X139699595Y-88141739D01*
X139600298Y-88336616D01*
X139600297Y-88336619D01*
X139532714Y-88544623D01*
X139498500Y-88760638D01*
X139498500Y-88979361D01*
X139532714Y-89195376D01*
X139600297Y-89403380D01*
X139600298Y-89403383D01*
X139699595Y-89598260D01*
X139828142Y-89775193D01*
X139982806Y-89929857D01*
X140133969Y-90039682D01*
X140176635Y-90095011D01*
X140182614Y-90164625D01*
X140150009Y-90226420D01*
X140133969Y-90240318D01*
X139982806Y-90350142D01*
X139828142Y-90504806D01*
X139699595Y-90681739D01*
X139600298Y-90876616D01*
X139600297Y-90876619D01*
X139532714Y-91084623D01*
X139498500Y-91300638D01*
X139498500Y-91519361D01*
X139532714Y-91735376D01*
X139600297Y-91943380D01*
X139600298Y-91943383D01*
X139699595Y-92138260D01*
X139828142Y-92315193D01*
X139982806Y-92469857D01*
X140133969Y-92579682D01*
X140176635Y-92635011D01*
X140182614Y-92704625D01*
X140150009Y-92766420D01*
X140133969Y-92780318D01*
X139982806Y-92890142D01*
X139828142Y-93044806D01*
X139699595Y-93221739D01*
X139600298Y-93416616D01*
X139600297Y-93416619D01*
X139532714Y-93624623D01*
X139498500Y-93840638D01*
X139498500Y-94059361D01*
X139532714Y-94275376D01*
X139600297Y-94483380D01*
X139600298Y-94483383D01*
X139699595Y-94678260D01*
X139828142Y-94855193D01*
X139982806Y-95009857D01*
X140133969Y-95119682D01*
X140176635Y-95175011D01*
X140182614Y-95244625D01*
X140150009Y-95306420D01*
X140133969Y-95320318D01*
X139982806Y-95430142D01*
X139828142Y-95584806D01*
X139699595Y-95761739D01*
X139600298Y-95956616D01*
X139600297Y-95956619D01*
X139532714Y-96164623D01*
X139498500Y-96380638D01*
X139498500Y-96599361D01*
X139532714Y-96815376D01*
X139600297Y-97023380D01*
X139600298Y-97023383D01*
X139699595Y-97218260D01*
X139828142Y-97395193D01*
X139982806Y-97549857D01*
X140148374Y-97670147D01*
X140159743Y-97678407D01*
X140287132Y-97743315D01*
X140354616Y-97777701D01*
X140354619Y-97777702D01*
X140458621Y-97811493D01*
X140562625Y-97845286D01*
X140662672Y-97861132D01*
X140778639Y-97879500D01*
X140778644Y-97879500D01*
X142775361Y-97879500D01*
X142880082Y-97862912D01*
X142991375Y-97845286D01*
X143199383Y-97777701D01*
X143394257Y-97678407D01*
X143493601Y-97606229D01*
X143571193Y-97549857D01*
X143571195Y-97549854D01*
X143571199Y-97549852D01*
X143725852Y-97395199D01*
X143725854Y-97395195D01*
X143725857Y-97395193D01*
X143782229Y-97317601D01*
X143854407Y-97218257D01*
X143953701Y-97023383D01*
X144021286Y-96815375D01*
X144038912Y-96704082D01*
X144055500Y-96599361D01*
X144055500Y-96380638D01*
X144035595Y-96254971D01*
X144021286Y-96164625D01*
X143953701Y-95956617D01*
X143953701Y-95956616D01*
X143900658Y-95852516D01*
X143854407Y-95761743D01*
X143822382Y-95717664D01*
X143725857Y-95584806D01*
X143571199Y-95430148D01*
X143564551Y-95425318D01*
X143420028Y-95320316D01*
X143377364Y-95264989D01*
X143371385Y-95195376D01*
X143403990Y-95133580D01*
X143420023Y-95119686D01*
X143571199Y-95009852D01*
X143725852Y-94855199D01*
X143725854Y-94855195D01*
X143725857Y-94855193D01*
X143782229Y-94777601D01*
X143854407Y-94678257D01*
X143953701Y-94483383D01*
X144021286Y-94275375D01*
X144038912Y-94164082D01*
X144055500Y-94059361D01*
X144055500Y-93840638D01*
X144035595Y-93714971D01*
X144021286Y-93624625D01*
X143953701Y-93416617D01*
X143953701Y-93416616D01*
X143863653Y-93239890D01*
X143854407Y-93221743D01*
X143776819Y-93114951D01*
X143725857Y-93044806D01*
X143571199Y-92890148D01*
X143570326Y-92889514D01*
X143420028Y-92780316D01*
X143377364Y-92724989D01*
X143371385Y-92655376D01*
X143403990Y-92593580D01*
X143420023Y-92579686D01*
X143571199Y-92469852D01*
X143725852Y-92315199D01*
X143725854Y-92315195D01*
X143725857Y-92315193D01*
X143782229Y-92237601D01*
X143854407Y-92138257D01*
X143953701Y-91943383D01*
X144021286Y-91735375D01*
X144038912Y-91624082D01*
X144055500Y-91519361D01*
X144055500Y-91300638D01*
X144035595Y-91174971D01*
X144021286Y-91084625D01*
X143953701Y-90876617D01*
X143953701Y-90876616D01*
X143863653Y-90699890D01*
X143854407Y-90681743D01*
X143776819Y-90574951D01*
X143725857Y-90504806D01*
X143571199Y-90350148D01*
X143570326Y-90349514D01*
X143420028Y-90240316D01*
X143377364Y-90184989D01*
X143371385Y-90115376D01*
X143403990Y-90053580D01*
X143420023Y-90039686D01*
X143571199Y-89929852D01*
X143725852Y-89775199D01*
X143725854Y-89775195D01*
X143725857Y-89775193D01*
X143782229Y-89697601D01*
X143854407Y-89598257D01*
X143953701Y-89403383D01*
X144021286Y-89195375D01*
X144034625Y-89111153D01*
X144038972Y-89083713D01*
X159649500Y-89083713D01*
X159649500Y-89296287D01*
X159682754Y-89506243D01*
X159712652Y-89598260D01*
X159748444Y-89708414D01*
X159844951Y-89897820D01*
X159969890Y-90069786D01*
X160120213Y-90220109D01*
X160292182Y-90345050D01*
X160300946Y-90349516D01*
X160351742Y-90397491D01*
X160368536Y-90465312D01*
X160345998Y-90531447D01*
X160300946Y-90570484D01*
X160292182Y-90574949D01*
X160120213Y-90699890D01*
X159969890Y-90850213D01*
X159844951Y-91022179D01*
X159748444Y-91211585D01*
X159682753Y-91413760D01*
X159666028Y-91519361D01*
X159649500Y-91623713D01*
X159649500Y-91836287D01*
X159682754Y-92046243D01*
X159712652Y-92138260D01*
X159748444Y-92248414D01*
X159844951Y-92437820D01*
X159969890Y-92609786D01*
X160120213Y-92760109D01*
X160292182Y-92885050D01*
X160300946Y-92889516D01*
X160351742Y-92937491D01*
X160368536Y-93005312D01*
X160345998Y-93071447D01*
X160300946Y-93110484D01*
X160292182Y-93114949D01*
X160120213Y-93239890D01*
X159969890Y-93390213D01*
X159844951Y-93562179D01*
X159748444Y-93751585D01*
X159682753Y-93953760D01*
X159666028Y-94059361D01*
X159649500Y-94163713D01*
X159649500Y-94376287D01*
X159682754Y-94586243D01*
X159712652Y-94678260D01*
X159748444Y-94788414D01*
X159844951Y-94977820D01*
X159969890Y-95149786D01*
X160083430Y-95263326D01*
X160116915Y-95324649D01*
X160111931Y-95394341D01*
X160070059Y-95450274D01*
X160039083Y-95467189D01*
X159907669Y-95516203D01*
X159907664Y-95516206D01*
X159792455Y-95602452D01*
X159792452Y-95602455D01*
X159706206Y-95717664D01*
X159706202Y-95717671D01*
X159655908Y-95852517D01*
X159649501Y-95912116D01*
X159649501Y-95912123D01*
X159649500Y-95912135D01*
X159649500Y-97707870D01*
X159649501Y-97707876D01*
X159655908Y-97767483D01*
X159706202Y-97902328D01*
X159706206Y-97902335D01*
X159792452Y-98017544D01*
X159792455Y-98017547D01*
X159907664Y-98103793D01*
X159907671Y-98103797D01*
X160042517Y-98154091D01*
X160042516Y-98154091D01*
X160049444Y-98154835D01*
X160102127Y-98160500D01*
X161897872Y-98160499D01*
X161957483Y-98154091D01*
X162092331Y-98103796D01*
X162207546Y-98017546D01*
X162293796Y-97902331D01*
X162344091Y-97767483D01*
X162350500Y-97707873D01*
X162350499Y-95912128D01*
X162344091Y-95852517D01*
X162293796Y-95717669D01*
X162293795Y-95717668D01*
X162293793Y-95717664D01*
X162207547Y-95602455D01*
X162207544Y-95602452D01*
X162092335Y-95516206D01*
X162092328Y-95516202D01*
X161960917Y-95467189D01*
X161904983Y-95425318D01*
X161880566Y-95359853D01*
X161895418Y-95291580D01*
X161916563Y-95263332D01*
X162030104Y-95149792D01*
X162155051Y-94977816D01*
X162251557Y-94788412D01*
X162317246Y-94586243D01*
X162350500Y-94376287D01*
X162350500Y-94163713D01*
X162317246Y-93953757D01*
X162251557Y-93751588D01*
X162155051Y-93562184D01*
X162155049Y-93562181D01*
X162155048Y-93562179D01*
X162030109Y-93390213D01*
X161879786Y-93239890D01*
X161707820Y-93114951D01*
X161707115Y-93114591D01*
X161699054Y-93110485D01*
X161648259Y-93062512D01*
X161631463Y-92994692D01*
X161653999Y-92928556D01*
X161699054Y-92889515D01*
X161707816Y-92885051D01*
X161729789Y-92869086D01*
X161879786Y-92760109D01*
X161879788Y-92760106D01*
X161879792Y-92760104D01*
X162030104Y-92609792D01*
X162030106Y-92609788D01*
X162030109Y-92609786D01*
X162155048Y-92437820D01*
X162155047Y-92437820D01*
X162155051Y-92437816D01*
X162251557Y-92248412D01*
X162317246Y-92046243D01*
X162350500Y-91836287D01*
X162350500Y-91623713D01*
X162317246Y-91413757D01*
X162251557Y-91211588D01*
X162155051Y-91022184D01*
X162155049Y-91022181D01*
X162155048Y-91022179D01*
X162030109Y-90850213D01*
X161879786Y-90699890D01*
X161707820Y-90574951D01*
X161707115Y-90574591D01*
X161699054Y-90570485D01*
X161648259Y-90522512D01*
X161631463Y-90454692D01*
X161653999Y-90388556D01*
X161699054Y-90349515D01*
X161707816Y-90345051D01*
X161729789Y-90329086D01*
X161879786Y-90220109D01*
X161879788Y-90220106D01*
X161879792Y-90220104D01*
X162030104Y-90069792D01*
X162030106Y-90069788D01*
X162030109Y-90069786D01*
X162155048Y-89897820D01*
X162155047Y-89897820D01*
X162155051Y-89897816D01*
X162251557Y-89708412D01*
X162317246Y-89506243D01*
X162350500Y-89296287D01*
X162350500Y-89083713D01*
X162317246Y-88873757D01*
X162251557Y-88671588D01*
X162155051Y-88482184D01*
X162155049Y-88482181D01*
X162155048Y-88482179D01*
X162030109Y-88310213D01*
X161879786Y-88159890D01*
X161707820Y-88034951D01*
X161518414Y-87938444D01*
X161518413Y-87938443D01*
X161518412Y-87938443D01*
X161316243Y-87872754D01*
X161316241Y-87872753D01*
X161316240Y-87872753D01*
X161154957Y-87847208D01*
X161106287Y-87839500D01*
X160893713Y-87839500D01*
X160845042Y-87847208D01*
X160683760Y-87872753D01*
X160481585Y-87938444D01*
X160292179Y-88034951D01*
X160120213Y-88159890D01*
X159969890Y-88310213D01*
X159844951Y-88482179D01*
X159748444Y-88671585D01*
X159682753Y-88873760D01*
X159666028Y-88979361D01*
X159649500Y-89083713D01*
X144038972Y-89083713D01*
X144042816Y-89059443D01*
X144055500Y-88979361D01*
X144055500Y-88760638D01*
X144035595Y-88634971D01*
X144021286Y-88544625D01*
X143953701Y-88336617D01*
X143953701Y-88336616D01*
X143863653Y-88159890D01*
X143854407Y-88141743D01*
X143776819Y-88034951D01*
X143725857Y-87964806D01*
X143571199Y-87810148D01*
X143571191Y-87810142D01*
X143420028Y-87700316D01*
X143377364Y-87644989D01*
X143371385Y-87575376D01*
X143403990Y-87513580D01*
X143420023Y-87499686D01*
X143571199Y-87389852D01*
X143725852Y-87235199D01*
X143725854Y-87235195D01*
X143725857Y-87235193D01*
X143782229Y-87157601D01*
X143854407Y-87058257D01*
X143953701Y-86863383D01*
X144021286Y-86655375D01*
X144038912Y-86544082D01*
X144055500Y-86439361D01*
X144055500Y-86220638D01*
X144035595Y-86094971D01*
X144021286Y-86004625D01*
X143953701Y-85796617D01*
X143953701Y-85796616D01*
X143919315Y-85729132D01*
X143854407Y-85601743D01*
X143846147Y-85590374D01*
X143725857Y-85424806D01*
X143571197Y-85270146D01*
X143571192Y-85270142D01*
X143419605Y-85160008D01*
X143376939Y-85104678D01*
X143370960Y-85035065D01*
X143403565Y-84973270D01*
X143419605Y-84959371D01*
X143570873Y-84849469D01*
X143725471Y-84694871D01*
X143725475Y-84694866D01*
X143853976Y-84517998D01*
X143953237Y-84323191D01*
X143953238Y-84323188D01*
X144020798Y-84115258D01*
X144032718Y-84040000D01*
X141457251Y-84040000D01*
X141488381Y-83986081D01*
X141523000Y-83856880D01*
X141523000Y-83723120D01*
X141488381Y-83593919D01*
X141457251Y-83540000D01*
X144032718Y-83540000D01*
X144020798Y-83464741D01*
X143953238Y-83256811D01*
X143953237Y-83256808D01*
X143853976Y-83062001D01*
X143725475Y-82885133D01*
X143725471Y-82885128D01*
X143570871Y-82730528D01*
X143570866Y-82730524D01*
X143419605Y-82620627D01*
X143376939Y-82565297D01*
X143370960Y-82495684D01*
X143403565Y-82433889D01*
X143419599Y-82419994D01*
X143571199Y-82309852D01*
X143725852Y-82155199D01*
X143725854Y-82155195D01*
X143725857Y-82155193D01*
X143782229Y-82077601D01*
X143854407Y-81978257D01*
X143953701Y-81783383D01*
X144021286Y-81575375D01*
X144038912Y-81464082D01*
X144055500Y-81359361D01*
X144055500Y-81140638D01*
X144035595Y-81014971D01*
X144021286Y-80924625D01*
X143953701Y-80716617D01*
X143953701Y-80716616D01*
X143919315Y-80649132D01*
X143854407Y-80521743D01*
X143846147Y-80510374D01*
X143725857Y-80344806D01*
X143571193Y-80190142D01*
X143394260Y-80061595D01*
X143394259Y-80061594D01*
X143394257Y-80061593D01*
X143331825Y-80029782D01*
X143199383Y-79962298D01*
X143199380Y-79962297D01*
X142991376Y-79894714D01*
X142775361Y-79860500D01*
X142775356Y-79860500D01*
X140778644Y-79860500D01*
X140778639Y-79860500D01*
X140562623Y-79894714D01*
X140354619Y-79962297D01*
X140354616Y-79962298D01*
X140159739Y-80061595D01*
X139982806Y-80190142D01*
X139828142Y-80344806D01*
X139699595Y-80521739D01*
X139600298Y-80716616D01*
X139600297Y-80716619D01*
X139532714Y-80924623D01*
X139498500Y-81140638D01*
X127291500Y-81140638D01*
X127271595Y-81014971D01*
X127257286Y-80924625D01*
X127189701Y-80716617D01*
X127189701Y-80716616D01*
X127155315Y-80649132D01*
X127090407Y-80521743D01*
X127082147Y-80510374D01*
X126961857Y-80344806D01*
X126807193Y-80190142D01*
X126630260Y-80061595D01*
X126630259Y-80061594D01*
X126630257Y-80061593D01*
X126567825Y-80029782D01*
X126435383Y-79962298D01*
X126435380Y-79962297D01*
X126227376Y-79894714D01*
X126011361Y-79860500D01*
X126011356Y-79860500D01*
X124014644Y-79860500D01*
X124014639Y-79860500D01*
X123798623Y-79894714D01*
X123590619Y-79962297D01*
X123590616Y-79962298D01*
X123395739Y-80061595D01*
X123218806Y-80190142D01*
X123064142Y-80344806D01*
X122935595Y-80521739D01*
X122836298Y-80716616D01*
X122836297Y-80716619D01*
X122768714Y-80924623D01*
X122734500Y-81140638D01*
X109500500Y-81140638D01*
X109500500Y-79503051D01*
X109500649Y-79496967D01*
X109517052Y-79163072D01*
X109518245Y-79150962D01*
X109566849Y-78823296D01*
X109569218Y-78811385D01*
X109649710Y-78490043D01*
X109653240Y-78478411D01*
X109764835Y-78166525D01*
X109769476Y-78155318D01*
X109911124Y-77855828D01*
X109916840Y-77845136D01*
X110087145Y-77560998D01*
X110093888Y-77550905D01*
X110291232Y-77284818D01*
X110298935Y-77275433D01*
X110521405Y-77029975D01*
X110529975Y-77021405D01*
X110775433Y-76798935D01*
X110784818Y-76791232D01*
X111050905Y-76593888D01*
X111060998Y-76587145D01*
X111345136Y-76416840D01*
X111355828Y-76411124D01*
X111655318Y-76269476D01*
X111666525Y-76264835D01*
X111978412Y-76153239D01*
X111990043Y-76149710D01*
X112311385Y-76069218D01*
X112323296Y-76066849D01*
X112650962Y-76018244D01*
X112663068Y-76017052D01*
X112996967Y-76000648D01*
X113003051Y-76000500D01*
X113065892Y-76000500D01*
X162434108Y-76000500D01*
X162496949Y-76000500D01*
X162503032Y-76000648D01*
G37*
%TD.AperFunction*%
%TD*%
M02*
