%TF.GenerationSoftware,KiCad,Pcbnew,9.0.5*%
%TF.CreationDate,2026-02-02T17:26:06-08:00*%
%TF.ProjectId,Sensing device,53656e73-696e-4672-9064-65766963652e,1.0*%
%TF.SameCoordinates,Original*%
%TF.FileFunction,Legend,Top*%
%TF.FilePolarity,Positive*%
%FSLAX46Y46*%
G04 Gerber Fmt 4.6, Leading zero omitted, Abs format (unit mm)*
G04 Created by KiCad (PCBNEW 9.0.5) date 2026-02-02 17:26:06*
%MOMM*%
%LPD*%
G01*
G04 APERTURE LIST*
%ADD10C,0.100000*%
%ADD11C,0.150000*%
%ADD12C,0.120000*%
G04 APERTURE END LIST*
D10*
X166303884Y-100262475D02*
X166303884Y-99262475D01*
X166303884Y-99262475D02*
X166684836Y-99262475D01*
X166684836Y-99262475D02*
X166780074Y-99310094D01*
X166780074Y-99310094D02*
X166827693Y-99357713D01*
X166827693Y-99357713D02*
X166875312Y-99452951D01*
X166875312Y-99452951D02*
X166875312Y-99595808D01*
X166875312Y-99595808D02*
X166827693Y-99691046D01*
X166827693Y-99691046D02*
X166780074Y-99738665D01*
X166780074Y-99738665D02*
X166684836Y-99786284D01*
X166684836Y-99786284D02*
X166303884Y-99786284D01*
X167446741Y-100262475D02*
X167351503Y-100214856D01*
X167351503Y-100214856D02*
X167303884Y-100167236D01*
X167303884Y-100167236D02*
X167256265Y-100071998D01*
X167256265Y-100071998D02*
X167256265Y-99786284D01*
X167256265Y-99786284D02*
X167303884Y-99691046D01*
X167303884Y-99691046D02*
X167351503Y-99643427D01*
X167351503Y-99643427D02*
X167446741Y-99595808D01*
X167446741Y-99595808D02*
X167589598Y-99595808D01*
X167589598Y-99595808D02*
X167684836Y-99643427D01*
X167684836Y-99643427D02*
X167732455Y-99691046D01*
X167732455Y-99691046D02*
X167780074Y-99786284D01*
X167780074Y-99786284D02*
X167780074Y-100071998D01*
X167780074Y-100071998D02*
X167732455Y-100167236D01*
X167732455Y-100167236D02*
X167684836Y-100214856D01*
X167684836Y-100214856D02*
X167589598Y-100262475D01*
X167589598Y-100262475D02*
X167446741Y-100262475D01*
X168351503Y-100262475D02*
X168256265Y-100214856D01*
X168256265Y-100214856D02*
X168208646Y-100119617D01*
X168208646Y-100119617D02*
X168208646Y-99262475D01*
X168875313Y-100262475D02*
X168780075Y-100214856D01*
X168780075Y-100214856D02*
X168732456Y-100119617D01*
X168732456Y-100119617D02*
X168732456Y-99262475D01*
X169161028Y-99595808D02*
X169399123Y-100262475D01*
X169637218Y-99595808D02*
X169399123Y-100262475D01*
X169399123Y-100262475D02*
X169303885Y-100500570D01*
X169303885Y-100500570D02*
X169256266Y-100548189D01*
X169256266Y-100548189D02*
X169161028Y-100595808D01*
X170970552Y-99786284D02*
X170970552Y-100262475D01*
X170637219Y-99262475D02*
X170970552Y-99786284D01*
X170970552Y-99786284D02*
X171303885Y-99262475D01*
X172065790Y-100262475D02*
X172065790Y-99738665D01*
X172065790Y-99738665D02*
X172018171Y-99643427D01*
X172018171Y-99643427D02*
X171922933Y-99595808D01*
X171922933Y-99595808D02*
X171732457Y-99595808D01*
X171732457Y-99595808D02*
X171637219Y-99643427D01*
X172065790Y-100214856D02*
X171970552Y-100262475D01*
X171970552Y-100262475D02*
X171732457Y-100262475D01*
X171732457Y-100262475D02*
X171637219Y-100214856D01*
X171637219Y-100214856D02*
X171589600Y-100119617D01*
X171589600Y-100119617D02*
X171589600Y-100024379D01*
X171589600Y-100024379D02*
X171637219Y-99929141D01*
X171637219Y-99929141D02*
X171732457Y-99881522D01*
X171732457Y-99881522D02*
X171970552Y-99881522D01*
X171970552Y-99881522D02*
X172065790Y-99833903D01*
X172684838Y-100262475D02*
X172589600Y-100214856D01*
X172589600Y-100214856D02*
X172541981Y-100167236D01*
X172541981Y-100167236D02*
X172494362Y-100071998D01*
X172494362Y-100071998D02*
X172494362Y-99786284D01*
X172494362Y-99786284D02*
X172541981Y-99691046D01*
X172541981Y-99691046D02*
X172589600Y-99643427D01*
X172589600Y-99643427D02*
X172684838Y-99595808D01*
X172684838Y-99595808D02*
X172827695Y-99595808D01*
X172827695Y-99595808D02*
X172922933Y-99643427D01*
X172922933Y-99643427D02*
X172970552Y-99691046D01*
X172970552Y-99691046D02*
X173018171Y-99786284D01*
X173018171Y-99786284D02*
X173018171Y-100071998D01*
X173018171Y-100071998D02*
X172970552Y-100167236D01*
X172970552Y-100167236D02*
X172922933Y-100214856D01*
X172922933Y-100214856D02*
X172827695Y-100262475D01*
X172827695Y-100262475D02*
X172684838Y-100262475D01*
X166303884Y-101348609D02*
X166637217Y-101348609D01*
X166780074Y-101872419D02*
X166303884Y-101872419D01*
X166303884Y-101872419D02*
X166303884Y-100872419D01*
X166303884Y-100872419D02*
X166780074Y-100872419D01*
X167208646Y-101872419D02*
X167208646Y-101205752D01*
X167208646Y-101300990D02*
X167256265Y-101253371D01*
X167256265Y-101253371D02*
X167351503Y-101205752D01*
X167351503Y-101205752D02*
X167494360Y-101205752D01*
X167494360Y-101205752D02*
X167589598Y-101253371D01*
X167589598Y-101253371D02*
X167637217Y-101348609D01*
X167637217Y-101348609D02*
X167637217Y-101872419D01*
X167637217Y-101348609D02*
X167684836Y-101253371D01*
X167684836Y-101253371D02*
X167780074Y-101205752D01*
X167780074Y-101205752D02*
X167922931Y-101205752D01*
X167922931Y-101205752D02*
X168018170Y-101253371D01*
X168018170Y-101253371D02*
X168065789Y-101348609D01*
X168065789Y-101348609D02*
X168065789Y-101872419D01*
X168684836Y-101872419D02*
X168589598Y-101824800D01*
X168589598Y-101824800D02*
X168541979Y-101777180D01*
X168541979Y-101777180D02*
X168494360Y-101681942D01*
X168494360Y-101681942D02*
X168494360Y-101396228D01*
X168494360Y-101396228D02*
X168541979Y-101300990D01*
X168541979Y-101300990D02*
X168589598Y-101253371D01*
X168589598Y-101253371D02*
X168684836Y-101205752D01*
X168684836Y-101205752D02*
X168827693Y-101205752D01*
X168827693Y-101205752D02*
X168922931Y-101253371D01*
X168922931Y-101253371D02*
X168970550Y-101300990D01*
X168970550Y-101300990D02*
X169018169Y-101396228D01*
X169018169Y-101396228D02*
X169018169Y-101681942D01*
X169018169Y-101681942D02*
X168970550Y-101777180D01*
X168970550Y-101777180D02*
X168922931Y-101824800D01*
X168922931Y-101824800D02*
X168827693Y-101872419D01*
X168827693Y-101872419D02*
X168684836Y-101872419D01*
X169303884Y-100872419D02*
X169875312Y-100872419D01*
X169589598Y-101872419D02*
X169589598Y-100872419D01*
X170208646Y-101872419D02*
X170208646Y-101205752D01*
X170208646Y-101396228D02*
X170256265Y-101300990D01*
X170256265Y-101300990D02*
X170303884Y-101253371D01*
X170303884Y-101253371D02*
X170399122Y-101205752D01*
X170399122Y-101205752D02*
X170494360Y-101205752D01*
X171256265Y-101872419D02*
X171256265Y-101348609D01*
X171256265Y-101348609D02*
X171208646Y-101253371D01*
X171208646Y-101253371D02*
X171113408Y-101205752D01*
X171113408Y-101205752D02*
X170922932Y-101205752D01*
X170922932Y-101205752D02*
X170827694Y-101253371D01*
X171256265Y-101824800D02*
X171161027Y-101872419D01*
X171161027Y-101872419D02*
X170922932Y-101872419D01*
X170922932Y-101872419D02*
X170827694Y-101824800D01*
X170827694Y-101824800D02*
X170780075Y-101729561D01*
X170780075Y-101729561D02*
X170780075Y-101634323D01*
X170780075Y-101634323D02*
X170827694Y-101539085D01*
X170827694Y-101539085D02*
X170922932Y-101491466D01*
X170922932Y-101491466D02*
X171161027Y-101491466D01*
X171161027Y-101491466D02*
X171256265Y-101443847D01*
X172161027Y-101824800D02*
X172065789Y-101872419D01*
X172065789Y-101872419D02*
X171875313Y-101872419D01*
X171875313Y-101872419D02*
X171780075Y-101824800D01*
X171780075Y-101824800D02*
X171732456Y-101777180D01*
X171732456Y-101777180D02*
X171684837Y-101681942D01*
X171684837Y-101681942D02*
X171684837Y-101396228D01*
X171684837Y-101396228D02*
X171732456Y-101300990D01*
X171732456Y-101300990D02*
X171780075Y-101253371D01*
X171780075Y-101253371D02*
X171875313Y-101205752D01*
X171875313Y-101205752D02*
X172065789Y-101205752D01*
X172065789Y-101205752D02*
X172161027Y-101253371D01*
X172970551Y-101824800D02*
X172875313Y-101872419D01*
X172875313Y-101872419D02*
X172684837Y-101872419D01*
X172684837Y-101872419D02*
X172589599Y-101824800D01*
X172589599Y-101824800D02*
X172541980Y-101729561D01*
X172541980Y-101729561D02*
X172541980Y-101348609D01*
X172541980Y-101348609D02*
X172589599Y-101253371D01*
X172589599Y-101253371D02*
X172684837Y-101205752D01*
X172684837Y-101205752D02*
X172875313Y-101205752D01*
X172875313Y-101205752D02*
X172970551Y-101253371D01*
X172970551Y-101253371D02*
X173018170Y-101348609D01*
X173018170Y-101348609D02*
X173018170Y-101443847D01*
X173018170Y-101443847D02*
X172541980Y-101539085D01*
X174732456Y-101872419D02*
X174161028Y-101872419D01*
X174446742Y-101872419D02*
X174446742Y-100872419D01*
X174446742Y-100872419D02*
X174351504Y-101015276D01*
X174351504Y-101015276D02*
X174256266Y-101110514D01*
X174256266Y-101110514D02*
X174161028Y-101158133D01*
X175161028Y-101777180D02*
X175208647Y-101824800D01*
X175208647Y-101824800D02*
X175161028Y-101872419D01*
X175161028Y-101872419D02*
X175113409Y-101824800D01*
X175113409Y-101824800D02*
X175161028Y-101777180D01*
X175161028Y-101777180D02*
X175161028Y-101872419D01*
X175827694Y-100872419D02*
X175922932Y-100872419D01*
X175922932Y-100872419D02*
X176018170Y-100920038D01*
X176018170Y-100920038D02*
X176065789Y-100967657D01*
X176065789Y-100967657D02*
X176113408Y-101062895D01*
X176113408Y-101062895D02*
X176161027Y-101253371D01*
X176161027Y-101253371D02*
X176161027Y-101491466D01*
X176161027Y-101491466D02*
X176113408Y-101681942D01*
X176113408Y-101681942D02*
X176065789Y-101777180D01*
X176065789Y-101777180D02*
X176018170Y-101824800D01*
X176018170Y-101824800D02*
X175922932Y-101872419D01*
X175922932Y-101872419D02*
X175827694Y-101872419D01*
X175827694Y-101872419D02*
X175732456Y-101824800D01*
X175732456Y-101824800D02*
X175684837Y-101777180D01*
X175684837Y-101777180D02*
X175637218Y-101681942D01*
X175637218Y-101681942D02*
X175589599Y-101491466D01*
X175589599Y-101491466D02*
X175589599Y-101253371D01*
X175589599Y-101253371D02*
X175637218Y-101062895D01*
X175637218Y-101062895D02*
X175684837Y-100967657D01*
X175684837Y-100967657D02*
X175732456Y-100920038D01*
X175732456Y-100920038D02*
X175827694Y-100872419D01*
D11*
X120616667Y-82107200D02*
X120759524Y-82154819D01*
X120759524Y-82154819D02*
X120997619Y-82154819D01*
X120997619Y-82154819D02*
X121092857Y-82107200D01*
X121092857Y-82107200D02*
X121140476Y-82059580D01*
X121140476Y-82059580D02*
X121188095Y-81964342D01*
X121188095Y-81964342D02*
X121188095Y-81869104D01*
X121188095Y-81869104D02*
X121140476Y-81773866D01*
X121140476Y-81773866D02*
X121092857Y-81726247D01*
X121092857Y-81726247D02*
X120997619Y-81678628D01*
X120997619Y-81678628D02*
X120807143Y-81631009D01*
X120807143Y-81631009D02*
X120711905Y-81583390D01*
X120711905Y-81583390D02*
X120664286Y-81535771D01*
X120664286Y-81535771D02*
X120616667Y-81440533D01*
X120616667Y-81440533D02*
X120616667Y-81345295D01*
X120616667Y-81345295D02*
X120664286Y-81250057D01*
X120664286Y-81250057D02*
X120711905Y-81202438D01*
X120711905Y-81202438D02*
X120807143Y-81154819D01*
X120807143Y-81154819D02*
X121045238Y-81154819D01*
X121045238Y-81154819D02*
X121188095Y-81202438D01*
X121521429Y-81154819D02*
X121759524Y-82154819D01*
X121759524Y-82154819D02*
X121950000Y-81440533D01*
X121950000Y-81440533D02*
X122140476Y-82154819D01*
X122140476Y-82154819D02*
X122378572Y-81154819D01*
X123283333Y-82154819D02*
X122711905Y-82154819D01*
X122997619Y-82154819D02*
X122997619Y-81154819D01*
X122997619Y-81154819D02*
X122902381Y-81297676D01*
X122902381Y-81297676D02*
X122807143Y-81392914D01*
X122807143Y-81392914D02*
X122711905Y-81440533D01*
X163333333Y-82859580D02*
X163285714Y-82907200D01*
X163285714Y-82907200D02*
X163142857Y-82954819D01*
X163142857Y-82954819D02*
X163047619Y-82954819D01*
X163047619Y-82954819D02*
X162904762Y-82907200D01*
X162904762Y-82907200D02*
X162809524Y-82811961D01*
X162809524Y-82811961D02*
X162761905Y-82716723D01*
X162761905Y-82716723D02*
X162714286Y-82526247D01*
X162714286Y-82526247D02*
X162714286Y-82383390D01*
X162714286Y-82383390D02*
X162761905Y-82192914D01*
X162761905Y-82192914D02*
X162809524Y-82097676D01*
X162809524Y-82097676D02*
X162904762Y-82002438D01*
X162904762Y-82002438D02*
X163047619Y-81954819D01*
X163047619Y-81954819D02*
X163142857Y-81954819D01*
X163142857Y-81954819D02*
X163285714Y-82002438D01*
X163285714Y-82002438D02*
X163333333Y-82050057D01*
X163666667Y-81954819D02*
X164285714Y-81954819D01*
X164285714Y-81954819D02*
X163952381Y-82335771D01*
X163952381Y-82335771D02*
X164095238Y-82335771D01*
X164095238Y-82335771D02*
X164190476Y-82383390D01*
X164190476Y-82383390D02*
X164238095Y-82431009D01*
X164238095Y-82431009D02*
X164285714Y-82526247D01*
X164285714Y-82526247D02*
X164285714Y-82764342D01*
X164285714Y-82764342D02*
X164238095Y-82859580D01*
X164238095Y-82859580D02*
X164190476Y-82907200D01*
X164190476Y-82907200D02*
X164095238Y-82954819D01*
X164095238Y-82954819D02*
X163809524Y-82954819D01*
X163809524Y-82954819D02*
X163714286Y-82907200D01*
X163714286Y-82907200D02*
X163666667Y-82859580D01*
X169666666Y-84454819D02*
X169666666Y-85169104D01*
X169666666Y-85169104D02*
X169619047Y-85311961D01*
X169619047Y-85311961D02*
X169523809Y-85407200D01*
X169523809Y-85407200D02*
X169380952Y-85454819D01*
X169380952Y-85454819D02*
X169285714Y-85454819D01*
X170095238Y-84550057D02*
X170142857Y-84502438D01*
X170142857Y-84502438D02*
X170238095Y-84454819D01*
X170238095Y-84454819D02*
X170476190Y-84454819D01*
X170476190Y-84454819D02*
X170571428Y-84502438D01*
X170571428Y-84502438D02*
X170619047Y-84550057D01*
X170619047Y-84550057D02*
X170666666Y-84645295D01*
X170666666Y-84645295D02*
X170666666Y-84740533D01*
X170666666Y-84740533D02*
X170619047Y-84883390D01*
X170619047Y-84883390D02*
X170047619Y-85454819D01*
X170047619Y-85454819D02*
X170666666Y-85454819D01*
X163333333Y-79954819D02*
X163000000Y-79478628D01*
X162761905Y-79954819D02*
X162761905Y-78954819D01*
X162761905Y-78954819D02*
X163142857Y-78954819D01*
X163142857Y-78954819D02*
X163238095Y-79002438D01*
X163238095Y-79002438D02*
X163285714Y-79050057D01*
X163285714Y-79050057D02*
X163333333Y-79145295D01*
X163333333Y-79145295D02*
X163333333Y-79288152D01*
X163333333Y-79288152D02*
X163285714Y-79383390D01*
X163285714Y-79383390D02*
X163238095Y-79431009D01*
X163238095Y-79431009D02*
X163142857Y-79478628D01*
X163142857Y-79478628D02*
X162761905Y-79478628D01*
X164285714Y-79954819D02*
X163714286Y-79954819D01*
X164000000Y-79954819D02*
X164000000Y-78954819D01*
X164000000Y-78954819D02*
X163904762Y-79097676D01*
X163904762Y-79097676D02*
X163809524Y-79192914D01*
X163809524Y-79192914D02*
X163714286Y-79240533D01*
X166833333Y-90359580D02*
X166785714Y-90407200D01*
X166785714Y-90407200D02*
X166642857Y-90454819D01*
X166642857Y-90454819D02*
X166547619Y-90454819D01*
X166547619Y-90454819D02*
X166404762Y-90407200D01*
X166404762Y-90407200D02*
X166309524Y-90311961D01*
X166309524Y-90311961D02*
X166261905Y-90216723D01*
X166261905Y-90216723D02*
X166214286Y-90026247D01*
X166214286Y-90026247D02*
X166214286Y-89883390D01*
X166214286Y-89883390D02*
X166261905Y-89692914D01*
X166261905Y-89692914D02*
X166309524Y-89597676D01*
X166309524Y-89597676D02*
X166404762Y-89502438D01*
X166404762Y-89502438D02*
X166547619Y-89454819D01*
X166547619Y-89454819D02*
X166642857Y-89454819D01*
X166642857Y-89454819D02*
X166785714Y-89502438D01*
X166785714Y-89502438D02*
X166833333Y-89550057D01*
X167785714Y-90454819D02*
X167214286Y-90454819D01*
X167500000Y-90454819D02*
X167500000Y-89454819D01*
X167500000Y-89454819D02*
X167404762Y-89597676D01*
X167404762Y-89597676D02*
X167309524Y-89692914D01*
X167309524Y-89692914D02*
X167214286Y-89740533D01*
X162333333Y-90359580D02*
X162285714Y-90407200D01*
X162285714Y-90407200D02*
X162142857Y-90454819D01*
X162142857Y-90454819D02*
X162047619Y-90454819D01*
X162047619Y-90454819D02*
X161904762Y-90407200D01*
X161904762Y-90407200D02*
X161809524Y-90311961D01*
X161809524Y-90311961D02*
X161761905Y-90216723D01*
X161761905Y-90216723D02*
X161714286Y-90026247D01*
X161714286Y-90026247D02*
X161714286Y-89883390D01*
X161714286Y-89883390D02*
X161761905Y-89692914D01*
X161761905Y-89692914D02*
X161809524Y-89597676D01*
X161809524Y-89597676D02*
X161904762Y-89502438D01*
X161904762Y-89502438D02*
X162047619Y-89454819D01*
X162047619Y-89454819D02*
X162142857Y-89454819D01*
X162142857Y-89454819D02*
X162285714Y-89502438D01*
X162285714Y-89502438D02*
X162333333Y-89550057D01*
X162714286Y-89550057D02*
X162761905Y-89502438D01*
X162761905Y-89502438D02*
X162857143Y-89454819D01*
X162857143Y-89454819D02*
X163095238Y-89454819D01*
X163095238Y-89454819D02*
X163190476Y-89502438D01*
X163190476Y-89502438D02*
X163238095Y-89550057D01*
X163238095Y-89550057D02*
X163285714Y-89645295D01*
X163285714Y-89645295D02*
X163285714Y-89740533D01*
X163285714Y-89740533D02*
X163238095Y-89883390D01*
X163238095Y-89883390D02*
X162666667Y-90454819D01*
X162666667Y-90454819D02*
X163285714Y-90454819D01*
D10*
X140738095Y-72957419D02*
X140738095Y-73766942D01*
X140738095Y-73766942D02*
X140785714Y-73862180D01*
X140785714Y-73862180D02*
X140833333Y-73909800D01*
X140833333Y-73909800D02*
X140928571Y-73957419D01*
X140928571Y-73957419D02*
X141119047Y-73957419D01*
X141119047Y-73957419D02*
X141214285Y-73909800D01*
X141214285Y-73909800D02*
X141261904Y-73862180D01*
X141261904Y-73862180D02*
X141309523Y-73766942D01*
X141309523Y-73766942D02*
X141309523Y-72957419D01*
X142309523Y-73957419D02*
X141738095Y-73957419D01*
X142023809Y-73957419D02*
X142023809Y-72957419D01*
X142023809Y-72957419D02*
X141928571Y-73100276D01*
X141928571Y-73100276D02*
X141833333Y-73195514D01*
X141833333Y-73195514D02*
X141738095Y-73243133D01*
D12*
%TO.C,SW1*%
X118850000Y-82650000D02*
X118850000Y-82750000D01*
X118850000Y-82650000D02*
X125050000Y-82650000D01*
X118850000Y-84250000D02*
X118850000Y-87250000D01*
X118850000Y-88850000D02*
X118850000Y-88750000D01*
X118850000Y-88850000D02*
X125050000Y-88850000D01*
X125050000Y-82750000D02*
X125050000Y-82650000D01*
X125050000Y-84250000D02*
X125050000Y-87250000D01*
X125050000Y-88850000D02*
X125050000Y-88750000D01*
%TO.C,C3*%
X166701248Y-81727500D02*
X167223752Y-81727500D01*
X166701248Y-83197500D02*
X167223752Y-83197500D01*
%TO.C,J2*%
X172790000Y-78752500D02*
X172790000Y-79772500D01*
X172790000Y-79772500D02*
X174390000Y-79772500D01*
X172790000Y-89852500D02*
X174390000Y-89852500D01*
X172790000Y-90872500D02*
X172790000Y-89852500D01*
X174390000Y-79772500D02*
X174390000Y-81052500D01*
X174390000Y-88572500D02*
X171500000Y-88572500D01*
X174390000Y-89852500D02*
X174390000Y-88572500D01*
X177040000Y-78752500D02*
X172790000Y-78752500D01*
X177040000Y-90872500D02*
X172790000Y-90872500D01*
X180610000Y-89152500D02*
X180610000Y-80472500D01*
%TO.C,R1*%
X167227064Y-78727500D02*
X166772936Y-78727500D01*
X167227064Y-80197500D02*
X166772936Y-80197500D01*
%TO.C,C1*%
X166265000Y-87261252D02*
X166265000Y-86738748D01*
X167735000Y-87261252D02*
X167735000Y-86738748D01*
%TO.C,C2*%
X161727500Y-87261252D02*
X161727500Y-86738748D01*
X163197500Y-87261252D02*
X163197500Y-86738748D01*
D10*
%TO.C,U1*%
X137655000Y-74745000D02*
X137655000Y-78555000D01*
X137655000Y-78555000D02*
X145275000Y-78555000D01*
X142481000Y-101161000D02*
X145529000Y-101161000D01*
X142481000Y-104209000D02*
X142481000Y-101161000D01*
X142989000Y-104717000D02*
X145021000Y-104717000D01*
X143497000Y-105225000D02*
X144513000Y-105225000D01*
X145275000Y-78555000D02*
X145275000Y-74745000D01*
X145529000Y-101161000D02*
X145529000Y-104209000D01*
X145529000Y-104209000D02*
X142481000Y-104209000D01*
%TD*%
M02*
