%TF.GenerationSoftware,KiCad,Pcbnew,9.0.5*%
%TF.CreationDate,2026-02-02T17:26:05-08:00*%
%TF.ProjectId,Sensing device,53656e73-696e-4672-9064-65766963652e,1.0*%
%TF.SameCoordinates,Original*%
%TF.FileFunction,Copper,L1,Top*%
%TF.FilePolarity,Positive*%
%FSLAX46Y46*%
G04 Gerber Fmt 4.6, Leading zero omitted, Abs format (unit mm)*
G04 Created by KiCad (PCBNEW 9.0.5) date 2026-02-02 17:26:05*
%MOMM*%
%LPD*%
G01*
G04 APERTURE LIST*
G04 Aperture macros list*
%AMRoundRect*
0 Rectangle with rounded corners*
0 $1 Rounding radius*
0 $2 $3 $4 $5 $6 $7 $8 $9 X,Y pos of 4 corners*
0 Add a 4 corners polygon primitive as box body*
4,1,4,$2,$3,$4,$5,$6,$7,$8,$9,$2,$3,0*
0 Add four circle primitives for the rounded corners*
1,1,$1+$1,$2,$3*
1,1,$1+$1,$4,$5*
1,1,$1+$1,$6,$7*
1,1,$1+$1,$8,$9*
0 Add four rect primitives between the rounded corners*
20,1,$1+$1,$2,$3,$4,$5,0*
20,1,$1+$1,$4,$5,$6,$7,0*
20,1,$1+$1,$6,$7,$8,$9,0*
20,1,$1+$1,$8,$9,$2,$3,0*%
G04 Aperture macros list end*
%TA.AperFunction,SMDPad,CuDef*%
%ADD10RoundRect,0.250000X-0.800000X-0.450000X0.800000X-0.450000X0.800000X0.450000X-0.800000X0.450000X0*%
%TD*%
%TA.AperFunction,SMDPad,CuDef*%
%ADD11RoundRect,0.250000X-0.337500X-0.475000X0.337500X-0.475000X0.337500X0.475000X-0.337500X0.475000X0*%
%TD*%
%TA.AperFunction,SMDPad,CuDef*%
%ADD12RoundRect,0.250000X1.500000X-0.250000X1.500000X0.250000X-1.500000X0.250000X-1.500000X-0.250000X0*%
%TD*%
%TA.AperFunction,SMDPad,CuDef*%
%ADD13RoundRect,0.250001X1.449999X-0.499999X1.449999X0.499999X-1.449999X0.499999X-1.449999X-0.499999X0*%
%TD*%
%TA.AperFunction,SMDPad,CuDef*%
%ADD14RoundRect,0.250000X0.350000X0.450000X-0.350000X0.450000X-0.350000X-0.450000X0.350000X-0.450000X0*%
%TD*%
%TA.AperFunction,SMDPad,CuDef*%
%ADD15RoundRect,0.250000X0.475000X-0.337500X0.475000X0.337500X-0.475000X0.337500X-0.475000X-0.337500X0*%
%TD*%
%TA.AperFunction,ComponentPad*%
%ADD16O,3.556000X1.778000*%
%TD*%
%TA.AperFunction,ComponentPad*%
%ADD17C,1.905000*%
%TD*%
%TA.AperFunction,ViaPad*%
%ADD18C,0.600000*%
%TD*%
%TA.AperFunction,Conductor*%
%ADD19C,0.200000*%
%TD*%
G04 APERTURE END LIST*
D10*
%TO.P,SW1,1,1*%
%TO.N,/CAL_BTN*%
X117400000Y-83500000D03*
X126500000Y-83500000D03*
%TO.P,SW1,2,2*%
%TO.N,GND*%
X117400000Y-88000000D03*
X126500000Y-88000000D03*
%TD*%
D11*
%TO.P,C3,1*%
%TO.N,GND*%
X165925000Y-82462500D03*
%TO.P,C3,2*%
%TO.N,Net-(J2-Pin_3)*%
X168000000Y-82462500D03*
%TD*%
D12*
%TO.P,J2,1,Pin_1*%
%TO.N,+3V3*%
X173250000Y-87812500D03*
%TO.P,J2,2,Pin_2*%
%TO.N,GND*%
X173250000Y-85812500D03*
%TO.P,J2,3,Pin_3*%
%TO.N,Net-(J2-Pin_3)*%
X173250000Y-83812500D03*
%TO.P,J2,4,Pin_4*%
%TO.N,unconnected-(J2-Pin_4-Pad4)*%
X173250000Y-81812500D03*
D13*
%TO.P,J2,MP*%
%TO.N,N/C*%
X179000000Y-90162500D03*
X179000000Y-79462500D03*
%TD*%
D14*
%TO.P,R1,1*%
%TO.N,Net-(J2-Pin_3)*%
X168000000Y-79462500D03*
%TO.P,R1,2*%
%TO.N,/GSR_SIG*%
X166000000Y-79462500D03*
%TD*%
D15*
%TO.P,C1,1*%
%TO.N,+3V3*%
X167000000Y-88037500D03*
%TO.P,C1,2*%
%TO.N,GND*%
X167000000Y-85962500D03*
%TD*%
%TO.P,C2,1*%
%TO.N,+3V3*%
X162462500Y-88037500D03*
%TO.P,C2,2*%
%TO.N,GND*%
X162462500Y-85962500D03*
%TD*%
D16*
%TO.P,U1,1,GPIO1_A0_D0*%
%TO.N,/CAL_BTN*%
X133083000Y-77285000D03*
%TO.P,U1,2,GPIO2_A1_D1*%
%TO.N,/GSR_SIG*%
X133083000Y-79825000D03*
%TO.P,U1,3,GPIO3_A2_D2*%
%TO.N,unconnected-(U1-GPIO3_A2_D2-Pad3)*%
X133083000Y-82365000D03*
%TO.P,U1,4,GPIO4_A3_D3*%
%TO.N,unconnected-(U1-GPIO4_A3_D3-Pad4)*%
X133083000Y-84905000D03*
%TO.P,U1,5,GPIO4_A3_D3_SDA*%
%TO.N,unconnected-(U1-GPIO4_A3_D3_SDA-Pad5)*%
X133083000Y-87445000D03*
%TO.P,U1,6,GPIO6_A5_D5_SCL*%
%TO.N,unconnected-(U1-GPIO6_A5_D5_SCL-Pad6)*%
X133083000Y-89985000D03*
%TO.P,U1,7,GPIO43_TX_D6*%
%TO.N,unconnected-(U1-GPIO43_TX_D6-Pad7)*%
X133083000Y-92525000D03*
%TO.P,U1,8,GPIO44_D7_RX*%
%TO.N,unconnected-(U1-GPIO44_D7_RX-Pad8)*%
X149847000Y-92525000D03*
%TO.P,U1,9,GPIO7_A8_D8_SCK*%
%TO.N,unconnected-(U1-GPIO7_A8_D8_SCK-Pad9)*%
X149847000Y-89985000D03*
%TO.P,U1,10,GPIO8_A9_D9_CIPO*%
%TO.N,unconnected-(U1-GPIO8_A9_D9_CIPO-Pad10)*%
X149847000Y-87445000D03*
%TO.P,U1,11,GPIO9_A10_D10_COPI*%
%TO.N,unconnected-(U1-GPIO9_A10_D10_COPI-Pad11)*%
X149847000Y-84905000D03*
%TO.P,U1,12,3V3*%
%TO.N,+3V3*%
X149847000Y-82365000D03*
%TO.P,U1,13,GND*%
%TO.N,GND*%
X149847000Y-79825000D03*
%TO.P,U1,14,5V*%
%TO.N,unconnected-(U1-5V-Pad14)*%
X149847000Y-77285000D03*
D17*
%TO.P,U1,15,+BATT*%
%TO.N,/BAT*%
X138925000Y-102685000D03*
%TO.P,U1,16,-BATT*%
%TO.N,GND*%
X144005000Y-102685000D03*
%TD*%
D18*
%TO.N,/GSR_SIG*%
X159462500Y-79462500D03*
X130000000Y-82000000D03*
%TD*%
D19*
%TO.N,+3V3*%
X173250000Y-87812500D02*
X170687500Y-87812500D01*
X170462500Y-88037500D02*
X167000000Y-88037500D01*
X170687500Y-87812500D02*
X170462500Y-88037500D01*
X158037500Y-88037500D02*
X162462500Y-88037500D01*
X162462500Y-88037500D02*
X167000000Y-88037500D01*
X149085000Y-82365000D02*
X152365000Y-82365000D01*
X152365000Y-82365000D02*
X158037500Y-88037500D01*
%TO.N,Net-(J2-Pin_3)*%
X168000000Y-79462500D02*
X168000000Y-82462500D01*
X168000000Y-82462500D02*
X169350000Y-83812500D01*
X169350000Y-83812500D02*
X173250000Y-83812500D01*
%TO.N,/GSR_SIG*%
X132175000Y-79825000D02*
X130000000Y-82000000D01*
X166000000Y-79462500D02*
X159500000Y-79462500D01*
X133845000Y-79825000D02*
X132175000Y-79825000D01*
X159500000Y-79462500D02*
X159462500Y-79462500D01*
%TO.N,/CAL_BTN*%
X117400000Y-83500000D02*
X126500000Y-83500000D01*
X133630000Y-77500000D02*
X133845000Y-77285000D01*
X130000000Y-80000000D02*
X130000000Y-77500000D01*
X126500000Y-83500000D02*
X130000000Y-80000000D01*
X130000000Y-77500000D02*
X133630000Y-77500000D01*
%TD*%
%TA.AperFunction,Conductor*%
%TO.N,GND*%
G36*
X180503032Y-72500648D02*
G01*
X180836929Y-72517052D01*
X180849037Y-72518245D01*
X180952146Y-72533539D01*
X181176699Y-72566849D01*
X181188617Y-72569219D01*
X181509951Y-72649709D01*
X181521588Y-72653240D01*
X181592806Y-72678722D01*
X181833467Y-72764832D01*
X181844688Y-72769479D01*
X182144163Y-72911120D01*
X182154871Y-72916844D01*
X182438988Y-73087137D01*
X182449106Y-73093897D01*
X182715170Y-73291224D01*
X182724576Y-73298944D01*
X182970013Y-73521395D01*
X182978604Y-73529986D01*
X183165755Y-73736475D01*
X183201055Y-73775423D01*
X183208775Y-73784829D01*
X183406102Y-74050893D01*
X183412862Y-74061011D01*
X183541776Y-74276092D01*
X183583148Y-74345116D01*
X183588885Y-74355848D01*
X183730514Y-74655297D01*
X183735170Y-74666540D01*
X183846759Y-74978411D01*
X183850292Y-74990055D01*
X183930777Y-75311369D01*
X183933151Y-75323305D01*
X183981754Y-75650962D01*
X183982947Y-75663071D01*
X183999351Y-75996966D01*
X183999500Y-76003051D01*
X183999500Y-101996948D01*
X183999351Y-102003033D01*
X183982947Y-102336928D01*
X183981754Y-102349037D01*
X183933151Y-102676694D01*
X183930777Y-102688630D01*
X183850292Y-103009944D01*
X183846759Y-103021588D01*
X183735170Y-103333459D01*
X183730514Y-103344702D01*
X183588885Y-103644151D01*
X183583148Y-103654883D01*
X183412862Y-103938988D01*
X183406102Y-103949106D01*
X183208775Y-104215170D01*
X183201055Y-104224576D01*
X182978611Y-104470006D01*
X182970006Y-104478611D01*
X182724576Y-104701055D01*
X182715170Y-104708775D01*
X182449106Y-104906102D01*
X182438988Y-104912862D01*
X182154883Y-105083148D01*
X182144151Y-105088885D01*
X181844702Y-105230514D01*
X181833459Y-105235170D01*
X181521588Y-105346759D01*
X181509944Y-105350292D01*
X181188630Y-105430777D01*
X181176694Y-105433151D01*
X180849037Y-105481754D01*
X180836928Y-105482947D01*
X180521989Y-105498419D01*
X180503031Y-105499351D01*
X180496949Y-105499500D01*
X118003051Y-105499500D01*
X117996968Y-105499351D01*
X117976900Y-105498365D01*
X117663071Y-105482947D01*
X117650962Y-105481754D01*
X117323305Y-105433151D01*
X117311369Y-105430777D01*
X116990055Y-105350292D01*
X116978411Y-105346759D01*
X116666540Y-105235170D01*
X116655301Y-105230515D01*
X116355844Y-105088883D01*
X116345121Y-105083150D01*
X116061011Y-104912862D01*
X116050893Y-104906102D01*
X115784829Y-104708775D01*
X115775423Y-104701055D01*
X115736475Y-104665755D01*
X115529986Y-104478604D01*
X115521395Y-104470013D01*
X115298944Y-104224576D01*
X115291224Y-104215170D01*
X115093897Y-103949106D01*
X115087137Y-103938988D01*
X114916844Y-103654871D01*
X114911120Y-103644163D01*
X114769479Y-103344688D01*
X114764829Y-103333459D01*
X114653240Y-103021588D01*
X114649707Y-103009944D01*
X114640958Y-102975015D01*
X114569219Y-102688617D01*
X114566848Y-102676695D01*
X114566848Y-102676694D01*
X114551117Y-102570646D01*
X137472000Y-102570646D01*
X137472000Y-102799353D01*
X137507778Y-103025246D01*
X137507778Y-103025249D01*
X137578450Y-103242755D01*
X137578452Y-103242758D01*
X137682283Y-103446538D01*
X137816714Y-103631566D01*
X137978434Y-103793286D01*
X138163462Y-103927717D01*
X138366327Y-104031082D01*
X138367244Y-104031549D01*
X138584751Y-104102221D01*
X138584752Y-104102221D01*
X138584755Y-104102222D01*
X138810646Y-104138000D01*
X138810647Y-104138000D01*
X139039353Y-104138000D01*
X139039354Y-104138000D01*
X139265245Y-104102222D01*
X139265248Y-104102221D01*
X139265249Y-104102221D01*
X139482755Y-104031549D01*
X139482755Y-104031548D01*
X139482758Y-104031548D01*
X139686538Y-103927717D01*
X139871566Y-103793286D01*
X140033286Y-103631566D01*
X140167717Y-103446538D01*
X140271548Y-103242758D01*
X140342222Y-103025245D01*
X140378000Y-102799354D01*
X140378000Y-102570686D01*
X142552500Y-102570686D01*
X142552500Y-102799313D01*
X142588265Y-103025124D01*
X142588265Y-103025125D01*
X142658917Y-103242568D01*
X142762711Y-103446276D01*
X142816347Y-103520098D01*
X142816347Y-103520099D01*
X143515504Y-102820941D01*
X143531619Y-102881081D01*
X143598498Y-102996920D01*
X143693080Y-103091502D01*
X143808919Y-103158381D01*
X143869057Y-103174494D01*
X143169899Y-103873651D01*
X143243725Y-103927288D01*
X143243731Y-103927292D01*
X143447431Y-104031082D01*
X143664875Y-104101734D01*
X143890687Y-104137500D01*
X144119313Y-104137500D01*
X144345124Y-104101734D01*
X144345125Y-104101734D01*
X144562568Y-104031082D01*
X144766276Y-103927288D01*
X144840098Y-103873651D01*
X144140942Y-103174495D01*
X144201081Y-103158381D01*
X144316920Y-103091502D01*
X144411502Y-102996920D01*
X144478381Y-102881081D01*
X144494494Y-102820942D01*
X145193651Y-103520099D01*
X145193651Y-103520098D01*
X145247288Y-103446276D01*
X145351082Y-103242568D01*
X145421734Y-103025125D01*
X145421734Y-103025124D01*
X145457500Y-102799313D01*
X145457500Y-102570686D01*
X145421734Y-102344875D01*
X145421734Y-102344874D01*
X145351082Y-102127431D01*
X145247292Y-101923731D01*
X145247288Y-101923725D01*
X145193651Y-101849900D01*
X145193651Y-101849899D01*
X144494494Y-102549056D01*
X144478381Y-102488919D01*
X144411502Y-102373080D01*
X144316920Y-102278498D01*
X144201081Y-102211619D01*
X144140940Y-102195504D01*
X144840099Y-101496347D01*
X144766276Y-101442711D01*
X144562568Y-101338917D01*
X144345124Y-101268265D01*
X144119313Y-101232500D01*
X143890687Y-101232500D01*
X143664875Y-101268265D01*
X143664874Y-101268265D01*
X143447431Y-101338917D01*
X143243719Y-101442713D01*
X143169900Y-101496346D01*
X143169899Y-101496347D01*
X143869057Y-102195504D01*
X143808919Y-102211619D01*
X143693080Y-102278498D01*
X143598498Y-102373080D01*
X143531619Y-102488919D01*
X143515504Y-102549057D01*
X142816347Y-101849899D01*
X142816346Y-101849900D01*
X142762713Y-101923719D01*
X142658917Y-102127431D01*
X142588265Y-102344874D01*
X142588265Y-102344875D01*
X142552500Y-102570686D01*
X140378000Y-102570686D01*
X140378000Y-102570646D01*
X140342222Y-102344755D01*
X140342221Y-102344751D01*
X140342221Y-102344750D01*
X140271549Y-102127244D01*
X140167851Y-101923725D01*
X140167717Y-101923462D01*
X140033286Y-101738434D01*
X139871566Y-101576714D01*
X139686538Y-101442283D01*
X139482755Y-101338450D01*
X139265248Y-101267778D01*
X139095826Y-101240944D01*
X139039354Y-101232000D01*
X138810646Y-101232000D01*
X138735349Y-101243926D01*
X138584753Y-101267778D01*
X138584750Y-101267778D01*
X138367244Y-101338450D01*
X138163461Y-101442283D01*
X138089051Y-101496346D01*
X137978434Y-101576714D01*
X137978432Y-101576716D01*
X137978431Y-101576716D01*
X137816716Y-101738431D01*
X137816716Y-101738432D01*
X137816714Y-101738434D01*
X137758980Y-101817896D01*
X137682283Y-101923461D01*
X137578450Y-102127244D01*
X137507778Y-102344750D01*
X137507778Y-102344753D01*
X137472000Y-102570646D01*
X114551117Y-102570646D01*
X114518245Y-102349037D01*
X114517052Y-102336927D01*
X114500649Y-102003032D01*
X114500500Y-101996948D01*
X114500500Y-88499986D01*
X115850001Y-88499986D01*
X115860494Y-88602697D01*
X115915641Y-88769119D01*
X115915643Y-88769124D01*
X116007684Y-88918345D01*
X116131654Y-89042315D01*
X116280875Y-89134356D01*
X116280880Y-89134358D01*
X116447302Y-89189505D01*
X116447309Y-89189506D01*
X116550019Y-89199999D01*
X117149999Y-89199999D01*
X117650000Y-89199999D01*
X118249972Y-89199999D01*
X118249986Y-89199998D01*
X118352697Y-89189505D01*
X118519119Y-89134358D01*
X118519124Y-89134356D01*
X118668345Y-89042315D01*
X118792315Y-88918345D01*
X118884356Y-88769124D01*
X118884358Y-88769119D01*
X118939505Y-88602697D01*
X118939506Y-88602690D01*
X118949999Y-88499986D01*
X124950001Y-88499986D01*
X124960494Y-88602697D01*
X125015641Y-88769119D01*
X125015643Y-88769124D01*
X125107684Y-88918345D01*
X125231654Y-89042315D01*
X125380875Y-89134356D01*
X125380880Y-89134358D01*
X125547302Y-89189505D01*
X125547309Y-89189506D01*
X125650019Y-89199999D01*
X126249999Y-89199999D01*
X126750000Y-89199999D01*
X127349972Y-89199999D01*
X127349986Y-89199998D01*
X127452697Y-89189505D01*
X127619119Y-89134358D01*
X127619124Y-89134356D01*
X127768345Y-89042315D01*
X127892315Y-88918345D01*
X127984356Y-88769124D01*
X127984358Y-88769119D01*
X128039505Y-88602697D01*
X128039506Y-88602690D01*
X128049999Y-88499986D01*
X128050000Y-88499973D01*
X128050000Y-88250000D01*
X126750000Y-88250000D01*
X126750000Y-89199999D01*
X126249999Y-89199999D01*
X126250000Y-89199998D01*
X126250000Y-88250000D01*
X124950001Y-88250000D01*
X124950001Y-88499986D01*
X118949999Y-88499986D01*
X118950000Y-88499973D01*
X118950000Y-88250000D01*
X117650000Y-88250000D01*
X117650000Y-89199999D01*
X117149999Y-89199999D01*
X117150000Y-89199998D01*
X117150000Y-88250000D01*
X115850001Y-88250000D01*
X115850001Y-88499986D01*
X114500500Y-88499986D01*
X114500500Y-87500013D01*
X115850000Y-87500013D01*
X115850000Y-87750000D01*
X117150000Y-87750000D01*
X117650000Y-87750000D01*
X118949999Y-87750000D01*
X118949999Y-87500029D01*
X118949998Y-87500013D01*
X124950000Y-87500013D01*
X124950000Y-87750000D01*
X126250000Y-87750000D01*
X126750000Y-87750000D01*
X128049999Y-87750000D01*
X128049999Y-87500028D01*
X128049998Y-87500013D01*
X128039505Y-87397302D01*
X127984358Y-87230880D01*
X127984356Y-87230875D01*
X127892315Y-87081654D01*
X127768345Y-86957684D01*
X127619124Y-86865643D01*
X127619119Y-86865641D01*
X127452697Y-86810494D01*
X127452690Y-86810493D01*
X127349986Y-86800000D01*
X126750000Y-86800000D01*
X126750000Y-87750000D01*
X126250000Y-87750000D01*
X126250000Y-86800000D01*
X125650028Y-86800000D01*
X125650012Y-86800001D01*
X125547302Y-86810494D01*
X125380880Y-86865641D01*
X125380875Y-86865643D01*
X125231654Y-86957684D01*
X125107684Y-87081654D01*
X125015643Y-87230875D01*
X125015641Y-87230880D01*
X124960494Y-87397302D01*
X124960493Y-87397309D01*
X124950000Y-87500013D01*
X118949998Y-87500013D01*
X118949998Y-87500012D01*
X118939505Y-87397302D01*
X118884358Y-87230880D01*
X118884356Y-87230875D01*
X118792315Y-87081654D01*
X118668345Y-86957684D01*
X118519124Y-86865643D01*
X118519119Y-86865641D01*
X118352697Y-86810494D01*
X118352690Y-86810493D01*
X118249986Y-86800000D01*
X117650000Y-86800000D01*
X117650000Y-87750000D01*
X117150000Y-87750000D01*
X117150000Y-86800000D01*
X116550028Y-86800000D01*
X116550012Y-86800001D01*
X116447302Y-86810494D01*
X116280880Y-86865641D01*
X116280875Y-86865643D01*
X116131654Y-86957684D01*
X116007684Y-87081654D01*
X115915643Y-87230875D01*
X115915641Y-87230880D01*
X115860494Y-87397302D01*
X115860493Y-87397309D01*
X115850000Y-87500013D01*
X114500500Y-87500013D01*
X114500500Y-82999983D01*
X115849500Y-82999983D01*
X115849500Y-84000001D01*
X115849501Y-84000019D01*
X115860000Y-84102796D01*
X115860001Y-84102799D01*
X115915185Y-84269331D01*
X115915187Y-84269336D01*
X115950069Y-84325888D01*
X116007288Y-84418656D01*
X116131344Y-84542712D01*
X116280666Y-84634814D01*
X116447203Y-84689999D01*
X116549991Y-84700500D01*
X118250008Y-84700499D01*
X118352797Y-84689999D01*
X118519334Y-84634814D01*
X118668656Y-84542712D01*
X118792712Y-84418656D01*
X118884814Y-84269334D01*
X118912595Y-84185495D01*
X118952368Y-84128051D01*
X119016884Y-84101228D01*
X119030301Y-84100500D01*
X124869699Y-84100500D01*
X124936738Y-84120185D01*
X124982493Y-84172989D01*
X124987405Y-84185496D01*
X125015185Y-84269331D01*
X125015187Y-84269336D01*
X125050069Y-84325888D01*
X125107288Y-84418656D01*
X125231344Y-84542712D01*
X125380666Y-84634814D01*
X125547203Y-84689999D01*
X125649991Y-84700500D01*
X127350008Y-84700499D01*
X127452797Y-84689999D01*
X127619334Y-84634814D01*
X127768656Y-84542712D01*
X127892712Y-84418656D01*
X127984814Y-84269334D01*
X128039999Y-84102797D01*
X128050500Y-84000009D01*
X128050499Y-82999992D01*
X128049221Y-82987486D01*
X128042127Y-82918039D01*
X128039999Y-82897203D01*
X128039997Y-82897197D01*
X128038606Y-82890698D01*
X128043819Y-82821023D01*
X128072175Y-82777058D01*
X128987819Y-81861415D01*
X129049142Y-81827930D01*
X129118834Y-81832914D01*
X129174767Y-81874786D01*
X129199184Y-81940250D01*
X129199500Y-81949096D01*
X129199500Y-82078846D01*
X129230261Y-82233489D01*
X129230264Y-82233501D01*
X129290602Y-82379172D01*
X129290609Y-82379185D01*
X129378210Y-82510288D01*
X129378213Y-82510292D01*
X129489707Y-82621786D01*
X129489711Y-82621789D01*
X129620814Y-82709390D01*
X129620827Y-82709397D01*
X129766498Y-82769735D01*
X129766503Y-82769737D01*
X129904211Y-82797129D01*
X129921153Y-82800499D01*
X129921156Y-82800500D01*
X129921158Y-82800500D01*
X130078844Y-82800500D01*
X130078845Y-82800499D01*
X130233497Y-82769737D01*
X130346166Y-82723067D01*
X130379172Y-82709397D01*
X130379172Y-82709396D01*
X130379179Y-82709394D01*
X130510289Y-82621789D01*
X130612348Y-82519729D01*
X130673669Y-82486246D01*
X130743361Y-82491230D01*
X130799295Y-82533101D01*
X130822501Y-82588014D01*
X130838713Y-82690376D01*
X130906297Y-82898380D01*
X130906298Y-82898383D01*
X131005595Y-83093260D01*
X131134142Y-83270193D01*
X131288806Y-83424857D01*
X131439969Y-83534682D01*
X131482635Y-83590011D01*
X131488614Y-83659625D01*
X131456009Y-83721420D01*
X131439969Y-83735318D01*
X131288806Y-83845142D01*
X131134142Y-83999806D01*
X131005595Y-84176739D01*
X130906298Y-84371616D01*
X130906297Y-84371619D01*
X130838714Y-84579623D01*
X130804500Y-84795638D01*
X130804500Y-85014361D01*
X130838714Y-85230376D01*
X130906297Y-85438380D01*
X130906298Y-85438383D01*
X130923585Y-85472309D01*
X130975915Y-85575012D01*
X131005595Y-85633260D01*
X131134142Y-85810193D01*
X131288806Y-85964857D01*
X131439969Y-86074682D01*
X131482635Y-86130011D01*
X131488614Y-86199625D01*
X131456009Y-86261420D01*
X131439969Y-86275318D01*
X131288806Y-86385142D01*
X131134142Y-86539806D01*
X131005595Y-86716739D01*
X130906298Y-86911616D01*
X130906297Y-86911619D01*
X130838714Y-87119623D01*
X130804500Y-87335638D01*
X130804500Y-87554361D01*
X130838714Y-87770376D01*
X130906297Y-87978380D01*
X130906298Y-87978383D01*
X131005595Y-88173260D01*
X131134142Y-88350193D01*
X131288806Y-88504857D01*
X131439969Y-88614682D01*
X131482635Y-88670011D01*
X131488614Y-88739625D01*
X131456009Y-88801420D01*
X131439969Y-88815318D01*
X131288806Y-88925142D01*
X131134142Y-89079806D01*
X131005595Y-89256739D01*
X130906298Y-89451616D01*
X130906297Y-89451619D01*
X130838714Y-89659623D01*
X130804500Y-89875638D01*
X130804500Y-90094361D01*
X130838714Y-90310376D01*
X130906297Y-90518380D01*
X130906298Y-90518383D01*
X130973782Y-90650825D01*
X131005211Y-90712508D01*
X131005595Y-90713260D01*
X131134142Y-90890193D01*
X131288806Y-91044857D01*
X131439969Y-91154682D01*
X131482635Y-91210011D01*
X131488614Y-91279625D01*
X131456009Y-91341420D01*
X131439969Y-91355318D01*
X131288806Y-91465142D01*
X131134142Y-91619806D01*
X131005595Y-91796739D01*
X130906298Y-91991616D01*
X130906297Y-91991619D01*
X130838714Y-92199623D01*
X130804500Y-92415638D01*
X130804500Y-92634361D01*
X130838714Y-92850376D01*
X130906297Y-93058380D01*
X130906298Y-93058383D01*
X131005595Y-93253260D01*
X131134142Y-93430193D01*
X131288806Y-93584857D01*
X131454374Y-93705147D01*
X131465743Y-93713407D01*
X131593132Y-93778315D01*
X131660616Y-93812701D01*
X131660619Y-93812702D01*
X131764621Y-93846493D01*
X131868625Y-93880286D01*
X131968672Y-93896132D01*
X132084639Y-93914500D01*
X132084644Y-93914500D01*
X134081361Y-93914500D01*
X134186082Y-93897912D01*
X134297375Y-93880286D01*
X134505383Y-93812701D01*
X134700257Y-93713407D01*
X134799601Y-93641229D01*
X134877193Y-93584857D01*
X134877195Y-93584854D01*
X134877199Y-93584852D01*
X135031852Y-93430199D01*
X135031854Y-93430195D01*
X135031857Y-93430193D01*
X135088229Y-93352601D01*
X135160407Y-93253257D01*
X135259701Y-93058383D01*
X135327286Y-92850375D01*
X135344912Y-92739082D01*
X135361500Y-92634361D01*
X135361500Y-92415638D01*
X135341595Y-92289971D01*
X135327286Y-92199625D01*
X135259701Y-91991617D01*
X135259701Y-91991616D01*
X135225315Y-91924132D01*
X135160407Y-91796743D01*
X135152147Y-91785374D01*
X135031857Y-91619806D01*
X134877199Y-91465148D01*
X134877191Y-91465142D01*
X134726028Y-91355316D01*
X134683364Y-91299989D01*
X134677385Y-91230376D01*
X134709990Y-91168580D01*
X134726023Y-91154686D01*
X134877199Y-91044852D01*
X135031852Y-90890199D01*
X135031854Y-90890195D01*
X135031857Y-90890193D01*
X135088229Y-90812601D01*
X135160407Y-90713257D01*
X135259701Y-90518383D01*
X135327286Y-90310375D01*
X135344912Y-90199082D01*
X135361500Y-90094361D01*
X135361500Y-89875638D01*
X135341595Y-89749971D01*
X135327286Y-89659625D01*
X135293493Y-89555621D01*
X135259702Y-89451619D01*
X135259701Y-89451616D01*
X135204440Y-89343162D01*
X135160407Y-89256743D01*
X135152147Y-89245374D01*
X135031857Y-89079806D01*
X134877199Y-88925148D01*
X134765035Y-88843657D01*
X134726028Y-88815316D01*
X134683364Y-88759989D01*
X134677385Y-88690376D01*
X134709990Y-88628580D01*
X134726023Y-88614686D01*
X134877199Y-88504852D01*
X135031852Y-88350199D01*
X135031854Y-88350195D01*
X135031857Y-88350193D01*
X135129863Y-88215297D01*
X135160407Y-88173257D01*
X135259701Y-87978383D01*
X135327286Y-87770375D01*
X135344912Y-87659082D01*
X135361500Y-87554361D01*
X135361500Y-87335638D01*
X135332587Y-87153097D01*
X135327286Y-87119625D01*
X135259701Y-86911617D01*
X135259701Y-86911616D01*
X135214294Y-86822501D01*
X135160407Y-86716743D01*
X135152147Y-86705374D01*
X135031857Y-86539806D01*
X134877199Y-86385148D01*
X134828784Y-86349973D01*
X134726028Y-86275316D01*
X134683364Y-86219989D01*
X134677385Y-86150376D01*
X134709990Y-86088580D01*
X134726023Y-86074686D01*
X134877199Y-85964852D01*
X135031852Y-85810199D01*
X135031854Y-85810195D01*
X135031857Y-85810193D01*
X135102834Y-85712500D01*
X135160407Y-85633257D01*
X135259701Y-85438383D01*
X135327286Y-85230375D01*
X135348861Y-85094154D01*
X135361500Y-85014361D01*
X135361500Y-84795638D01*
X135336027Y-84634814D01*
X135327286Y-84579625D01*
X135273147Y-84412999D01*
X135259702Y-84371619D01*
X135259701Y-84371616D01*
X135225315Y-84304132D01*
X135160407Y-84176743D01*
X135152147Y-84165374D01*
X135031857Y-83999806D01*
X134877199Y-83845148D01*
X134877191Y-83845142D01*
X134726028Y-83735316D01*
X134683364Y-83679989D01*
X134677385Y-83610376D01*
X134709990Y-83548580D01*
X134726023Y-83534686D01*
X134877199Y-83424852D01*
X135031852Y-83270199D01*
X135031854Y-83270195D01*
X135031857Y-83270193D01*
X135116931Y-83153097D01*
X135160407Y-83093257D01*
X135259701Y-82898383D01*
X135327286Y-82690375D01*
X135352504Y-82531156D01*
X135361500Y-82474361D01*
X135361500Y-82255638D01*
X135338830Y-82112509D01*
X135327286Y-82039625D01*
X135276877Y-81884480D01*
X135259701Y-81831616D01*
X135191005Y-81696795D01*
X135160407Y-81636743D01*
X135148839Y-81620821D01*
X135031857Y-81459806D01*
X134877199Y-81305148D01*
X134873810Y-81302686D01*
X134726028Y-81195316D01*
X134683364Y-81139989D01*
X134677385Y-81070376D01*
X134709990Y-81008580D01*
X134726023Y-80994686D01*
X134877199Y-80884852D01*
X135031852Y-80730199D01*
X135031854Y-80730195D01*
X135031857Y-80730193D01*
X135092072Y-80647313D01*
X135160407Y-80553257D01*
X135259701Y-80358383D01*
X135327286Y-80150375D01*
X135349123Y-80012502D01*
X135361500Y-79934361D01*
X135361500Y-79715638D01*
X135338917Y-79573058D01*
X135327286Y-79499625D01*
X135279197Y-79351619D01*
X135259702Y-79291619D01*
X135259701Y-79291616D01*
X135225315Y-79224132D01*
X135160407Y-79096743D01*
X135150650Y-79083314D01*
X135031857Y-78919806D01*
X134877199Y-78765148D01*
X134877191Y-78765142D01*
X134726028Y-78655316D01*
X134683364Y-78599989D01*
X134677385Y-78530376D01*
X134709990Y-78468580D01*
X134726023Y-78454686D01*
X134877199Y-78344852D01*
X135031852Y-78190199D01*
X135031854Y-78190195D01*
X135031857Y-78190193D01*
X135097022Y-78100500D01*
X135160407Y-78013257D01*
X135259701Y-77818383D01*
X135327286Y-77610375D01*
X135344912Y-77499082D01*
X135361500Y-77394361D01*
X135361500Y-77175638D01*
X147568500Y-77175638D01*
X147568500Y-77394361D01*
X147602714Y-77610376D01*
X147670297Y-77818380D01*
X147670298Y-77818383D01*
X147769595Y-78013260D01*
X147898142Y-78190193D01*
X148052802Y-78344853D01*
X148052807Y-78344857D01*
X148204394Y-78454991D01*
X148247060Y-78510320D01*
X148253039Y-78579934D01*
X148220434Y-78641729D01*
X148204394Y-78655627D01*
X148053133Y-78765524D01*
X148053128Y-78765528D01*
X147898528Y-78920128D01*
X147898524Y-78920133D01*
X147770023Y-79097001D01*
X147670762Y-79291808D01*
X147670761Y-79291811D01*
X147603201Y-79499741D01*
X147591282Y-79575000D01*
X148642749Y-79575000D01*
X148611619Y-79628919D01*
X148577000Y-79758120D01*
X148577000Y-79891880D01*
X148611619Y-80021081D01*
X148642749Y-80075000D01*
X147591282Y-80075000D01*
X147603201Y-80150258D01*
X147670761Y-80358188D01*
X147670762Y-80358191D01*
X147770023Y-80552998D01*
X147898524Y-80729866D01*
X147898528Y-80729871D01*
X148053128Y-80884471D01*
X148053133Y-80884475D01*
X148204394Y-80994372D01*
X148247060Y-81049701D01*
X148253039Y-81119315D01*
X148220434Y-81181110D01*
X148204394Y-81195008D01*
X148052807Y-81305142D01*
X148052802Y-81305146D01*
X147898142Y-81459806D01*
X147769595Y-81636739D01*
X147670299Y-81831616D01*
X147602714Y-82039623D01*
X147568500Y-82255638D01*
X147568500Y-82474361D01*
X147602714Y-82690376D01*
X147670297Y-82898380D01*
X147670298Y-82898383D01*
X147769595Y-83093260D01*
X147898142Y-83270193D01*
X148052806Y-83424857D01*
X148203969Y-83534682D01*
X148246635Y-83590011D01*
X148252614Y-83659625D01*
X148220009Y-83721420D01*
X148203969Y-83735318D01*
X148052806Y-83845142D01*
X147898142Y-83999806D01*
X147769595Y-84176739D01*
X147670298Y-84371616D01*
X147670297Y-84371619D01*
X147602714Y-84579623D01*
X147568500Y-84795638D01*
X147568500Y-85014361D01*
X147602714Y-85230376D01*
X147670297Y-85438380D01*
X147670298Y-85438383D01*
X147687585Y-85472309D01*
X147739915Y-85575012D01*
X147769595Y-85633260D01*
X147898142Y-85810193D01*
X148052806Y-85964857D01*
X148203969Y-86074682D01*
X148246635Y-86130011D01*
X148252614Y-86199625D01*
X148220009Y-86261420D01*
X148203969Y-86275318D01*
X148052806Y-86385142D01*
X147898142Y-86539806D01*
X147769595Y-86716739D01*
X147670298Y-86911616D01*
X147670297Y-86911619D01*
X147602714Y-87119623D01*
X147568500Y-87335638D01*
X147568500Y-87554361D01*
X147602714Y-87770376D01*
X147670297Y-87978380D01*
X147670298Y-87978383D01*
X147769595Y-88173260D01*
X147898142Y-88350193D01*
X148052806Y-88504857D01*
X148203969Y-88614682D01*
X148246635Y-88670011D01*
X148252614Y-88739625D01*
X148220009Y-88801420D01*
X148203969Y-88815318D01*
X148052806Y-88925142D01*
X147898142Y-89079806D01*
X147769595Y-89256739D01*
X147670298Y-89451616D01*
X147670297Y-89451619D01*
X147602714Y-89659623D01*
X147568500Y-89875638D01*
X147568500Y-90094361D01*
X147602714Y-90310376D01*
X147670297Y-90518380D01*
X147670298Y-90518383D01*
X147737782Y-90650825D01*
X147769211Y-90712508D01*
X147769595Y-90713260D01*
X147898142Y-90890193D01*
X148052806Y-91044857D01*
X148203969Y-91154682D01*
X148246635Y-91210011D01*
X148252614Y-91279625D01*
X148220009Y-91341420D01*
X148203969Y-91355318D01*
X148052806Y-91465142D01*
X147898142Y-91619806D01*
X147769595Y-91796739D01*
X147670298Y-91991616D01*
X147670297Y-91991619D01*
X147602714Y-92199623D01*
X147568500Y-92415638D01*
X147568500Y-92634361D01*
X147602714Y-92850376D01*
X147670297Y-93058380D01*
X147670298Y-93058383D01*
X147769595Y-93253260D01*
X147898142Y-93430193D01*
X148052806Y-93584857D01*
X148218374Y-93705147D01*
X148229743Y-93713407D01*
X148357132Y-93778315D01*
X148424616Y-93812701D01*
X148424619Y-93812702D01*
X148528621Y-93846493D01*
X148632625Y-93880286D01*
X148732672Y-93896132D01*
X148848639Y-93914500D01*
X148848644Y-93914500D01*
X150845361Y-93914500D01*
X150950082Y-93897912D01*
X151061375Y-93880286D01*
X151269383Y-93812701D01*
X151464257Y-93713407D01*
X151563601Y-93641229D01*
X151641193Y-93584857D01*
X151641195Y-93584854D01*
X151641199Y-93584852D01*
X151795852Y-93430199D01*
X151795854Y-93430195D01*
X151795857Y-93430193D01*
X151852229Y-93352601D01*
X151924407Y-93253257D01*
X152023701Y-93058383D01*
X152091286Y-92850375D01*
X152108912Y-92739082D01*
X152125500Y-92634361D01*
X152125500Y-92415638D01*
X152105595Y-92289971D01*
X152091286Y-92199625D01*
X152023701Y-91991617D01*
X152023701Y-91991616D01*
X151989315Y-91924132D01*
X151924407Y-91796743D01*
X151916147Y-91785374D01*
X151795857Y-91619806D01*
X151641199Y-91465148D01*
X151641191Y-91465142D01*
X151490028Y-91355316D01*
X151447364Y-91299989D01*
X151441385Y-91230376D01*
X151473990Y-91168580D01*
X151490023Y-91154686D01*
X151641199Y-91044852D01*
X151795852Y-90890199D01*
X151795854Y-90890195D01*
X151795857Y-90890193D01*
X151852229Y-90812601D01*
X151924407Y-90713257D01*
X152023701Y-90518383D01*
X152091286Y-90310375D01*
X152108912Y-90199082D01*
X152125500Y-90094361D01*
X152125500Y-89875638D01*
X152091286Y-89659624D01*
X152087397Y-89647656D01*
X152087396Y-89647654D01*
X152087396Y-89647652D01*
X152075969Y-89612484D01*
X176799500Y-89612484D01*
X176799500Y-90712515D01*
X176810000Y-90815295D01*
X176810001Y-90815296D01*
X176865186Y-90981835D01*
X176865187Y-90981837D01*
X176957286Y-91131151D01*
X176957289Y-91131155D01*
X177081344Y-91255210D01*
X177081348Y-91255213D01*
X177230662Y-91347312D01*
X177230664Y-91347313D01*
X177230666Y-91347314D01*
X177397203Y-91402499D01*
X177499992Y-91413000D01*
X177499997Y-91413000D01*
X180500003Y-91413000D01*
X180500008Y-91413000D01*
X180602797Y-91402499D01*
X180769334Y-91347314D01*
X180918655Y-91255211D01*
X181042711Y-91131155D01*
X181134814Y-90981834D01*
X181189999Y-90815297D01*
X181200500Y-90712508D01*
X181200500Y-89612492D01*
X181189999Y-89509703D01*
X181134814Y-89343166D01*
X181081507Y-89256743D01*
X181042713Y-89193848D01*
X181042710Y-89193844D01*
X180918655Y-89069789D01*
X180918651Y-89069786D01*
X180769337Y-88977687D01*
X180769335Y-88977686D01*
X180686065Y-88950093D01*
X180602797Y-88922501D01*
X180602795Y-88922500D01*
X180500015Y-88912000D01*
X180500008Y-88912000D01*
X177499992Y-88912000D01*
X177499984Y-88912000D01*
X177397204Y-88922500D01*
X177397203Y-88922501D01*
X177230664Y-88977686D01*
X177230662Y-88977687D01*
X177081348Y-89069786D01*
X177081344Y-89069789D01*
X176957289Y-89193844D01*
X176957286Y-89193848D01*
X176865187Y-89343162D01*
X176865186Y-89343164D01*
X176810001Y-89509703D01*
X176810000Y-89509704D01*
X176799500Y-89612484D01*
X152075969Y-89612484D01*
X152023703Y-89451622D01*
X152023701Y-89451616D01*
X151968440Y-89343162D01*
X151924407Y-89256743D01*
X151916147Y-89245374D01*
X151795857Y-89079806D01*
X151641199Y-88925148D01*
X151529035Y-88843657D01*
X151490028Y-88815316D01*
X151447364Y-88759989D01*
X151441385Y-88690376D01*
X151473990Y-88628580D01*
X151490023Y-88614686D01*
X151641199Y-88504852D01*
X151795852Y-88350199D01*
X151795854Y-88350195D01*
X151795857Y-88350193D01*
X151893863Y-88215297D01*
X151924407Y-88173257D01*
X152023701Y-87978383D01*
X152091286Y-87770375D01*
X152108912Y-87659082D01*
X152125500Y-87554361D01*
X152125500Y-87335638D01*
X152096587Y-87153097D01*
X152091286Y-87119625D01*
X152023701Y-86911617D01*
X152023701Y-86911616D01*
X151978294Y-86822501D01*
X151924407Y-86716743D01*
X151916147Y-86705374D01*
X151795857Y-86539806D01*
X151641199Y-86385148D01*
X151592784Y-86349973D01*
X151490028Y-86275316D01*
X151447364Y-86219989D01*
X151441385Y-86150376D01*
X151473990Y-86088580D01*
X151490023Y-86074686D01*
X151641199Y-85964852D01*
X151795852Y-85810199D01*
X151795854Y-85810195D01*
X151795857Y-85810193D01*
X151866834Y-85712500D01*
X151924407Y-85633257D01*
X152023701Y-85438383D01*
X152091286Y-85230375D01*
X152112861Y-85094154D01*
X152125500Y-85014361D01*
X152125500Y-84795638D01*
X152100027Y-84634814D01*
X152091286Y-84579625D01*
X152037147Y-84412999D01*
X152023702Y-84371619D01*
X152023701Y-84371616D01*
X151989315Y-84304132D01*
X151924407Y-84176743D01*
X151916147Y-84165374D01*
X151795857Y-83999806D01*
X151641199Y-83845148D01*
X151641191Y-83845142D01*
X151490028Y-83735316D01*
X151447364Y-83679989D01*
X151441385Y-83610376D01*
X151473990Y-83548580D01*
X151490023Y-83534686D01*
X151641199Y-83424852D01*
X151795852Y-83270199D01*
X151795854Y-83270195D01*
X151795857Y-83270193D01*
X151880931Y-83153097D01*
X151924407Y-83093257D01*
X151954807Y-83033593D01*
X152002782Y-82982798D01*
X152070603Y-82966003D01*
X152136738Y-82988541D01*
X152152973Y-83002208D01*
X157552639Y-88401874D01*
X157552649Y-88401885D01*
X157556979Y-88406215D01*
X157556980Y-88406216D01*
X157668784Y-88518020D01*
X157668786Y-88518021D01*
X157668790Y-88518024D01*
X157805709Y-88597073D01*
X157805716Y-88597077D01*
X157917519Y-88627034D01*
X157958442Y-88638000D01*
X157958443Y-88638000D01*
X161198732Y-88638000D01*
X161265771Y-88657685D01*
X161304269Y-88696901D01*
X161394788Y-88843656D01*
X161518844Y-88967712D01*
X161668166Y-89059814D01*
X161834703Y-89114999D01*
X161937491Y-89125500D01*
X162987508Y-89125499D01*
X162987516Y-89125498D01*
X162987519Y-89125498D01*
X163043802Y-89119748D01*
X163090297Y-89114999D01*
X163256834Y-89059814D01*
X163406156Y-88967712D01*
X163530212Y-88843656D01*
X163620729Y-88696902D01*
X163672677Y-88650179D01*
X163726268Y-88638000D01*
X165736232Y-88638000D01*
X165803271Y-88657685D01*
X165841769Y-88696901D01*
X165932288Y-88843656D01*
X166056344Y-88967712D01*
X166205666Y-89059814D01*
X166372203Y-89114999D01*
X166474991Y-89125500D01*
X167525008Y-89125499D01*
X167525016Y-89125498D01*
X167525019Y-89125498D01*
X167581302Y-89119748D01*
X167627797Y-89114999D01*
X167794334Y-89059814D01*
X167943656Y-88967712D01*
X168067712Y-88843656D01*
X168158229Y-88696902D01*
X168210177Y-88650179D01*
X168263768Y-88638000D01*
X170375831Y-88638000D01*
X170375847Y-88638001D01*
X170383443Y-88638001D01*
X170541554Y-88638001D01*
X170541557Y-88638001D01*
X170694285Y-88597077D01*
X170744404Y-88568139D01*
X170831216Y-88518020D01*
X170905742Y-88443493D01*
X170912286Y-88438491D01*
X170937511Y-88428789D01*
X170961239Y-88415834D01*
X170975068Y-88414347D01*
X170977500Y-88413412D01*
X170979642Y-88413855D01*
X170987598Y-88413000D01*
X171015202Y-88413000D01*
X171082241Y-88432685D01*
X171120739Y-88471901D01*
X171157288Y-88531156D01*
X171281344Y-88655212D01*
X171430666Y-88747314D01*
X171597203Y-88802499D01*
X171699991Y-88813000D01*
X174800008Y-88812999D01*
X174902797Y-88802499D01*
X175069334Y-88747314D01*
X175218656Y-88655212D01*
X175342712Y-88531156D01*
X175434814Y-88381834D01*
X175489999Y-88215297D01*
X175500500Y-88112509D01*
X175500499Y-87512492D01*
X175489999Y-87409703D01*
X175434814Y-87243166D01*
X175342712Y-87093844D01*
X175218656Y-86969788D01*
X175134279Y-86917744D01*
X175087556Y-86865797D01*
X175076333Y-86796834D01*
X175104177Y-86732752D01*
X175134281Y-86706667D01*
X175218343Y-86654817D01*
X175342315Y-86530845D01*
X175434356Y-86381624D01*
X175434358Y-86381619D01*
X175489505Y-86215197D01*
X175489506Y-86215190D01*
X175499999Y-86112486D01*
X175500000Y-86112473D01*
X175500000Y-86062500D01*
X171000001Y-86062500D01*
X171000001Y-86112486D01*
X171010494Y-86215197D01*
X171065641Y-86381619D01*
X171065643Y-86381624D01*
X171157684Y-86530845D01*
X171281654Y-86654815D01*
X171365719Y-86706667D01*
X171412443Y-86758615D01*
X171423666Y-86827578D01*
X171395822Y-86891660D01*
X171365719Y-86917744D01*
X171281347Y-86969785D01*
X171281343Y-86969788D01*
X171157289Y-87093842D01*
X171120741Y-87153097D01*
X171068793Y-87199821D01*
X171015202Y-87212000D01*
X170766557Y-87212000D01*
X170608443Y-87212000D01*
X170455715Y-87252923D01*
X170455714Y-87252923D01*
X170455712Y-87252924D01*
X170455709Y-87252925D01*
X170412543Y-87277847D01*
X170412534Y-87277853D01*
X170405595Y-87281860D01*
X170318784Y-87331980D01*
X170244255Y-87406508D01*
X170237715Y-87411509D01*
X170212482Y-87421212D01*
X170188760Y-87434166D01*
X170174933Y-87435652D01*
X170172501Y-87436588D01*
X170170358Y-87436144D01*
X170162402Y-87437000D01*
X168263768Y-87437000D01*
X168196729Y-87417315D01*
X168158229Y-87378097D01*
X168132044Y-87335644D01*
X168067712Y-87231344D01*
X167943656Y-87107288D01*
X167940342Y-87105243D01*
X167938546Y-87103248D01*
X167937989Y-87102807D01*
X167938064Y-87102711D01*
X167893618Y-87053297D01*
X167882397Y-86984334D01*
X167910240Y-86920252D01*
X167940348Y-86894165D01*
X167943342Y-86892318D01*
X168067315Y-86768345D01*
X168159356Y-86619124D01*
X168159358Y-86619119D01*
X168214505Y-86452697D01*
X168214506Y-86452690D01*
X168224999Y-86349986D01*
X168225000Y-86349973D01*
X168225000Y-86212500D01*
X165775001Y-86212500D01*
X165775001Y-86349986D01*
X165785494Y-86452697D01*
X165840641Y-86619119D01*
X165840643Y-86619124D01*
X165932684Y-86768345D01*
X166056655Y-86892316D01*
X166056659Y-86892319D01*
X166059656Y-86894168D01*
X166061279Y-86895972D01*
X166062323Y-86896798D01*
X166062181Y-86896976D01*
X166106381Y-86946116D01*
X166117602Y-87015079D01*
X166089759Y-87079161D01*
X166059661Y-87105241D01*
X166056349Y-87107283D01*
X166056343Y-87107288D01*
X165932289Y-87231342D01*
X165932288Y-87231344D01*
X165867960Y-87335638D01*
X165841771Y-87378097D01*
X165789823Y-87424821D01*
X165736232Y-87437000D01*
X163726268Y-87437000D01*
X163659229Y-87417315D01*
X163620729Y-87378097D01*
X163594544Y-87335644D01*
X163530212Y-87231344D01*
X163406156Y-87107288D01*
X163402842Y-87105243D01*
X163401046Y-87103248D01*
X163400489Y-87102807D01*
X163400564Y-87102711D01*
X163356118Y-87053297D01*
X163344897Y-86984334D01*
X163372740Y-86920252D01*
X163402848Y-86894165D01*
X163405842Y-86892318D01*
X163529815Y-86768345D01*
X163621856Y-86619124D01*
X163621858Y-86619119D01*
X163677005Y-86452697D01*
X163677006Y-86452690D01*
X163687499Y-86349986D01*
X163687500Y-86349973D01*
X163687500Y-86212500D01*
X161237501Y-86212500D01*
X161237501Y-86349986D01*
X161247994Y-86452697D01*
X161303141Y-86619119D01*
X161303143Y-86619124D01*
X161395184Y-86768345D01*
X161519155Y-86892316D01*
X161519159Y-86892319D01*
X161522156Y-86894168D01*
X161523779Y-86895972D01*
X161524823Y-86896798D01*
X161524681Y-86896976D01*
X161568881Y-86946116D01*
X161580102Y-87015079D01*
X161552259Y-87079161D01*
X161522161Y-87105241D01*
X161518849Y-87107283D01*
X161518843Y-87107288D01*
X161394789Y-87231342D01*
X161394788Y-87231344D01*
X161330460Y-87335638D01*
X161304271Y-87378097D01*
X161252323Y-87424821D01*
X161198732Y-87437000D01*
X158337597Y-87437000D01*
X158270558Y-87417315D01*
X158249916Y-87400681D01*
X156424248Y-85575013D01*
X161237500Y-85575013D01*
X161237500Y-85712500D01*
X162212500Y-85712500D01*
X162712500Y-85712500D01*
X163687499Y-85712500D01*
X163687499Y-85575029D01*
X163687498Y-85575013D01*
X165775000Y-85575013D01*
X165775000Y-85712500D01*
X166750000Y-85712500D01*
X167250000Y-85712500D01*
X168224999Y-85712500D01*
X168224999Y-85575028D01*
X168224998Y-85575013D01*
X168214505Y-85472302D01*
X168159358Y-85305880D01*
X168159356Y-85305875D01*
X168067315Y-85156654D01*
X167943345Y-85032684D01*
X167794124Y-84940643D01*
X167794119Y-84940641D01*
X167627697Y-84885494D01*
X167627690Y-84885493D01*
X167524986Y-84875000D01*
X167250000Y-84875000D01*
X167250000Y-85712500D01*
X166750000Y-85712500D01*
X166750000Y-84875000D01*
X166475029Y-84875000D01*
X166475012Y-84875001D01*
X166372302Y-84885494D01*
X166205880Y-84940641D01*
X166205875Y-84940643D01*
X166056654Y-85032684D01*
X165932684Y-85156654D01*
X165840643Y-85305875D01*
X165840641Y-85305880D01*
X165785494Y-85472302D01*
X165785493Y-85472309D01*
X165775000Y-85575013D01*
X163687498Y-85575013D01*
X163687498Y-85575012D01*
X163677005Y-85472302D01*
X163621858Y-85305880D01*
X163621856Y-85305875D01*
X163529815Y-85156654D01*
X163405845Y-85032684D01*
X163256624Y-84940643D01*
X163256619Y-84940641D01*
X163090197Y-84885494D01*
X163090190Y-84885493D01*
X162987486Y-84875000D01*
X162712500Y-84875000D01*
X162712500Y-85712500D01*
X162212500Y-85712500D01*
X162212500Y-84875000D01*
X161937529Y-84875000D01*
X161937512Y-84875001D01*
X161834802Y-84885494D01*
X161668380Y-84940641D01*
X161668375Y-84940643D01*
X161519154Y-85032684D01*
X161395184Y-85156654D01*
X161303143Y-85305875D01*
X161303141Y-85305880D01*
X161247994Y-85472302D01*
X161247993Y-85472309D01*
X161237500Y-85575013D01*
X156424248Y-85575013D01*
X153836721Y-82987486D01*
X164837501Y-82987486D01*
X164847994Y-83090197D01*
X164903141Y-83256619D01*
X164903143Y-83256624D01*
X164995184Y-83405845D01*
X165119154Y-83529815D01*
X165268375Y-83621856D01*
X165268380Y-83621858D01*
X165434802Y-83677005D01*
X165434809Y-83677006D01*
X165537519Y-83687499D01*
X165674999Y-83687499D01*
X165675000Y-83687498D01*
X165675000Y-82712500D01*
X164837501Y-82712500D01*
X164837501Y-82987486D01*
X153836721Y-82987486D01*
X152852590Y-82003355D01*
X152852588Y-82003352D01*
X152786749Y-81937513D01*
X164837500Y-81937513D01*
X164837500Y-82212500D01*
X165675000Y-82212500D01*
X165675000Y-81237500D01*
X165537527Y-81237500D01*
X165537512Y-81237501D01*
X165434802Y-81247994D01*
X165268380Y-81303141D01*
X165268375Y-81303143D01*
X165119154Y-81395184D01*
X164995184Y-81519154D01*
X164903143Y-81668375D01*
X164903141Y-81668380D01*
X164847994Y-81834802D01*
X164847993Y-81834809D01*
X164837500Y-81937513D01*
X152786749Y-81937513D01*
X152733717Y-81884481D01*
X152733709Y-81884475D01*
X152642155Y-81831617D01*
X152642153Y-81831616D01*
X152596790Y-81805425D01*
X152596789Y-81805424D01*
X152584263Y-81802067D01*
X152444057Y-81764499D01*
X152285943Y-81764499D01*
X152278347Y-81764499D01*
X152278331Y-81764500D01*
X152065490Y-81764500D01*
X151998451Y-81744815D01*
X151955005Y-81696795D01*
X151924407Y-81636743D01*
X151912839Y-81620821D01*
X151795857Y-81459806D01*
X151641197Y-81305146D01*
X151641192Y-81305142D01*
X151489605Y-81195008D01*
X151446939Y-81139678D01*
X151440960Y-81070065D01*
X151473565Y-81008270D01*
X151489605Y-80994371D01*
X151640873Y-80884469D01*
X151795471Y-80729871D01*
X151795475Y-80729866D01*
X151923976Y-80552998D01*
X152023237Y-80358191D01*
X152023238Y-80358188D01*
X152090798Y-80150258D01*
X152102718Y-80075000D01*
X149527251Y-80075000D01*
X149558381Y-80021081D01*
X149593000Y-79891880D01*
X149593000Y-79758120D01*
X149558381Y-79628919D01*
X149527251Y-79575000D01*
X152102718Y-79575000D01*
X152090798Y-79499741D01*
X152063551Y-79415884D01*
X152063550Y-79415882D01*
X152053078Y-79383653D01*
X158662000Y-79383653D01*
X158662000Y-79541346D01*
X158692761Y-79695989D01*
X158692764Y-79696001D01*
X158753102Y-79841672D01*
X158753109Y-79841685D01*
X158840710Y-79972788D01*
X158840713Y-79972792D01*
X158952207Y-80084286D01*
X158952211Y-80084289D01*
X159083314Y-80171890D01*
X159083327Y-80171897D01*
X159227909Y-80231784D01*
X159229003Y-80232237D01*
X159383653Y-80262999D01*
X159383656Y-80263000D01*
X159383658Y-80263000D01*
X159541344Y-80263000D01*
X159541345Y-80262999D01*
X159695997Y-80232237D01*
X159841679Y-80171894D01*
X159873883Y-80150376D01*
X159973375Y-80083898D01*
X160040053Y-80063020D01*
X160042266Y-80063000D01*
X164819699Y-80063000D01*
X164886738Y-80082685D01*
X164932493Y-80135489D01*
X164937403Y-80147992D01*
X164945324Y-80171894D01*
X164965185Y-80231831D01*
X164965187Y-80231836D01*
X164965435Y-80232238D01*
X165057288Y-80381156D01*
X165181344Y-80505212D01*
X165330666Y-80597314D01*
X165497203Y-80652499D01*
X165599991Y-80663000D01*
X166400008Y-80662999D01*
X166400016Y-80662998D01*
X166400019Y-80662998D01*
X166456302Y-80657248D01*
X166502797Y-80652499D01*
X166669334Y-80597314D01*
X166818656Y-80505212D01*
X166912319Y-80411549D01*
X166973642Y-80378064D01*
X167043334Y-80383048D01*
X167087681Y-80411549D01*
X167181344Y-80505212D01*
X167330666Y-80597314D01*
X167330667Y-80597314D01*
X167336813Y-80601105D01*
X167335706Y-80602899D01*
X167380337Y-80642187D01*
X167399500Y-80708408D01*
X167399500Y-81198732D01*
X167379815Y-81265771D01*
X167340598Y-81304269D01*
X167244923Y-81363281D01*
X167193842Y-81394789D01*
X167069788Y-81518843D01*
X167069783Y-81518849D01*
X167067741Y-81522161D01*
X167065747Y-81523953D01*
X167065307Y-81524511D01*
X167065211Y-81524435D01*
X167015791Y-81568883D01*
X166946828Y-81580102D01*
X166882747Y-81552255D01*
X166856668Y-81522156D01*
X166854819Y-81519159D01*
X166854816Y-81519155D01*
X166730845Y-81395184D01*
X166581624Y-81303143D01*
X166581619Y-81303141D01*
X166415197Y-81247994D01*
X166415190Y-81247993D01*
X166312486Y-81237500D01*
X166175000Y-81237500D01*
X166175000Y-83687499D01*
X166312472Y-83687499D01*
X166312486Y-83687498D01*
X166415197Y-83677005D01*
X166581619Y-83621858D01*
X166581624Y-83621856D01*
X166730845Y-83529815D01*
X166854818Y-83405842D01*
X166856665Y-83402848D01*
X166858469Y-83401224D01*
X166859298Y-83400177D01*
X166859476Y-83400318D01*
X166908610Y-83356121D01*
X166977573Y-83344896D01*
X167041656Y-83372736D01*
X167067743Y-83402841D01*
X167069788Y-83406156D01*
X167193844Y-83530212D01*
X167343166Y-83622314D01*
X167509703Y-83677499D01*
X167612491Y-83688000D01*
X168324902Y-83687999D01*
X168391941Y-83707683D01*
X168412583Y-83724318D01*
X168865139Y-84176874D01*
X168865149Y-84176885D01*
X168869479Y-84181215D01*
X168869480Y-84181216D01*
X168981284Y-84293020D01*
X169068095Y-84343139D01*
X169068097Y-84343141D01*
X169118213Y-84372076D01*
X169118215Y-84372077D01*
X169270942Y-84413000D01*
X169270943Y-84413000D01*
X171015202Y-84413000D01*
X171082241Y-84432685D01*
X171120741Y-84471903D01*
X171157289Y-84531157D01*
X171281344Y-84655212D01*
X171365718Y-84707254D01*
X171412443Y-84759202D01*
X171423666Y-84828164D01*
X171395822Y-84892247D01*
X171365720Y-84918331D01*
X171281656Y-84970182D01*
X171157684Y-85094154D01*
X171065643Y-85243375D01*
X171065641Y-85243380D01*
X171010494Y-85409802D01*
X171010493Y-85409809D01*
X171000000Y-85512513D01*
X171000000Y-85562500D01*
X175499999Y-85562500D01*
X175499999Y-85512528D01*
X175499998Y-85512513D01*
X175489505Y-85409802D01*
X175434358Y-85243380D01*
X175434356Y-85243375D01*
X175342315Y-85094154D01*
X175218344Y-84970183D01*
X175218340Y-84970180D01*
X175134280Y-84918331D01*
X175087555Y-84866383D01*
X175076334Y-84797421D01*
X175104177Y-84733339D01*
X175134278Y-84707256D01*
X175218656Y-84655212D01*
X175342712Y-84531156D01*
X175434814Y-84381834D01*
X175489999Y-84215297D01*
X175500500Y-84112509D01*
X175500499Y-83512492D01*
X175491546Y-83424852D01*
X175489999Y-83409703D01*
X175489998Y-83409700D01*
X175477749Y-83372736D01*
X175434814Y-83243166D01*
X175342712Y-83093844D01*
X175218656Y-82969788D01*
X175218655Y-82969787D01*
X175134757Y-82918039D01*
X175088032Y-82866091D01*
X175076809Y-82797129D01*
X175104653Y-82733046D01*
X175134757Y-82706961D01*
X175143993Y-82701264D01*
X175218656Y-82655212D01*
X175342712Y-82531156D01*
X175434814Y-82381834D01*
X175489999Y-82215297D01*
X175500500Y-82112509D01*
X175500499Y-81512492D01*
X175489999Y-81409703D01*
X175434814Y-81243166D01*
X175342712Y-81093844D01*
X175218656Y-80969788D01*
X175080952Y-80884852D01*
X175069336Y-80877687D01*
X175069331Y-80877685D01*
X175067862Y-80877198D01*
X174902797Y-80822501D01*
X174902795Y-80822500D01*
X174800010Y-80812000D01*
X171699998Y-80812000D01*
X171699981Y-80812001D01*
X171597203Y-80822500D01*
X171597200Y-80822501D01*
X171430668Y-80877685D01*
X171430663Y-80877687D01*
X171281342Y-80969789D01*
X171157289Y-81093842D01*
X171065187Y-81243163D01*
X171065185Y-81243168D01*
X171044938Y-81304271D01*
X171010001Y-81409703D01*
X171010001Y-81409704D01*
X171010000Y-81409704D01*
X170999500Y-81512483D01*
X170999500Y-82112501D01*
X170999501Y-82112519D01*
X171010000Y-82215296D01*
X171010001Y-82215299D01*
X171041383Y-82310001D01*
X171065186Y-82381834D01*
X171157288Y-82531156D01*
X171281344Y-82655212D01*
X171356007Y-82701264D01*
X171365243Y-82706961D01*
X171411967Y-82758909D01*
X171423190Y-82827872D01*
X171395346Y-82891954D01*
X171365243Y-82918039D01*
X171281342Y-82969789D01*
X171157289Y-83093842D01*
X171120741Y-83153097D01*
X171068793Y-83199821D01*
X171015202Y-83212000D01*
X169650097Y-83212000D01*
X169583058Y-83192315D01*
X169562416Y-83175681D01*
X169124318Y-82737583D01*
X169090833Y-82676260D01*
X169087999Y-82649902D01*
X169087999Y-81937498D01*
X169087998Y-81937481D01*
X169077499Y-81834703D01*
X169077498Y-81834700D01*
X169067797Y-81805424D01*
X169022314Y-81668166D01*
X168930212Y-81518844D01*
X168806156Y-81394788D01*
X168659402Y-81304270D01*
X168612679Y-81252323D01*
X168600500Y-81198732D01*
X168600500Y-80708408D01*
X168620185Y-80641369D01*
X168664271Y-80602863D01*
X168663187Y-80601105D01*
X168669332Y-80597314D01*
X168669334Y-80597314D01*
X168818656Y-80505212D01*
X168942712Y-80381156D01*
X169034814Y-80231834D01*
X169089999Y-80065297D01*
X169100500Y-79962509D01*
X169100499Y-78962492D01*
X169095391Y-78912484D01*
X176799500Y-78912484D01*
X176799500Y-80012515D01*
X176810000Y-80115295D01*
X176810001Y-80115297D01*
X176837593Y-80198565D01*
X176865186Y-80281835D01*
X176865187Y-80281837D01*
X176957286Y-80431151D01*
X176957289Y-80431155D01*
X177081344Y-80555210D01*
X177081348Y-80555213D01*
X177230662Y-80647312D01*
X177230664Y-80647313D01*
X177230666Y-80647314D01*
X177397203Y-80702499D01*
X177499992Y-80713000D01*
X177499997Y-80713000D01*
X180500003Y-80713000D01*
X180500008Y-80713000D01*
X180602797Y-80702499D01*
X180769334Y-80647314D01*
X180918655Y-80555211D01*
X181042711Y-80431155D01*
X181134814Y-80281834D01*
X181189999Y-80115297D01*
X181200500Y-80012508D01*
X181200500Y-78912492D01*
X181189999Y-78809703D01*
X181134814Y-78643166D01*
X181133737Y-78641420D01*
X181042713Y-78493848D01*
X181042710Y-78493844D01*
X180918655Y-78369789D01*
X180918651Y-78369786D01*
X180769337Y-78277687D01*
X180769335Y-78277686D01*
X180686065Y-78250093D01*
X180602797Y-78222501D01*
X180602795Y-78222500D01*
X180500015Y-78212000D01*
X180500008Y-78212000D01*
X177499992Y-78212000D01*
X177499984Y-78212000D01*
X177397204Y-78222500D01*
X177397203Y-78222501D01*
X177230664Y-78277686D01*
X177230662Y-78277687D01*
X177081348Y-78369786D01*
X177081344Y-78369789D01*
X176957289Y-78493844D01*
X176957286Y-78493848D01*
X176865187Y-78643162D01*
X176865186Y-78643164D01*
X176810001Y-78809703D01*
X176810000Y-78809704D01*
X176799500Y-78912484D01*
X169095391Y-78912484D01*
X169089999Y-78859703D01*
X169034814Y-78693166D01*
X168942712Y-78543844D01*
X168818656Y-78419788D01*
X168669334Y-78327686D01*
X168502797Y-78272501D01*
X168502795Y-78272500D01*
X168400010Y-78262000D01*
X167599998Y-78262000D01*
X167599980Y-78262001D01*
X167497203Y-78272500D01*
X167497200Y-78272501D01*
X167330668Y-78327685D01*
X167330663Y-78327687D01*
X167181342Y-78419789D01*
X167087681Y-78513451D01*
X167026358Y-78546936D01*
X166956666Y-78541952D01*
X166912319Y-78513451D01*
X166818657Y-78419789D01*
X166818656Y-78419788D01*
X166669334Y-78327686D01*
X166502797Y-78272501D01*
X166502795Y-78272500D01*
X166400010Y-78262000D01*
X165599998Y-78262000D01*
X165599980Y-78262001D01*
X165497203Y-78272500D01*
X165497200Y-78272501D01*
X165330668Y-78327685D01*
X165330663Y-78327687D01*
X165181342Y-78419789D01*
X165057289Y-78543842D01*
X164965187Y-78693163D01*
X164965186Y-78693166D01*
X164941334Y-78765148D01*
X164937405Y-78777004D01*
X164897632Y-78834449D01*
X164833116Y-78861272D01*
X164819699Y-78862000D01*
X160042266Y-78862000D01*
X159975227Y-78842315D01*
X159973375Y-78841102D01*
X159841685Y-78753109D01*
X159841672Y-78753102D01*
X159696001Y-78692764D01*
X159695989Y-78692761D01*
X159541345Y-78662000D01*
X159541342Y-78662000D01*
X159383658Y-78662000D01*
X159383655Y-78662000D01*
X159229010Y-78692761D01*
X159228998Y-78692764D01*
X159083327Y-78753102D01*
X159083314Y-78753109D01*
X158952211Y-78840710D01*
X158952207Y-78840713D01*
X158840713Y-78952207D01*
X158840710Y-78952211D01*
X158753109Y-79083314D01*
X158753102Y-79083327D01*
X158692764Y-79228998D01*
X158692761Y-79229010D01*
X158662000Y-79383653D01*
X152053078Y-79383653D01*
X152023239Y-79291814D01*
X152023237Y-79291808D01*
X151923976Y-79097001D01*
X151795475Y-78920133D01*
X151795471Y-78920128D01*
X151640871Y-78765528D01*
X151640866Y-78765524D01*
X151489605Y-78655627D01*
X151446939Y-78600297D01*
X151440960Y-78530684D01*
X151473565Y-78468889D01*
X151489599Y-78454994D01*
X151641199Y-78344852D01*
X151795852Y-78190199D01*
X151795854Y-78190195D01*
X151795857Y-78190193D01*
X151861022Y-78100500D01*
X151924407Y-78013257D01*
X152023701Y-77818383D01*
X152091286Y-77610375D01*
X152108912Y-77499082D01*
X152125500Y-77394361D01*
X152125500Y-77175638D01*
X152100765Y-77019475D01*
X152091286Y-76959625D01*
X152023701Y-76751617D01*
X152023701Y-76751616D01*
X151989315Y-76684132D01*
X151924407Y-76556743D01*
X151916147Y-76545374D01*
X151795857Y-76379806D01*
X151641193Y-76225142D01*
X151464260Y-76096595D01*
X151464259Y-76096594D01*
X151464257Y-76096593D01*
X151401825Y-76064782D01*
X151269383Y-75997298D01*
X151269380Y-75997297D01*
X151061376Y-75929714D01*
X150845361Y-75895500D01*
X150845356Y-75895500D01*
X148848644Y-75895500D01*
X148848639Y-75895500D01*
X148632623Y-75929714D01*
X148424619Y-75997297D01*
X148424616Y-75997298D01*
X148229739Y-76096595D01*
X148052806Y-76225142D01*
X147898142Y-76379806D01*
X147769595Y-76556739D01*
X147670298Y-76751616D01*
X147670297Y-76751619D01*
X147602714Y-76959623D01*
X147568500Y-77175638D01*
X135361500Y-77175638D01*
X135336765Y-77019475D01*
X135327286Y-76959625D01*
X135259701Y-76751617D01*
X135259701Y-76751616D01*
X135225315Y-76684132D01*
X135160407Y-76556743D01*
X135152147Y-76545374D01*
X135031857Y-76379806D01*
X134877193Y-76225142D01*
X134700260Y-76096595D01*
X134700259Y-76096594D01*
X134700257Y-76096593D01*
X134637825Y-76064782D01*
X134505383Y-75997298D01*
X134505380Y-75997297D01*
X134297376Y-75929714D01*
X134081361Y-75895500D01*
X134081356Y-75895500D01*
X132084644Y-75895500D01*
X132084639Y-75895500D01*
X131868623Y-75929714D01*
X131660619Y-75997297D01*
X131660616Y-75997298D01*
X131465739Y-76096595D01*
X131288806Y-76225142D01*
X131134142Y-76379806D01*
X131005595Y-76556739D01*
X130906298Y-76751616D01*
X130906296Y-76751622D01*
X130886089Y-76813817D01*
X130846652Y-76871493D01*
X130782294Y-76898692D01*
X130768158Y-76899500D01*
X129920943Y-76899500D01*
X129768216Y-76940423D01*
X129768209Y-76940426D01*
X129631290Y-77019475D01*
X129631282Y-77019481D01*
X129519481Y-77131282D01*
X129519475Y-77131290D01*
X129440426Y-77268209D01*
X129440423Y-77268216D01*
X129399500Y-77420943D01*
X129399500Y-79699902D01*
X129379815Y-79766941D01*
X129363181Y-79787583D01*
X126887582Y-82263181D01*
X126826259Y-82296666D01*
X126799901Y-82299500D01*
X125649998Y-82299500D01*
X125649981Y-82299501D01*
X125547203Y-82310000D01*
X125547200Y-82310001D01*
X125380668Y-82365185D01*
X125380663Y-82365187D01*
X125231342Y-82457289D01*
X125107289Y-82581342D01*
X125015187Y-82730663D01*
X125015185Y-82730668D01*
X124987405Y-82814504D01*
X124947632Y-82871949D01*
X124883116Y-82898772D01*
X124869699Y-82899500D01*
X119030301Y-82899500D01*
X118963262Y-82879815D01*
X118917507Y-82827011D01*
X118912595Y-82814504D01*
X118908617Y-82802499D01*
X118884814Y-82730666D01*
X118792712Y-82581344D01*
X118668656Y-82457288D01*
X118542030Y-82379185D01*
X118519336Y-82365187D01*
X118519331Y-82365185D01*
X118517862Y-82364698D01*
X118352797Y-82310001D01*
X118352795Y-82310000D01*
X118250010Y-82299500D01*
X116549998Y-82299500D01*
X116549981Y-82299501D01*
X116447203Y-82310000D01*
X116447200Y-82310001D01*
X116280668Y-82365185D01*
X116280663Y-82365187D01*
X116131342Y-82457289D01*
X116007289Y-82581342D01*
X115915187Y-82730663D01*
X115915186Y-82730666D01*
X115860001Y-82897203D01*
X115860001Y-82897204D01*
X115860000Y-82897204D01*
X115849500Y-82999983D01*
X114500500Y-82999983D01*
X114500500Y-76003051D01*
X114500649Y-75996967D01*
X114517052Y-75663072D01*
X114518245Y-75650962D01*
X114566849Y-75323296D01*
X114569218Y-75311385D01*
X114649710Y-74990043D01*
X114653240Y-74978411D01*
X114764835Y-74666525D01*
X114769476Y-74655318D01*
X114911124Y-74355828D01*
X114916840Y-74345136D01*
X115087145Y-74060998D01*
X115093888Y-74050905D01*
X115291232Y-73784818D01*
X115298935Y-73775433D01*
X115521405Y-73529975D01*
X115529975Y-73521405D01*
X115775433Y-73298935D01*
X115784818Y-73291232D01*
X116050905Y-73093888D01*
X116060998Y-73087145D01*
X116345136Y-72916840D01*
X116355828Y-72911124D01*
X116655318Y-72769476D01*
X116666525Y-72764835D01*
X116978412Y-72653239D01*
X116990043Y-72649710D01*
X117311385Y-72569218D01*
X117323296Y-72566849D01*
X117650962Y-72518244D01*
X117663068Y-72517052D01*
X117996967Y-72500648D01*
X118003051Y-72500500D01*
X118065892Y-72500500D01*
X180434108Y-72500500D01*
X180496949Y-72500500D01*
X180503032Y-72500648D01*
G37*
%TD.AperFunction*%
%TD*%
M02*
