%TF.GenerationSoftware,KiCad,Pcbnew,9.0.5*%
%TF.CreationDate,2026-02-02T17:26:05-08:00*%
%TF.ProjectId,Sensing device,53656e73-696e-4672-9064-65766963652e,1.0*%
%TF.SameCoordinates,Original*%
%TF.FileFunction,Copper,L2,Bot*%
%TF.FilePolarity,Positive*%
%FSLAX46Y46*%
G04 Gerber Fmt 4.6, Leading zero omitted, Abs format (unit mm)*
G04 Created by KiCad (PCBNEW 9.0.5) date 2026-02-02 17:26:05*
%MOMM*%
%LPD*%
G01*
G04 APERTURE LIST*
%TA.AperFunction,ComponentPad*%
%ADD10O,3.556000X1.778000*%
%TD*%
%TA.AperFunction,ComponentPad*%
%ADD11C,1.905000*%
%TD*%
%TA.AperFunction,ViaPad*%
%ADD12C,0.600000*%
%TD*%
%TA.AperFunction,Conductor*%
%ADD13C,0.200000*%
%TD*%
G04 APERTURE END LIST*
D10*
%TO.P,U1,1,GPIO1_A0_D0*%
%TO.N,/CAL_BTN*%
X133083000Y-77285000D03*
%TO.P,U1,2,GPIO2_A1_D1*%
%TO.N,/GSR_SIG*%
X133083000Y-79825000D03*
%TO.P,U1,3,GPIO3_A2_D2*%
%TO.N,unconnected-(U1-GPIO3_A2_D2-Pad3)*%
X133083000Y-82365000D03*
%TO.P,U1,4,GPIO4_A3_D3*%
%TO.N,unconnected-(U1-GPIO4_A3_D3-Pad4)*%
X133083000Y-84905000D03*
%TO.P,U1,5,GPIO4_A3_D3_SDA*%
%TO.N,unconnected-(U1-GPIO4_A3_D3_SDA-Pad5)*%
X133083000Y-87445000D03*
%TO.P,U1,6,GPIO6_A5_D5_SCL*%
%TO.N,unconnected-(U1-GPIO6_A5_D5_SCL-Pad6)*%
X133083000Y-89985000D03*
%TO.P,U1,7,GPIO43_TX_D6*%
%TO.N,unconnected-(U1-GPIO43_TX_D6-Pad7)*%
X133083000Y-92525000D03*
%TO.P,U1,8,GPIO44_D7_RX*%
%TO.N,unconnected-(U1-GPIO44_D7_RX-Pad8)*%
X149847000Y-92525000D03*
%TO.P,U1,9,GPIO7_A8_D8_SCK*%
%TO.N,unconnected-(U1-GPIO7_A8_D8_SCK-Pad9)*%
X149847000Y-89985000D03*
%TO.P,U1,10,GPIO8_A9_D9_CIPO*%
%TO.N,unconnected-(U1-GPIO8_A9_D9_CIPO-Pad10)*%
X149847000Y-87445000D03*
%TO.P,U1,11,GPIO9_A10_D10_COPI*%
%TO.N,unconnected-(U1-GPIO9_A10_D10_COPI-Pad11)*%
X149847000Y-84905000D03*
%TO.P,U1,12,3V3*%
%TO.N,+3V3*%
X149847000Y-82365000D03*
%TO.P,U1,13,GND*%
%TO.N,GND*%
X149847000Y-79825000D03*
%TO.P,U1,14,5V*%
%TO.N,unconnected-(U1-5V-Pad14)*%
X149847000Y-77285000D03*
D11*
%TO.P,U1,15,+BATT*%
%TO.N,/BAT*%
X138925000Y-102685000D03*
%TO.P,U1,16,-BATT*%
%TO.N,GND*%
X144005000Y-102685000D03*
%TD*%
D12*
%TO.N,/GSR_SIG*%
X159462500Y-79462500D03*
X130000000Y-82000000D03*
%TD*%
D13*
%TO.N,/GSR_SIG*%
X130500000Y-97500000D02*
X156500000Y-97500000D01*
X130000000Y-97000000D02*
X130500000Y-97500000D01*
X156500000Y-97500000D02*
X156500000Y-82500000D01*
X130000000Y-82000000D02*
X130000000Y-97000000D01*
X156500000Y-82500000D02*
X159500000Y-79500000D01*
%TD*%
%TA.AperFunction,Conductor*%
%TO.N,GND*%
G36*
X180503032Y-72500648D02*
G01*
X180836929Y-72517052D01*
X180849037Y-72518245D01*
X180952146Y-72533539D01*
X181176699Y-72566849D01*
X181188617Y-72569219D01*
X181509951Y-72649709D01*
X181521588Y-72653240D01*
X181592806Y-72678722D01*
X181833467Y-72764832D01*
X181844688Y-72769479D01*
X182144163Y-72911120D01*
X182154871Y-72916844D01*
X182438988Y-73087137D01*
X182449106Y-73093897D01*
X182715170Y-73291224D01*
X182724576Y-73298944D01*
X182970013Y-73521395D01*
X182978604Y-73529986D01*
X183165755Y-73736475D01*
X183201055Y-73775423D01*
X183208775Y-73784829D01*
X183406102Y-74050893D01*
X183412862Y-74061011D01*
X183541776Y-74276092D01*
X183583148Y-74345116D01*
X183588885Y-74355848D01*
X183730514Y-74655297D01*
X183735170Y-74666540D01*
X183846759Y-74978411D01*
X183850292Y-74990055D01*
X183930777Y-75311369D01*
X183933151Y-75323305D01*
X183981754Y-75650962D01*
X183982947Y-75663071D01*
X183999351Y-75996966D01*
X183999500Y-76003051D01*
X183999500Y-101996948D01*
X183999351Y-102003033D01*
X183982947Y-102336928D01*
X183981754Y-102349037D01*
X183933151Y-102676694D01*
X183930777Y-102688630D01*
X183850292Y-103009944D01*
X183846759Y-103021588D01*
X183735170Y-103333459D01*
X183730514Y-103344702D01*
X183588885Y-103644151D01*
X183583148Y-103654883D01*
X183412862Y-103938988D01*
X183406102Y-103949106D01*
X183208775Y-104215170D01*
X183201055Y-104224576D01*
X182978611Y-104470006D01*
X182970006Y-104478611D01*
X182724576Y-104701055D01*
X182715170Y-104708775D01*
X182449106Y-104906102D01*
X182438988Y-104912862D01*
X182154883Y-105083148D01*
X182144151Y-105088885D01*
X181844702Y-105230514D01*
X181833459Y-105235170D01*
X181521588Y-105346759D01*
X181509944Y-105350292D01*
X181188630Y-105430777D01*
X181176694Y-105433151D01*
X180849037Y-105481754D01*
X180836928Y-105482947D01*
X180521989Y-105498419D01*
X180503031Y-105499351D01*
X180496949Y-105499500D01*
X118003051Y-105499500D01*
X117996968Y-105499351D01*
X117976900Y-105498365D01*
X117663071Y-105482947D01*
X117650962Y-105481754D01*
X117323305Y-105433151D01*
X117311369Y-105430777D01*
X116990055Y-105350292D01*
X116978411Y-105346759D01*
X116666540Y-105235170D01*
X116655301Y-105230515D01*
X116355844Y-105088883D01*
X116345121Y-105083150D01*
X116061011Y-104912862D01*
X116050893Y-104906102D01*
X115784829Y-104708775D01*
X115775423Y-104701055D01*
X115736475Y-104665755D01*
X115529986Y-104478604D01*
X115521395Y-104470013D01*
X115298944Y-104224576D01*
X115291224Y-104215170D01*
X115093897Y-103949106D01*
X115087137Y-103938988D01*
X114916844Y-103654871D01*
X114911120Y-103644163D01*
X114769479Y-103344688D01*
X114764829Y-103333459D01*
X114653240Y-103021588D01*
X114649707Y-103009944D01*
X114640958Y-102975015D01*
X114569219Y-102688617D01*
X114566848Y-102676695D01*
X114566848Y-102676694D01*
X114551117Y-102570646D01*
X137472000Y-102570646D01*
X137472000Y-102799353D01*
X137507778Y-103025246D01*
X137507778Y-103025249D01*
X137578450Y-103242755D01*
X137578452Y-103242758D01*
X137682283Y-103446538D01*
X137816714Y-103631566D01*
X137978434Y-103793286D01*
X138163462Y-103927717D01*
X138366327Y-104031082D01*
X138367244Y-104031549D01*
X138584751Y-104102221D01*
X138584752Y-104102221D01*
X138584755Y-104102222D01*
X138810646Y-104138000D01*
X138810647Y-104138000D01*
X139039353Y-104138000D01*
X139039354Y-104138000D01*
X139265245Y-104102222D01*
X139265248Y-104102221D01*
X139265249Y-104102221D01*
X139482755Y-104031549D01*
X139482755Y-104031548D01*
X139482758Y-104031548D01*
X139686538Y-103927717D01*
X139871566Y-103793286D01*
X140033286Y-103631566D01*
X140167717Y-103446538D01*
X140271548Y-103242758D01*
X140342222Y-103025245D01*
X140378000Y-102799354D01*
X140378000Y-102570686D01*
X142552500Y-102570686D01*
X142552500Y-102799313D01*
X142588265Y-103025124D01*
X142588265Y-103025125D01*
X142658917Y-103242568D01*
X142762711Y-103446276D01*
X142816347Y-103520098D01*
X142816347Y-103520099D01*
X143515504Y-102820941D01*
X143531619Y-102881081D01*
X143598498Y-102996920D01*
X143693080Y-103091502D01*
X143808919Y-103158381D01*
X143869057Y-103174494D01*
X143169899Y-103873651D01*
X143243725Y-103927288D01*
X143243731Y-103927292D01*
X143447431Y-104031082D01*
X143664875Y-104101734D01*
X143890687Y-104137500D01*
X144119313Y-104137500D01*
X144345124Y-104101734D01*
X144345125Y-104101734D01*
X144562568Y-104031082D01*
X144766276Y-103927288D01*
X144840098Y-103873651D01*
X144140942Y-103174495D01*
X144201081Y-103158381D01*
X144316920Y-103091502D01*
X144411502Y-102996920D01*
X144478381Y-102881081D01*
X144494494Y-102820942D01*
X145193651Y-103520099D01*
X145193651Y-103520098D01*
X145247288Y-103446276D01*
X145351082Y-103242568D01*
X145421734Y-103025125D01*
X145421734Y-103025124D01*
X145457500Y-102799313D01*
X145457500Y-102570686D01*
X145421734Y-102344875D01*
X145421734Y-102344874D01*
X145351082Y-102127431D01*
X145247292Y-101923731D01*
X145247288Y-101923725D01*
X145193651Y-101849900D01*
X145193651Y-101849899D01*
X144494494Y-102549056D01*
X144478381Y-102488919D01*
X144411502Y-102373080D01*
X144316920Y-102278498D01*
X144201081Y-102211619D01*
X144140940Y-102195504D01*
X144840099Y-101496347D01*
X144766276Y-101442711D01*
X144562568Y-101338917D01*
X144345124Y-101268265D01*
X144119313Y-101232500D01*
X143890687Y-101232500D01*
X143664875Y-101268265D01*
X143664874Y-101268265D01*
X143447431Y-101338917D01*
X143243719Y-101442713D01*
X143169900Y-101496346D01*
X143169899Y-101496347D01*
X143869057Y-102195504D01*
X143808919Y-102211619D01*
X143693080Y-102278498D01*
X143598498Y-102373080D01*
X143531619Y-102488919D01*
X143515504Y-102549057D01*
X142816347Y-101849899D01*
X142816346Y-101849900D01*
X142762713Y-101923719D01*
X142658917Y-102127431D01*
X142588265Y-102344874D01*
X142588265Y-102344875D01*
X142552500Y-102570686D01*
X140378000Y-102570686D01*
X140378000Y-102570646D01*
X140342222Y-102344755D01*
X140342221Y-102344751D01*
X140342221Y-102344750D01*
X140271549Y-102127244D01*
X140167851Y-101923725D01*
X140167717Y-101923462D01*
X140033286Y-101738434D01*
X139871566Y-101576714D01*
X139686538Y-101442283D01*
X139482755Y-101338450D01*
X139265248Y-101267778D01*
X139095826Y-101240944D01*
X139039354Y-101232000D01*
X138810646Y-101232000D01*
X138735349Y-101243926D01*
X138584753Y-101267778D01*
X138584750Y-101267778D01*
X138367244Y-101338450D01*
X138163461Y-101442283D01*
X138089051Y-101496346D01*
X137978434Y-101576714D01*
X137978432Y-101576716D01*
X137978431Y-101576716D01*
X137816716Y-101738431D01*
X137816716Y-101738432D01*
X137816714Y-101738434D01*
X137758980Y-101817896D01*
X137682283Y-101923461D01*
X137578450Y-102127244D01*
X137507778Y-102344750D01*
X137507778Y-102344753D01*
X137472000Y-102570646D01*
X114551117Y-102570646D01*
X114518245Y-102349037D01*
X114517052Y-102336927D01*
X114500649Y-102003032D01*
X114500500Y-101996948D01*
X114500500Y-81921153D01*
X129199500Y-81921153D01*
X129199500Y-82078846D01*
X129230261Y-82233489D01*
X129230264Y-82233501D01*
X129290602Y-82379172D01*
X129290609Y-82379185D01*
X129378602Y-82510874D01*
X129399480Y-82577551D01*
X129399500Y-82579765D01*
X129399500Y-96913330D01*
X129399499Y-96913348D01*
X129399499Y-97079054D01*
X129399498Y-97079054D01*
X129399499Y-97079057D01*
X129440423Y-97231785D01*
X129461457Y-97268216D01*
X129519480Y-97368716D01*
X129631284Y-97480520D01*
X129631285Y-97480521D01*
X130131284Y-97980520D01*
X130131286Y-97980521D01*
X130131290Y-97980524D01*
X130268209Y-98059573D01*
X130268216Y-98059577D01*
X130420943Y-98100501D01*
X130420945Y-98100501D01*
X130586654Y-98100501D01*
X130586670Y-98100500D01*
X156579055Y-98100500D01*
X156579057Y-98100500D01*
X156731784Y-98059577D01*
X156868716Y-97980520D01*
X156980520Y-97868716D01*
X157059577Y-97731784D01*
X157100500Y-97579057D01*
X157100500Y-82800097D01*
X157120185Y-82733058D01*
X157136819Y-82712416D01*
X158228421Y-81620814D01*
X159570786Y-80278448D01*
X159632107Y-80244965D01*
X159634178Y-80244533D01*
X159695997Y-80232237D01*
X159841679Y-80171894D01*
X159972789Y-80084289D01*
X160084289Y-79972789D01*
X160171894Y-79841679D01*
X160232237Y-79695997D01*
X160263000Y-79541342D01*
X160263000Y-79383658D01*
X160263000Y-79383655D01*
X160262999Y-79383653D01*
X160244692Y-79291617D01*
X160232237Y-79229003D01*
X160232235Y-79228998D01*
X160171897Y-79083327D01*
X160171890Y-79083314D01*
X160084289Y-78952211D01*
X160084286Y-78952207D01*
X159972792Y-78840713D01*
X159972788Y-78840710D01*
X159841685Y-78753109D01*
X159841672Y-78753102D01*
X159696001Y-78692764D01*
X159695989Y-78692761D01*
X159541345Y-78662000D01*
X159541342Y-78662000D01*
X159383658Y-78662000D01*
X159383655Y-78662000D01*
X159229010Y-78692761D01*
X159228998Y-78692764D01*
X159083327Y-78753102D01*
X159083314Y-78753109D01*
X158952211Y-78840710D01*
X158952207Y-78840713D01*
X158840713Y-78952207D01*
X158840710Y-78952211D01*
X158753109Y-79083314D01*
X158753102Y-79083327D01*
X158692764Y-79228998D01*
X158692761Y-79229010D01*
X158662000Y-79383653D01*
X158662000Y-79437402D01*
X158642315Y-79504441D01*
X158625681Y-79525083D01*
X156019481Y-82131282D01*
X156019479Y-82131285D01*
X155969361Y-82218094D01*
X155969359Y-82218096D01*
X155940425Y-82268209D01*
X155940424Y-82268210D01*
X155940423Y-82268215D01*
X155899499Y-82420943D01*
X155899499Y-82420945D01*
X155899499Y-82589046D01*
X155899500Y-82589059D01*
X155899500Y-96775500D01*
X155879815Y-96842539D01*
X155827011Y-96888294D01*
X155775500Y-96899500D01*
X130800098Y-96899500D01*
X130770657Y-96890855D01*
X130740671Y-96884332D01*
X130735655Y-96880577D01*
X130733059Y-96879815D01*
X130712417Y-96863181D01*
X130636819Y-96787583D01*
X130603334Y-96726260D01*
X130600500Y-96699902D01*
X130600500Y-92900133D01*
X130620185Y-92833094D01*
X130672989Y-92787339D01*
X130742147Y-92777395D01*
X130805703Y-92806420D01*
X130842431Y-92861816D01*
X130906296Y-93058377D01*
X130906298Y-93058383D01*
X131005595Y-93253260D01*
X131134142Y-93430193D01*
X131288806Y-93584857D01*
X131454374Y-93705147D01*
X131465743Y-93713407D01*
X131593132Y-93778315D01*
X131660616Y-93812701D01*
X131660619Y-93812702D01*
X131764621Y-93846493D01*
X131868625Y-93880286D01*
X131968672Y-93896132D01*
X132084639Y-93914500D01*
X132084644Y-93914500D01*
X134081361Y-93914500D01*
X134186082Y-93897912D01*
X134297375Y-93880286D01*
X134505383Y-93812701D01*
X134700257Y-93713407D01*
X134799601Y-93641229D01*
X134877193Y-93584857D01*
X134877195Y-93584854D01*
X134877199Y-93584852D01*
X135031852Y-93430199D01*
X135031854Y-93430195D01*
X135031857Y-93430193D01*
X135088229Y-93352601D01*
X135160407Y-93253257D01*
X135259701Y-93058383D01*
X135327286Y-92850375D01*
X135344912Y-92739082D01*
X135361500Y-92634361D01*
X135361500Y-92415638D01*
X135338917Y-92273058D01*
X135327286Y-92199625D01*
X135259701Y-91991617D01*
X135259701Y-91991616D01*
X135225315Y-91924132D01*
X135160407Y-91796743D01*
X135152147Y-91785374D01*
X135031857Y-91619806D01*
X134877199Y-91465148D01*
X134877191Y-91465142D01*
X134726028Y-91355316D01*
X134683364Y-91299989D01*
X134677385Y-91230376D01*
X134709990Y-91168580D01*
X134726023Y-91154686D01*
X134877199Y-91044852D01*
X135031852Y-90890199D01*
X135031854Y-90890195D01*
X135031857Y-90890193D01*
X135088229Y-90812601D01*
X135160407Y-90713257D01*
X135259701Y-90518383D01*
X135327286Y-90310375D01*
X135344912Y-90199082D01*
X135361500Y-90094361D01*
X135361500Y-89875638D01*
X135338917Y-89733058D01*
X135327286Y-89659625D01*
X135259701Y-89451617D01*
X135259701Y-89451616D01*
X135225315Y-89384132D01*
X135160407Y-89256743D01*
X135152147Y-89245374D01*
X135031857Y-89079806D01*
X134877199Y-88925148D01*
X134877191Y-88925142D01*
X134726028Y-88815316D01*
X134683364Y-88759989D01*
X134677385Y-88690376D01*
X134709990Y-88628580D01*
X134726023Y-88614686D01*
X134877199Y-88504852D01*
X135031852Y-88350199D01*
X135031854Y-88350195D01*
X135031857Y-88350193D01*
X135088229Y-88272601D01*
X135160407Y-88173257D01*
X135259701Y-87978383D01*
X135327286Y-87770375D01*
X135344912Y-87659082D01*
X135361500Y-87554361D01*
X135361500Y-87335638D01*
X135338917Y-87193058D01*
X135327286Y-87119625D01*
X135259701Y-86911617D01*
X135259701Y-86911616D01*
X135225315Y-86844132D01*
X135160407Y-86716743D01*
X135152147Y-86705374D01*
X135031857Y-86539806D01*
X134877199Y-86385148D01*
X134877191Y-86385142D01*
X134726028Y-86275316D01*
X134683364Y-86219989D01*
X134677385Y-86150376D01*
X134709990Y-86088580D01*
X134726023Y-86074686D01*
X134877199Y-85964852D01*
X135031852Y-85810199D01*
X135031854Y-85810195D01*
X135031857Y-85810193D01*
X135088229Y-85732601D01*
X135160407Y-85633257D01*
X135259701Y-85438383D01*
X135327286Y-85230375D01*
X135344912Y-85119082D01*
X135361500Y-85014361D01*
X135361500Y-84795638D01*
X135338917Y-84653058D01*
X135327286Y-84579625D01*
X135259701Y-84371617D01*
X135259701Y-84371616D01*
X135225315Y-84304132D01*
X135160407Y-84176743D01*
X135152147Y-84165374D01*
X135031857Y-83999806D01*
X134877199Y-83845148D01*
X134877191Y-83845142D01*
X134726028Y-83735316D01*
X134683364Y-83679989D01*
X134677385Y-83610376D01*
X134709990Y-83548580D01*
X134726023Y-83534686D01*
X134877199Y-83424852D01*
X135031852Y-83270199D01*
X135031854Y-83270195D01*
X135031857Y-83270193D01*
X135088229Y-83192601D01*
X135160407Y-83093257D01*
X135259701Y-82898383D01*
X135327286Y-82690375D01*
X135352437Y-82531578D01*
X135361500Y-82474361D01*
X135361500Y-82255638D01*
X135333497Y-82078842D01*
X135327286Y-82039625D01*
X135259701Y-81831617D01*
X135259701Y-81831616D01*
X135193531Y-81701752D01*
X135160407Y-81636743D01*
X135148834Y-81620814D01*
X135031857Y-81459806D01*
X134877199Y-81305148D01*
X134877191Y-81305142D01*
X134726028Y-81195316D01*
X134683364Y-81139989D01*
X134677385Y-81070376D01*
X134709990Y-81008580D01*
X134726023Y-80994686D01*
X134877199Y-80884852D01*
X135031852Y-80730199D01*
X135031854Y-80730195D01*
X135031857Y-80730193D01*
X135088229Y-80652601D01*
X135160407Y-80553257D01*
X135259701Y-80358383D01*
X135327286Y-80150375D01*
X135347764Y-80021081D01*
X135361500Y-79934361D01*
X135361500Y-79715638D01*
X135333894Y-79541346D01*
X135327286Y-79499625D01*
X135279197Y-79351619D01*
X135259702Y-79291619D01*
X135259701Y-79291616D01*
X135225315Y-79224132D01*
X135160407Y-79096743D01*
X135150650Y-79083314D01*
X135031857Y-78919806D01*
X134877199Y-78765148D01*
X134877191Y-78765142D01*
X134726028Y-78655316D01*
X134683364Y-78599989D01*
X134677385Y-78530376D01*
X134709990Y-78468580D01*
X134726023Y-78454686D01*
X134877199Y-78344852D01*
X135031852Y-78190199D01*
X135031854Y-78190195D01*
X135031857Y-78190193D01*
X135088229Y-78112601D01*
X135160407Y-78013257D01*
X135259701Y-77818383D01*
X135327286Y-77610375D01*
X135344912Y-77499082D01*
X135361500Y-77394361D01*
X135361500Y-77175638D01*
X147568500Y-77175638D01*
X147568500Y-77394361D01*
X147602714Y-77610376D01*
X147670297Y-77818380D01*
X147670298Y-77818383D01*
X147769595Y-78013260D01*
X147898142Y-78190193D01*
X148052802Y-78344853D01*
X148052807Y-78344857D01*
X148204394Y-78454991D01*
X148247060Y-78510320D01*
X148253039Y-78579934D01*
X148220434Y-78641729D01*
X148204394Y-78655627D01*
X148053133Y-78765524D01*
X148053128Y-78765528D01*
X147898528Y-78920128D01*
X147898524Y-78920133D01*
X147770023Y-79097001D01*
X147670762Y-79291808D01*
X147670761Y-79291811D01*
X147603201Y-79499741D01*
X147591282Y-79575000D01*
X148642749Y-79575000D01*
X148611619Y-79628919D01*
X148577000Y-79758120D01*
X148577000Y-79891880D01*
X148611619Y-80021081D01*
X148642749Y-80075000D01*
X147591282Y-80075000D01*
X147603201Y-80150258D01*
X147670761Y-80358188D01*
X147670762Y-80358191D01*
X147770023Y-80552998D01*
X147898524Y-80729866D01*
X147898528Y-80729871D01*
X148053128Y-80884471D01*
X148053133Y-80884475D01*
X148204394Y-80994372D01*
X148247060Y-81049701D01*
X148253039Y-81119315D01*
X148220434Y-81181110D01*
X148204394Y-81195008D01*
X148052807Y-81305142D01*
X148052802Y-81305146D01*
X147898142Y-81459806D01*
X147769595Y-81636739D01*
X147670298Y-81831616D01*
X147670297Y-81831619D01*
X147602714Y-82039623D01*
X147568500Y-82255638D01*
X147568500Y-82474361D01*
X147602714Y-82690376D01*
X147670297Y-82898380D01*
X147670298Y-82898383D01*
X147769595Y-83093260D01*
X147898142Y-83270193D01*
X148052806Y-83424857D01*
X148203969Y-83534682D01*
X148246635Y-83590011D01*
X148252614Y-83659625D01*
X148220009Y-83721420D01*
X148203969Y-83735318D01*
X148052806Y-83845142D01*
X147898142Y-83999806D01*
X147769595Y-84176739D01*
X147670298Y-84371616D01*
X147670297Y-84371619D01*
X147602714Y-84579623D01*
X147568500Y-84795638D01*
X147568500Y-85014361D01*
X147602714Y-85230376D01*
X147670297Y-85438380D01*
X147670298Y-85438383D01*
X147769595Y-85633260D01*
X147898142Y-85810193D01*
X148052806Y-85964857D01*
X148203969Y-86074682D01*
X148246635Y-86130011D01*
X148252614Y-86199625D01*
X148220009Y-86261420D01*
X148203969Y-86275318D01*
X148052806Y-86385142D01*
X147898142Y-86539806D01*
X147769595Y-86716739D01*
X147670298Y-86911616D01*
X147670297Y-86911619D01*
X147602714Y-87119623D01*
X147568500Y-87335638D01*
X147568500Y-87554361D01*
X147602714Y-87770376D01*
X147670297Y-87978380D01*
X147670298Y-87978383D01*
X147769595Y-88173260D01*
X147898142Y-88350193D01*
X148052806Y-88504857D01*
X148203969Y-88614682D01*
X148246635Y-88670011D01*
X148252614Y-88739625D01*
X148220009Y-88801420D01*
X148203969Y-88815318D01*
X148052806Y-88925142D01*
X147898142Y-89079806D01*
X147769595Y-89256739D01*
X147670298Y-89451616D01*
X147670297Y-89451619D01*
X147602714Y-89659623D01*
X147568500Y-89875638D01*
X147568500Y-90094361D01*
X147602714Y-90310376D01*
X147670297Y-90518380D01*
X147670298Y-90518383D01*
X147769595Y-90713260D01*
X147898142Y-90890193D01*
X148052806Y-91044857D01*
X148203969Y-91154682D01*
X148246635Y-91210011D01*
X148252614Y-91279625D01*
X148220009Y-91341420D01*
X148203969Y-91355318D01*
X148052806Y-91465142D01*
X147898142Y-91619806D01*
X147769595Y-91796739D01*
X147670298Y-91991616D01*
X147670297Y-91991619D01*
X147602714Y-92199623D01*
X147568500Y-92415638D01*
X147568500Y-92634361D01*
X147602714Y-92850376D01*
X147670297Y-93058380D01*
X147670298Y-93058383D01*
X147769595Y-93253260D01*
X147898142Y-93430193D01*
X148052806Y-93584857D01*
X148218374Y-93705147D01*
X148229743Y-93713407D01*
X148357132Y-93778315D01*
X148424616Y-93812701D01*
X148424619Y-93812702D01*
X148528621Y-93846493D01*
X148632625Y-93880286D01*
X148732672Y-93896132D01*
X148848639Y-93914500D01*
X148848644Y-93914500D01*
X150845361Y-93914500D01*
X150950082Y-93897912D01*
X151061375Y-93880286D01*
X151269383Y-93812701D01*
X151464257Y-93713407D01*
X151563601Y-93641229D01*
X151641193Y-93584857D01*
X151641195Y-93584854D01*
X151641199Y-93584852D01*
X151795852Y-93430199D01*
X151795854Y-93430195D01*
X151795857Y-93430193D01*
X151852229Y-93352601D01*
X151924407Y-93253257D01*
X152023701Y-93058383D01*
X152091286Y-92850375D01*
X152108912Y-92739082D01*
X152125500Y-92634361D01*
X152125500Y-92415638D01*
X152102917Y-92273058D01*
X152091286Y-92199625D01*
X152023701Y-91991617D01*
X152023701Y-91991616D01*
X151989315Y-91924132D01*
X151924407Y-91796743D01*
X151916147Y-91785374D01*
X151795857Y-91619806D01*
X151641199Y-91465148D01*
X151641191Y-91465142D01*
X151490028Y-91355316D01*
X151447364Y-91299989D01*
X151441385Y-91230376D01*
X151473990Y-91168580D01*
X151490023Y-91154686D01*
X151641199Y-91044852D01*
X151795852Y-90890199D01*
X151795854Y-90890195D01*
X151795857Y-90890193D01*
X151852229Y-90812601D01*
X151924407Y-90713257D01*
X152023701Y-90518383D01*
X152091286Y-90310375D01*
X152108912Y-90199082D01*
X152125500Y-90094361D01*
X152125500Y-89875638D01*
X152102917Y-89733058D01*
X152091286Y-89659625D01*
X152023701Y-89451617D01*
X152023701Y-89451616D01*
X151989315Y-89384132D01*
X151924407Y-89256743D01*
X151916147Y-89245374D01*
X151795857Y-89079806D01*
X151641199Y-88925148D01*
X151641191Y-88925142D01*
X151490028Y-88815316D01*
X151447364Y-88759989D01*
X151441385Y-88690376D01*
X151473990Y-88628580D01*
X151490023Y-88614686D01*
X151641199Y-88504852D01*
X151795852Y-88350199D01*
X151795854Y-88350195D01*
X151795857Y-88350193D01*
X151852229Y-88272601D01*
X151924407Y-88173257D01*
X152023701Y-87978383D01*
X152091286Y-87770375D01*
X152108912Y-87659082D01*
X152125500Y-87554361D01*
X152125500Y-87335638D01*
X152102917Y-87193058D01*
X152091286Y-87119625D01*
X152023701Y-86911617D01*
X152023701Y-86911616D01*
X151989315Y-86844132D01*
X151924407Y-86716743D01*
X151916147Y-86705374D01*
X151795857Y-86539806D01*
X151641199Y-86385148D01*
X151641191Y-86385142D01*
X151490028Y-86275316D01*
X151447364Y-86219989D01*
X151441385Y-86150376D01*
X151473990Y-86088580D01*
X151490023Y-86074686D01*
X151641199Y-85964852D01*
X151795852Y-85810199D01*
X151795854Y-85810195D01*
X151795857Y-85810193D01*
X151852229Y-85732601D01*
X151924407Y-85633257D01*
X152023701Y-85438383D01*
X152091286Y-85230375D01*
X152108912Y-85119082D01*
X152125500Y-85014361D01*
X152125500Y-84795638D01*
X152102917Y-84653058D01*
X152091286Y-84579625D01*
X152023701Y-84371617D01*
X152023701Y-84371616D01*
X151989315Y-84304132D01*
X151924407Y-84176743D01*
X151916147Y-84165374D01*
X151795857Y-83999806D01*
X151641199Y-83845148D01*
X151641191Y-83845142D01*
X151490028Y-83735316D01*
X151447364Y-83679989D01*
X151441385Y-83610376D01*
X151473990Y-83548580D01*
X151490023Y-83534686D01*
X151641199Y-83424852D01*
X151795852Y-83270199D01*
X151795854Y-83270195D01*
X151795857Y-83270193D01*
X151852229Y-83192601D01*
X151924407Y-83093257D01*
X152023701Y-82898383D01*
X152091286Y-82690375D01*
X152116437Y-82531578D01*
X152125500Y-82474361D01*
X152125500Y-82255638D01*
X152097497Y-82078842D01*
X152091286Y-82039625D01*
X152023701Y-81831617D01*
X152023701Y-81831616D01*
X151957531Y-81701752D01*
X151924407Y-81636743D01*
X151912834Y-81620814D01*
X151795857Y-81459806D01*
X151641197Y-81305146D01*
X151641192Y-81305142D01*
X151489605Y-81195008D01*
X151446939Y-81139678D01*
X151440960Y-81070065D01*
X151473565Y-81008270D01*
X151489605Y-80994371D01*
X151640873Y-80884469D01*
X151795471Y-80729871D01*
X151795475Y-80729866D01*
X151923976Y-80552998D01*
X152023237Y-80358191D01*
X152023238Y-80358188D01*
X152090798Y-80150258D01*
X152102718Y-80075000D01*
X149527251Y-80075000D01*
X149558381Y-80021081D01*
X149593000Y-79891880D01*
X149593000Y-79758120D01*
X149558381Y-79628919D01*
X149527251Y-79575000D01*
X152102718Y-79575000D01*
X152090798Y-79499741D01*
X152023238Y-79291811D01*
X152023237Y-79291808D01*
X151923976Y-79097001D01*
X151795475Y-78920133D01*
X151795471Y-78920128D01*
X151640871Y-78765528D01*
X151640866Y-78765524D01*
X151489605Y-78655627D01*
X151446939Y-78600297D01*
X151440960Y-78530684D01*
X151473565Y-78468889D01*
X151489599Y-78454994D01*
X151641199Y-78344852D01*
X151795852Y-78190199D01*
X151795854Y-78190195D01*
X151795857Y-78190193D01*
X151852229Y-78112601D01*
X151924407Y-78013257D01*
X152023701Y-77818383D01*
X152091286Y-77610375D01*
X152108912Y-77499082D01*
X152125500Y-77394361D01*
X152125500Y-77175638D01*
X152105595Y-77049971D01*
X152091286Y-76959625D01*
X152023701Y-76751617D01*
X152023701Y-76751616D01*
X151989315Y-76684132D01*
X151924407Y-76556743D01*
X151916147Y-76545374D01*
X151795857Y-76379806D01*
X151641193Y-76225142D01*
X151464260Y-76096595D01*
X151464259Y-76096594D01*
X151464257Y-76096593D01*
X151401825Y-76064782D01*
X151269383Y-75997298D01*
X151269380Y-75997297D01*
X151061376Y-75929714D01*
X150845361Y-75895500D01*
X150845356Y-75895500D01*
X148848644Y-75895500D01*
X148848639Y-75895500D01*
X148632623Y-75929714D01*
X148424619Y-75997297D01*
X148424616Y-75997298D01*
X148229739Y-76096595D01*
X148052806Y-76225142D01*
X147898142Y-76379806D01*
X147769595Y-76556739D01*
X147670298Y-76751616D01*
X147670297Y-76751619D01*
X147602714Y-76959623D01*
X147568500Y-77175638D01*
X135361500Y-77175638D01*
X135341595Y-77049971D01*
X135327286Y-76959625D01*
X135259701Y-76751617D01*
X135259701Y-76751616D01*
X135225315Y-76684132D01*
X135160407Y-76556743D01*
X135152147Y-76545374D01*
X135031857Y-76379806D01*
X134877193Y-76225142D01*
X134700260Y-76096595D01*
X134700259Y-76096594D01*
X134700257Y-76096593D01*
X134637825Y-76064782D01*
X134505383Y-75997298D01*
X134505380Y-75997297D01*
X134297376Y-75929714D01*
X134081361Y-75895500D01*
X134081356Y-75895500D01*
X132084644Y-75895500D01*
X132084639Y-75895500D01*
X131868623Y-75929714D01*
X131660619Y-75997297D01*
X131660616Y-75997298D01*
X131465739Y-76096595D01*
X131288806Y-76225142D01*
X131134142Y-76379806D01*
X131005595Y-76556739D01*
X130906298Y-76751616D01*
X130906297Y-76751619D01*
X130838714Y-76959623D01*
X130804500Y-77175638D01*
X130804500Y-77394361D01*
X130838714Y-77610376D01*
X130906297Y-77818380D01*
X130906298Y-77818383D01*
X131005595Y-78013260D01*
X131134142Y-78190193D01*
X131288806Y-78344857D01*
X131439969Y-78454682D01*
X131482635Y-78510011D01*
X131488614Y-78579625D01*
X131456009Y-78641420D01*
X131439969Y-78655318D01*
X131288806Y-78765142D01*
X131134142Y-78919806D01*
X131005595Y-79096739D01*
X130906298Y-79291616D01*
X130906297Y-79291619D01*
X130838714Y-79499623D01*
X130804500Y-79715638D01*
X130804500Y-79934361D01*
X130838714Y-80150376D01*
X130906297Y-80358380D01*
X130906298Y-80358383D01*
X130973782Y-80490825D01*
X131005461Y-80552998D01*
X131005595Y-80553260D01*
X131134142Y-80730193D01*
X131288806Y-80884857D01*
X131439969Y-80994682D01*
X131482635Y-81050011D01*
X131488614Y-81119625D01*
X131456009Y-81181420D01*
X131439969Y-81195318D01*
X131288806Y-81305142D01*
X131134142Y-81459806D01*
X131005593Y-81636741D01*
X130967962Y-81710596D01*
X130919988Y-81761391D01*
X130852167Y-81778186D01*
X130786032Y-81755648D01*
X130742917Y-81701752D01*
X130709397Y-81620827D01*
X130709390Y-81620814D01*
X130621789Y-81489711D01*
X130621786Y-81489707D01*
X130510292Y-81378213D01*
X130510288Y-81378210D01*
X130379185Y-81290609D01*
X130379172Y-81290602D01*
X130233501Y-81230264D01*
X130233489Y-81230261D01*
X130078845Y-81199500D01*
X130078842Y-81199500D01*
X129921158Y-81199500D01*
X129921155Y-81199500D01*
X129766510Y-81230261D01*
X129766498Y-81230264D01*
X129620827Y-81290602D01*
X129620814Y-81290609D01*
X129489711Y-81378210D01*
X129489707Y-81378213D01*
X129378213Y-81489707D01*
X129378210Y-81489711D01*
X129290609Y-81620814D01*
X129290602Y-81620827D01*
X129230264Y-81766498D01*
X129230261Y-81766510D01*
X129199500Y-81921153D01*
X114500500Y-81921153D01*
X114500500Y-76003051D01*
X114500649Y-75996967D01*
X114517052Y-75663072D01*
X114518245Y-75650962D01*
X114566849Y-75323296D01*
X114569218Y-75311385D01*
X114649710Y-74990043D01*
X114653240Y-74978411D01*
X114764835Y-74666525D01*
X114769476Y-74655318D01*
X114911124Y-74355828D01*
X114916840Y-74345136D01*
X115087145Y-74060998D01*
X115093888Y-74050905D01*
X115291232Y-73784818D01*
X115298935Y-73775433D01*
X115521405Y-73529975D01*
X115529975Y-73521405D01*
X115775433Y-73298935D01*
X115784818Y-73291232D01*
X116050905Y-73093888D01*
X116060998Y-73087145D01*
X116345136Y-72916840D01*
X116355828Y-72911124D01*
X116655318Y-72769476D01*
X116666525Y-72764835D01*
X116978412Y-72653239D01*
X116990043Y-72649710D01*
X117311385Y-72569218D01*
X117323296Y-72566849D01*
X117650962Y-72518244D01*
X117663068Y-72517052D01*
X117996967Y-72500648D01*
X118003051Y-72500500D01*
X118065892Y-72500500D01*
X180434108Y-72500500D01*
X180496949Y-72500500D01*
X180503032Y-72500648D01*
G37*
%TD.AperFunction*%
%TD*%
M02*
