%TF.GenerationSoftware,KiCad,Pcbnew,9.0.7*%
%TF.CreationDate,2026-02-17T08:39:04-08:00*%
%TF.ProjectId,Sensing device,53656e73-696e-4672-9064-65766963652e,2.0*%
%TF.SameCoordinates,Original*%
%TF.FileFunction,Copper,L1,Top*%
%TF.FilePolarity,Positive*%
%FSLAX46Y46*%
G04 Gerber Fmt 4.6, Leading zero omitted, Abs format (unit mm)*
G04 Created by KiCad (PCBNEW 9.0.7) date 2026-02-17 08:39:04*
%MOMM*%
%LPD*%
G01*
G04 APERTURE LIST*
G04 Aperture macros list*
%AMRoundRect*
0 Rectangle with rounded corners*
0 $1 Rounding radius*
0 $2 $3 $4 $5 $6 $7 $8 $9 X,Y pos of 4 corners*
0 Add a 4 corners polygon primitive as box body*
4,1,4,$2,$3,$4,$5,$6,$7,$8,$9,$2,$3,0*
0 Add four circle primitives for the rounded corners*
1,1,$1+$1,$2,$3*
1,1,$1+$1,$4,$5*
1,1,$1+$1,$6,$7*
1,1,$1+$1,$8,$9*
0 Add four rect primitives between the rounded corners*
20,1,$1+$1,$2,$3,$4,$5,0*
20,1,$1+$1,$4,$5,$6,$7,0*
20,1,$1+$1,$6,$7,$8,$9,0*
20,1,$1+$1,$8,$9,$2,$3,0*%
G04 Aperture macros list end*
%TA.AperFunction,SMDPad,CuDef*%
%ADD10RoundRect,0.250000X-0.275000X0.450000X-0.275000X-0.450000X0.275000X-0.450000X0.275000X0.450000X0*%
%TD*%
%TA.AperFunction,SMDPad,CuDef*%
%ADD11RoundRect,0.250000X-0.337500X-0.475000X0.337500X-0.475000X0.337500X0.475000X-0.337500X0.475000X0*%
%TD*%
%TA.AperFunction,ComponentPad*%
%ADD12RoundRect,0.250000X0.625000X-0.350000X0.625000X0.350000X-0.625000X0.350000X-0.625000X-0.350000X0*%
%TD*%
%TA.AperFunction,ComponentPad*%
%ADD13O,1.750000X1.200000*%
%TD*%
%TA.AperFunction,SMDPad,CuDef*%
%ADD14RoundRect,0.250000X0.350000X0.450000X-0.350000X0.450000X-0.350000X-0.450000X0.350000X-0.450000X0*%
%TD*%
%TA.AperFunction,SMDPad,CuDef*%
%ADD15RoundRect,0.250000X0.475000X-0.337500X0.475000X0.337500X-0.475000X0.337500X-0.475000X-0.337500X0*%
%TD*%
%TA.AperFunction,ComponentPad*%
%ADD16O,3.556000X1.778000*%
%TD*%
%TA.AperFunction,ComponentPad*%
%ADD17C,1.905000*%
%TD*%
%TA.AperFunction,ViaPad*%
%ADD18C,0.600000*%
%TD*%
%TA.AperFunction,Conductor*%
%ADD19C,0.200000*%
%TD*%
G04 APERTURE END LIST*
D10*
%TO.P,SW1,1,1*%
%TO.N,/CAL_BTN*%
X70220000Y-68000000D03*
X70220000Y-71600000D03*
%TO.P,SW1,2,2*%
%TO.N,GND*%
X68780000Y-68000000D03*
X68780000Y-71600000D03*
%TD*%
D11*
%TO.P,C3,1*%
%TO.N,GND*%
X119425000Y-62462500D03*
%TO.P,C3,2*%
%TO.N,Net-(J2-Pin_3)*%
X121500000Y-62462500D03*
%TD*%
D12*
%TO.P,J2,1,Pin_1*%
%TO.N,+3V3*%
X128450000Y-68500000D03*
D13*
%TO.P,J2,2,Pin_2*%
%TO.N,GND*%
X128450000Y-66500000D03*
%TO.P,J2,3,Pin_3*%
%TO.N,Net-(J2-Pin_3)*%
X128450000Y-64500000D03*
%TO.P,J2,4,Pin_4*%
%TO.N,unconnected-(J2-Pin_4-Pad4)*%
X128450000Y-62500000D03*
%TD*%
D14*
%TO.P,R1,1*%
%TO.N,Net-(J2-Pin_3)*%
X121500000Y-59462500D03*
%TO.P,R1,2*%
%TO.N,/GSR_SIG*%
X119500000Y-59462500D03*
%TD*%
D15*
%TO.P,C1,1*%
%TO.N,+3V3*%
X120500000Y-68037500D03*
%TO.P,C1,2*%
%TO.N,GND*%
X120500000Y-65962500D03*
%TD*%
%TO.P,C2,1*%
%TO.N,+3V3*%
X115962500Y-68037500D03*
%TO.P,C2,2*%
%TO.N,GND*%
X115962500Y-65962500D03*
%TD*%
D16*
%TO.P,U1,1,GPIO1_A0_D0*%
%TO.N,/CAL_BTN*%
X86583000Y-57285000D03*
%TO.P,U1,2,GPIO2_A1_D1*%
%TO.N,/GSR_SIG*%
X86583000Y-59825000D03*
%TO.P,U1,3,GPIO3_A2_D2*%
%TO.N,unconnected-(U1-GPIO3_A2_D2-Pad3)*%
X86583000Y-62365000D03*
%TO.P,U1,4,GPIO4_A3_D3*%
%TO.N,unconnected-(U1-GPIO4_A3_D3-Pad4)*%
X86583000Y-64905000D03*
%TO.P,U1,5,GPIO4_A3_D3_SDA*%
%TO.N,unconnected-(U1-GPIO4_A3_D3_SDA-Pad5)*%
X86583000Y-67445000D03*
%TO.P,U1,6,GPIO6_A5_D5_SCL*%
%TO.N,unconnected-(U1-GPIO6_A5_D5_SCL-Pad6)*%
X86583000Y-69985000D03*
%TO.P,U1,7,GPIO43_TX_D6*%
%TO.N,unconnected-(U1-GPIO43_TX_D6-Pad7)*%
X86583000Y-72525000D03*
%TO.P,U1,8,GPIO44_D7_RX*%
%TO.N,unconnected-(U1-GPIO44_D7_RX-Pad8)*%
X103347000Y-72525000D03*
%TO.P,U1,9,GPIO7_A8_D8_SCK*%
%TO.N,unconnected-(U1-GPIO7_A8_D8_SCK-Pad9)*%
X103347000Y-69985000D03*
%TO.P,U1,10,GPIO8_A9_D9_CIPO*%
%TO.N,unconnected-(U1-GPIO8_A9_D9_CIPO-Pad10)*%
X103347000Y-67445000D03*
%TO.P,U1,11,GPIO9_A10_D10_COPI*%
%TO.N,unconnected-(U1-GPIO9_A10_D10_COPI-Pad11)*%
X103347000Y-64905000D03*
%TO.P,U1,12,3V3*%
%TO.N,+3V3*%
X103347000Y-62365000D03*
%TO.P,U1,13,GND*%
%TO.N,GND*%
X103347000Y-59825000D03*
%TO.P,U1,14,5V*%
%TO.N,unconnected-(U1-5V-Pad14)*%
X103347000Y-57285000D03*
D17*
%TO.P,U1,15,+BATT*%
%TO.N,/BAT*%
X92425000Y-82685000D03*
%TO.P,U1,16,-BATT*%
%TO.N,GND*%
X97505000Y-82685000D03*
%TD*%
D18*
%TO.N,/GSR_SIG*%
X112962500Y-59462500D03*
X83500000Y-62000000D03*
%TD*%
D19*
%TO.N,+3V3*%
X128450000Y-68500000D02*
X120962500Y-68500000D01*
X111537500Y-68037500D02*
X115962500Y-68037500D01*
X115962500Y-68037500D02*
X120500000Y-68037500D01*
X120962500Y-68500000D02*
X120500000Y-68037500D01*
X102585000Y-62365000D02*
X105865000Y-62365000D01*
X105865000Y-62365000D02*
X111537500Y-68037500D01*
%TO.N,Net-(J2-Pin_3)*%
X127762500Y-63812500D02*
X128450000Y-64500000D01*
X122850000Y-63812500D02*
X127762500Y-63812500D01*
X121500000Y-62462500D02*
X122850000Y-63812500D01*
X121500000Y-59462500D02*
X121500000Y-62462500D01*
%TO.N,/GSR_SIG*%
X85675000Y-59825000D02*
X83500000Y-62000000D01*
X119500000Y-59462500D02*
X113000000Y-59462500D01*
X87345000Y-59825000D02*
X85675000Y-59825000D01*
X113000000Y-59462500D02*
X112962500Y-59462500D01*
%TO.N,/CAL_BTN*%
X70500000Y-68000000D02*
X70500000Y-71600000D01*
X80000000Y-63500000D02*
X80000000Y-67750000D01*
X83500000Y-60000000D02*
X80000000Y-63500000D01*
X80000000Y-67750000D02*
X79750000Y-68000000D01*
X87345000Y-57285000D02*
X87130000Y-57500000D01*
X83500000Y-57500000D02*
X83500000Y-60000000D01*
X79750000Y-68000000D02*
X70500000Y-68000000D01*
X87130000Y-57500000D02*
X83500000Y-57500000D01*
%TD*%
%TA.AperFunction,Conductor*%
%TO.N,GND*%
G36*
X134003032Y-52500648D02*
G01*
X134336929Y-52517052D01*
X134349037Y-52518245D01*
X134452146Y-52533539D01*
X134676699Y-52566849D01*
X134688617Y-52569219D01*
X135009951Y-52649709D01*
X135021588Y-52653240D01*
X135092806Y-52678722D01*
X135333467Y-52764832D01*
X135344688Y-52769479D01*
X135644163Y-52911120D01*
X135654871Y-52916844D01*
X135938988Y-53087137D01*
X135949106Y-53093897D01*
X136215170Y-53291224D01*
X136224576Y-53298944D01*
X136470013Y-53521395D01*
X136478604Y-53529986D01*
X136665755Y-53736475D01*
X136701055Y-53775423D01*
X136708775Y-53784829D01*
X136906102Y-54050893D01*
X136912862Y-54061011D01*
X137041776Y-54276092D01*
X137083148Y-54345116D01*
X137088885Y-54355848D01*
X137230514Y-54655297D01*
X137235170Y-54666540D01*
X137346759Y-54978411D01*
X137350292Y-54990055D01*
X137430777Y-55311369D01*
X137433151Y-55323305D01*
X137481754Y-55650962D01*
X137482947Y-55663071D01*
X137499351Y-55996966D01*
X137499500Y-56003051D01*
X137499500Y-81996948D01*
X137499351Y-82003033D01*
X137482947Y-82336928D01*
X137481754Y-82349037D01*
X137433151Y-82676694D01*
X137430777Y-82688630D01*
X137350292Y-83009944D01*
X137346759Y-83021588D01*
X137235170Y-83333459D01*
X137230514Y-83344702D01*
X137088885Y-83644151D01*
X137083148Y-83654883D01*
X136912862Y-83938988D01*
X136906102Y-83949106D01*
X136708775Y-84215170D01*
X136701055Y-84224576D01*
X136478611Y-84470006D01*
X136470006Y-84478611D01*
X136224576Y-84701055D01*
X136215170Y-84708775D01*
X135949106Y-84906102D01*
X135938988Y-84912862D01*
X135654883Y-85083148D01*
X135644151Y-85088885D01*
X135344702Y-85230514D01*
X135333459Y-85235170D01*
X135021588Y-85346759D01*
X135009944Y-85350292D01*
X134688630Y-85430777D01*
X134676694Y-85433151D01*
X134349037Y-85481754D01*
X134336928Y-85482947D01*
X134021989Y-85498419D01*
X134003031Y-85499351D01*
X133996949Y-85499500D01*
X71503051Y-85499500D01*
X71496968Y-85499351D01*
X71476900Y-85498365D01*
X71163071Y-85482947D01*
X71150962Y-85481754D01*
X70823305Y-85433151D01*
X70811369Y-85430777D01*
X70490055Y-85350292D01*
X70478411Y-85346759D01*
X70166540Y-85235170D01*
X70155301Y-85230515D01*
X69855844Y-85088883D01*
X69845121Y-85083150D01*
X69561011Y-84912862D01*
X69550893Y-84906102D01*
X69284829Y-84708775D01*
X69275423Y-84701055D01*
X69236475Y-84665755D01*
X69029986Y-84478604D01*
X69021395Y-84470013D01*
X68798944Y-84224576D01*
X68791224Y-84215170D01*
X68593897Y-83949106D01*
X68587137Y-83938988D01*
X68416844Y-83654871D01*
X68411120Y-83644163D01*
X68269479Y-83344688D01*
X68264829Y-83333459D01*
X68153240Y-83021588D01*
X68149707Y-83009944D01*
X68140958Y-82975015D01*
X68069219Y-82688617D01*
X68066848Y-82676695D01*
X68066848Y-82676694D01*
X68051117Y-82570646D01*
X90972000Y-82570646D01*
X90972000Y-82799353D01*
X91007778Y-83025246D01*
X91007778Y-83025249D01*
X91078450Y-83242755D01*
X91078452Y-83242758D01*
X91182283Y-83446538D01*
X91316714Y-83631566D01*
X91478434Y-83793286D01*
X91663462Y-83927717D01*
X91866327Y-84031082D01*
X91867244Y-84031549D01*
X92084751Y-84102221D01*
X92084752Y-84102221D01*
X92084755Y-84102222D01*
X92310646Y-84138000D01*
X92310647Y-84138000D01*
X92539353Y-84138000D01*
X92539354Y-84138000D01*
X92765245Y-84102222D01*
X92765248Y-84102221D01*
X92765249Y-84102221D01*
X92982755Y-84031549D01*
X92982755Y-84031548D01*
X92982758Y-84031548D01*
X93186538Y-83927717D01*
X93371566Y-83793286D01*
X93533286Y-83631566D01*
X93667717Y-83446538D01*
X93771548Y-83242758D01*
X93842222Y-83025245D01*
X93878000Y-82799354D01*
X93878000Y-82570686D01*
X96052500Y-82570686D01*
X96052500Y-82799313D01*
X96088265Y-83025124D01*
X96088265Y-83025125D01*
X96158917Y-83242568D01*
X96262711Y-83446276D01*
X96316347Y-83520098D01*
X96316347Y-83520099D01*
X97015504Y-82820941D01*
X97031619Y-82881081D01*
X97098498Y-82996920D01*
X97193080Y-83091502D01*
X97308919Y-83158381D01*
X97369057Y-83174494D01*
X96669899Y-83873651D01*
X96743725Y-83927288D01*
X96743731Y-83927292D01*
X96947431Y-84031082D01*
X97164875Y-84101734D01*
X97390687Y-84137500D01*
X97619313Y-84137500D01*
X97845124Y-84101734D01*
X97845125Y-84101734D01*
X98062568Y-84031082D01*
X98266276Y-83927288D01*
X98340098Y-83873651D01*
X97640942Y-83174495D01*
X97701081Y-83158381D01*
X97816920Y-83091502D01*
X97911502Y-82996920D01*
X97978381Y-82881081D01*
X97994495Y-82820942D01*
X98693651Y-83520098D01*
X98747288Y-83446276D01*
X98851082Y-83242568D01*
X98921734Y-83025125D01*
X98921734Y-83025124D01*
X98957500Y-82799313D01*
X98957500Y-82570686D01*
X98921734Y-82344875D01*
X98921734Y-82344874D01*
X98851082Y-82127431D01*
X98747292Y-81923731D01*
X98747288Y-81923725D01*
X98693651Y-81849900D01*
X98693651Y-81849899D01*
X97994494Y-82549056D01*
X97978381Y-82488919D01*
X97911502Y-82373080D01*
X97816920Y-82278498D01*
X97701081Y-82211619D01*
X97640940Y-82195504D01*
X98340099Y-81496347D01*
X98266276Y-81442711D01*
X98062568Y-81338917D01*
X97845124Y-81268265D01*
X97619313Y-81232500D01*
X97390687Y-81232500D01*
X97164875Y-81268265D01*
X97164874Y-81268265D01*
X96947431Y-81338917D01*
X96743719Y-81442713D01*
X96669900Y-81496346D01*
X96669899Y-81496347D01*
X97369057Y-82195504D01*
X97308919Y-82211619D01*
X97193080Y-82278498D01*
X97098498Y-82373080D01*
X97031619Y-82488919D01*
X97015504Y-82549057D01*
X96316347Y-81849899D01*
X96316346Y-81849900D01*
X96262713Y-81923719D01*
X96158917Y-82127431D01*
X96088265Y-82344874D01*
X96088265Y-82344875D01*
X96052500Y-82570686D01*
X93878000Y-82570686D01*
X93878000Y-82570646D01*
X93842222Y-82344755D01*
X93842221Y-82344751D01*
X93842221Y-82344750D01*
X93771549Y-82127244D01*
X93708260Y-82003032D01*
X93667717Y-81923462D01*
X93533286Y-81738434D01*
X93371566Y-81576714D01*
X93186538Y-81442283D01*
X92982755Y-81338450D01*
X92765248Y-81267778D01*
X92595826Y-81240944D01*
X92539354Y-81232000D01*
X92310646Y-81232000D01*
X92235349Y-81243926D01*
X92084753Y-81267778D01*
X92084750Y-81267778D01*
X91867244Y-81338450D01*
X91663461Y-81442283D01*
X91589051Y-81496346D01*
X91478434Y-81576714D01*
X91478432Y-81576716D01*
X91478431Y-81576716D01*
X91316716Y-81738431D01*
X91316716Y-81738432D01*
X91316714Y-81738434D01*
X91284086Y-81783343D01*
X91182283Y-81923461D01*
X91078450Y-82127244D01*
X91007778Y-82344750D01*
X91007778Y-82344753D01*
X90972000Y-82570646D01*
X68051117Y-82570646D01*
X68018245Y-82349037D01*
X68017052Y-82336927D01*
X68000649Y-82003032D01*
X68000500Y-81996948D01*
X68000500Y-80381902D01*
X130999500Y-80381902D01*
X130999500Y-80618097D01*
X131036446Y-80851368D01*
X131109433Y-81075996D01*
X131188922Y-81232000D01*
X131216657Y-81286433D01*
X131355483Y-81477510D01*
X131522490Y-81644517D01*
X131713567Y-81783343D01*
X131812991Y-81834002D01*
X131924003Y-81890566D01*
X131924005Y-81890566D01*
X131924008Y-81890568D01*
X132026073Y-81923731D01*
X132148631Y-81963553D01*
X132381903Y-82000500D01*
X132381908Y-82000500D01*
X132618097Y-82000500D01*
X132851368Y-81963553D01*
X133075992Y-81890568D01*
X133286433Y-81783343D01*
X133477510Y-81644517D01*
X133644517Y-81477510D01*
X133783343Y-81286433D01*
X133890568Y-81075992D01*
X133963553Y-80851368D01*
X134000500Y-80618097D01*
X134000500Y-80381902D01*
X133963553Y-80148631D01*
X133890566Y-79924003D01*
X133783342Y-79713566D01*
X133644517Y-79522490D01*
X133477510Y-79355483D01*
X133286433Y-79216657D01*
X133075996Y-79109433D01*
X132851368Y-79036446D01*
X132618097Y-78999500D01*
X132618092Y-78999500D01*
X132381908Y-78999500D01*
X132381903Y-78999500D01*
X132148631Y-79036446D01*
X131924003Y-79109433D01*
X131713566Y-79216657D01*
X131604550Y-79295862D01*
X131522490Y-79355483D01*
X131522488Y-79355485D01*
X131522487Y-79355485D01*
X131355485Y-79522487D01*
X131355485Y-79522488D01*
X131355483Y-79522490D01*
X131295862Y-79604550D01*
X131216657Y-79713566D01*
X131109433Y-79924003D01*
X131036446Y-80148631D01*
X130999500Y-80381902D01*
X68000500Y-80381902D01*
X68000500Y-72842190D01*
X68020185Y-72775151D01*
X68072989Y-72729396D01*
X68142147Y-72719452D01*
X68178680Y-72732696D01*
X68179330Y-72731304D01*
X68185880Y-72734358D01*
X68352302Y-72789505D01*
X68352309Y-72789506D01*
X68455019Y-72799999D01*
X68529999Y-72799998D01*
X68530000Y-72799998D01*
X68530000Y-70400000D01*
X68529999Y-70399999D01*
X68455028Y-70400000D01*
X68455011Y-70400001D01*
X68352302Y-70410494D01*
X68185880Y-70465641D01*
X68179330Y-70468696D01*
X68178281Y-70466447D01*
X68122182Y-70481787D01*
X68055522Y-70460853D01*
X68010762Y-70407203D01*
X68000500Y-70357809D01*
X68000500Y-69242190D01*
X68020185Y-69175151D01*
X68072989Y-69129396D01*
X68142147Y-69119452D01*
X68178680Y-69132696D01*
X68179330Y-69131304D01*
X68185880Y-69134358D01*
X68352302Y-69189505D01*
X68352309Y-69189506D01*
X68455019Y-69199999D01*
X68529999Y-69199998D01*
X68530000Y-69199998D01*
X68530000Y-66800000D01*
X69030000Y-66800000D01*
X69030000Y-69199999D01*
X69104972Y-69199999D01*
X69104986Y-69199998D01*
X69207697Y-69189505D01*
X69374119Y-69134358D01*
X69374128Y-69134354D01*
X69434424Y-69097162D01*
X69501816Y-69078720D01*
X69564617Y-69097159D01*
X69625666Y-69134814D01*
X69792203Y-69189999D01*
X69792213Y-69190000D01*
X69798827Y-69191417D01*
X69798326Y-69193753D01*
X69852791Y-69215973D01*
X69892944Y-69273153D01*
X69899500Y-69312938D01*
X69899500Y-70287062D01*
X69879815Y-70354101D01*
X69827011Y-70399856D01*
X69798601Y-70407569D01*
X69798819Y-70408585D01*
X69792200Y-70410001D01*
X69625666Y-70465186D01*
X69564619Y-70502839D01*
X69497226Y-70521278D01*
X69434428Y-70502838D01*
X69374128Y-70465646D01*
X69374119Y-70465641D01*
X69207697Y-70410494D01*
X69207690Y-70410493D01*
X69104986Y-70400000D01*
X69030000Y-70400000D01*
X69030000Y-72799999D01*
X69104972Y-72799999D01*
X69104986Y-72799998D01*
X69207697Y-72789505D01*
X69374119Y-72734358D01*
X69374128Y-72734354D01*
X69434424Y-72697162D01*
X69501816Y-72678720D01*
X69564617Y-72697159D01*
X69625666Y-72734814D01*
X69792203Y-72789999D01*
X69894991Y-72800500D01*
X70545008Y-72800499D01*
X70545016Y-72800498D01*
X70545019Y-72800498D01*
X70601302Y-72794748D01*
X70647797Y-72789999D01*
X70814334Y-72734814D01*
X70963656Y-72642712D01*
X71087712Y-72518656D01*
X71179814Y-72369334D01*
X71234999Y-72202797D01*
X71245500Y-72100009D01*
X71245499Y-71099992D01*
X71234999Y-70997203D01*
X71179814Y-70830666D01*
X71118961Y-70732006D01*
X71100500Y-70666910D01*
X71100500Y-68933089D01*
X71103207Y-68921263D01*
X71102175Y-68912776D01*
X71109821Y-68892375D01*
X71112853Y-68879135D01*
X71115619Y-68873410D01*
X71179814Y-68769334D01*
X71210138Y-68677820D01*
X71213654Y-68670546D01*
X71231897Y-68650395D01*
X71247368Y-68628051D01*
X71254999Y-68624877D01*
X71260547Y-68618751D01*
X71286786Y-68611662D01*
X71311884Y-68601228D01*
X71325301Y-68600500D01*
X79663331Y-68600500D01*
X79663347Y-68600501D01*
X79670943Y-68600501D01*
X79829054Y-68600501D01*
X79829057Y-68600501D01*
X79981785Y-68559577D01*
X80053765Y-68518019D01*
X80118716Y-68480520D01*
X80230520Y-68368716D01*
X80230520Y-68368714D01*
X80240723Y-68358512D01*
X80240727Y-68358506D01*
X80358506Y-68240728D01*
X80358511Y-68240724D01*
X80368714Y-68230520D01*
X80368716Y-68230520D01*
X80480520Y-68118716D01*
X80559577Y-67981784D01*
X80600500Y-67829057D01*
X80600500Y-63800096D01*
X80620185Y-63733057D01*
X80636814Y-63712420D01*
X82487819Y-61861414D01*
X82549142Y-61827930D01*
X82618834Y-61832914D01*
X82674767Y-61874786D01*
X82699184Y-61940250D01*
X82699500Y-61949096D01*
X82699500Y-62078846D01*
X82730261Y-62233489D01*
X82730264Y-62233501D01*
X82790602Y-62379172D01*
X82790609Y-62379185D01*
X82878210Y-62510288D01*
X82878213Y-62510292D01*
X82989707Y-62621786D01*
X82989711Y-62621789D01*
X83120814Y-62709390D01*
X83120827Y-62709397D01*
X83237445Y-62757701D01*
X83266503Y-62769737D01*
X83421153Y-62800499D01*
X83421156Y-62800500D01*
X83421158Y-62800500D01*
X83578844Y-62800500D01*
X83578845Y-62800499D01*
X83733497Y-62769737D01*
X83846166Y-62723067D01*
X83879172Y-62709397D01*
X83879172Y-62709396D01*
X83879179Y-62709394D01*
X84010289Y-62621789D01*
X84112348Y-62519729D01*
X84173669Y-62486246D01*
X84243361Y-62491230D01*
X84299295Y-62533101D01*
X84322501Y-62588014D01*
X84338713Y-62690376D01*
X84406297Y-62898380D01*
X84406298Y-62898383D01*
X84505595Y-63093260D01*
X84634142Y-63270193D01*
X84788806Y-63424857D01*
X84939969Y-63534682D01*
X84982635Y-63590011D01*
X84988614Y-63659625D01*
X84956009Y-63721420D01*
X84939969Y-63735318D01*
X84788806Y-63845142D01*
X84634142Y-63999806D01*
X84505595Y-64176739D01*
X84406298Y-64371616D01*
X84406297Y-64371619D01*
X84338714Y-64579623D01*
X84304500Y-64795638D01*
X84304500Y-65014361D01*
X84338714Y-65230376D01*
X84406297Y-65438380D01*
X84406298Y-65438383D01*
X84460775Y-65545298D01*
X84488902Y-65600500D01*
X84505595Y-65633260D01*
X84634142Y-65810193D01*
X84788806Y-65964857D01*
X84939969Y-66074682D01*
X84982635Y-66130011D01*
X84988614Y-66199625D01*
X84956009Y-66261420D01*
X84939969Y-66275318D01*
X84788806Y-66385142D01*
X84634142Y-66539806D01*
X84505595Y-66716739D01*
X84406298Y-66911616D01*
X84406297Y-66911619D01*
X84338714Y-67119623D01*
X84304500Y-67335638D01*
X84304500Y-67554361D01*
X84338714Y-67770376D01*
X84406297Y-67978380D01*
X84406298Y-67978383D01*
X84505595Y-68173260D01*
X84634142Y-68350193D01*
X84788806Y-68504857D01*
X84939969Y-68614682D01*
X84982635Y-68670011D01*
X84988614Y-68739625D01*
X84956009Y-68801420D01*
X84939969Y-68815318D01*
X84788806Y-68925142D01*
X84634142Y-69079806D01*
X84505595Y-69256739D01*
X84406298Y-69451616D01*
X84406297Y-69451619D01*
X84338714Y-69659623D01*
X84304500Y-69875638D01*
X84304500Y-70094361D01*
X84338714Y-70310376D01*
X84406297Y-70518380D01*
X84406298Y-70518383D01*
X84426122Y-70557288D01*
X84489332Y-70681344D01*
X84505595Y-70713260D01*
X84634142Y-70890193D01*
X84788806Y-71044857D01*
X84939969Y-71154682D01*
X84982635Y-71210011D01*
X84988614Y-71279625D01*
X84956009Y-71341420D01*
X84939969Y-71355318D01*
X84788806Y-71465142D01*
X84634142Y-71619806D01*
X84505595Y-71796739D01*
X84406298Y-71991616D01*
X84406297Y-71991619D01*
X84338714Y-72199623D01*
X84304500Y-72415638D01*
X84304500Y-72634361D01*
X84338714Y-72850376D01*
X84406297Y-73058380D01*
X84406298Y-73058383D01*
X84505595Y-73253260D01*
X84634142Y-73430193D01*
X84788806Y-73584857D01*
X84954374Y-73705147D01*
X84965743Y-73713407D01*
X85093132Y-73778315D01*
X85160616Y-73812701D01*
X85160619Y-73812702D01*
X85264621Y-73846493D01*
X85368625Y-73880286D01*
X85468672Y-73896132D01*
X85584639Y-73914500D01*
X85584644Y-73914500D01*
X87581361Y-73914500D01*
X87686082Y-73897912D01*
X87797375Y-73880286D01*
X88005383Y-73812701D01*
X88200257Y-73713407D01*
X88299601Y-73641229D01*
X88377193Y-73584857D01*
X88377195Y-73584854D01*
X88377199Y-73584852D01*
X88531852Y-73430199D01*
X88531854Y-73430195D01*
X88531857Y-73430193D01*
X88588229Y-73352601D01*
X88660407Y-73253257D01*
X88759701Y-73058383D01*
X88827286Y-72850375D01*
X88845662Y-72734354D01*
X88861500Y-72634361D01*
X88861500Y-72415638D01*
X88827788Y-72202797D01*
X88827286Y-72199625D01*
X88759701Y-71991617D01*
X88759701Y-71991616D01*
X88725315Y-71924132D01*
X88660407Y-71796743D01*
X88652147Y-71785374D01*
X88531857Y-71619806D01*
X88377199Y-71465148D01*
X88377191Y-71465142D01*
X88226028Y-71355316D01*
X88183364Y-71299989D01*
X88177385Y-71230376D01*
X88209990Y-71168580D01*
X88226023Y-71154686D01*
X88377199Y-71044852D01*
X88531852Y-70890199D01*
X88531854Y-70890195D01*
X88531857Y-70890193D01*
X88588229Y-70812601D01*
X88660407Y-70713257D01*
X88759701Y-70518383D01*
X88827286Y-70310375D01*
X88844912Y-70199082D01*
X88861500Y-70094361D01*
X88861500Y-69875638D01*
X88841595Y-69749971D01*
X88827286Y-69659625D01*
X88759701Y-69451617D01*
X88759701Y-69451616D01*
X88725315Y-69384132D01*
X88660407Y-69256743D01*
X88630786Y-69215973D01*
X88531857Y-69079806D01*
X88377199Y-68925148D01*
X88360170Y-68912776D01*
X88226028Y-68815316D01*
X88183364Y-68759989D01*
X88177385Y-68690376D01*
X88209990Y-68628580D01*
X88226023Y-68614686D01*
X88377199Y-68504852D01*
X88531852Y-68350199D01*
X88531854Y-68350195D01*
X88531857Y-68350193D01*
X88611384Y-68240732D01*
X88660407Y-68173257D01*
X88759701Y-67978383D01*
X88827286Y-67770375D01*
X88846355Y-67649981D01*
X88861500Y-67554361D01*
X88861500Y-67335638D01*
X88841595Y-67209971D01*
X88827286Y-67119625D01*
X88770910Y-66946116D01*
X88759702Y-66911619D01*
X88759701Y-66911616D01*
X88708175Y-66810493D01*
X88660407Y-66716743D01*
X88608098Y-66644745D01*
X88531857Y-66539806D01*
X88377199Y-66385148D01*
X88377191Y-66385142D01*
X88226028Y-66275316D01*
X88183364Y-66219989D01*
X88177385Y-66150376D01*
X88209990Y-66088580D01*
X88226023Y-66074686D01*
X88377199Y-65964852D01*
X88531852Y-65810199D01*
X88531854Y-65810195D01*
X88531857Y-65810193D01*
X88602834Y-65712500D01*
X88660407Y-65633257D01*
X88759701Y-65438383D01*
X88827286Y-65230375D01*
X88851612Y-65076788D01*
X88861500Y-65014361D01*
X88861500Y-64795638D01*
X88828392Y-64586610D01*
X88827286Y-64579625D01*
X88779543Y-64432685D01*
X88759702Y-64371619D01*
X88759701Y-64371616D01*
X88725315Y-64304132D01*
X88660407Y-64176743D01*
X88652147Y-64165374D01*
X88531857Y-63999806D01*
X88377199Y-63845148D01*
X88377191Y-63845142D01*
X88226028Y-63735316D01*
X88183364Y-63679989D01*
X88177385Y-63610376D01*
X88209990Y-63548580D01*
X88226023Y-63534686D01*
X88377199Y-63424852D01*
X88531852Y-63270199D01*
X88531854Y-63270195D01*
X88531857Y-63270193D01*
X88608199Y-63165115D01*
X88660407Y-63093257D01*
X88759701Y-62898383D01*
X88827286Y-62690375D01*
X88852196Y-62533101D01*
X88861500Y-62474361D01*
X88861500Y-62255638D01*
X88833497Y-62078842D01*
X88827286Y-62039625D01*
X88776877Y-61884480D01*
X88759701Y-61831616D01*
X88691005Y-61696795D01*
X88660407Y-61636743D01*
X88648839Y-61620821D01*
X88531857Y-61459806D01*
X88377199Y-61305148D01*
X88373810Y-61302686D01*
X88226028Y-61195316D01*
X88183364Y-61139989D01*
X88177385Y-61070376D01*
X88209990Y-61008580D01*
X88226023Y-60994686D01*
X88377199Y-60884852D01*
X88531852Y-60730199D01*
X88531854Y-60730195D01*
X88531857Y-60730193D01*
X88624366Y-60602863D01*
X88660407Y-60553257D01*
X88759701Y-60358383D01*
X88827286Y-60150375D01*
X88847764Y-60021081D01*
X88861500Y-59934361D01*
X88861500Y-59715638D01*
X88838917Y-59573058D01*
X88827286Y-59499625D01*
X88779197Y-59351619D01*
X88759702Y-59291619D01*
X88759701Y-59291616D01*
X88725315Y-59224132D01*
X88660407Y-59096743D01*
X88650650Y-59083314D01*
X88531857Y-58919806D01*
X88377199Y-58765148D01*
X88377191Y-58765142D01*
X88226028Y-58655316D01*
X88183364Y-58599989D01*
X88177385Y-58530376D01*
X88209990Y-58468580D01*
X88226023Y-58454686D01*
X88377199Y-58344852D01*
X88531852Y-58190199D01*
X88531854Y-58190195D01*
X88531857Y-58190193D01*
X88597022Y-58100500D01*
X88660407Y-58013257D01*
X88759701Y-57818383D01*
X88827286Y-57610375D01*
X88844912Y-57499082D01*
X88861500Y-57394361D01*
X88861500Y-57175638D01*
X101068500Y-57175638D01*
X101068500Y-57394361D01*
X101102714Y-57610376D01*
X101170297Y-57818380D01*
X101170298Y-57818383D01*
X101269595Y-58013260D01*
X101398142Y-58190193D01*
X101552802Y-58344853D01*
X101552807Y-58344857D01*
X101704394Y-58454991D01*
X101747060Y-58510320D01*
X101753039Y-58579934D01*
X101720434Y-58641729D01*
X101704394Y-58655627D01*
X101553133Y-58765524D01*
X101553128Y-58765528D01*
X101398528Y-58920128D01*
X101398524Y-58920133D01*
X101270023Y-59097001D01*
X101170762Y-59291808D01*
X101170761Y-59291811D01*
X101103201Y-59499741D01*
X101091282Y-59575000D01*
X102142749Y-59575000D01*
X102111619Y-59628919D01*
X102077000Y-59758120D01*
X102077000Y-59891880D01*
X102111619Y-60021081D01*
X102142749Y-60075000D01*
X101091282Y-60075000D01*
X101103201Y-60150258D01*
X101170761Y-60358188D01*
X101170762Y-60358191D01*
X101270023Y-60552998D01*
X101398524Y-60729866D01*
X101398528Y-60729871D01*
X101553128Y-60884471D01*
X101553133Y-60884475D01*
X101704394Y-60994372D01*
X101747060Y-61049701D01*
X101753039Y-61119315D01*
X101720434Y-61181110D01*
X101704394Y-61195008D01*
X101552807Y-61305142D01*
X101552802Y-61305146D01*
X101398142Y-61459806D01*
X101269595Y-61636739D01*
X101170299Y-61831616D01*
X101102714Y-62039623D01*
X101068500Y-62255638D01*
X101068500Y-62474361D01*
X101102714Y-62690376D01*
X101170297Y-62898380D01*
X101170298Y-62898383D01*
X101269595Y-63093260D01*
X101398142Y-63270193D01*
X101552806Y-63424857D01*
X101703969Y-63534682D01*
X101746635Y-63590011D01*
X101752614Y-63659625D01*
X101720009Y-63721420D01*
X101703969Y-63735318D01*
X101552806Y-63845142D01*
X101398142Y-63999806D01*
X101269595Y-64176739D01*
X101170298Y-64371616D01*
X101170297Y-64371619D01*
X101102714Y-64579623D01*
X101068500Y-64795638D01*
X101068500Y-65014361D01*
X101102714Y-65230376D01*
X101170297Y-65438380D01*
X101170298Y-65438383D01*
X101224775Y-65545298D01*
X101252902Y-65600500D01*
X101269595Y-65633260D01*
X101398142Y-65810193D01*
X101552806Y-65964857D01*
X101703969Y-66074682D01*
X101746635Y-66130011D01*
X101752614Y-66199625D01*
X101720009Y-66261420D01*
X101703969Y-66275318D01*
X101552806Y-66385142D01*
X101398142Y-66539806D01*
X101269595Y-66716739D01*
X101170298Y-66911616D01*
X101170297Y-66911619D01*
X101102714Y-67119623D01*
X101068500Y-67335638D01*
X101068500Y-67554361D01*
X101102714Y-67770376D01*
X101170297Y-67978380D01*
X101170298Y-67978383D01*
X101269595Y-68173260D01*
X101398142Y-68350193D01*
X101552806Y-68504857D01*
X101703969Y-68614682D01*
X101746635Y-68670011D01*
X101752614Y-68739625D01*
X101720009Y-68801420D01*
X101703969Y-68815318D01*
X101552806Y-68925142D01*
X101398142Y-69079806D01*
X101269595Y-69256739D01*
X101170298Y-69451616D01*
X101170297Y-69451619D01*
X101102714Y-69659623D01*
X101068500Y-69875638D01*
X101068500Y-70094361D01*
X101102714Y-70310376D01*
X101170297Y-70518380D01*
X101170298Y-70518383D01*
X101190122Y-70557288D01*
X101253332Y-70681344D01*
X101269595Y-70713260D01*
X101398142Y-70890193D01*
X101552806Y-71044857D01*
X101703969Y-71154682D01*
X101746635Y-71210011D01*
X101752614Y-71279625D01*
X101720009Y-71341420D01*
X101703969Y-71355318D01*
X101552806Y-71465142D01*
X101398142Y-71619806D01*
X101269595Y-71796739D01*
X101170298Y-71991616D01*
X101170297Y-71991619D01*
X101102714Y-72199623D01*
X101068500Y-72415638D01*
X101068500Y-72634361D01*
X101102714Y-72850376D01*
X101170297Y-73058380D01*
X101170298Y-73058383D01*
X101269595Y-73253260D01*
X101398142Y-73430193D01*
X101552806Y-73584857D01*
X101718374Y-73705147D01*
X101729743Y-73713407D01*
X101857132Y-73778315D01*
X101924616Y-73812701D01*
X101924619Y-73812702D01*
X102028621Y-73846493D01*
X102132625Y-73880286D01*
X102232672Y-73896132D01*
X102348639Y-73914500D01*
X102348644Y-73914500D01*
X104345361Y-73914500D01*
X104450082Y-73897912D01*
X104561375Y-73880286D01*
X104769383Y-73812701D01*
X104964257Y-73713407D01*
X105063601Y-73641229D01*
X105141193Y-73584857D01*
X105141195Y-73584854D01*
X105141199Y-73584852D01*
X105295852Y-73430199D01*
X105295854Y-73430195D01*
X105295857Y-73430193D01*
X105352229Y-73352601D01*
X105424407Y-73253257D01*
X105523701Y-73058383D01*
X105591286Y-72850375D01*
X105609662Y-72734354D01*
X105625500Y-72634361D01*
X105625500Y-72415638D01*
X105591788Y-72202797D01*
X105591286Y-72199625D01*
X105523701Y-71991617D01*
X105523701Y-71991616D01*
X105489315Y-71924132D01*
X105424407Y-71796743D01*
X105416147Y-71785374D01*
X105295857Y-71619806D01*
X105141199Y-71465148D01*
X105141191Y-71465142D01*
X104990028Y-71355316D01*
X104947364Y-71299989D01*
X104941385Y-71230376D01*
X104973990Y-71168580D01*
X104990023Y-71154686D01*
X105141199Y-71044852D01*
X105295852Y-70890199D01*
X105295854Y-70890195D01*
X105295857Y-70890193D01*
X105352229Y-70812601D01*
X105424407Y-70713257D01*
X105523701Y-70518383D01*
X105591286Y-70310375D01*
X105608912Y-70199082D01*
X105625500Y-70094361D01*
X105625500Y-69875638D01*
X105605595Y-69749971D01*
X105591286Y-69659625D01*
X105523701Y-69451617D01*
X105523701Y-69451616D01*
X105489315Y-69384132D01*
X105424407Y-69256743D01*
X105394786Y-69215973D01*
X105295857Y-69079806D01*
X105141199Y-68925148D01*
X105124170Y-68912776D01*
X104990028Y-68815316D01*
X104947364Y-68759989D01*
X104941385Y-68690376D01*
X104973990Y-68628580D01*
X104990023Y-68614686D01*
X105141199Y-68504852D01*
X105295852Y-68350199D01*
X105295854Y-68350195D01*
X105295857Y-68350193D01*
X105375384Y-68240732D01*
X105424407Y-68173257D01*
X105523701Y-67978383D01*
X105591286Y-67770375D01*
X105610355Y-67649981D01*
X105625500Y-67554361D01*
X105625500Y-67335638D01*
X105605595Y-67209971D01*
X105591286Y-67119625D01*
X105534910Y-66946116D01*
X105523702Y-66911619D01*
X105523701Y-66911616D01*
X105472175Y-66810493D01*
X105424407Y-66716743D01*
X105372098Y-66644745D01*
X105295857Y-66539806D01*
X105141199Y-66385148D01*
X105141191Y-66385142D01*
X104990028Y-66275316D01*
X104947364Y-66219989D01*
X104941385Y-66150376D01*
X104973990Y-66088580D01*
X104990023Y-66074686D01*
X105141199Y-65964852D01*
X105295852Y-65810199D01*
X105295854Y-65810195D01*
X105295857Y-65810193D01*
X105366834Y-65712500D01*
X105424407Y-65633257D01*
X105523701Y-65438383D01*
X105591286Y-65230375D01*
X105615612Y-65076788D01*
X105625500Y-65014361D01*
X105625500Y-64795638D01*
X105592392Y-64586610D01*
X105591286Y-64579625D01*
X105543543Y-64432685D01*
X105523702Y-64371619D01*
X105523701Y-64371616D01*
X105489315Y-64304132D01*
X105424407Y-64176743D01*
X105416147Y-64165374D01*
X105295857Y-63999806D01*
X105141199Y-63845148D01*
X105141191Y-63845142D01*
X104990028Y-63735316D01*
X104947364Y-63679989D01*
X104941385Y-63610376D01*
X104973990Y-63548580D01*
X104990023Y-63534686D01*
X105141199Y-63424852D01*
X105295852Y-63270199D01*
X105295854Y-63270195D01*
X105295857Y-63270193D01*
X105372199Y-63165115D01*
X105424407Y-63093257D01*
X105454807Y-63033593D01*
X105502782Y-62982798D01*
X105570603Y-62966003D01*
X105636738Y-62988541D01*
X105652973Y-63002208D01*
X111052639Y-68401874D01*
X111052649Y-68401885D01*
X111056979Y-68406215D01*
X111056980Y-68406216D01*
X111168784Y-68518020D01*
X111168786Y-68518021D01*
X111168790Y-68518024D01*
X111240760Y-68559575D01*
X111305716Y-68597077D01*
X111417519Y-68627034D01*
X111458442Y-68638000D01*
X111458443Y-68638000D01*
X114698732Y-68638000D01*
X114765771Y-68657685D01*
X114804269Y-68696901D01*
X114894788Y-68843656D01*
X115018844Y-68967712D01*
X115168166Y-69059814D01*
X115334703Y-69114999D01*
X115437491Y-69125500D01*
X116487508Y-69125499D01*
X116487516Y-69125498D01*
X116487519Y-69125498D01*
X116546705Y-69119452D01*
X116590297Y-69114999D01*
X116756834Y-69059814D01*
X116906156Y-68967712D01*
X117030212Y-68843656D01*
X117120729Y-68696902D01*
X117172677Y-68650179D01*
X117226268Y-68638000D01*
X119236232Y-68638000D01*
X119303271Y-68657685D01*
X119341769Y-68696901D01*
X119432288Y-68843656D01*
X119556344Y-68967712D01*
X119705666Y-69059814D01*
X119872203Y-69114999D01*
X119974991Y-69125500D01*
X121025008Y-69125499D01*
X121025016Y-69125498D01*
X121025019Y-69125498D01*
X121084205Y-69119452D01*
X121127797Y-69114999D01*
X121152558Y-69106793D01*
X121191562Y-69100500D01*
X127029092Y-69100500D01*
X127096131Y-69120185D01*
X127134636Y-69164271D01*
X127136395Y-69163187D01*
X127140185Y-69169331D01*
X127140186Y-69169334D01*
X127232288Y-69318656D01*
X127356344Y-69442712D01*
X127505666Y-69534814D01*
X127672203Y-69589999D01*
X127774991Y-69600500D01*
X129125008Y-69600499D01*
X129227797Y-69589999D01*
X129394334Y-69534814D01*
X129543656Y-69442712D01*
X129667712Y-69318656D01*
X129759814Y-69169334D01*
X129814999Y-69002797D01*
X129825500Y-68900009D01*
X129825499Y-68099992D01*
X129814999Y-67997203D01*
X129759814Y-67830666D01*
X129667712Y-67681344D01*
X129543656Y-67557288D01*
X129543655Y-67557287D01*
X129479019Y-67517420D01*
X129432294Y-67465472D01*
X129421071Y-67396510D01*
X129448914Y-67332428D01*
X129456434Y-67324199D01*
X129564035Y-67216598D01*
X129665804Y-67076524D01*
X129744408Y-66922255D01*
X129797914Y-66757584D01*
X129799115Y-66750000D01*
X128730330Y-66750000D01*
X128750075Y-66730255D01*
X128799444Y-66644745D01*
X128825000Y-66549370D01*
X128825000Y-66450630D01*
X128799444Y-66355255D01*
X128750075Y-66269745D01*
X128730330Y-66250000D01*
X129799115Y-66250000D01*
X129799115Y-66249999D01*
X129797914Y-66242415D01*
X129744408Y-66077744D01*
X129665804Y-65923475D01*
X129564032Y-65783397D01*
X129441602Y-65660967D01*
X129358551Y-65600628D01*
X129315885Y-65545298D01*
X129309906Y-65475685D01*
X129342511Y-65413889D01*
X129358551Y-65399991D01*
X129441928Y-65339414D01*
X129564414Y-65216928D01*
X129666232Y-65076788D01*
X129744873Y-64922445D01*
X129798402Y-64757701D01*
X129825500Y-64586611D01*
X129825500Y-64413389D01*
X129798402Y-64242299D01*
X129744873Y-64077555D01*
X129666232Y-63923212D01*
X129564414Y-63783072D01*
X129441928Y-63660586D01*
X129358975Y-63600317D01*
X129316311Y-63544988D01*
X129310332Y-63475374D01*
X129342938Y-63413579D01*
X129358976Y-63399682D01*
X129441928Y-63339414D01*
X129564414Y-63216928D01*
X129666232Y-63076788D01*
X129744873Y-62922445D01*
X129798402Y-62757701D01*
X129825500Y-62586611D01*
X129825500Y-62413389D01*
X129798402Y-62242299D01*
X129744873Y-62077555D01*
X129666232Y-61923212D01*
X129564414Y-61783072D01*
X129441928Y-61660586D01*
X129301788Y-61558768D01*
X129147445Y-61480127D01*
X128982701Y-61426598D01*
X128982699Y-61426597D01*
X128982698Y-61426597D01*
X128851271Y-61405781D01*
X128811611Y-61399500D01*
X128088389Y-61399500D01*
X128048728Y-61405781D01*
X127917302Y-61426597D01*
X127917299Y-61426598D01*
X127815112Y-61459801D01*
X127752552Y-61480128D01*
X127598211Y-61558768D01*
X127568848Y-61580102D01*
X127458072Y-61660586D01*
X127458070Y-61660588D01*
X127458069Y-61660588D01*
X127335588Y-61783069D01*
X127335588Y-61783070D01*
X127335586Y-61783072D01*
X127319346Y-61805425D01*
X127233768Y-61923211D01*
X127155128Y-62077552D01*
X127101597Y-62242302D01*
X127074500Y-62413389D01*
X127074500Y-62586610D01*
X127098411Y-62737583D01*
X127101598Y-62757701D01*
X127115504Y-62800500D01*
X127155129Y-62922450D01*
X127210797Y-63031706D01*
X127223693Y-63100375D01*
X127197416Y-63165115D01*
X127140310Y-63205372D01*
X127100312Y-63212000D01*
X123150097Y-63212000D01*
X123083058Y-63192315D01*
X123062416Y-63175681D01*
X122624318Y-62737583D01*
X122590833Y-62676260D01*
X122587999Y-62649902D01*
X122587999Y-61937498D01*
X122587998Y-61937481D01*
X122577499Y-61834703D01*
X122577498Y-61834700D01*
X122567797Y-61805424D01*
X122522314Y-61668166D01*
X122430212Y-61518844D01*
X122306156Y-61394788D01*
X122159402Y-61304270D01*
X122112679Y-61252323D01*
X122100500Y-61198732D01*
X122100500Y-60708408D01*
X122120185Y-60641369D01*
X122164271Y-60602863D01*
X122163187Y-60601105D01*
X122169332Y-60597314D01*
X122169334Y-60597314D01*
X122318656Y-60505212D01*
X122442712Y-60381156D01*
X122534814Y-60231834D01*
X122589999Y-60065297D01*
X122600500Y-59962509D01*
X122600499Y-58962492D01*
X122599448Y-58952207D01*
X122589999Y-58859703D01*
X122589998Y-58859700D01*
X122581631Y-58834449D01*
X122534814Y-58693166D01*
X122442712Y-58543844D01*
X122318656Y-58419788D01*
X122169334Y-58327686D01*
X122002797Y-58272501D01*
X122002795Y-58272500D01*
X121900010Y-58262000D01*
X121099998Y-58262000D01*
X121099980Y-58262001D01*
X120997203Y-58272500D01*
X120997200Y-58272501D01*
X120830668Y-58327685D01*
X120830663Y-58327687D01*
X120681342Y-58419789D01*
X120587681Y-58513451D01*
X120526358Y-58546936D01*
X120456666Y-58541952D01*
X120412319Y-58513451D01*
X120318657Y-58419789D01*
X120318656Y-58419788D01*
X120169334Y-58327686D01*
X120002797Y-58272501D01*
X120002795Y-58272500D01*
X119900010Y-58262000D01*
X119099998Y-58262000D01*
X119099980Y-58262001D01*
X118997203Y-58272500D01*
X118997200Y-58272501D01*
X118830668Y-58327685D01*
X118830663Y-58327687D01*
X118681342Y-58419789D01*
X118557289Y-58543842D01*
X118465187Y-58693163D01*
X118465186Y-58693166D01*
X118441334Y-58765148D01*
X118437405Y-58777004D01*
X118397632Y-58834449D01*
X118333116Y-58861272D01*
X118319699Y-58862000D01*
X113542266Y-58862000D01*
X113475227Y-58842315D01*
X113473375Y-58841102D01*
X113341685Y-58753109D01*
X113341672Y-58753102D01*
X113196001Y-58692764D01*
X113195989Y-58692761D01*
X113041345Y-58662000D01*
X113041342Y-58662000D01*
X112883658Y-58662000D01*
X112883655Y-58662000D01*
X112729010Y-58692761D01*
X112728998Y-58692764D01*
X112583327Y-58753102D01*
X112583314Y-58753109D01*
X112452211Y-58840710D01*
X112452207Y-58840713D01*
X112340713Y-58952207D01*
X112340710Y-58952211D01*
X112253109Y-59083314D01*
X112253102Y-59083327D01*
X112192764Y-59228998D01*
X112192761Y-59229010D01*
X112162000Y-59383653D01*
X112162000Y-59541346D01*
X112192761Y-59695989D01*
X112192764Y-59696001D01*
X112253102Y-59841672D01*
X112253109Y-59841685D01*
X112340710Y-59972788D01*
X112340713Y-59972792D01*
X112452207Y-60084286D01*
X112452211Y-60084289D01*
X112583314Y-60171890D01*
X112583327Y-60171897D01*
X112727909Y-60231784D01*
X112729003Y-60232237D01*
X112883653Y-60262999D01*
X112883656Y-60263000D01*
X112883658Y-60263000D01*
X113041344Y-60263000D01*
X113041345Y-60262999D01*
X113195997Y-60232237D01*
X113341679Y-60171894D01*
X113373883Y-60150376D01*
X113473375Y-60083898D01*
X113540053Y-60063020D01*
X113542266Y-60063000D01*
X118319699Y-60063000D01*
X118386738Y-60082685D01*
X118432493Y-60135489D01*
X118437403Y-60147992D01*
X118445324Y-60171894D01*
X118465185Y-60231831D01*
X118465187Y-60231836D01*
X118465435Y-60232238D01*
X118557288Y-60381156D01*
X118681344Y-60505212D01*
X118830666Y-60597314D01*
X118997203Y-60652499D01*
X119099991Y-60663000D01*
X119900008Y-60662999D01*
X119900016Y-60662998D01*
X119900019Y-60662998D01*
X119956302Y-60657248D01*
X120002797Y-60652499D01*
X120169334Y-60597314D01*
X120318656Y-60505212D01*
X120412319Y-60411549D01*
X120473642Y-60378064D01*
X120543334Y-60383048D01*
X120587681Y-60411549D01*
X120681344Y-60505212D01*
X120830666Y-60597314D01*
X120830667Y-60597314D01*
X120836813Y-60601105D01*
X120835706Y-60602899D01*
X120880337Y-60642187D01*
X120899500Y-60708408D01*
X120899500Y-61198732D01*
X120879815Y-61265771D01*
X120840598Y-61304269D01*
X120744923Y-61363281D01*
X120693842Y-61394789D01*
X120569788Y-61518843D01*
X120569783Y-61518849D01*
X120567741Y-61522161D01*
X120565747Y-61523953D01*
X120565307Y-61524511D01*
X120565211Y-61524435D01*
X120515791Y-61568883D01*
X120446828Y-61580102D01*
X120382747Y-61552255D01*
X120356668Y-61522156D01*
X120354819Y-61519159D01*
X120354816Y-61519155D01*
X120230845Y-61395184D01*
X120081624Y-61303143D01*
X120081619Y-61303141D01*
X119915197Y-61247994D01*
X119915190Y-61247993D01*
X119812486Y-61237500D01*
X119675000Y-61237500D01*
X119675000Y-63687499D01*
X119812472Y-63687499D01*
X119812486Y-63687498D01*
X119915197Y-63677005D01*
X120081619Y-63621858D01*
X120081624Y-63621856D01*
X120230845Y-63529815D01*
X120354818Y-63405842D01*
X120356665Y-63402848D01*
X120358469Y-63401224D01*
X120359298Y-63400177D01*
X120359476Y-63400318D01*
X120408610Y-63356121D01*
X120477573Y-63344896D01*
X120541656Y-63372736D01*
X120567743Y-63402841D01*
X120569788Y-63406156D01*
X120693844Y-63530212D01*
X120843166Y-63622314D01*
X121009703Y-63677499D01*
X121112491Y-63688000D01*
X121824902Y-63687999D01*
X121891941Y-63707683D01*
X121912583Y-63724318D01*
X122365139Y-64176874D01*
X122365149Y-64176885D01*
X122369479Y-64181215D01*
X122369480Y-64181216D01*
X122481284Y-64293020D01*
X122568095Y-64343139D01*
X122568097Y-64343141D01*
X122618213Y-64372076D01*
X122618215Y-64372077D01*
X122770942Y-64413000D01*
X122770943Y-64413000D01*
X126950500Y-64413000D01*
X127017539Y-64432685D01*
X127063294Y-64485489D01*
X127074500Y-64537000D01*
X127074500Y-64586611D01*
X127101598Y-64757701D01*
X127155127Y-64922445D01*
X127233768Y-65076788D01*
X127335586Y-65216928D01*
X127458072Y-65339414D01*
X127541449Y-65399991D01*
X127584114Y-65455322D01*
X127590093Y-65524935D01*
X127557487Y-65586730D01*
X127541448Y-65600627D01*
X127458404Y-65660961D01*
X127458399Y-65660965D01*
X127335967Y-65783397D01*
X127234195Y-65923475D01*
X127155591Y-66077744D01*
X127102085Y-66242415D01*
X127100884Y-66249999D01*
X127100885Y-66250000D01*
X128169670Y-66250000D01*
X128149925Y-66269745D01*
X128100556Y-66355255D01*
X128075000Y-66450630D01*
X128075000Y-66549370D01*
X128100556Y-66644745D01*
X128149925Y-66730255D01*
X128169670Y-66750000D01*
X127100885Y-66750000D01*
X127102085Y-66757584D01*
X127155591Y-66922255D01*
X127234195Y-67076524D01*
X127335967Y-67216602D01*
X127443565Y-67324200D01*
X127477050Y-67385523D01*
X127472066Y-67455215D01*
X127430194Y-67511148D01*
X127420981Y-67517420D01*
X127356342Y-67557289D01*
X127232289Y-67681342D01*
X127232288Y-67681344D01*
X127141179Y-67829057D01*
X127136395Y-67836813D01*
X127134600Y-67835706D01*
X127095313Y-67880337D01*
X127029092Y-67899500D01*
X121849499Y-67899500D01*
X121782460Y-67879815D01*
X121736705Y-67827011D01*
X121725499Y-67775500D01*
X121725499Y-67649998D01*
X121725498Y-67649981D01*
X121714999Y-67547203D01*
X121714998Y-67547200D01*
X121705130Y-67517420D01*
X121659814Y-67380666D01*
X121567712Y-67231344D01*
X121443656Y-67107288D01*
X121440342Y-67105243D01*
X121438546Y-67103248D01*
X121437989Y-67102807D01*
X121438064Y-67102711D01*
X121393618Y-67053297D01*
X121382397Y-66984334D01*
X121410240Y-66920252D01*
X121440348Y-66894165D01*
X121443342Y-66892318D01*
X121567315Y-66768345D01*
X121659356Y-66619124D01*
X121659358Y-66619119D01*
X121714505Y-66452697D01*
X121714506Y-66452690D01*
X121724999Y-66349986D01*
X121725000Y-66349973D01*
X121725000Y-66212500D01*
X119275001Y-66212500D01*
X119275001Y-66349986D01*
X119285494Y-66452697D01*
X119340641Y-66619119D01*
X119340643Y-66619124D01*
X119432684Y-66768345D01*
X119556655Y-66892316D01*
X119556659Y-66892319D01*
X119559656Y-66894168D01*
X119561279Y-66895972D01*
X119562323Y-66896798D01*
X119562181Y-66896976D01*
X119606381Y-66946116D01*
X119617602Y-67015079D01*
X119589759Y-67079161D01*
X119559661Y-67105241D01*
X119556349Y-67107283D01*
X119556343Y-67107288D01*
X119432289Y-67231342D01*
X119400781Y-67282423D01*
X119367960Y-67335638D01*
X119341771Y-67378097D01*
X119289823Y-67424821D01*
X119236232Y-67437000D01*
X117226268Y-67437000D01*
X117159229Y-67417315D01*
X117120729Y-67378097D01*
X117094544Y-67335644D01*
X117030212Y-67231344D01*
X116906156Y-67107288D01*
X116902842Y-67105243D01*
X116901046Y-67103248D01*
X116900489Y-67102807D01*
X116900564Y-67102711D01*
X116856118Y-67053297D01*
X116844897Y-66984334D01*
X116872740Y-66920252D01*
X116902848Y-66894165D01*
X116905842Y-66892318D01*
X117029815Y-66768345D01*
X117121856Y-66619124D01*
X117121858Y-66619119D01*
X117177005Y-66452697D01*
X117177006Y-66452690D01*
X117187499Y-66349986D01*
X117187500Y-66349973D01*
X117187500Y-66212500D01*
X114737501Y-66212500D01*
X114737501Y-66349986D01*
X114747994Y-66452697D01*
X114803141Y-66619119D01*
X114803143Y-66619124D01*
X114895184Y-66768345D01*
X115019155Y-66892316D01*
X115019159Y-66892319D01*
X115022156Y-66894168D01*
X115023779Y-66895972D01*
X115024823Y-66896798D01*
X115024681Y-66896976D01*
X115068881Y-66946116D01*
X115080102Y-67015079D01*
X115052259Y-67079161D01*
X115022161Y-67105241D01*
X115018849Y-67107283D01*
X115018843Y-67107288D01*
X114894789Y-67231342D01*
X114863281Y-67282423D01*
X114830460Y-67335638D01*
X114804271Y-67378097D01*
X114752323Y-67424821D01*
X114698732Y-67437000D01*
X111837597Y-67437000D01*
X111770558Y-67417315D01*
X111749916Y-67400681D01*
X109924248Y-65575013D01*
X114737500Y-65575013D01*
X114737500Y-65712500D01*
X115712500Y-65712500D01*
X116212500Y-65712500D01*
X117187499Y-65712500D01*
X117187499Y-65575029D01*
X117187498Y-65575013D01*
X119275000Y-65575013D01*
X119275000Y-65712500D01*
X120250000Y-65712500D01*
X120750000Y-65712500D01*
X121724999Y-65712500D01*
X121724999Y-65575028D01*
X121724998Y-65575013D01*
X121714505Y-65472302D01*
X121659358Y-65305880D01*
X121659356Y-65305875D01*
X121567315Y-65156654D01*
X121443345Y-65032684D01*
X121294124Y-64940643D01*
X121294119Y-64940641D01*
X121127697Y-64885494D01*
X121127690Y-64885493D01*
X121024986Y-64875000D01*
X120750000Y-64875000D01*
X120750000Y-65712500D01*
X120250000Y-65712500D01*
X120250000Y-64875000D01*
X119975029Y-64875000D01*
X119975012Y-64875001D01*
X119872302Y-64885494D01*
X119705880Y-64940641D01*
X119705875Y-64940643D01*
X119556654Y-65032684D01*
X119432684Y-65156654D01*
X119340643Y-65305875D01*
X119340641Y-65305880D01*
X119285494Y-65472302D01*
X119285493Y-65472309D01*
X119275000Y-65575013D01*
X117187498Y-65575013D01*
X117187498Y-65575012D01*
X117177005Y-65472302D01*
X117121858Y-65305880D01*
X117121856Y-65305875D01*
X117029815Y-65156654D01*
X116905845Y-65032684D01*
X116756624Y-64940643D01*
X116756619Y-64940641D01*
X116590197Y-64885494D01*
X116590190Y-64885493D01*
X116487486Y-64875000D01*
X116212500Y-64875000D01*
X116212500Y-65712500D01*
X115712500Y-65712500D01*
X115712500Y-64875000D01*
X115437529Y-64875000D01*
X115437512Y-64875001D01*
X115334802Y-64885494D01*
X115168380Y-64940641D01*
X115168375Y-64940643D01*
X115019154Y-65032684D01*
X114895184Y-65156654D01*
X114803143Y-65305875D01*
X114803141Y-65305880D01*
X114747994Y-65472302D01*
X114747993Y-65472309D01*
X114737500Y-65575013D01*
X109924248Y-65575013D01*
X107336721Y-62987486D01*
X118337501Y-62987486D01*
X118347994Y-63090197D01*
X118403141Y-63256619D01*
X118403143Y-63256624D01*
X118495184Y-63405845D01*
X118619154Y-63529815D01*
X118768375Y-63621856D01*
X118768380Y-63621858D01*
X118934802Y-63677005D01*
X118934809Y-63677006D01*
X119037519Y-63687499D01*
X119174999Y-63687499D01*
X119175000Y-63687498D01*
X119175000Y-62712500D01*
X118337501Y-62712500D01*
X118337501Y-62987486D01*
X107336721Y-62987486D01*
X106352590Y-62003355D01*
X106352588Y-62003352D01*
X106286749Y-61937513D01*
X118337500Y-61937513D01*
X118337500Y-62212500D01*
X119175000Y-62212500D01*
X119175000Y-61237500D01*
X119037527Y-61237500D01*
X119037512Y-61237501D01*
X118934802Y-61247994D01*
X118768380Y-61303141D01*
X118768375Y-61303143D01*
X118619154Y-61395184D01*
X118495184Y-61519154D01*
X118403143Y-61668375D01*
X118403141Y-61668380D01*
X118347994Y-61834802D01*
X118347993Y-61834809D01*
X118337500Y-61937513D01*
X106286749Y-61937513D01*
X106233717Y-61884481D01*
X106233709Y-61884475D01*
X106142155Y-61831617D01*
X106142153Y-61831616D01*
X106096790Y-61805425D01*
X106096789Y-61805424D01*
X106084263Y-61802067D01*
X105944057Y-61764499D01*
X105785943Y-61764499D01*
X105778347Y-61764499D01*
X105778331Y-61764500D01*
X105565490Y-61764500D01*
X105498451Y-61744815D01*
X105455005Y-61696795D01*
X105424407Y-61636743D01*
X105412839Y-61620821D01*
X105295857Y-61459806D01*
X105141197Y-61305146D01*
X105141192Y-61305142D01*
X104989605Y-61195008D01*
X104946939Y-61139678D01*
X104940960Y-61070065D01*
X104973565Y-61008270D01*
X104989605Y-60994371D01*
X105140873Y-60884469D01*
X105295471Y-60729871D01*
X105295475Y-60729866D01*
X105423976Y-60552998D01*
X105523237Y-60358191D01*
X105523238Y-60358188D01*
X105590798Y-60150258D01*
X105602718Y-60075000D01*
X103027251Y-60075000D01*
X103058381Y-60021081D01*
X103093000Y-59891880D01*
X103093000Y-59758120D01*
X103058381Y-59628919D01*
X103027251Y-59575000D01*
X105602718Y-59575000D01*
X105590798Y-59499741D01*
X105563551Y-59415884D01*
X105563550Y-59415882D01*
X105523239Y-59291814D01*
X105523237Y-59291808D01*
X105423976Y-59097001D01*
X105295475Y-58920133D01*
X105295471Y-58920128D01*
X105140871Y-58765528D01*
X105140866Y-58765524D01*
X104989605Y-58655627D01*
X104946939Y-58600297D01*
X104940960Y-58530684D01*
X104973565Y-58468889D01*
X104989599Y-58454994D01*
X105141199Y-58344852D01*
X105295852Y-58190199D01*
X105295854Y-58190195D01*
X105295857Y-58190193D01*
X105361022Y-58100500D01*
X105424407Y-58013257D01*
X105523701Y-57818383D01*
X105591286Y-57610375D01*
X105608912Y-57499082D01*
X105625500Y-57394361D01*
X105625500Y-57175638D01*
X105600765Y-57019475D01*
X105591286Y-56959625D01*
X105523701Y-56751617D01*
X105523701Y-56751616D01*
X105489315Y-56684132D01*
X105424407Y-56556743D01*
X105399521Y-56522490D01*
X105295857Y-56379806D01*
X105141193Y-56225142D01*
X104964260Y-56096595D01*
X104964259Y-56096594D01*
X104964257Y-56096593D01*
X104901825Y-56064782D01*
X104769383Y-55997298D01*
X104769380Y-55997297D01*
X104561376Y-55929714D01*
X104345361Y-55895500D01*
X104345356Y-55895500D01*
X102348644Y-55895500D01*
X102348639Y-55895500D01*
X102132623Y-55929714D01*
X101924619Y-55997297D01*
X101924616Y-55997298D01*
X101729739Y-56096595D01*
X101552806Y-56225142D01*
X101398142Y-56379806D01*
X101269595Y-56556739D01*
X101170298Y-56751616D01*
X101170297Y-56751619D01*
X101102714Y-56959623D01*
X101068500Y-57175638D01*
X88861500Y-57175638D01*
X88836765Y-57019475D01*
X88827286Y-56959625D01*
X88759701Y-56751617D01*
X88759701Y-56751616D01*
X88725315Y-56684132D01*
X88660407Y-56556743D01*
X88635521Y-56522490D01*
X88531857Y-56379806D01*
X88377193Y-56225142D01*
X88200260Y-56096595D01*
X88200259Y-56096594D01*
X88200257Y-56096593D01*
X88137825Y-56064782D01*
X88005383Y-55997298D01*
X88005380Y-55997297D01*
X87797376Y-55929714D01*
X87581361Y-55895500D01*
X87581356Y-55895500D01*
X85584644Y-55895500D01*
X85584639Y-55895500D01*
X85368623Y-55929714D01*
X85160619Y-55997297D01*
X85160616Y-55997298D01*
X84965739Y-56096595D01*
X84788806Y-56225142D01*
X84634142Y-56379806D01*
X84505595Y-56556739D01*
X84406298Y-56751616D01*
X84406296Y-56751622D01*
X84386089Y-56813817D01*
X84346652Y-56871493D01*
X84282294Y-56898692D01*
X84268158Y-56899500D01*
X83420943Y-56899500D01*
X83268216Y-56940423D01*
X83268209Y-56940426D01*
X83131290Y-57019475D01*
X83131282Y-57019481D01*
X83019481Y-57131282D01*
X83019475Y-57131290D01*
X82940426Y-57268209D01*
X82940423Y-57268216D01*
X82899500Y-57420943D01*
X82899500Y-59699902D01*
X82879815Y-59766941D01*
X82863181Y-59787583D01*
X79519481Y-63131282D01*
X79519475Y-63131290D01*
X79472880Y-63211997D01*
X79472880Y-63211998D01*
X79440423Y-63268214D01*
X79440423Y-63268215D01*
X79399499Y-63420943D01*
X79399499Y-63420945D01*
X79399499Y-63589046D01*
X79399500Y-63589059D01*
X79399500Y-67275500D01*
X79379815Y-67342539D01*
X79327011Y-67388294D01*
X79275500Y-67399500D01*
X71325301Y-67399500D01*
X71258262Y-67379815D01*
X71212507Y-67327011D01*
X71207595Y-67314504D01*
X71179814Y-67230666D01*
X71087712Y-67081344D01*
X70963656Y-66957288D01*
X70820025Y-66868696D01*
X70814336Y-66865187D01*
X70814331Y-66865185D01*
X70801258Y-66860853D01*
X70647797Y-66810001D01*
X70647795Y-66810000D01*
X70545010Y-66799500D01*
X69894998Y-66799500D01*
X69894980Y-66799501D01*
X69792203Y-66810000D01*
X69792200Y-66810001D01*
X69625666Y-66865186D01*
X69564619Y-66902839D01*
X69497226Y-66921278D01*
X69434428Y-66902838D01*
X69374128Y-66865646D01*
X69374119Y-66865641D01*
X69207697Y-66810494D01*
X69207690Y-66810493D01*
X69104986Y-66800000D01*
X69030000Y-66800000D01*
X68530000Y-66800000D01*
X68529999Y-66799999D01*
X68455028Y-66800000D01*
X68455011Y-66800001D01*
X68352302Y-66810494D01*
X68185880Y-66865641D01*
X68179330Y-66868696D01*
X68178281Y-66866447D01*
X68122182Y-66881787D01*
X68055522Y-66860853D01*
X68010762Y-66807203D01*
X68000500Y-66757809D01*
X68000500Y-57381902D01*
X71499500Y-57381902D01*
X71499500Y-57618097D01*
X71536446Y-57851368D01*
X71609433Y-58075996D01*
X71704208Y-58262000D01*
X71716657Y-58286433D01*
X71855483Y-58477510D01*
X72022490Y-58644517D01*
X72213567Y-58783343D01*
X72312991Y-58834002D01*
X72424003Y-58890566D01*
X72424005Y-58890566D01*
X72424008Y-58890568D01*
X72544412Y-58929689D01*
X72648631Y-58963553D01*
X72881903Y-59000500D01*
X72881908Y-59000500D01*
X73118097Y-59000500D01*
X73351368Y-58963553D01*
X73386287Y-58952207D01*
X73575992Y-58890568D01*
X73786433Y-58783343D01*
X73977510Y-58644517D01*
X74144517Y-58477510D01*
X74283343Y-58286433D01*
X74390568Y-58075992D01*
X74463553Y-57851368D01*
X74468778Y-57818380D01*
X74500500Y-57618097D01*
X74500500Y-57381902D01*
X74463553Y-57148631D01*
X74421587Y-57019475D01*
X74390568Y-56924008D01*
X74390566Y-56924005D01*
X74390566Y-56924003D01*
X74283342Y-56713566D01*
X74144517Y-56522490D01*
X73977510Y-56355483D01*
X73786433Y-56216657D01*
X73575996Y-56109433D01*
X73351368Y-56036446D01*
X73118097Y-55999500D01*
X73118092Y-55999500D01*
X72881908Y-55999500D01*
X72881903Y-55999500D01*
X72648631Y-56036446D01*
X72424003Y-56109433D01*
X72213566Y-56216657D01*
X72104550Y-56295862D01*
X72022490Y-56355483D01*
X72022488Y-56355485D01*
X72022487Y-56355485D01*
X71855485Y-56522487D01*
X71855485Y-56522488D01*
X71855483Y-56522490D01*
X71830600Y-56556739D01*
X71716657Y-56713566D01*
X71609433Y-56924003D01*
X71536446Y-57148631D01*
X71499500Y-57381902D01*
X68000500Y-57381902D01*
X68000500Y-56003051D01*
X68000649Y-55996967D01*
X68017052Y-55663072D01*
X68018245Y-55650962D01*
X68066849Y-55323296D01*
X68069218Y-55311385D01*
X68149710Y-54990043D01*
X68153240Y-54978411D01*
X68264835Y-54666525D01*
X68269476Y-54655318D01*
X68411124Y-54355828D01*
X68416840Y-54345136D01*
X68587145Y-54060998D01*
X68593888Y-54050905D01*
X68791232Y-53784818D01*
X68798935Y-53775433D01*
X69021405Y-53529975D01*
X69029975Y-53521405D01*
X69275433Y-53298935D01*
X69284818Y-53291232D01*
X69550905Y-53093888D01*
X69560998Y-53087145D01*
X69845136Y-52916840D01*
X69855828Y-52911124D01*
X70155318Y-52769476D01*
X70166525Y-52764835D01*
X70478412Y-52653239D01*
X70490043Y-52649710D01*
X70811385Y-52569218D01*
X70823296Y-52566849D01*
X71150962Y-52518244D01*
X71163068Y-52517052D01*
X71496967Y-52500648D01*
X71503051Y-52500500D01*
X71565892Y-52500500D01*
X133934108Y-52500500D01*
X133996949Y-52500500D01*
X134003032Y-52500648D01*
G37*
%TD.AperFunction*%
%TD*%
M02*
