M48
METRIC
T1C0.300
T2C0.750
T3C1.016
%
G90
G05
T1
X83.5Y-62.0
X112.962Y-59.462
T2
X128.45Y-62.5
X128.45Y-64.5
X128.45Y-66.5
X128.45Y-68.5
T3
X87.345Y-57.285
X87.345Y-59.825
X87.345Y-62.365
X87.345Y-64.905
X87.345Y-67.445
X87.345Y-69.985
X87.345Y-72.525
X92.425Y-82.685
X97.505Y-82.685
X102.585Y-57.285
X102.585Y-59.825
X102.585Y-62.365
X102.585Y-64.905
X102.585Y-67.445
X102.585Y-69.985
X102.585Y-72.525
M30
