%TF.GenerationSoftware,KiCad,Pcbnew,9.0.7*%
%TF.CreationDate,2026-02-17T08:39:04-08:00*%
%TF.ProjectId,Sensing device,53656e73-696e-4672-9064-65766963652e,2.0*%
%TF.SameCoordinates,Original*%
%TF.FileFunction,Copper,L2,Bot*%
%TF.FilePolarity,Positive*%
%FSLAX46Y46*%
G04 Gerber Fmt 4.6, Leading zero omitted, Abs format (unit mm)*
G04 Created by KiCad (PCBNEW 9.0.7) date 2026-02-17 08:39:04*
%MOMM*%
%LPD*%
G01*
G04 APERTURE LIST*
G04 Aperture macros list*
%AMRoundRect*
0 Rectangle with rounded corners*
0 $1 Rounding radius*
0 $2 $3 $4 $5 $6 $7 $8 $9 X,Y pos of 4 corners*
0 Add a 4 corners polygon primitive as box body*
4,1,4,$2,$3,$4,$5,$6,$7,$8,$9,$2,$3,0*
0 Add four circle primitives for the rounded corners*
1,1,$1+$1,$2,$3*
1,1,$1+$1,$4,$5*
1,1,$1+$1,$6,$7*
1,1,$1+$1,$8,$9*
0 Add four rect primitives between the rounded corners*
20,1,$1+$1,$2,$3,$4,$5,0*
20,1,$1+$1,$4,$5,$6,$7,0*
20,1,$1+$1,$6,$7,$8,$9,0*
20,1,$1+$1,$8,$9,$2,$3,0*%
G04 Aperture macros list end*
%TA.AperFunction,ComponentPad*%
%ADD10RoundRect,0.250000X0.625000X-0.350000X0.625000X0.350000X-0.625000X0.350000X-0.625000X-0.350000X0*%
%TD*%
%TA.AperFunction,ComponentPad*%
%ADD11O,1.750000X1.200000*%
%TD*%
%TA.AperFunction,ComponentPad*%
%ADD12O,3.556000X1.778000*%
%TD*%
%TA.AperFunction,ComponentPad*%
%ADD13C,1.905000*%
%TD*%
%TA.AperFunction,ViaPad*%
%ADD14C,0.600000*%
%TD*%
%TA.AperFunction,Conductor*%
%ADD15C,0.200000*%
%TD*%
G04 APERTURE END LIST*
D10*
%TO.P,J2,1,Pin_1*%
%TO.N,+3V3*%
X128450000Y-68500000D03*
D11*
%TO.P,J2,2,Pin_2*%
%TO.N,GND*%
X128450000Y-66500000D03*
%TO.P,J2,3,Pin_3*%
%TO.N,Net-(J2-Pin_3)*%
X128450000Y-64500000D03*
%TO.P,J2,4,Pin_4*%
%TO.N,unconnected-(J2-Pin_4-Pad4)*%
X128450000Y-62500000D03*
%TD*%
D12*
%TO.P,U1,1,GPIO1_A0_D0*%
%TO.N,/CAL_BTN*%
X86583000Y-57285000D03*
%TO.P,U1,2,GPIO2_A1_D1*%
%TO.N,/GSR_SIG*%
X86583000Y-59825000D03*
%TO.P,U1,3,GPIO3_A2_D2*%
%TO.N,unconnected-(U1-GPIO3_A2_D2-Pad3)*%
X86583000Y-62365000D03*
%TO.P,U1,4,GPIO4_A3_D3*%
%TO.N,unconnected-(U1-GPIO4_A3_D3-Pad4)*%
X86583000Y-64905000D03*
%TO.P,U1,5,GPIO4_A3_D3_SDA*%
%TO.N,unconnected-(U1-GPIO4_A3_D3_SDA-Pad5)*%
X86583000Y-67445000D03*
%TO.P,U1,6,GPIO6_A5_D5_SCL*%
%TO.N,unconnected-(U1-GPIO6_A5_D5_SCL-Pad6)*%
X86583000Y-69985000D03*
%TO.P,U1,7,GPIO43_TX_D6*%
%TO.N,unconnected-(U1-GPIO43_TX_D6-Pad7)*%
X86583000Y-72525000D03*
%TO.P,U1,8,GPIO44_D7_RX*%
%TO.N,unconnected-(U1-GPIO44_D7_RX-Pad8)*%
X103347000Y-72525000D03*
%TO.P,U1,9,GPIO7_A8_D8_SCK*%
%TO.N,unconnected-(U1-GPIO7_A8_D8_SCK-Pad9)*%
X103347000Y-69985000D03*
%TO.P,U1,10,GPIO8_A9_D9_CIPO*%
%TO.N,unconnected-(U1-GPIO8_A9_D9_CIPO-Pad10)*%
X103347000Y-67445000D03*
%TO.P,U1,11,GPIO9_A10_D10_COPI*%
%TO.N,unconnected-(U1-GPIO9_A10_D10_COPI-Pad11)*%
X103347000Y-64905000D03*
%TO.P,U1,12,3V3*%
%TO.N,+3V3*%
X103347000Y-62365000D03*
%TO.P,U1,13,GND*%
%TO.N,GND*%
X103347000Y-59825000D03*
%TO.P,U1,14,5V*%
%TO.N,unconnected-(U1-5V-Pad14)*%
X103347000Y-57285000D03*
D13*
%TO.P,U1,15,+BATT*%
%TO.N,/BAT*%
X92425000Y-82685000D03*
%TO.P,U1,16,-BATT*%
%TO.N,GND*%
X97505000Y-82685000D03*
%TD*%
D14*
%TO.N,/GSR_SIG*%
X112962500Y-59462500D03*
X83500000Y-62000000D03*
%TD*%
D15*
%TO.N,/GSR_SIG*%
X84000000Y-77500000D02*
X110000000Y-77500000D01*
X83500000Y-77000000D02*
X84000000Y-77500000D01*
X110000000Y-77500000D02*
X110000000Y-62500000D01*
X83500000Y-62000000D02*
X83500000Y-77000000D01*
X110000000Y-62500000D02*
X113000000Y-59500000D01*
%TD*%
%TA.AperFunction,Conductor*%
%TO.N,GND*%
G36*
X134003032Y-52500648D02*
G01*
X134336929Y-52517052D01*
X134349037Y-52518245D01*
X134452146Y-52533539D01*
X134676699Y-52566849D01*
X134688617Y-52569219D01*
X135009951Y-52649709D01*
X135021588Y-52653240D01*
X135092806Y-52678722D01*
X135333467Y-52764832D01*
X135344688Y-52769479D01*
X135644163Y-52911120D01*
X135654871Y-52916844D01*
X135938988Y-53087137D01*
X135949106Y-53093897D01*
X136215170Y-53291224D01*
X136224576Y-53298944D01*
X136470013Y-53521395D01*
X136478604Y-53529986D01*
X136665755Y-53736475D01*
X136701055Y-53775423D01*
X136708775Y-53784829D01*
X136906102Y-54050893D01*
X136912862Y-54061011D01*
X137041776Y-54276092D01*
X137083148Y-54345116D01*
X137088885Y-54355848D01*
X137230514Y-54655297D01*
X137235170Y-54666540D01*
X137346759Y-54978411D01*
X137350292Y-54990055D01*
X137430777Y-55311369D01*
X137433151Y-55323305D01*
X137481754Y-55650962D01*
X137482947Y-55663071D01*
X137499351Y-55996966D01*
X137499500Y-56003051D01*
X137499500Y-81996948D01*
X137499351Y-82003033D01*
X137482947Y-82336928D01*
X137481754Y-82349037D01*
X137433151Y-82676694D01*
X137430777Y-82688630D01*
X137350292Y-83009944D01*
X137346759Y-83021588D01*
X137235170Y-83333459D01*
X137230514Y-83344702D01*
X137088885Y-83644151D01*
X137083148Y-83654883D01*
X136912862Y-83938988D01*
X136906102Y-83949106D01*
X136708775Y-84215170D01*
X136701055Y-84224576D01*
X136478611Y-84470006D01*
X136470006Y-84478611D01*
X136224576Y-84701055D01*
X136215170Y-84708775D01*
X135949106Y-84906102D01*
X135938988Y-84912862D01*
X135654883Y-85083148D01*
X135644151Y-85088885D01*
X135344702Y-85230514D01*
X135333459Y-85235170D01*
X135021588Y-85346759D01*
X135009944Y-85350292D01*
X134688630Y-85430777D01*
X134676694Y-85433151D01*
X134349037Y-85481754D01*
X134336928Y-85482947D01*
X134021989Y-85498419D01*
X134003031Y-85499351D01*
X133996949Y-85499500D01*
X71503051Y-85499500D01*
X71496968Y-85499351D01*
X71476900Y-85498365D01*
X71163071Y-85482947D01*
X71150962Y-85481754D01*
X70823305Y-85433151D01*
X70811369Y-85430777D01*
X70490055Y-85350292D01*
X70478411Y-85346759D01*
X70166540Y-85235170D01*
X70155301Y-85230515D01*
X69855844Y-85088883D01*
X69845121Y-85083150D01*
X69561011Y-84912862D01*
X69550893Y-84906102D01*
X69284829Y-84708775D01*
X69275423Y-84701055D01*
X69236475Y-84665755D01*
X69029986Y-84478604D01*
X69021395Y-84470013D01*
X68798944Y-84224576D01*
X68791224Y-84215170D01*
X68593897Y-83949106D01*
X68587137Y-83938988D01*
X68416844Y-83654871D01*
X68411120Y-83644163D01*
X68269479Y-83344688D01*
X68264829Y-83333459D01*
X68153240Y-83021588D01*
X68149707Y-83009944D01*
X68140958Y-82975015D01*
X68069219Y-82688617D01*
X68066848Y-82676695D01*
X68066848Y-82676694D01*
X68051117Y-82570646D01*
X90972000Y-82570646D01*
X90972000Y-82799353D01*
X91007778Y-83025246D01*
X91007778Y-83025249D01*
X91078450Y-83242755D01*
X91078452Y-83242758D01*
X91182283Y-83446538D01*
X91316714Y-83631566D01*
X91478434Y-83793286D01*
X91663462Y-83927717D01*
X91866327Y-84031082D01*
X91867244Y-84031549D01*
X92084751Y-84102221D01*
X92084752Y-84102221D01*
X92084755Y-84102222D01*
X92310646Y-84138000D01*
X92310647Y-84138000D01*
X92539353Y-84138000D01*
X92539354Y-84138000D01*
X92765245Y-84102222D01*
X92765248Y-84102221D01*
X92765249Y-84102221D01*
X92982755Y-84031549D01*
X92982755Y-84031548D01*
X92982758Y-84031548D01*
X93186538Y-83927717D01*
X93371566Y-83793286D01*
X93533286Y-83631566D01*
X93667717Y-83446538D01*
X93771548Y-83242758D01*
X93842222Y-83025245D01*
X93878000Y-82799354D01*
X93878000Y-82570686D01*
X96052500Y-82570686D01*
X96052500Y-82799313D01*
X96088265Y-83025124D01*
X96088265Y-83025125D01*
X96158917Y-83242568D01*
X96262711Y-83446276D01*
X96316347Y-83520098D01*
X96316347Y-83520099D01*
X97015504Y-82820941D01*
X97031619Y-82881081D01*
X97098498Y-82996920D01*
X97193080Y-83091502D01*
X97308919Y-83158381D01*
X97369057Y-83174494D01*
X96669899Y-83873651D01*
X96743725Y-83927288D01*
X96743731Y-83927292D01*
X96947431Y-84031082D01*
X97164875Y-84101734D01*
X97390687Y-84137500D01*
X97619313Y-84137500D01*
X97845124Y-84101734D01*
X97845125Y-84101734D01*
X98062568Y-84031082D01*
X98266276Y-83927288D01*
X98340098Y-83873651D01*
X97640942Y-83174495D01*
X97701081Y-83158381D01*
X97816920Y-83091502D01*
X97911502Y-82996920D01*
X97978381Y-82881081D01*
X97994495Y-82820942D01*
X98693651Y-83520098D01*
X98747288Y-83446276D01*
X98851082Y-83242568D01*
X98921734Y-83025125D01*
X98921734Y-83025124D01*
X98957500Y-82799313D01*
X98957500Y-82570686D01*
X98921734Y-82344875D01*
X98921734Y-82344874D01*
X98851082Y-82127431D01*
X98747292Y-81923731D01*
X98747288Y-81923725D01*
X98693651Y-81849900D01*
X98693651Y-81849899D01*
X97994494Y-82549056D01*
X97978381Y-82488919D01*
X97911502Y-82373080D01*
X97816920Y-82278498D01*
X97701081Y-82211619D01*
X97640940Y-82195504D01*
X98340099Y-81496347D01*
X98266276Y-81442711D01*
X98062568Y-81338917D01*
X97845124Y-81268265D01*
X97619313Y-81232500D01*
X97390687Y-81232500D01*
X97164875Y-81268265D01*
X97164874Y-81268265D01*
X96947431Y-81338917D01*
X96743719Y-81442713D01*
X96669900Y-81496346D01*
X96669899Y-81496347D01*
X97369057Y-82195504D01*
X97308919Y-82211619D01*
X97193080Y-82278498D01*
X97098498Y-82373080D01*
X97031619Y-82488919D01*
X97015504Y-82549057D01*
X96316347Y-81849899D01*
X96316346Y-81849900D01*
X96262713Y-81923719D01*
X96158917Y-82127431D01*
X96088265Y-82344874D01*
X96088265Y-82344875D01*
X96052500Y-82570686D01*
X93878000Y-82570686D01*
X93878000Y-82570646D01*
X93842222Y-82344755D01*
X93842221Y-82344751D01*
X93842221Y-82344750D01*
X93771549Y-82127244D01*
X93708260Y-82003032D01*
X93667717Y-81923462D01*
X93533286Y-81738434D01*
X93371566Y-81576714D01*
X93186538Y-81442283D01*
X92982755Y-81338450D01*
X92765248Y-81267778D01*
X92595826Y-81240944D01*
X92539354Y-81232000D01*
X92310646Y-81232000D01*
X92235349Y-81243926D01*
X92084753Y-81267778D01*
X92084750Y-81267778D01*
X91867244Y-81338450D01*
X91663461Y-81442283D01*
X91589051Y-81496346D01*
X91478434Y-81576714D01*
X91478432Y-81576716D01*
X91478431Y-81576716D01*
X91316716Y-81738431D01*
X91316716Y-81738432D01*
X91316714Y-81738434D01*
X91284086Y-81783343D01*
X91182283Y-81923461D01*
X91078450Y-82127244D01*
X91007778Y-82344750D01*
X91007778Y-82344753D01*
X90972000Y-82570646D01*
X68051117Y-82570646D01*
X68018245Y-82349037D01*
X68017052Y-82336927D01*
X68000649Y-82003032D01*
X68000500Y-81996948D01*
X68000500Y-80381902D01*
X130999500Y-80381902D01*
X130999500Y-80618097D01*
X131036446Y-80851368D01*
X131109433Y-81075996D01*
X131188922Y-81232000D01*
X131216657Y-81286433D01*
X131355483Y-81477510D01*
X131522490Y-81644517D01*
X131713567Y-81783343D01*
X131812991Y-81834002D01*
X131924003Y-81890566D01*
X131924005Y-81890566D01*
X131924008Y-81890568D01*
X132026073Y-81923731D01*
X132148631Y-81963553D01*
X132381903Y-82000500D01*
X132381908Y-82000500D01*
X132618097Y-82000500D01*
X132851368Y-81963553D01*
X133075992Y-81890568D01*
X133286433Y-81783343D01*
X133477510Y-81644517D01*
X133644517Y-81477510D01*
X133783343Y-81286433D01*
X133890568Y-81075992D01*
X133963553Y-80851368D01*
X134000500Y-80618097D01*
X134000500Y-80381902D01*
X133963553Y-80148631D01*
X133890566Y-79924003D01*
X133783342Y-79713566D01*
X133644517Y-79522490D01*
X133477510Y-79355483D01*
X133286433Y-79216657D01*
X133075996Y-79109433D01*
X132851368Y-79036446D01*
X132618097Y-78999500D01*
X132618092Y-78999500D01*
X132381908Y-78999500D01*
X132381903Y-78999500D01*
X132148631Y-79036446D01*
X131924003Y-79109433D01*
X131713566Y-79216657D01*
X131604550Y-79295862D01*
X131522490Y-79355483D01*
X131522488Y-79355485D01*
X131522487Y-79355485D01*
X131355485Y-79522487D01*
X131355485Y-79522488D01*
X131355483Y-79522490D01*
X131295862Y-79604550D01*
X131216657Y-79713566D01*
X131109433Y-79924003D01*
X131036446Y-80148631D01*
X130999500Y-80381902D01*
X68000500Y-80381902D01*
X68000500Y-61921153D01*
X82699500Y-61921153D01*
X82699500Y-62078846D01*
X82730261Y-62233489D01*
X82730264Y-62233501D01*
X82790602Y-62379172D01*
X82790609Y-62379185D01*
X82878602Y-62510874D01*
X82899480Y-62577551D01*
X82899500Y-62579765D01*
X82899500Y-76913330D01*
X82899499Y-76913348D01*
X82899499Y-77079054D01*
X82899498Y-77079054D01*
X82899499Y-77079057D01*
X82940423Y-77231785D01*
X82961457Y-77268216D01*
X83019480Y-77368716D01*
X83131284Y-77480520D01*
X83131285Y-77480521D01*
X83631284Y-77980520D01*
X83631286Y-77980521D01*
X83631290Y-77980524D01*
X83768209Y-78059573D01*
X83768216Y-78059577D01*
X83920943Y-78100501D01*
X83920945Y-78100501D01*
X84086654Y-78100501D01*
X84086670Y-78100500D01*
X110079055Y-78100500D01*
X110079057Y-78100500D01*
X110231784Y-78059577D01*
X110368716Y-77980520D01*
X110480520Y-77868716D01*
X110559577Y-77731784D01*
X110600500Y-77579057D01*
X110600500Y-62800097D01*
X110620185Y-62733058D01*
X110636819Y-62712416D01*
X110935846Y-62413389D01*
X127074500Y-62413389D01*
X127074500Y-62586611D01*
X127080434Y-62624079D01*
X127098815Y-62740133D01*
X127101598Y-62757701D01*
X127155127Y-62922445D01*
X127233768Y-63076788D01*
X127335586Y-63216928D01*
X127458072Y-63339414D01*
X127458078Y-63339418D01*
X127541023Y-63399683D01*
X127583689Y-63455013D01*
X127589667Y-63524626D01*
X127557061Y-63586421D01*
X127541023Y-63600317D01*
X127458078Y-63660581D01*
X127458069Y-63660588D01*
X127335588Y-63783069D01*
X127335588Y-63783070D01*
X127335586Y-63783072D01*
X127291859Y-63843256D01*
X127233768Y-63923211D01*
X127155128Y-64077552D01*
X127101597Y-64242302D01*
X127081116Y-64371616D01*
X127074500Y-64413389D01*
X127074500Y-64586611D01*
X127101598Y-64757701D01*
X127155127Y-64922445D01*
X127233768Y-65076788D01*
X127335586Y-65216928D01*
X127458072Y-65339414D01*
X127541449Y-65399991D01*
X127584114Y-65455322D01*
X127590093Y-65524935D01*
X127557487Y-65586730D01*
X127541448Y-65600627D01*
X127458404Y-65660961D01*
X127458399Y-65660965D01*
X127335967Y-65783397D01*
X127234195Y-65923475D01*
X127155591Y-66077744D01*
X127102085Y-66242415D01*
X127100884Y-66249999D01*
X127100885Y-66250000D01*
X128169670Y-66250000D01*
X128149925Y-66269745D01*
X128100556Y-66355255D01*
X128075000Y-66450630D01*
X128075000Y-66549370D01*
X128100556Y-66644745D01*
X128149925Y-66730255D01*
X128169670Y-66750000D01*
X127100885Y-66750000D01*
X127102085Y-66757584D01*
X127155591Y-66922255D01*
X127234195Y-67076524D01*
X127335967Y-67216602D01*
X127443565Y-67324200D01*
X127477050Y-67385523D01*
X127472066Y-67455215D01*
X127430194Y-67511148D01*
X127420981Y-67517420D01*
X127356342Y-67557289D01*
X127232289Y-67681342D01*
X127140187Y-67830663D01*
X127140186Y-67830666D01*
X127085001Y-67997203D01*
X127085001Y-67997204D01*
X127085000Y-67997204D01*
X127074500Y-68099983D01*
X127074500Y-68900001D01*
X127074501Y-68900019D01*
X127085000Y-69002796D01*
X127085001Y-69002799D01*
X127110519Y-69079806D01*
X127140186Y-69169334D01*
X127232288Y-69318656D01*
X127356344Y-69442712D01*
X127505666Y-69534814D01*
X127672203Y-69589999D01*
X127774991Y-69600500D01*
X129125008Y-69600499D01*
X129227797Y-69589999D01*
X129394334Y-69534814D01*
X129543656Y-69442712D01*
X129667712Y-69318656D01*
X129759814Y-69169334D01*
X129814999Y-69002797D01*
X129825500Y-68900009D01*
X129825499Y-68099992D01*
X129814999Y-67997203D01*
X129759814Y-67830666D01*
X129667712Y-67681344D01*
X129543656Y-67557288D01*
X129543655Y-67557287D01*
X129479019Y-67517420D01*
X129432294Y-67465472D01*
X129421071Y-67396510D01*
X129448914Y-67332428D01*
X129456434Y-67324199D01*
X129564035Y-67216598D01*
X129665804Y-67076524D01*
X129744408Y-66922255D01*
X129797914Y-66757584D01*
X129799115Y-66750000D01*
X128730330Y-66750000D01*
X128750075Y-66730255D01*
X128799444Y-66644745D01*
X128825000Y-66549370D01*
X128825000Y-66450630D01*
X128799444Y-66355255D01*
X128750075Y-66269745D01*
X128730330Y-66250000D01*
X129799115Y-66250000D01*
X129799115Y-66249999D01*
X129797914Y-66242415D01*
X129744408Y-66077744D01*
X129665804Y-65923475D01*
X129564032Y-65783397D01*
X129441602Y-65660967D01*
X129358551Y-65600628D01*
X129315885Y-65545298D01*
X129309906Y-65475685D01*
X129342511Y-65413889D01*
X129358551Y-65399991D01*
X129441928Y-65339414D01*
X129564414Y-65216928D01*
X129666232Y-65076788D01*
X129744873Y-64922445D01*
X129798402Y-64757701D01*
X129825500Y-64586611D01*
X129825500Y-64413389D01*
X129798402Y-64242299D01*
X129744873Y-64077555D01*
X129666232Y-63923212D01*
X129564414Y-63783072D01*
X129441928Y-63660586D01*
X129358975Y-63600317D01*
X129316311Y-63544988D01*
X129310332Y-63475374D01*
X129342938Y-63413579D01*
X129358976Y-63399682D01*
X129441928Y-63339414D01*
X129564414Y-63216928D01*
X129666232Y-63076788D01*
X129744873Y-62922445D01*
X129798402Y-62757701D01*
X129825500Y-62586611D01*
X129825500Y-62413389D01*
X129798402Y-62242299D01*
X129744873Y-62077555D01*
X129666232Y-61923212D01*
X129564414Y-61783072D01*
X129441928Y-61660586D01*
X129301788Y-61558768D01*
X129147445Y-61480127D01*
X128982701Y-61426598D01*
X128982699Y-61426597D01*
X128982698Y-61426597D01*
X128851271Y-61405781D01*
X128811611Y-61399500D01*
X128088389Y-61399500D01*
X128048728Y-61405781D01*
X127917302Y-61426597D01*
X127917299Y-61426598D01*
X127815112Y-61459801D01*
X127752552Y-61480128D01*
X127598211Y-61558768D01*
X127518256Y-61616859D01*
X127458072Y-61660586D01*
X127458070Y-61660588D01*
X127458069Y-61660588D01*
X127335588Y-61783069D01*
X127335588Y-61783070D01*
X127335586Y-61783072D01*
X127291859Y-61843256D01*
X127233768Y-61923211D01*
X127155128Y-62077552D01*
X127101597Y-62242302D01*
X127099485Y-62255638D01*
X127074500Y-62413389D01*
X110935846Y-62413389D01*
X111028399Y-62320836D01*
X112044093Y-61305142D01*
X113070786Y-60278448D01*
X113132107Y-60244965D01*
X113134178Y-60244533D01*
X113195997Y-60232237D01*
X113341679Y-60171894D01*
X113472789Y-60084289D01*
X113584289Y-59972789D01*
X113671894Y-59841679D01*
X113732237Y-59695997D01*
X113763000Y-59541342D01*
X113763000Y-59383658D01*
X113763000Y-59383655D01*
X113762999Y-59383653D01*
X113744692Y-59291617D01*
X113732237Y-59229003D01*
X113732235Y-59228998D01*
X113671897Y-59083327D01*
X113671890Y-59083314D01*
X113584289Y-58952211D01*
X113584286Y-58952207D01*
X113472792Y-58840713D01*
X113472788Y-58840710D01*
X113341685Y-58753109D01*
X113341672Y-58753102D01*
X113196001Y-58692764D01*
X113195989Y-58692761D01*
X113041345Y-58662000D01*
X113041342Y-58662000D01*
X112883658Y-58662000D01*
X112883655Y-58662000D01*
X112729010Y-58692761D01*
X112728998Y-58692764D01*
X112583327Y-58753102D01*
X112583314Y-58753109D01*
X112452211Y-58840710D01*
X112452207Y-58840713D01*
X112340713Y-58952207D01*
X112340710Y-58952211D01*
X112253109Y-59083314D01*
X112253102Y-59083327D01*
X112192764Y-59228998D01*
X112192761Y-59229010D01*
X112162000Y-59383653D01*
X112162000Y-59437402D01*
X112142315Y-59504441D01*
X112125681Y-59525083D01*
X109519481Y-62131282D01*
X109519479Y-62131285D01*
X109469361Y-62218094D01*
X109469359Y-62218096D01*
X109440425Y-62268209D01*
X109440424Y-62268210D01*
X109440423Y-62268215D01*
X109399499Y-62420943D01*
X109399499Y-62420945D01*
X109399499Y-62589046D01*
X109399500Y-62589059D01*
X109399500Y-76775500D01*
X109379815Y-76842539D01*
X109327011Y-76888294D01*
X109275500Y-76899500D01*
X84300098Y-76899500D01*
X84270657Y-76890855D01*
X84240671Y-76884332D01*
X84235655Y-76880577D01*
X84233059Y-76879815D01*
X84212417Y-76863181D01*
X84136819Y-76787583D01*
X84103334Y-76726260D01*
X84100500Y-76699902D01*
X84100500Y-72900133D01*
X84120185Y-72833094D01*
X84172989Y-72787339D01*
X84242147Y-72777395D01*
X84305703Y-72806420D01*
X84342431Y-72861816D01*
X84406296Y-73058377D01*
X84406298Y-73058383D01*
X84505595Y-73253260D01*
X84634142Y-73430193D01*
X84788806Y-73584857D01*
X84954374Y-73705147D01*
X84965743Y-73713407D01*
X85093132Y-73778315D01*
X85160616Y-73812701D01*
X85160619Y-73812702D01*
X85264621Y-73846493D01*
X85368625Y-73880286D01*
X85468672Y-73896132D01*
X85584639Y-73914500D01*
X85584644Y-73914500D01*
X87581361Y-73914500D01*
X87686082Y-73897912D01*
X87797375Y-73880286D01*
X88005383Y-73812701D01*
X88200257Y-73713407D01*
X88299601Y-73641229D01*
X88377193Y-73584857D01*
X88377195Y-73584854D01*
X88377199Y-73584852D01*
X88531852Y-73430199D01*
X88531854Y-73430195D01*
X88531857Y-73430193D01*
X88588229Y-73352601D01*
X88660407Y-73253257D01*
X88759701Y-73058383D01*
X88827286Y-72850375D01*
X88844912Y-72739082D01*
X88861500Y-72634361D01*
X88861500Y-72415638D01*
X88838917Y-72273058D01*
X88827286Y-72199625D01*
X88759701Y-71991617D01*
X88759701Y-71991616D01*
X88725315Y-71924132D01*
X88660407Y-71796743D01*
X88652147Y-71785374D01*
X88531857Y-71619806D01*
X88377199Y-71465148D01*
X88377191Y-71465142D01*
X88226028Y-71355316D01*
X88183364Y-71299989D01*
X88177385Y-71230376D01*
X88209990Y-71168580D01*
X88226023Y-71154686D01*
X88377199Y-71044852D01*
X88531852Y-70890199D01*
X88531854Y-70890195D01*
X88531857Y-70890193D01*
X88588229Y-70812601D01*
X88660407Y-70713257D01*
X88759701Y-70518383D01*
X88827286Y-70310375D01*
X88844912Y-70199082D01*
X88861500Y-70094361D01*
X88861500Y-69875638D01*
X88838917Y-69733058D01*
X88827286Y-69659625D01*
X88759701Y-69451617D01*
X88759701Y-69451616D01*
X88725315Y-69384132D01*
X88660407Y-69256743D01*
X88596903Y-69169336D01*
X88531857Y-69079806D01*
X88377199Y-68925148D01*
X88377191Y-68925142D01*
X88226028Y-68815316D01*
X88183364Y-68759989D01*
X88177385Y-68690376D01*
X88209990Y-68628580D01*
X88226023Y-68614686D01*
X88377199Y-68504852D01*
X88531852Y-68350199D01*
X88531854Y-68350195D01*
X88531857Y-68350193D01*
X88588229Y-68272601D01*
X88660407Y-68173257D01*
X88759701Y-67978383D01*
X88827286Y-67770375D01*
X88844912Y-67659082D01*
X88861500Y-67554361D01*
X88861500Y-67335638D01*
X88838917Y-67193058D01*
X88827286Y-67119625D01*
X88793493Y-67015621D01*
X88759702Y-66911619D01*
X88759701Y-66911616D01*
X88702867Y-66800075D01*
X88660407Y-66716743D01*
X88608098Y-66644745D01*
X88531857Y-66539806D01*
X88377199Y-66385148D01*
X88377191Y-66385142D01*
X88226028Y-66275316D01*
X88183364Y-66219989D01*
X88177385Y-66150376D01*
X88209990Y-66088580D01*
X88226023Y-66074686D01*
X88377199Y-65964852D01*
X88531852Y-65810199D01*
X88531854Y-65810195D01*
X88531857Y-65810193D01*
X88588229Y-65732601D01*
X88660407Y-65633257D01*
X88759701Y-65438383D01*
X88827286Y-65230375D01*
X88851612Y-65076788D01*
X88861500Y-65014361D01*
X88861500Y-64795638D01*
X88838917Y-64653058D01*
X88827286Y-64579625D01*
X88793493Y-64475621D01*
X88759702Y-64371619D01*
X88759701Y-64371616D01*
X88693811Y-64242302D01*
X88660407Y-64176743D01*
X88652147Y-64165374D01*
X88531857Y-63999806D01*
X88377199Y-63845148D01*
X88377191Y-63845142D01*
X88226028Y-63735316D01*
X88183364Y-63679989D01*
X88177385Y-63610376D01*
X88209990Y-63548580D01*
X88226023Y-63534686D01*
X88377199Y-63424852D01*
X88531852Y-63270199D01*
X88531854Y-63270195D01*
X88531857Y-63270193D01*
X88588229Y-63192601D01*
X88660407Y-63093257D01*
X88759701Y-62898383D01*
X88827286Y-62690375D01*
X88852437Y-62531578D01*
X88861500Y-62474361D01*
X88861500Y-62255638D01*
X88833497Y-62078842D01*
X88827286Y-62039625D01*
X88759701Y-61831617D01*
X88759701Y-61831616D01*
X88693531Y-61701752D01*
X88660407Y-61636743D01*
X88648834Y-61620814D01*
X88531857Y-61459806D01*
X88377199Y-61305148D01*
X88377191Y-61305142D01*
X88226028Y-61195316D01*
X88183364Y-61139989D01*
X88177385Y-61070376D01*
X88209990Y-61008580D01*
X88226023Y-60994686D01*
X88377199Y-60884852D01*
X88531852Y-60730199D01*
X88531854Y-60730195D01*
X88531857Y-60730193D01*
X88588229Y-60652601D01*
X88660407Y-60553257D01*
X88759701Y-60358383D01*
X88827286Y-60150375D01*
X88847764Y-60021081D01*
X88861500Y-59934361D01*
X88861500Y-59715638D01*
X88833894Y-59541346D01*
X88827286Y-59499625D01*
X88779197Y-59351619D01*
X88759702Y-59291619D01*
X88759701Y-59291616D01*
X88725315Y-59224132D01*
X88660407Y-59096743D01*
X88650650Y-59083314D01*
X88531857Y-58919806D01*
X88377199Y-58765148D01*
X88377191Y-58765142D01*
X88226028Y-58655316D01*
X88183364Y-58599989D01*
X88177385Y-58530376D01*
X88209990Y-58468580D01*
X88226023Y-58454686D01*
X88377199Y-58344852D01*
X88531852Y-58190199D01*
X88531854Y-58190195D01*
X88531857Y-58190193D01*
X88588229Y-58112601D01*
X88660407Y-58013257D01*
X88759701Y-57818383D01*
X88827286Y-57610375D01*
X88844912Y-57499082D01*
X88861500Y-57394361D01*
X88861500Y-57175638D01*
X101068500Y-57175638D01*
X101068500Y-57394361D01*
X101102714Y-57610376D01*
X101170297Y-57818380D01*
X101170298Y-57818383D01*
X101269595Y-58013260D01*
X101398142Y-58190193D01*
X101552802Y-58344853D01*
X101552807Y-58344857D01*
X101704394Y-58454991D01*
X101747060Y-58510320D01*
X101753039Y-58579934D01*
X101720434Y-58641729D01*
X101704394Y-58655627D01*
X101553133Y-58765524D01*
X101553128Y-58765528D01*
X101398528Y-58920128D01*
X101398524Y-58920133D01*
X101270023Y-59097001D01*
X101170762Y-59291808D01*
X101170761Y-59291811D01*
X101103201Y-59499741D01*
X101091282Y-59575000D01*
X102142749Y-59575000D01*
X102111619Y-59628919D01*
X102077000Y-59758120D01*
X102077000Y-59891880D01*
X102111619Y-60021081D01*
X102142749Y-60075000D01*
X101091282Y-60075000D01*
X101103201Y-60150258D01*
X101170761Y-60358188D01*
X101170762Y-60358191D01*
X101270023Y-60552998D01*
X101398524Y-60729866D01*
X101398528Y-60729871D01*
X101553128Y-60884471D01*
X101553133Y-60884475D01*
X101704394Y-60994372D01*
X101747060Y-61049701D01*
X101753039Y-61119315D01*
X101720434Y-61181110D01*
X101704394Y-61195008D01*
X101552807Y-61305142D01*
X101552802Y-61305146D01*
X101398142Y-61459806D01*
X101269595Y-61636739D01*
X101170298Y-61831616D01*
X101170297Y-61831619D01*
X101102714Y-62039623D01*
X101068500Y-62255638D01*
X101068500Y-62474361D01*
X101102714Y-62690376D01*
X101170297Y-62898380D01*
X101170298Y-62898383D01*
X101269595Y-63093260D01*
X101398142Y-63270193D01*
X101552806Y-63424857D01*
X101703969Y-63534682D01*
X101746635Y-63590011D01*
X101752614Y-63659625D01*
X101720009Y-63721420D01*
X101703969Y-63735318D01*
X101552806Y-63845142D01*
X101398142Y-63999806D01*
X101269595Y-64176739D01*
X101170298Y-64371616D01*
X101170297Y-64371619D01*
X101102714Y-64579623D01*
X101068500Y-64795638D01*
X101068500Y-65014361D01*
X101102714Y-65230376D01*
X101170297Y-65438380D01*
X101170298Y-65438383D01*
X101224775Y-65545298D01*
X101252902Y-65600500D01*
X101269595Y-65633260D01*
X101398142Y-65810193D01*
X101552806Y-65964857D01*
X101703969Y-66074682D01*
X101746635Y-66130011D01*
X101752614Y-66199625D01*
X101720009Y-66261420D01*
X101703969Y-66275318D01*
X101552806Y-66385142D01*
X101398142Y-66539806D01*
X101269595Y-66716739D01*
X101170298Y-66911616D01*
X101170297Y-66911619D01*
X101102714Y-67119623D01*
X101068500Y-67335638D01*
X101068500Y-67554361D01*
X101102714Y-67770376D01*
X101170297Y-67978380D01*
X101170298Y-67978383D01*
X101269595Y-68173260D01*
X101398142Y-68350193D01*
X101552806Y-68504857D01*
X101703969Y-68614682D01*
X101746635Y-68670011D01*
X101752614Y-68739625D01*
X101720009Y-68801420D01*
X101703969Y-68815318D01*
X101552806Y-68925142D01*
X101398142Y-69079806D01*
X101269595Y-69256739D01*
X101170298Y-69451616D01*
X101170297Y-69451619D01*
X101102714Y-69659623D01*
X101068500Y-69875638D01*
X101068500Y-70094361D01*
X101102714Y-70310376D01*
X101170297Y-70518380D01*
X101170298Y-70518383D01*
X101269595Y-70713260D01*
X101398142Y-70890193D01*
X101552806Y-71044857D01*
X101703969Y-71154682D01*
X101746635Y-71210011D01*
X101752614Y-71279625D01*
X101720009Y-71341420D01*
X101703969Y-71355318D01*
X101552806Y-71465142D01*
X101398142Y-71619806D01*
X101269595Y-71796739D01*
X101170298Y-71991616D01*
X101170297Y-71991619D01*
X101102714Y-72199623D01*
X101068500Y-72415638D01*
X101068500Y-72634361D01*
X101102714Y-72850376D01*
X101170297Y-73058380D01*
X101170298Y-73058383D01*
X101269595Y-73253260D01*
X101398142Y-73430193D01*
X101552806Y-73584857D01*
X101718374Y-73705147D01*
X101729743Y-73713407D01*
X101857132Y-73778315D01*
X101924616Y-73812701D01*
X101924619Y-73812702D01*
X102028621Y-73846493D01*
X102132625Y-73880286D01*
X102232672Y-73896132D01*
X102348639Y-73914500D01*
X102348644Y-73914500D01*
X104345361Y-73914500D01*
X104450082Y-73897912D01*
X104561375Y-73880286D01*
X104769383Y-73812701D01*
X104964257Y-73713407D01*
X105063601Y-73641229D01*
X105141193Y-73584857D01*
X105141195Y-73584854D01*
X105141199Y-73584852D01*
X105295852Y-73430199D01*
X105295854Y-73430195D01*
X105295857Y-73430193D01*
X105352229Y-73352601D01*
X105424407Y-73253257D01*
X105523701Y-73058383D01*
X105591286Y-72850375D01*
X105608912Y-72739082D01*
X105625500Y-72634361D01*
X105625500Y-72415638D01*
X105602917Y-72273058D01*
X105591286Y-72199625D01*
X105523701Y-71991617D01*
X105523701Y-71991616D01*
X105489315Y-71924132D01*
X105424407Y-71796743D01*
X105416147Y-71785374D01*
X105295857Y-71619806D01*
X105141199Y-71465148D01*
X105141191Y-71465142D01*
X104990028Y-71355316D01*
X104947364Y-71299989D01*
X104941385Y-71230376D01*
X104973990Y-71168580D01*
X104990023Y-71154686D01*
X105141199Y-71044852D01*
X105295852Y-70890199D01*
X105295854Y-70890195D01*
X105295857Y-70890193D01*
X105352229Y-70812601D01*
X105424407Y-70713257D01*
X105523701Y-70518383D01*
X105591286Y-70310375D01*
X105608912Y-70199082D01*
X105625500Y-70094361D01*
X105625500Y-69875638D01*
X105602917Y-69733058D01*
X105591286Y-69659625D01*
X105523701Y-69451617D01*
X105523701Y-69451616D01*
X105489315Y-69384132D01*
X105424407Y-69256743D01*
X105360903Y-69169336D01*
X105295857Y-69079806D01*
X105141199Y-68925148D01*
X105141191Y-68925142D01*
X104990028Y-68815316D01*
X104947364Y-68759989D01*
X104941385Y-68690376D01*
X104973990Y-68628580D01*
X104990023Y-68614686D01*
X105141199Y-68504852D01*
X105295852Y-68350199D01*
X105295854Y-68350195D01*
X105295857Y-68350193D01*
X105352229Y-68272601D01*
X105424407Y-68173257D01*
X105523701Y-67978383D01*
X105591286Y-67770375D01*
X105608912Y-67659082D01*
X105625500Y-67554361D01*
X105625500Y-67335638D01*
X105602917Y-67193058D01*
X105591286Y-67119625D01*
X105557493Y-67015621D01*
X105523702Y-66911619D01*
X105523701Y-66911616D01*
X105466867Y-66800075D01*
X105424407Y-66716743D01*
X105372098Y-66644745D01*
X105295857Y-66539806D01*
X105141199Y-66385148D01*
X105141191Y-66385142D01*
X104990028Y-66275316D01*
X104947364Y-66219989D01*
X104941385Y-66150376D01*
X104973990Y-66088580D01*
X104990023Y-66074686D01*
X105141199Y-65964852D01*
X105295852Y-65810199D01*
X105295854Y-65810195D01*
X105295857Y-65810193D01*
X105352229Y-65732601D01*
X105424407Y-65633257D01*
X105523701Y-65438383D01*
X105591286Y-65230375D01*
X105615612Y-65076788D01*
X105625500Y-65014361D01*
X105625500Y-64795638D01*
X105602917Y-64653058D01*
X105591286Y-64579625D01*
X105557493Y-64475621D01*
X105523702Y-64371619D01*
X105523701Y-64371616D01*
X105457811Y-64242302D01*
X105424407Y-64176743D01*
X105416147Y-64165374D01*
X105295857Y-63999806D01*
X105141199Y-63845148D01*
X105141191Y-63845142D01*
X104990028Y-63735316D01*
X104947364Y-63679989D01*
X104941385Y-63610376D01*
X104973990Y-63548580D01*
X104990023Y-63534686D01*
X105141199Y-63424852D01*
X105295852Y-63270199D01*
X105295854Y-63270195D01*
X105295857Y-63270193D01*
X105352229Y-63192601D01*
X105424407Y-63093257D01*
X105523701Y-62898383D01*
X105591286Y-62690375D01*
X105616437Y-62531578D01*
X105625500Y-62474361D01*
X105625500Y-62255638D01*
X105597497Y-62078842D01*
X105591286Y-62039625D01*
X105523701Y-61831617D01*
X105523701Y-61831616D01*
X105457531Y-61701752D01*
X105424407Y-61636743D01*
X105412834Y-61620814D01*
X105295857Y-61459806D01*
X105141197Y-61305146D01*
X105141192Y-61305142D01*
X104989605Y-61195008D01*
X104946939Y-61139678D01*
X104940960Y-61070065D01*
X104973565Y-61008270D01*
X104989605Y-60994371D01*
X105140873Y-60884469D01*
X105295471Y-60729871D01*
X105295475Y-60729866D01*
X105423976Y-60552998D01*
X105523237Y-60358191D01*
X105523238Y-60358188D01*
X105590798Y-60150258D01*
X105602718Y-60075000D01*
X103027251Y-60075000D01*
X103058381Y-60021081D01*
X103093000Y-59891880D01*
X103093000Y-59758120D01*
X103058381Y-59628919D01*
X103027251Y-59575000D01*
X105602718Y-59575000D01*
X105590798Y-59499741D01*
X105523238Y-59291811D01*
X105523237Y-59291808D01*
X105423976Y-59097001D01*
X105295475Y-58920133D01*
X105295471Y-58920128D01*
X105140871Y-58765528D01*
X105140866Y-58765524D01*
X104989605Y-58655627D01*
X104946939Y-58600297D01*
X104940960Y-58530684D01*
X104973565Y-58468889D01*
X104989599Y-58454994D01*
X105141199Y-58344852D01*
X105295852Y-58190199D01*
X105295854Y-58190195D01*
X105295857Y-58190193D01*
X105352229Y-58112601D01*
X105424407Y-58013257D01*
X105523701Y-57818383D01*
X105591286Y-57610375D01*
X105608912Y-57499082D01*
X105625500Y-57394361D01*
X105625500Y-57175638D01*
X105605595Y-57049971D01*
X105591286Y-56959625D01*
X105523701Y-56751617D01*
X105523701Y-56751616D01*
X105489315Y-56684132D01*
X105424407Y-56556743D01*
X105399521Y-56522490D01*
X105295857Y-56379806D01*
X105141193Y-56225142D01*
X104964260Y-56096595D01*
X104964259Y-56096594D01*
X104964257Y-56096593D01*
X104901825Y-56064782D01*
X104769383Y-55997298D01*
X104769380Y-55997297D01*
X104561376Y-55929714D01*
X104345361Y-55895500D01*
X104345356Y-55895500D01*
X102348644Y-55895500D01*
X102348639Y-55895500D01*
X102132623Y-55929714D01*
X101924619Y-55997297D01*
X101924616Y-55997298D01*
X101729739Y-56096595D01*
X101552806Y-56225142D01*
X101398142Y-56379806D01*
X101269595Y-56556739D01*
X101170298Y-56751616D01*
X101170297Y-56751619D01*
X101102714Y-56959623D01*
X101068500Y-57175638D01*
X88861500Y-57175638D01*
X88841595Y-57049971D01*
X88827286Y-56959625D01*
X88759701Y-56751617D01*
X88759701Y-56751616D01*
X88725315Y-56684132D01*
X88660407Y-56556743D01*
X88635521Y-56522490D01*
X88531857Y-56379806D01*
X88377193Y-56225142D01*
X88200260Y-56096595D01*
X88200259Y-56096594D01*
X88200257Y-56096593D01*
X88137825Y-56064782D01*
X88005383Y-55997298D01*
X88005380Y-55997297D01*
X87797376Y-55929714D01*
X87581361Y-55895500D01*
X87581356Y-55895500D01*
X85584644Y-55895500D01*
X85584639Y-55895500D01*
X85368623Y-55929714D01*
X85160619Y-55997297D01*
X85160616Y-55997298D01*
X84965739Y-56096595D01*
X84788806Y-56225142D01*
X84634142Y-56379806D01*
X84505595Y-56556739D01*
X84406298Y-56751616D01*
X84406297Y-56751619D01*
X84338714Y-56959623D01*
X84304500Y-57175638D01*
X84304500Y-57394361D01*
X84338714Y-57610376D01*
X84406297Y-57818380D01*
X84406298Y-57818383D01*
X84505595Y-58013260D01*
X84634142Y-58190193D01*
X84788806Y-58344857D01*
X84939969Y-58454682D01*
X84982635Y-58510011D01*
X84988614Y-58579625D01*
X84956009Y-58641420D01*
X84939969Y-58655318D01*
X84788806Y-58765142D01*
X84634142Y-58919806D01*
X84505595Y-59096739D01*
X84406298Y-59291616D01*
X84406297Y-59291619D01*
X84338714Y-59499623D01*
X84304500Y-59715638D01*
X84304500Y-59934361D01*
X84338714Y-60150376D01*
X84406297Y-60358380D01*
X84406298Y-60358383D01*
X84473782Y-60490825D01*
X84505461Y-60552998D01*
X84505595Y-60553260D01*
X84634142Y-60730193D01*
X84788806Y-60884857D01*
X84939969Y-60994682D01*
X84982635Y-61050011D01*
X84988614Y-61119625D01*
X84956009Y-61181420D01*
X84939969Y-61195318D01*
X84788806Y-61305142D01*
X84634142Y-61459806D01*
X84505593Y-61636741D01*
X84467962Y-61710596D01*
X84419988Y-61761391D01*
X84352167Y-61778186D01*
X84286032Y-61755648D01*
X84242917Y-61701752D01*
X84209397Y-61620827D01*
X84209390Y-61620814D01*
X84121789Y-61489711D01*
X84121786Y-61489707D01*
X84010292Y-61378213D01*
X84010288Y-61378210D01*
X83879185Y-61290609D01*
X83879172Y-61290602D01*
X83733501Y-61230264D01*
X83733489Y-61230261D01*
X83578845Y-61199500D01*
X83578842Y-61199500D01*
X83421158Y-61199500D01*
X83421155Y-61199500D01*
X83266510Y-61230261D01*
X83266498Y-61230264D01*
X83120827Y-61290602D01*
X83120814Y-61290609D01*
X82989711Y-61378210D01*
X82989707Y-61378213D01*
X82878213Y-61489707D01*
X82878210Y-61489711D01*
X82790609Y-61620814D01*
X82790602Y-61620827D01*
X82730264Y-61766498D01*
X82730261Y-61766510D01*
X82699500Y-61921153D01*
X68000500Y-61921153D01*
X68000500Y-57381902D01*
X71499500Y-57381902D01*
X71499500Y-57618097D01*
X71536446Y-57851368D01*
X71609433Y-58075996D01*
X71667620Y-58190193D01*
X71716657Y-58286433D01*
X71855483Y-58477510D01*
X72022490Y-58644517D01*
X72213567Y-58783343D01*
X72312991Y-58834002D01*
X72424003Y-58890566D01*
X72424005Y-58890566D01*
X72424008Y-58890568D01*
X72544412Y-58929689D01*
X72648631Y-58963553D01*
X72881903Y-59000500D01*
X72881908Y-59000500D01*
X73118097Y-59000500D01*
X73351368Y-58963553D01*
X73386287Y-58952207D01*
X73575992Y-58890568D01*
X73786433Y-58783343D01*
X73977510Y-58644517D01*
X74144517Y-58477510D01*
X74283343Y-58286433D01*
X74390568Y-58075992D01*
X74463553Y-57851368D01*
X74468778Y-57818380D01*
X74500500Y-57618097D01*
X74500500Y-57381902D01*
X74463553Y-57148631D01*
X74429689Y-57044412D01*
X74390568Y-56924008D01*
X74390566Y-56924005D01*
X74390566Y-56924003D01*
X74283342Y-56713566D01*
X74144517Y-56522490D01*
X73977510Y-56355483D01*
X73786433Y-56216657D01*
X73575996Y-56109433D01*
X73351368Y-56036446D01*
X73118097Y-55999500D01*
X73118092Y-55999500D01*
X72881908Y-55999500D01*
X72881903Y-55999500D01*
X72648631Y-56036446D01*
X72424003Y-56109433D01*
X72213566Y-56216657D01*
X72104550Y-56295862D01*
X72022490Y-56355483D01*
X72022488Y-56355485D01*
X72022487Y-56355485D01*
X71855485Y-56522487D01*
X71855485Y-56522488D01*
X71855483Y-56522490D01*
X71830600Y-56556739D01*
X71716657Y-56713566D01*
X71609433Y-56924003D01*
X71536446Y-57148631D01*
X71499500Y-57381902D01*
X68000500Y-57381902D01*
X68000500Y-56003051D01*
X68000649Y-55996967D01*
X68017052Y-55663072D01*
X68018245Y-55650962D01*
X68066849Y-55323296D01*
X68069218Y-55311385D01*
X68149710Y-54990043D01*
X68153240Y-54978411D01*
X68264835Y-54666525D01*
X68269476Y-54655318D01*
X68411124Y-54355828D01*
X68416840Y-54345136D01*
X68587145Y-54060998D01*
X68593888Y-54050905D01*
X68791232Y-53784818D01*
X68798935Y-53775433D01*
X69021405Y-53529975D01*
X69029975Y-53521405D01*
X69275433Y-53298935D01*
X69284818Y-53291232D01*
X69550905Y-53093888D01*
X69560998Y-53087145D01*
X69845136Y-52916840D01*
X69855828Y-52911124D01*
X70155318Y-52769476D01*
X70166525Y-52764835D01*
X70478412Y-52653239D01*
X70490043Y-52649710D01*
X70811385Y-52569218D01*
X70823296Y-52566849D01*
X71150962Y-52518244D01*
X71163068Y-52517052D01*
X71496967Y-52500648D01*
X71503051Y-52500500D01*
X71565892Y-52500500D01*
X133934108Y-52500500D01*
X133996949Y-52500500D01*
X134003032Y-52500648D01*
G37*
%TD.AperFunction*%
%TD*%
M02*
