%TF.GenerationSoftware,KiCad,Pcbnew,9.0.7*%
%TF.CreationDate,2026-02-17T08:37:03-08:00*%
%TF.ProjectId,Display device,44697370-6c61-4792-9064-65766963652e,1.0*%
%TF.SameCoordinates,Original*%
%TF.FileFunction,Copper,L2,Bot*%
%TF.FilePolarity,Positive*%
%FSLAX46Y46*%
G04 Gerber Fmt 4.6, Leading zero omitted, Abs format (unit mm)*
G04 Created by KiCad (PCBNEW 9.0.7) date 2026-02-17 08:37:03*
%MOMM*%
%LPD*%
G01*
G04 APERTURE LIST*
%TA.AperFunction,ComponentPad*%
%ADD10O,3.556000X1.778000*%
%TD*%
%TA.AperFunction,ComponentPad*%
%ADD11C,1.905000*%
%TD*%
%TA.AperFunction,ComponentPad*%
%ADD12C,1.700000*%
%TD*%
G04 APERTURE END LIST*
D10*
%TO.P,U1,1,GPIO1_A0_D0*%
%TO.N,/LED*%
X68903000Y-47900000D03*
%TO.P,U1,2,GPIO2_A1_D1*%
%TO.N,unconnected-(U1-GPIO2_A1_D1-Pad2)*%
X68903000Y-50440000D03*
%TO.P,U1,3,GPIO3_A2_D2*%
%TO.N,unconnected-(U1-GPIO3_A2_D2-Pad3)*%
X68903000Y-52980000D03*
%TO.P,U1,4,GPIO4_A3_D3*%
%TO.N,/DISP_BTN*%
X68903000Y-55520000D03*
%TO.P,U1,5,GPIO4_A3_D3_SDA*%
%TO.N,unconnected-(U1-GPIO4_A3_D3_SDA-Pad5)*%
X68903000Y-58060000D03*
%TO.P,U1,6,GPIO6_A5_D5_SCL*%
%TO.N,/M_A1*%
X68903000Y-60600000D03*
%TO.P,U1,7,GPIO43_TX_D6*%
%TO.N,unconnected-(U1-GPIO43_TX_D6-Pad7)*%
X68903000Y-63140000D03*
%TO.P,U1,8,GPIO44_D7_RX*%
%TO.N,unconnected-(U1-GPIO44_D7_RX-Pad8)*%
X85667000Y-63140000D03*
%TO.P,U1,9,GPIO7_A8_D8_SCK*%
%TO.N,/M_A2*%
X85667000Y-60600000D03*
%TO.P,U1,10,GPIO8_A9_D9_CIPO*%
%TO.N,/M_B1*%
X85667000Y-58060000D03*
%TO.P,U1,11,GPIO9_A10_D10_COPI*%
%TO.N,/M_B2*%
X85667000Y-55520000D03*
%TO.P,U1,12,3V3*%
%TO.N,unconnected-(U1-3V3-Pad12)*%
X85667000Y-52980000D03*
%TO.P,U1,13,GND*%
%TO.N,GND*%
X85667000Y-50440000D03*
%TO.P,U1,14,5V*%
%TO.N,unconnected-(U1-5V-Pad14)*%
X85667000Y-47900000D03*
D11*
%TO.P,U1,15,+BATT*%
%TO.N,/BAT*%
X74745000Y-73300000D03*
%TO.P,U1,16,-BATT*%
%TO.N,GND*%
X79825000Y-73300000D03*
%TD*%
D12*
%TO.P,M1,1*%
%TO.N,Net-(M1-Pad1)*%
X107610000Y-67970000D03*
%TO.P,M1,2,-*%
%TO.N,Net-(M1--)*%
X107610000Y-60350000D03*
%TO.P,M1,3*%
%TO.N,Net-(M1-Pad3)*%
X130470000Y-67970000D03*
%TO.P,M1,4*%
%TO.N,Net-(M1-Pad4)*%
X130470000Y-60350000D03*
%TD*%
%TA.AperFunction,Conductor*%
%TO.N,GND*%
G36*
X134502702Y-43000617D02*
G01*
X134886771Y-43017386D01*
X134897506Y-43018326D01*
X135275971Y-43068152D01*
X135286597Y-43070025D01*
X135659284Y-43152648D01*
X135669710Y-43155442D01*
X136033765Y-43270227D01*
X136043911Y-43273920D01*
X136396578Y-43420000D01*
X136406369Y-43424566D01*
X136744942Y-43600816D01*
X136754310Y-43606224D01*
X137076244Y-43811318D01*
X137085105Y-43817523D01*
X137387930Y-44049889D01*
X137396217Y-44056843D01*
X137677635Y-44314715D01*
X137685284Y-44322364D01*
X137943156Y-44603782D01*
X137950110Y-44612069D01*
X138182476Y-44914894D01*
X138188681Y-44923755D01*
X138393775Y-45245689D01*
X138399183Y-45255057D01*
X138575430Y-45593623D01*
X138580002Y-45603427D01*
X138726075Y-45956078D01*
X138729775Y-45966244D01*
X138844554Y-46330278D01*
X138847354Y-46340727D01*
X138929971Y-46713389D01*
X138931849Y-46724042D01*
X138981671Y-47102473D01*
X138982614Y-47113249D01*
X138999382Y-47497297D01*
X138999500Y-47502706D01*
X138999500Y-80497293D01*
X138999382Y-80502702D01*
X138982614Y-80886750D01*
X138981671Y-80897526D01*
X138931849Y-81275957D01*
X138929971Y-81286610D01*
X138847354Y-81659272D01*
X138844554Y-81669721D01*
X138729775Y-82033755D01*
X138726075Y-82043921D01*
X138580002Y-82396572D01*
X138575430Y-82406376D01*
X138399183Y-82744942D01*
X138393775Y-82754310D01*
X138188681Y-83076244D01*
X138182476Y-83085105D01*
X137950110Y-83387930D01*
X137943156Y-83396217D01*
X137685284Y-83677635D01*
X137677635Y-83685284D01*
X137396217Y-83943156D01*
X137387930Y-83950110D01*
X137085105Y-84182476D01*
X137076244Y-84188681D01*
X136754310Y-84393775D01*
X136744942Y-84399183D01*
X136406376Y-84575430D01*
X136396572Y-84580002D01*
X136043921Y-84726075D01*
X136033755Y-84729775D01*
X135669721Y-84844554D01*
X135659272Y-84847354D01*
X135286610Y-84929971D01*
X135275957Y-84931849D01*
X134897526Y-84981671D01*
X134886750Y-84982614D01*
X134502703Y-84999382D01*
X134497294Y-84999500D01*
X57502706Y-84999500D01*
X57497297Y-84999382D01*
X57113249Y-84982614D01*
X57102473Y-84981671D01*
X56724042Y-84931849D01*
X56713389Y-84929971D01*
X56340727Y-84847354D01*
X56330278Y-84844554D01*
X55966244Y-84729775D01*
X55956078Y-84726075D01*
X55603427Y-84580002D01*
X55593623Y-84575430D01*
X55255057Y-84399183D01*
X55245689Y-84393775D01*
X54923755Y-84188681D01*
X54914894Y-84182476D01*
X54612069Y-83950110D01*
X54603782Y-83943156D01*
X54322364Y-83685284D01*
X54314715Y-83677635D01*
X54056843Y-83396217D01*
X54049889Y-83387930D01*
X53817523Y-83085105D01*
X53811318Y-83076244D01*
X53606224Y-82754310D01*
X53600816Y-82744942D01*
X53424569Y-82406376D01*
X53419997Y-82396572D01*
X53273924Y-82043921D01*
X53270224Y-82033755D01*
X53155442Y-81669710D01*
X53152648Y-81659284D01*
X53070025Y-81286597D01*
X53068152Y-81275971D01*
X53018326Y-80897506D01*
X53017386Y-80886771D01*
X53000618Y-80502702D01*
X53000500Y-80497293D01*
X53000500Y-79381902D01*
X57499500Y-79381902D01*
X57499500Y-79618097D01*
X57536446Y-79851368D01*
X57609433Y-80075996D01*
X57716657Y-80286433D01*
X57855483Y-80477510D01*
X58022490Y-80644517D01*
X58213567Y-80783343D01*
X58312991Y-80834002D01*
X58424003Y-80890566D01*
X58424005Y-80890566D01*
X58424008Y-80890568D01*
X58544412Y-80929689D01*
X58648631Y-80963553D01*
X58881903Y-81000500D01*
X58881908Y-81000500D01*
X59118097Y-81000500D01*
X59351368Y-80963553D01*
X59575992Y-80890568D01*
X59786433Y-80783343D01*
X59977510Y-80644517D01*
X60144517Y-80477510D01*
X60283343Y-80286433D01*
X60390568Y-80075992D01*
X60463553Y-79851368D01*
X60500500Y-79618097D01*
X60500500Y-79381902D01*
X60463553Y-79148631D01*
X60390566Y-78924003D01*
X60283342Y-78713566D01*
X60144517Y-78522490D01*
X59977510Y-78355483D01*
X59786433Y-78216657D01*
X59575996Y-78109433D01*
X59351368Y-78036446D01*
X59118097Y-77999500D01*
X59118092Y-77999500D01*
X58881908Y-77999500D01*
X58881903Y-77999500D01*
X58648631Y-78036446D01*
X58424003Y-78109433D01*
X58213566Y-78216657D01*
X58104550Y-78295862D01*
X58022490Y-78355483D01*
X58022488Y-78355485D01*
X58022487Y-78355485D01*
X57855485Y-78522487D01*
X57855485Y-78522488D01*
X57855483Y-78522490D01*
X57795862Y-78604550D01*
X57716657Y-78713566D01*
X57609433Y-78924003D01*
X57536446Y-79148631D01*
X57499500Y-79381902D01*
X53000500Y-79381902D01*
X53000500Y-73185646D01*
X73292000Y-73185646D01*
X73292000Y-73414353D01*
X73327778Y-73640246D01*
X73327778Y-73640249D01*
X73398450Y-73857755D01*
X73494506Y-74046274D01*
X73502283Y-74061538D01*
X73636714Y-74246566D01*
X73798434Y-74408286D01*
X73983462Y-74542717D01*
X74186327Y-74646082D01*
X74187244Y-74646549D01*
X74404751Y-74717221D01*
X74404752Y-74717221D01*
X74404755Y-74717222D01*
X74630646Y-74753000D01*
X74630647Y-74753000D01*
X74859353Y-74753000D01*
X74859354Y-74753000D01*
X75085245Y-74717222D01*
X75085248Y-74717221D01*
X75085249Y-74717221D01*
X75302755Y-74646549D01*
X75302755Y-74646548D01*
X75302758Y-74646548D01*
X75506538Y-74542717D01*
X75691566Y-74408286D01*
X75853286Y-74246566D01*
X75987717Y-74061538D01*
X76091548Y-73857758D01*
X76162222Y-73640245D01*
X76198000Y-73414354D01*
X76198000Y-73185686D01*
X78372500Y-73185686D01*
X78372500Y-73414313D01*
X78408265Y-73640124D01*
X78408265Y-73640125D01*
X78478917Y-73857568D01*
X78582711Y-74061276D01*
X78636347Y-74135098D01*
X78636347Y-74135099D01*
X79335504Y-73435941D01*
X79351619Y-73496081D01*
X79418498Y-73611920D01*
X79513080Y-73706502D01*
X79628919Y-73773381D01*
X79689057Y-73789494D01*
X78989899Y-74488651D01*
X79063725Y-74542288D01*
X79063731Y-74542292D01*
X79267431Y-74646082D01*
X79484875Y-74716734D01*
X79710687Y-74752500D01*
X79939313Y-74752500D01*
X80165124Y-74716734D01*
X80165125Y-74716734D01*
X80382568Y-74646082D01*
X80586276Y-74542288D01*
X80660098Y-74488651D01*
X79960942Y-73789495D01*
X80021081Y-73773381D01*
X80136920Y-73706502D01*
X80231502Y-73611920D01*
X80298381Y-73496081D01*
X80314494Y-73435942D01*
X81013651Y-74135099D01*
X81013651Y-74135098D01*
X81067288Y-74061276D01*
X81087108Y-74022378D01*
X116589500Y-74022378D01*
X116589500Y-74297621D01*
X116620315Y-74571108D01*
X116620317Y-74571124D01*
X116681561Y-74839453D01*
X116681565Y-74839465D01*
X116772467Y-75099246D01*
X116891884Y-75347218D01*
X116891886Y-75347221D01*
X117038319Y-75580268D01*
X117209925Y-75795455D01*
X117404545Y-75990075D01*
X117619732Y-76161681D01*
X117852779Y-76308114D01*
X118100757Y-76427534D01*
X118295865Y-76495805D01*
X118360534Y-76518434D01*
X118360546Y-76518438D01*
X118628879Y-76579683D01*
X118902378Y-76610499D01*
X118902379Y-76610500D01*
X118902383Y-76610500D01*
X119177621Y-76610500D01*
X119177621Y-76610499D01*
X119451121Y-76579683D01*
X119719454Y-76518438D01*
X119979243Y-76427534D01*
X120227221Y-76308114D01*
X120460268Y-76161681D01*
X120675455Y-75990075D01*
X120870075Y-75795455D01*
X121041681Y-75580268D01*
X121188114Y-75347221D01*
X121307534Y-75099243D01*
X121398438Y-74839454D01*
X121459683Y-74571121D01*
X121490500Y-74297617D01*
X121490500Y-74022383D01*
X121459683Y-73748879D01*
X121398438Y-73480546D01*
X121307534Y-73220757D01*
X121188114Y-72972779D01*
X121041681Y-72739732D01*
X120870075Y-72524545D01*
X120675455Y-72329925D01*
X120460268Y-72158319D01*
X120227221Y-72011886D01*
X120227218Y-72011884D01*
X119979246Y-71892467D01*
X119719465Y-71801565D01*
X119719453Y-71801561D01*
X119451124Y-71740317D01*
X119451108Y-71740315D01*
X119177621Y-71709500D01*
X119177617Y-71709500D01*
X118902383Y-71709500D01*
X118902379Y-71709500D01*
X118628891Y-71740315D01*
X118628875Y-71740317D01*
X118360546Y-71801561D01*
X118360534Y-71801565D01*
X118100753Y-71892467D01*
X117852781Y-72011884D01*
X117619733Y-72158318D01*
X117404545Y-72329924D01*
X117209924Y-72524545D01*
X117038318Y-72739733D01*
X116891884Y-72972781D01*
X116772467Y-73220753D01*
X116681565Y-73480534D01*
X116681561Y-73480546D01*
X116620317Y-73748875D01*
X116620315Y-73748891D01*
X116589500Y-74022378D01*
X81087108Y-74022378D01*
X81117562Y-73962609D01*
X81171082Y-73857568D01*
X81241734Y-73640125D01*
X81241734Y-73640124D01*
X81277500Y-73414313D01*
X81277500Y-73185686D01*
X81241734Y-72959875D01*
X81241734Y-72959874D01*
X81171082Y-72742431D01*
X81067292Y-72538731D01*
X81067288Y-72538725D01*
X81013651Y-72464900D01*
X81013651Y-72464899D01*
X80314494Y-73164056D01*
X80298381Y-73103919D01*
X80231502Y-72988080D01*
X80136920Y-72893498D01*
X80021081Y-72826619D01*
X79960940Y-72810504D01*
X80660099Y-72111347D01*
X80586276Y-72057711D01*
X80382568Y-71953917D01*
X80165124Y-71883265D01*
X79939313Y-71847500D01*
X79710687Y-71847500D01*
X79484875Y-71883265D01*
X79484874Y-71883265D01*
X79267431Y-71953917D01*
X79063719Y-72057713D01*
X78989900Y-72111346D01*
X78989899Y-72111347D01*
X79689057Y-72810504D01*
X79628919Y-72826619D01*
X79513080Y-72893498D01*
X79418498Y-72988080D01*
X79351619Y-73103919D01*
X79335504Y-73164057D01*
X78636347Y-72464899D01*
X78636346Y-72464900D01*
X78582713Y-72538719D01*
X78478917Y-72742431D01*
X78408265Y-72959874D01*
X78408265Y-72959875D01*
X78372500Y-73185686D01*
X76198000Y-73185686D01*
X76198000Y-73185646D01*
X76162222Y-72959755D01*
X76162221Y-72959751D01*
X76162221Y-72959750D01*
X76091549Y-72742244D01*
X75987851Y-72538725D01*
X75987717Y-72538462D01*
X75853286Y-72353434D01*
X75691566Y-72191714D01*
X75506538Y-72057283D01*
X75302755Y-71953450D01*
X75085248Y-71882778D01*
X74915826Y-71855944D01*
X74859354Y-71847000D01*
X74630646Y-71847000D01*
X74555349Y-71858926D01*
X74404753Y-71882778D01*
X74404750Y-71882778D01*
X74187244Y-71953450D01*
X73983461Y-72057283D01*
X73909051Y-72111346D01*
X73798434Y-72191714D01*
X73798432Y-72191716D01*
X73798431Y-72191716D01*
X73636716Y-72353431D01*
X73636716Y-72353432D01*
X73636714Y-72353434D01*
X73578980Y-72432896D01*
X73502283Y-72538461D01*
X73398450Y-72742244D01*
X73327778Y-72959750D01*
X73327778Y-72959753D01*
X73292000Y-73185646D01*
X53000500Y-73185646D01*
X53000500Y-67863713D01*
X106259500Y-67863713D01*
X106259500Y-68076286D01*
X106292753Y-68286239D01*
X106358444Y-68488414D01*
X106454951Y-68677820D01*
X106579890Y-68849786D01*
X106730213Y-69000109D01*
X106902179Y-69125048D01*
X106902181Y-69125049D01*
X106902184Y-69125051D01*
X107091588Y-69221557D01*
X107293757Y-69287246D01*
X107503713Y-69320500D01*
X107503714Y-69320500D01*
X107716286Y-69320500D01*
X107716287Y-69320500D01*
X107926243Y-69287246D01*
X108128412Y-69221557D01*
X108317816Y-69125051D01*
X108339789Y-69109086D01*
X108489786Y-69000109D01*
X108489788Y-69000106D01*
X108489792Y-69000104D01*
X108640104Y-68849792D01*
X108640106Y-68849788D01*
X108640109Y-68849786D01*
X108765048Y-68677820D01*
X108765047Y-68677820D01*
X108765051Y-68677816D01*
X108861557Y-68488412D01*
X108927246Y-68286243D01*
X108960500Y-68076287D01*
X108960500Y-67863713D01*
X129119500Y-67863713D01*
X129119500Y-68076286D01*
X129152753Y-68286239D01*
X129218444Y-68488414D01*
X129314951Y-68677820D01*
X129439890Y-68849786D01*
X129590213Y-69000109D01*
X129762179Y-69125048D01*
X129762181Y-69125049D01*
X129762184Y-69125051D01*
X129951588Y-69221557D01*
X130153757Y-69287246D01*
X130363713Y-69320500D01*
X130363714Y-69320500D01*
X130576286Y-69320500D01*
X130576287Y-69320500D01*
X130786243Y-69287246D01*
X130988412Y-69221557D01*
X131177816Y-69125051D01*
X131199789Y-69109086D01*
X131349786Y-69000109D01*
X131349788Y-69000106D01*
X131349792Y-69000104D01*
X131500104Y-68849792D01*
X131500106Y-68849788D01*
X131500109Y-68849786D01*
X131625048Y-68677820D01*
X131625047Y-68677820D01*
X131625051Y-68677816D01*
X131721557Y-68488412D01*
X131787246Y-68286243D01*
X131820500Y-68076287D01*
X131820500Y-67863713D01*
X131787246Y-67653757D01*
X131721557Y-67451588D01*
X131625051Y-67262184D01*
X131625049Y-67262181D01*
X131625048Y-67262179D01*
X131500109Y-67090213D01*
X131349786Y-66939890D01*
X131177820Y-66814951D01*
X130988414Y-66718444D01*
X130988413Y-66718443D01*
X130988412Y-66718443D01*
X130786243Y-66652754D01*
X130786241Y-66652753D01*
X130786240Y-66652753D01*
X130624957Y-66627208D01*
X130576287Y-66619500D01*
X130363713Y-66619500D01*
X130315042Y-66627208D01*
X130153760Y-66652753D01*
X129951585Y-66718444D01*
X129762179Y-66814951D01*
X129590213Y-66939890D01*
X129439890Y-67090213D01*
X129314951Y-67262179D01*
X129218444Y-67451585D01*
X129152753Y-67653760D01*
X129119500Y-67863713D01*
X108960500Y-67863713D01*
X108927246Y-67653757D01*
X108861557Y-67451588D01*
X108765051Y-67262184D01*
X108765049Y-67262181D01*
X108765048Y-67262179D01*
X108640109Y-67090213D01*
X108489786Y-66939890D01*
X108317820Y-66814951D01*
X108128414Y-66718444D01*
X108128413Y-66718443D01*
X108128412Y-66718443D01*
X107926243Y-66652754D01*
X107926241Y-66652753D01*
X107926240Y-66652753D01*
X107764957Y-66627208D01*
X107716287Y-66619500D01*
X107503713Y-66619500D01*
X107455042Y-66627208D01*
X107293760Y-66652753D01*
X107091585Y-66718444D01*
X106902179Y-66814951D01*
X106730213Y-66939890D01*
X106579890Y-67090213D01*
X106454951Y-67262179D01*
X106358444Y-67451585D01*
X106292753Y-67653760D01*
X106259500Y-67863713D01*
X53000500Y-67863713D01*
X53000500Y-47790638D01*
X66624500Y-47790638D01*
X66624500Y-48009361D01*
X66658714Y-48225376D01*
X66726297Y-48433380D01*
X66726298Y-48433383D01*
X66793782Y-48565825D01*
X66820416Y-48618097D01*
X66825595Y-48628260D01*
X66954142Y-48805193D01*
X67108806Y-48959857D01*
X67259969Y-49069682D01*
X67302635Y-49125011D01*
X67308614Y-49194625D01*
X67276009Y-49256420D01*
X67259969Y-49270318D01*
X67108806Y-49380142D01*
X66954142Y-49534806D01*
X66825595Y-49711739D01*
X66726298Y-49906616D01*
X66726297Y-49906619D01*
X66658714Y-50114623D01*
X66624500Y-50330638D01*
X66624500Y-50549361D01*
X66658714Y-50765376D01*
X66726297Y-50973380D01*
X66726298Y-50973383D01*
X66793782Y-51105825D01*
X66825461Y-51167998D01*
X66825595Y-51168260D01*
X66954142Y-51345193D01*
X67108806Y-51499857D01*
X67259969Y-51609682D01*
X67302635Y-51665011D01*
X67308614Y-51734625D01*
X67276009Y-51796420D01*
X67259969Y-51810318D01*
X67108806Y-51920142D01*
X66954142Y-52074806D01*
X66825595Y-52251739D01*
X66726298Y-52446616D01*
X66726297Y-52446619D01*
X66658714Y-52654623D01*
X66624500Y-52870638D01*
X66624500Y-53089361D01*
X66658714Y-53305376D01*
X66726297Y-53513380D01*
X66726298Y-53513383D01*
X66825595Y-53708260D01*
X66954142Y-53885193D01*
X67108806Y-54039857D01*
X67259969Y-54149682D01*
X67302635Y-54205011D01*
X67308614Y-54274625D01*
X67276009Y-54336420D01*
X67259969Y-54350318D01*
X67108806Y-54460142D01*
X66954142Y-54614806D01*
X66825595Y-54791739D01*
X66726298Y-54986616D01*
X66726297Y-54986619D01*
X66658714Y-55194623D01*
X66624500Y-55410638D01*
X66624500Y-55629361D01*
X66658714Y-55845376D01*
X66726297Y-56053380D01*
X66726298Y-56053383D01*
X66825595Y-56248260D01*
X66954142Y-56425193D01*
X67108806Y-56579857D01*
X67259969Y-56689682D01*
X67302635Y-56745011D01*
X67308614Y-56814625D01*
X67276009Y-56876420D01*
X67259969Y-56890318D01*
X67108806Y-57000142D01*
X66954142Y-57154806D01*
X66825595Y-57331739D01*
X66726298Y-57526616D01*
X66726297Y-57526619D01*
X66658714Y-57734623D01*
X66624500Y-57950638D01*
X66624500Y-58169361D01*
X66658714Y-58385376D01*
X66726297Y-58593380D01*
X66726298Y-58593383D01*
X66825595Y-58788260D01*
X66954142Y-58965193D01*
X67108806Y-59119857D01*
X67259969Y-59229682D01*
X67302635Y-59285011D01*
X67308614Y-59354625D01*
X67276009Y-59416420D01*
X67259969Y-59430318D01*
X67108806Y-59540142D01*
X66954142Y-59694806D01*
X66825595Y-59871739D01*
X66726298Y-60066616D01*
X66726297Y-60066619D01*
X66658714Y-60274623D01*
X66624500Y-60490638D01*
X66624500Y-60709361D01*
X66658714Y-60925376D01*
X66726297Y-61133380D01*
X66726298Y-61133383D01*
X66825595Y-61328260D01*
X66954142Y-61505193D01*
X67108806Y-61659857D01*
X67259969Y-61769682D01*
X67302635Y-61825011D01*
X67308614Y-61894625D01*
X67276009Y-61956420D01*
X67259969Y-61970318D01*
X67108806Y-62080142D01*
X66954142Y-62234806D01*
X66825595Y-62411739D01*
X66726298Y-62606616D01*
X66726297Y-62606619D01*
X66658714Y-62814623D01*
X66624500Y-63030638D01*
X66624500Y-63249361D01*
X66658714Y-63465376D01*
X66726297Y-63673380D01*
X66726298Y-63673383D01*
X66825595Y-63868260D01*
X66954142Y-64045193D01*
X67108806Y-64199857D01*
X67274374Y-64320147D01*
X67285743Y-64328407D01*
X67413132Y-64393315D01*
X67480616Y-64427701D01*
X67480619Y-64427702D01*
X67498889Y-64433638D01*
X67688625Y-64495286D01*
X67788672Y-64511132D01*
X67904639Y-64529500D01*
X67904644Y-64529500D01*
X69901361Y-64529500D01*
X70006082Y-64512912D01*
X70117375Y-64495286D01*
X70325383Y-64427701D01*
X70520257Y-64328407D01*
X70619601Y-64256229D01*
X70697193Y-64199857D01*
X70697195Y-64199854D01*
X70697199Y-64199852D01*
X70851852Y-64045199D01*
X70851854Y-64045195D01*
X70851857Y-64045193D01*
X70908229Y-63967601D01*
X70980407Y-63868257D01*
X71079701Y-63673383D01*
X71147286Y-63465375D01*
X71164912Y-63354082D01*
X71181500Y-63249361D01*
X71181500Y-63030638D01*
X71147467Y-62815769D01*
X71147286Y-62814625D01*
X71079701Y-62606617D01*
X71079701Y-62606616D01*
X71045315Y-62539132D01*
X70980407Y-62411743D01*
X70972147Y-62400374D01*
X70851857Y-62234806D01*
X70697199Y-62080148D01*
X70697191Y-62080142D01*
X70546028Y-61970316D01*
X70503364Y-61914989D01*
X70497385Y-61845376D01*
X70529990Y-61783580D01*
X70546023Y-61769686D01*
X70697199Y-61659852D01*
X70851852Y-61505199D01*
X70851854Y-61505195D01*
X70851857Y-61505193D01*
X70908229Y-61427601D01*
X70980407Y-61328257D01*
X71079701Y-61133383D01*
X71147286Y-60925375D01*
X71164912Y-60814082D01*
X71181500Y-60709361D01*
X71181500Y-60490638D01*
X71161595Y-60364971D01*
X71147286Y-60274625D01*
X71079701Y-60066617D01*
X71079701Y-60066616D01*
X71045315Y-59999132D01*
X70980407Y-59871743D01*
X70951231Y-59831585D01*
X70851857Y-59694806D01*
X70697199Y-59540148D01*
X70697191Y-59540142D01*
X70546028Y-59430316D01*
X70503364Y-59374989D01*
X70497385Y-59305376D01*
X70529990Y-59243580D01*
X70546023Y-59229686D01*
X70697199Y-59119852D01*
X70851852Y-58965199D01*
X70851854Y-58965195D01*
X70851857Y-58965193D01*
X70908229Y-58887601D01*
X70980407Y-58788257D01*
X71079701Y-58593383D01*
X71147286Y-58385375D01*
X71164912Y-58274082D01*
X71181500Y-58169361D01*
X71181500Y-57950638D01*
X71161595Y-57824971D01*
X71147286Y-57734625D01*
X71079701Y-57526617D01*
X71079701Y-57526616D01*
X71045315Y-57459132D01*
X70980407Y-57331743D01*
X70972147Y-57320374D01*
X70851857Y-57154806D01*
X70697199Y-57000148D01*
X70697191Y-57000142D01*
X70546028Y-56890316D01*
X70503364Y-56834989D01*
X70497385Y-56765376D01*
X70529990Y-56703580D01*
X70546023Y-56689686D01*
X70697199Y-56579852D01*
X70851852Y-56425199D01*
X70851854Y-56425195D01*
X70851857Y-56425193D01*
X70908229Y-56347601D01*
X70980407Y-56248257D01*
X71079701Y-56053383D01*
X71147286Y-55845375D01*
X71175507Y-55667197D01*
X71181500Y-55629361D01*
X71181500Y-55410638D01*
X71160492Y-55278004D01*
X71147286Y-55194625D01*
X71110574Y-55081635D01*
X71079702Y-54986619D01*
X71079701Y-54986616D01*
X71045315Y-54919132D01*
X70980407Y-54791743D01*
X70972147Y-54780374D01*
X70851857Y-54614806D01*
X70697199Y-54460148D01*
X70689981Y-54454904D01*
X70546028Y-54350316D01*
X70503364Y-54294989D01*
X70497385Y-54225376D01*
X70529990Y-54163580D01*
X70546023Y-54149686D01*
X70697199Y-54039852D01*
X70851852Y-53885199D01*
X70851854Y-53885195D01*
X70851857Y-53885193D01*
X70911278Y-53803406D01*
X70980407Y-53708257D01*
X71079701Y-53513383D01*
X71147286Y-53305375D01*
X71164912Y-53194082D01*
X71181500Y-53089361D01*
X71181500Y-52870638D01*
X71161595Y-52744971D01*
X71147286Y-52654625D01*
X71079701Y-52446617D01*
X71079701Y-52446616D01*
X71045315Y-52379132D01*
X70980407Y-52251743D01*
X70972147Y-52240374D01*
X70851857Y-52074806D01*
X70697199Y-51920148D01*
X70697191Y-51920142D01*
X70546028Y-51810316D01*
X70503364Y-51754989D01*
X70497385Y-51685376D01*
X70529990Y-51623580D01*
X70546023Y-51609686D01*
X70697199Y-51499852D01*
X70851852Y-51345199D01*
X70851854Y-51345195D01*
X70851857Y-51345193D01*
X70908229Y-51267601D01*
X70980407Y-51168257D01*
X71079701Y-50973383D01*
X71147286Y-50765375D01*
X71167764Y-50636081D01*
X71181500Y-50549361D01*
X71181500Y-50330638D01*
X71159224Y-50190000D01*
X71147286Y-50114625D01*
X71099197Y-49966619D01*
X71079702Y-49906619D01*
X71079701Y-49906616D01*
X71016889Y-49783343D01*
X70980407Y-49711743D01*
X70931563Y-49644514D01*
X70851857Y-49534806D01*
X70697199Y-49380148D01*
X70697191Y-49380142D01*
X70546028Y-49270316D01*
X70503364Y-49214989D01*
X70497385Y-49145376D01*
X70529990Y-49083580D01*
X70546023Y-49069686D01*
X70697199Y-48959852D01*
X70851852Y-48805199D01*
X70851854Y-48805195D01*
X70851857Y-48805193D01*
X70908229Y-48727601D01*
X70980407Y-48628257D01*
X71079701Y-48433383D01*
X71147286Y-48225375D01*
X71164912Y-48114082D01*
X71181500Y-48009361D01*
X71181500Y-47790638D01*
X83388500Y-47790638D01*
X83388500Y-48009361D01*
X83422714Y-48225376D01*
X83490297Y-48433380D01*
X83490298Y-48433383D01*
X83557782Y-48565825D01*
X83584416Y-48618097D01*
X83589595Y-48628260D01*
X83718142Y-48805193D01*
X83872802Y-48959853D01*
X83872807Y-48959857D01*
X84024394Y-49069991D01*
X84067060Y-49125320D01*
X84073039Y-49194934D01*
X84040434Y-49256729D01*
X84024394Y-49270627D01*
X83873133Y-49380524D01*
X83873128Y-49380528D01*
X83718528Y-49535128D01*
X83718524Y-49535133D01*
X83590023Y-49712001D01*
X83490762Y-49906808D01*
X83490761Y-49906811D01*
X83423201Y-50114741D01*
X83411282Y-50190000D01*
X84462749Y-50190000D01*
X84431619Y-50243919D01*
X84397000Y-50373120D01*
X84397000Y-50506880D01*
X84431619Y-50636081D01*
X84462749Y-50690000D01*
X83411282Y-50690000D01*
X83423201Y-50765258D01*
X83490761Y-50973188D01*
X83490762Y-50973191D01*
X83590023Y-51167998D01*
X83718524Y-51344866D01*
X83718528Y-51344871D01*
X83873128Y-51499471D01*
X83873133Y-51499475D01*
X84024394Y-51609372D01*
X84067060Y-51664701D01*
X84073039Y-51734315D01*
X84040434Y-51796110D01*
X84024394Y-51810008D01*
X83872807Y-51920142D01*
X83872802Y-51920146D01*
X83718142Y-52074806D01*
X83589595Y-52251739D01*
X83490298Y-52446616D01*
X83490297Y-52446619D01*
X83422714Y-52654623D01*
X83388500Y-52870638D01*
X83388500Y-53089361D01*
X83422714Y-53305376D01*
X83490297Y-53513380D01*
X83490298Y-53513383D01*
X83589595Y-53708260D01*
X83718142Y-53885193D01*
X83872806Y-54039857D01*
X84023969Y-54149682D01*
X84066635Y-54205011D01*
X84072614Y-54274625D01*
X84040009Y-54336420D01*
X84023969Y-54350318D01*
X83872806Y-54460142D01*
X83718142Y-54614806D01*
X83589595Y-54791739D01*
X83490298Y-54986616D01*
X83490297Y-54986619D01*
X83422714Y-55194623D01*
X83388500Y-55410638D01*
X83388500Y-55629361D01*
X83422714Y-55845376D01*
X83490297Y-56053380D01*
X83490298Y-56053383D01*
X83589595Y-56248260D01*
X83718142Y-56425193D01*
X83872806Y-56579857D01*
X84023969Y-56689682D01*
X84066635Y-56745011D01*
X84072614Y-56814625D01*
X84040009Y-56876420D01*
X84023969Y-56890318D01*
X83872806Y-57000142D01*
X83718142Y-57154806D01*
X83589595Y-57331739D01*
X83490298Y-57526616D01*
X83490297Y-57526619D01*
X83422714Y-57734623D01*
X83388500Y-57950638D01*
X83388500Y-58169361D01*
X83422714Y-58385376D01*
X83490297Y-58593380D01*
X83490298Y-58593383D01*
X83589595Y-58788260D01*
X83718142Y-58965193D01*
X83872806Y-59119857D01*
X84023969Y-59229682D01*
X84066635Y-59285011D01*
X84072614Y-59354625D01*
X84040009Y-59416420D01*
X84023969Y-59430318D01*
X83872806Y-59540142D01*
X83718142Y-59694806D01*
X83589595Y-59871739D01*
X83490298Y-60066616D01*
X83490297Y-60066619D01*
X83422714Y-60274623D01*
X83388500Y-60490638D01*
X83388500Y-60709361D01*
X83422714Y-60925376D01*
X83490297Y-61133380D01*
X83490298Y-61133383D01*
X83589595Y-61328260D01*
X83718142Y-61505193D01*
X83872806Y-61659857D01*
X84023969Y-61769682D01*
X84066635Y-61825011D01*
X84072614Y-61894625D01*
X84040009Y-61956420D01*
X84023969Y-61970318D01*
X83872806Y-62080142D01*
X83718142Y-62234806D01*
X83589595Y-62411739D01*
X83490298Y-62606616D01*
X83490297Y-62606619D01*
X83422714Y-62814623D01*
X83388500Y-63030638D01*
X83388500Y-63249361D01*
X83422714Y-63465376D01*
X83490297Y-63673380D01*
X83490298Y-63673383D01*
X83589595Y-63868260D01*
X83718142Y-64045193D01*
X83872806Y-64199857D01*
X84038374Y-64320147D01*
X84049743Y-64328407D01*
X84177132Y-64393315D01*
X84244616Y-64427701D01*
X84244619Y-64427702D01*
X84262889Y-64433638D01*
X84452625Y-64495286D01*
X84552672Y-64511132D01*
X84668639Y-64529500D01*
X84668644Y-64529500D01*
X86665361Y-64529500D01*
X86770082Y-64512912D01*
X86881375Y-64495286D01*
X87089383Y-64427701D01*
X87284257Y-64328407D01*
X87383601Y-64256229D01*
X87461193Y-64199857D01*
X87461195Y-64199854D01*
X87461199Y-64199852D01*
X87615214Y-64045837D01*
X104089500Y-64045837D01*
X104089500Y-64274162D01*
X104125215Y-64499660D01*
X104195770Y-64716803D01*
X104299421Y-64920228D01*
X104433621Y-65104937D01*
X104595063Y-65266379D01*
X104779772Y-65400579D01*
X104875884Y-65449550D01*
X104983196Y-65504229D01*
X104983198Y-65504229D01*
X104983201Y-65504231D01*
X105099592Y-65542049D01*
X105200339Y-65574784D01*
X105425838Y-65610500D01*
X105425843Y-65610500D01*
X105654162Y-65610500D01*
X105879660Y-65574784D01*
X106096799Y-65504231D01*
X106300228Y-65400579D01*
X106484937Y-65266379D01*
X106646379Y-65104937D01*
X106780579Y-64920228D01*
X106884231Y-64716799D01*
X106954784Y-64499660D01*
X106966181Y-64427701D01*
X106990500Y-64274162D01*
X106990500Y-64045837D01*
X131089500Y-64045837D01*
X131089500Y-64274162D01*
X131125215Y-64499660D01*
X131195770Y-64716803D01*
X131299421Y-64920228D01*
X131433621Y-65104937D01*
X131595063Y-65266379D01*
X131779772Y-65400579D01*
X131875884Y-65449550D01*
X131983196Y-65504229D01*
X131983198Y-65504229D01*
X131983201Y-65504231D01*
X132099592Y-65542049D01*
X132200339Y-65574784D01*
X132425838Y-65610500D01*
X132425843Y-65610500D01*
X132654162Y-65610500D01*
X132879660Y-65574784D01*
X133096799Y-65504231D01*
X133300228Y-65400579D01*
X133484937Y-65266379D01*
X133646379Y-65104937D01*
X133780579Y-64920228D01*
X133884231Y-64716799D01*
X133954784Y-64499660D01*
X133966181Y-64427701D01*
X133990500Y-64274162D01*
X133990500Y-64045837D01*
X133954784Y-63820339D01*
X133920344Y-63714346D01*
X133884231Y-63603201D01*
X133884229Y-63603198D01*
X133884229Y-63603196D01*
X133780578Y-63399771D01*
X133671298Y-63249361D01*
X133646379Y-63215063D01*
X133484937Y-63053621D01*
X133300228Y-62919421D01*
X133096803Y-62815770D01*
X132879660Y-62745215D01*
X132654162Y-62709500D01*
X132654157Y-62709500D01*
X132425843Y-62709500D01*
X132425838Y-62709500D01*
X132200339Y-62745215D01*
X131983196Y-62815770D01*
X131779771Y-62919421D01*
X131595061Y-63053622D01*
X131433622Y-63215061D01*
X131299421Y-63399771D01*
X131195770Y-63603196D01*
X131125215Y-63820339D01*
X131089500Y-64045837D01*
X106990500Y-64045837D01*
X106954784Y-63820339D01*
X106920344Y-63714346D01*
X106884231Y-63603201D01*
X106884229Y-63603198D01*
X106884229Y-63603196D01*
X106780578Y-63399771D01*
X106671298Y-63249361D01*
X106646379Y-63215063D01*
X106484937Y-63053621D01*
X106300228Y-62919421D01*
X106096803Y-62815770D01*
X105879660Y-62745215D01*
X105654162Y-62709500D01*
X105654157Y-62709500D01*
X105425843Y-62709500D01*
X105425838Y-62709500D01*
X105200339Y-62745215D01*
X104983196Y-62815770D01*
X104779771Y-62919421D01*
X104595061Y-63053622D01*
X104433622Y-63215061D01*
X104299421Y-63399771D01*
X104195770Y-63603196D01*
X104125215Y-63820339D01*
X104089500Y-64045837D01*
X87615214Y-64045837D01*
X87615852Y-64045199D01*
X87744407Y-63868257D01*
X87843701Y-63673383D01*
X87911286Y-63465375D01*
X87928912Y-63354082D01*
X87945500Y-63249361D01*
X87945500Y-63030638D01*
X87911467Y-62815769D01*
X87911286Y-62814625D01*
X87843701Y-62606617D01*
X87843701Y-62606616D01*
X87809315Y-62539132D01*
X87744407Y-62411743D01*
X87736147Y-62400374D01*
X87615857Y-62234806D01*
X87461199Y-62080148D01*
X87461191Y-62080142D01*
X87310028Y-61970316D01*
X87267364Y-61914989D01*
X87261385Y-61845376D01*
X87293990Y-61783580D01*
X87310023Y-61769686D01*
X87461199Y-61659852D01*
X87615852Y-61505199D01*
X87615854Y-61505195D01*
X87615857Y-61505193D01*
X87672229Y-61427601D01*
X87744407Y-61328257D01*
X87843701Y-61133383D01*
X87911286Y-60925375D01*
X87928912Y-60814082D01*
X87945500Y-60709361D01*
X87945500Y-60490638D01*
X87911285Y-60274621D01*
X87901243Y-60243713D01*
X106259500Y-60243713D01*
X106259500Y-60456287D01*
X106292754Y-60666243D01*
X106306762Y-60709356D01*
X106358444Y-60868414D01*
X106454951Y-61057820D01*
X106579890Y-61229786D01*
X106730213Y-61380109D01*
X106902179Y-61505048D01*
X106902181Y-61505049D01*
X106902184Y-61505051D01*
X107091588Y-61601557D01*
X107293757Y-61667246D01*
X107503713Y-61700500D01*
X107503714Y-61700500D01*
X107716286Y-61700500D01*
X107716287Y-61700500D01*
X107926243Y-61667246D01*
X108128412Y-61601557D01*
X108317816Y-61505051D01*
X108339789Y-61489086D01*
X108489786Y-61380109D01*
X108489788Y-61380106D01*
X108489792Y-61380104D01*
X108640104Y-61229792D01*
X108640106Y-61229788D01*
X108640109Y-61229786D01*
X108765048Y-61057820D01*
X108765047Y-61057820D01*
X108765051Y-61057816D01*
X108861557Y-60868412D01*
X108927246Y-60666243D01*
X108960500Y-60456287D01*
X108960500Y-60243713D01*
X129119500Y-60243713D01*
X129119500Y-60456287D01*
X129152754Y-60666243D01*
X129166762Y-60709356D01*
X129218444Y-60868414D01*
X129314951Y-61057820D01*
X129439890Y-61229786D01*
X129590213Y-61380109D01*
X129762179Y-61505048D01*
X129762181Y-61505049D01*
X129762184Y-61505051D01*
X129951588Y-61601557D01*
X130153757Y-61667246D01*
X130363713Y-61700500D01*
X130363714Y-61700500D01*
X130576286Y-61700500D01*
X130576287Y-61700500D01*
X130786243Y-61667246D01*
X130988412Y-61601557D01*
X131177816Y-61505051D01*
X131199789Y-61489086D01*
X131349786Y-61380109D01*
X131349788Y-61380106D01*
X131349792Y-61380104D01*
X131500104Y-61229792D01*
X131500106Y-61229788D01*
X131500109Y-61229786D01*
X131625048Y-61057820D01*
X131625047Y-61057820D01*
X131625051Y-61057816D01*
X131721557Y-60868412D01*
X131787246Y-60666243D01*
X131820500Y-60456287D01*
X131820500Y-60243713D01*
X131787246Y-60033757D01*
X131721557Y-59831588D01*
X131625051Y-59642184D01*
X131625049Y-59642181D01*
X131625048Y-59642179D01*
X131500109Y-59470213D01*
X131349786Y-59319890D01*
X131177820Y-59194951D01*
X130988414Y-59098444D01*
X130988413Y-59098443D01*
X130988412Y-59098443D01*
X130786243Y-59032754D01*
X130786241Y-59032753D01*
X130786240Y-59032753D01*
X130624957Y-59007208D01*
X130576287Y-58999500D01*
X130363713Y-58999500D01*
X130315042Y-59007208D01*
X130153760Y-59032753D01*
X129951585Y-59098444D01*
X129762179Y-59194951D01*
X129590213Y-59319890D01*
X129439890Y-59470213D01*
X129314951Y-59642179D01*
X129218444Y-59831585D01*
X129152753Y-60033760D01*
X129147549Y-60066617D01*
X129119500Y-60243713D01*
X108960500Y-60243713D01*
X108927246Y-60033757D01*
X108861557Y-59831588D01*
X108765051Y-59642184D01*
X108765049Y-59642181D01*
X108765048Y-59642179D01*
X108640109Y-59470213D01*
X108489786Y-59319890D01*
X108317820Y-59194951D01*
X108128414Y-59098444D01*
X108128413Y-59098443D01*
X108128412Y-59098443D01*
X107926243Y-59032754D01*
X107926241Y-59032753D01*
X107926240Y-59032753D01*
X107764957Y-59007208D01*
X107716287Y-58999500D01*
X107503713Y-58999500D01*
X107455042Y-59007208D01*
X107293760Y-59032753D01*
X107091585Y-59098444D01*
X106902179Y-59194951D01*
X106730213Y-59319890D01*
X106579890Y-59470213D01*
X106454951Y-59642179D01*
X106358444Y-59831585D01*
X106292753Y-60033760D01*
X106287549Y-60066617D01*
X106259500Y-60243713D01*
X87901243Y-60243713D01*
X87843702Y-60066619D01*
X87843701Y-60066616D01*
X87809315Y-59999132D01*
X87744407Y-59871743D01*
X87715231Y-59831585D01*
X87615857Y-59694806D01*
X87461199Y-59540148D01*
X87461191Y-59540142D01*
X87310028Y-59430316D01*
X87267364Y-59374989D01*
X87261385Y-59305376D01*
X87293990Y-59243580D01*
X87310023Y-59229686D01*
X87461199Y-59119852D01*
X87615852Y-58965199D01*
X87615854Y-58965195D01*
X87615857Y-58965193D01*
X87672229Y-58887601D01*
X87744407Y-58788257D01*
X87843701Y-58593383D01*
X87911286Y-58385375D01*
X87928912Y-58274082D01*
X87945500Y-58169361D01*
X87945500Y-57950638D01*
X87925595Y-57824971D01*
X87911286Y-57734625D01*
X87843701Y-57526617D01*
X87843701Y-57526616D01*
X87809315Y-57459132D01*
X87744407Y-57331743D01*
X87736147Y-57320374D01*
X87615857Y-57154806D01*
X87461199Y-57000148D01*
X87461191Y-57000142D01*
X87310028Y-56890316D01*
X87267364Y-56834989D01*
X87261385Y-56765376D01*
X87293990Y-56703580D01*
X87310023Y-56689686D01*
X87461199Y-56579852D01*
X87615852Y-56425199D01*
X87615854Y-56425195D01*
X87615857Y-56425193D01*
X87672229Y-56347601D01*
X87744407Y-56248257D01*
X87843701Y-56053383D01*
X87911286Y-55845375D01*
X87939507Y-55667197D01*
X87945500Y-55629361D01*
X87945500Y-55410638D01*
X87924492Y-55278004D01*
X87911286Y-55194625D01*
X87874574Y-55081635D01*
X87872824Y-55076248D01*
X87861695Y-55041995D01*
X108239500Y-55041995D01*
X108239500Y-55278004D01*
X108239501Y-55278020D01*
X108270306Y-55512010D01*
X108331394Y-55739993D01*
X108421714Y-55958045D01*
X108421719Y-55958056D01*
X108476755Y-56053380D01*
X108539727Y-56162450D01*
X108539729Y-56162453D01*
X108539730Y-56162454D01*
X108683406Y-56349697D01*
X108683412Y-56349704D01*
X108850295Y-56516587D01*
X108850301Y-56516592D01*
X109037550Y-56660273D01*
X109120921Y-56708407D01*
X109241943Y-56778280D01*
X109241948Y-56778282D01*
X109241951Y-56778284D01*
X109460007Y-56868606D01*
X109687986Y-56929693D01*
X109921989Y-56960500D01*
X109921996Y-56960500D01*
X110158004Y-56960500D01*
X110158011Y-56960500D01*
X110392014Y-56929693D01*
X110619993Y-56868606D01*
X110838049Y-56778284D01*
X111042450Y-56660273D01*
X111229699Y-56516592D01*
X111396592Y-56349699D01*
X111540273Y-56162450D01*
X111658284Y-55958049D01*
X111748606Y-55739993D01*
X111809693Y-55512014D01*
X111840500Y-55278011D01*
X111840500Y-55041995D01*
X126239500Y-55041995D01*
X126239500Y-55278004D01*
X126239501Y-55278020D01*
X126270306Y-55512010D01*
X126331394Y-55739993D01*
X126421714Y-55958045D01*
X126421719Y-55958056D01*
X126476755Y-56053380D01*
X126539727Y-56162450D01*
X126539729Y-56162453D01*
X126539730Y-56162454D01*
X126683406Y-56349697D01*
X126683412Y-56349704D01*
X126850295Y-56516587D01*
X126850301Y-56516592D01*
X127037550Y-56660273D01*
X127120921Y-56708407D01*
X127241943Y-56778280D01*
X127241948Y-56778282D01*
X127241951Y-56778284D01*
X127460007Y-56868606D01*
X127687986Y-56929693D01*
X127921989Y-56960500D01*
X127921996Y-56960500D01*
X128158004Y-56960500D01*
X128158011Y-56960500D01*
X128392014Y-56929693D01*
X128619993Y-56868606D01*
X128838049Y-56778284D01*
X129042450Y-56660273D01*
X129229699Y-56516592D01*
X129396592Y-56349699D01*
X129540273Y-56162450D01*
X129658284Y-55958049D01*
X129748606Y-55739993D01*
X129809693Y-55512014D01*
X129840500Y-55278011D01*
X129840500Y-55041989D01*
X129809693Y-54807986D01*
X129748606Y-54580007D01*
X129658284Y-54361951D01*
X129658282Y-54361948D01*
X129658280Y-54361943D01*
X129579432Y-54225376D01*
X129540273Y-54157550D01*
X129396592Y-53970301D01*
X129396587Y-53970295D01*
X129229704Y-53803412D01*
X129229697Y-53803406D01*
X129042454Y-53659730D01*
X129042453Y-53659729D01*
X129042450Y-53659727D01*
X128960957Y-53612677D01*
X128838056Y-53541719D01*
X128838045Y-53541714D01*
X128619993Y-53451394D01*
X128392010Y-53390306D01*
X128158020Y-53359501D01*
X128158017Y-53359500D01*
X128158011Y-53359500D01*
X127921989Y-53359500D01*
X127921983Y-53359500D01*
X127921979Y-53359501D01*
X127687989Y-53390306D01*
X127460006Y-53451394D01*
X127241954Y-53541714D01*
X127241943Y-53541719D01*
X127037545Y-53659730D01*
X126850302Y-53803406D01*
X126850295Y-53803412D01*
X126683412Y-53970295D01*
X126683406Y-53970302D01*
X126539730Y-54157545D01*
X126421719Y-54361943D01*
X126421714Y-54361954D01*
X126331394Y-54580006D01*
X126270306Y-54807989D01*
X126239501Y-55041979D01*
X126239500Y-55041995D01*
X111840500Y-55041995D01*
X111840500Y-55041989D01*
X111809693Y-54807986D01*
X111748606Y-54580007D01*
X111658284Y-54361951D01*
X111658282Y-54361948D01*
X111658280Y-54361943D01*
X111579432Y-54225376D01*
X111540273Y-54157550D01*
X111396592Y-53970301D01*
X111396587Y-53970295D01*
X111229704Y-53803412D01*
X111229697Y-53803406D01*
X111042454Y-53659730D01*
X111042453Y-53659729D01*
X111042450Y-53659727D01*
X110960957Y-53612677D01*
X110838056Y-53541719D01*
X110838045Y-53541714D01*
X110619993Y-53451394D01*
X110392010Y-53390306D01*
X110158020Y-53359501D01*
X110158017Y-53359500D01*
X110158011Y-53359500D01*
X109921989Y-53359500D01*
X109921983Y-53359500D01*
X109921979Y-53359501D01*
X109687989Y-53390306D01*
X109460006Y-53451394D01*
X109241954Y-53541714D01*
X109241943Y-53541719D01*
X109037545Y-53659730D01*
X108850302Y-53803406D01*
X108850295Y-53803412D01*
X108683412Y-53970295D01*
X108683406Y-53970302D01*
X108539730Y-54157545D01*
X108421719Y-54361943D01*
X108421714Y-54361954D01*
X108331394Y-54580006D01*
X108270306Y-54807989D01*
X108239501Y-55041979D01*
X108239500Y-55041995D01*
X87861695Y-55041995D01*
X87843702Y-54986619D01*
X87843701Y-54986616D01*
X87809315Y-54919132D01*
X87744407Y-54791743D01*
X87736147Y-54780374D01*
X87615857Y-54614806D01*
X87461199Y-54460148D01*
X87453981Y-54454904D01*
X87310028Y-54350316D01*
X87267364Y-54294989D01*
X87261385Y-54225376D01*
X87293990Y-54163580D01*
X87310023Y-54149686D01*
X87461199Y-54039852D01*
X87615852Y-53885199D01*
X87615854Y-53885195D01*
X87615857Y-53885193D01*
X87675278Y-53803406D01*
X87744407Y-53708257D01*
X87843701Y-53513383D01*
X87911286Y-53305375D01*
X87928912Y-53194082D01*
X87945500Y-53089361D01*
X87945500Y-52870638D01*
X87925595Y-52744971D01*
X87911286Y-52654625D01*
X87843701Y-52446617D01*
X87843701Y-52446616D01*
X87809315Y-52379132D01*
X87744407Y-52251743D01*
X87736147Y-52240374D01*
X87615857Y-52074806D01*
X87461197Y-51920146D01*
X87461192Y-51920142D01*
X87309605Y-51810008D01*
X87266939Y-51754678D01*
X87260960Y-51685065D01*
X87293565Y-51623270D01*
X87309605Y-51609371D01*
X87460873Y-51499469D01*
X87615471Y-51344871D01*
X87615475Y-51344866D01*
X87743976Y-51167998D01*
X87843237Y-50973191D01*
X87843238Y-50973188D01*
X87910798Y-50765258D01*
X87922718Y-50690000D01*
X85347251Y-50690000D01*
X85378381Y-50636081D01*
X85413000Y-50506880D01*
X85413000Y-50373120D01*
X85378381Y-50243919D01*
X85347251Y-50190000D01*
X87922718Y-50190000D01*
X87910798Y-50114741D01*
X87843238Y-49906811D01*
X87843237Y-49906808D01*
X87743976Y-49712001D01*
X87615475Y-49535133D01*
X87615471Y-49535128D01*
X87460871Y-49380528D01*
X87460866Y-49380524D01*
X87309605Y-49270627D01*
X87266939Y-49215297D01*
X87260960Y-49145684D01*
X87293565Y-49083889D01*
X87309599Y-49069994D01*
X87461199Y-48959852D01*
X87615852Y-48805199D01*
X87615854Y-48805195D01*
X87615857Y-48805193D01*
X87672229Y-48727601D01*
X87744407Y-48628257D01*
X87843701Y-48433383D01*
X87860428Y-48381902D01*
X131999500Y-48381902D01*
X131999500Y-48618097D01*
X132036446Y-48851368D01*
X132109433Y-49075996D01*
X132208603Y-49270627D01*
X132216657Y-49286433D01*
X132355483Y-49477510D01*
X132522490Y-49644517D01*
X132713567Y-49783343D01*
X132812991Y-49834002D01*
X132924003Y-49890566D01*
X132924005Y-49890566D01*
X132924008Y-49890568D01*
X132973999Y-49906811D01*
X133148631Y-49963553D01*
X133381903Y-50000500D01*
X133381908Y-50000500D01*
X133618097Y-50000500D01*
X133851368Y-49963553D01*
X134075992Y-49890568D01*
X134286433Y-49783343D01*
X134477510Y-49644517D01*
X134644517Y-49477510D01*
X134783343Y-49286433D01*
X134890568Y-49075992D01*
X134963553Y-48851368D01*
X135000500Y-48618097D01*
X135000500Y-48381902D01*
X134963553Y-48148631D01*
X134890566Y-47924003D01*
X134783342Y-47713566D01*
X134644517Y-47522490D01*
X134477510Y-47355483D01*
X134286433Y-47216657D01*
X134075996Y-47109433D01*
X133851368Y-47036446D01*
X133618097Y-46999500D01*
X133618092Y-46999500D01*
X133381908Y-46999500D01*
X133381903Y-46999500D01*
X133148631Y-47036446D01*
X132924003Y-47109433D01*
X132713566Y-47216657D01*
X132604550Y-47295862D01*
X132522490Y-47355483D01*
X132522488Y-47355485D01*
X132522487Y-47355485D01*
X132355485Y-47522487D01*
X132355485Y-47522488D01*
X132355483Y-47522490D01*
X132317606Y-47574623D01*
X132216657Y-47713566D01*
X132109433Y-47924003D01*
X132036446Y-48148631D01*
X131999500Y-48381902D01*
X87860428Y-48381902D01*
X87911286Y-48225375D01*
X87923441Y-48148631D01*
X87945500Y-48009361D01*
X87945500Y-47790638D01*
X87925595Y-47664971D01*
X87911286Y-47574625D01*
X87843701Y-47366617D01*
X87843701Y-47366616D01*
X87809315Y-47299132D01*
X87744407Y-47171743D01*
X87701909Y-47113249D01*
X87615857Y-46994806D01*
X87461193Y-46840142D01*
X87284260Y-46711595D01*
X87284259Y-46711594D01*
X87284257Y-46711593D01*
X87221825Y-46679782D01*
X87089383Y-46612298D01*
X87089380Y-46612297D01*
X86881376Y-46544714D01*
X86665361Y-46510500D01*
X86665356Y-46510500D01*
X84668644Y-46510500D01*
X84668639Y-46510500D01*
X84452623Y-46544714D01*
X84244619Y-46612297D01*
X84244616Y-46612298D01*
X84049739Y-46711595D01*
X83872806Y-46840142D01*
X83718142Y-46994806D01*
X83589595Y-47171739D01*
X83490298Y-47366616D01*
X83490297Y-47366619D01*
X83422714Y-47574623D01*
X83388500Y-47790638D01*
X71181500Y-47790638D01*
X71161595Y-47664971D01*
X71147286Y-47574625D01*
X71079701Y-47366617D01*
X71079701Y-47366616D01*
X71045315Y-47299132D01*
X70980407Y-47171743D01*
X70937909Y-47113249D01*
X70851857Y-46994806D01*
X70697193Y-46840142D01*
X70520260Y-46711595D01*
X70520259Y-46711594D01*
X70520257Y-46711593D01*
X70457825Y-46679782D01*
X70325383Y-46612298D01*
X70325380Y-46612297D01*
X70117376Y-46544714D01*
X69901361Y-46510500D01*
X69901356Y-46510500D01*
X67904644Y-46510500D01*
X67904639Y-46510500D01*
X67688623Y-46544714D01*
X67480619Y-46612297D01*
X67480616Y-46612298D01*
X67285739Y-46711595D01*
X67108806Y-46840142D01*
X66954142Y-46994806D01*
X66825595Y-47171739D01*
X66726298Y-47366616D01*
X66726297Y-47366619D01*
X66658714Y-47574623D01*
X66624500Y-47790638D01*
X53000500Y-47790638D01*
X53000500Y-47502706D01*
X53000618Y-47497297D01*
X53003377Y-47434108D01*
X53017386Y-47113226D01*
X53018326Y-47102495D01*
X53068152Y-46724025D01*
X53070025Y-46713405D01*
X53152649Y-46340709D01*
X53155440Y-46330295D01*
X53270230Y-45966227D01*
X53273917Y-45956095D01*
X53420003Y-45603412D01*
X53424561Y-45593638D01*
X53600822Y-45255045D01*
X53606217Y-45245700D01*
X53811325Y-44923744D01*
X53817515Y-44914905D01*
X54049896Y-44612060D01*
X54056834Y-44603791D01*
X54314726Y-44322352D01*
X54322352Y-44314726D01*
X54603791Y-44056834D01*
X54612060Y-44049896D01*
X54914905Y-43817515D01*
X54923744Y-43811325D01*
X55245700Y-43606217D01*
X55255045Y-43600822D01*
X55593638Y-43424561D01*
X55603412Y-43420003D01*
X55956095Y-43273917D01*
X55966227Y-43270230D01*
X56330295Y-43155440D01*
X56340709Y-43152649D01*
X56713405Y-43070025D01*
X56724025Y-43068152D01*
X57102495Y-43018326D01*
X57113226Y-43017386D01*
X57497297Y-43000617D01*
X57502706Y-43000500D01*
X57565892Y-43000500D01*
X134434108Y-43000500D01*
X134497294Y-43000500D01*
X134502702Y-43000617D01*
G37*
%TD.AperFunction*%
%TD*%
M02*
