M48
METRIC
T1C0.850
T2C1.016
%
G90
G05
T1
X107.61Y-60.35
X107.61Y-67.97
X130.47Y-60.35
X130.47Y-67.97
T2
X69.665Y-47.9
X69.665Y-50.44
X69.665Y-52.98
X69.665Y-55.52
X69.665Y-58.06
X69.665Y-60.6
X69.665Y-63.14
X74.745Y-73.3
X79.825Y-73.3
X84.905Y-47.9
X84.905Y-50.44
X84.905Y-52.98
X84.905Y-55.52
X84.905Y-58.06
X84.905Y-60.6
X84.905Y-63.14
M30
