%TF.GenerationSoftware,KiCad,Pcbnew,9.0.7*%
%TF.CreationDate,2026-02-17T08:37:03-08:00*%
%TF.ProjectId,Display device,44697370-6c61-4792-9064-65766963652e,1.0*%
%TF.SameCoordinates,Original*%
%TF.FileFunction,Legend,Top*%
%TF.FilePolarity,Positive*%
%FSLAX46Y46*%
G04 Gerber Fmt 4.6, Leading zero omitted, Abs format (unit mm)*
G04 Created by KiCad (PCBNEW 9.0.7) date 2026-02-17 08:37:03*
%MOMM*%
%LPD*%
G01*
G04 APERTURE LIST*
%ADD10C,0.100000*%
%ADD11C,0.150000*%
%ADD12C,0.120000*%
G04 APERTURE END LIST*
D10*
X90803884Y-81262475D02*
X90803884Y-80262475D01*
X90803884Y-80262475D02*
X91184836Y-80262475D01*
X91184836Y-80262475D02*
X91280074Y-80310094D01*
X91280074Y-80310094D02*
X91327693Y-80357713D01*
X91327693Y-80357713D02*
X91375312Y-80452951D01*
X91375312Y-80452951D02*
X91375312Y-80595808D01*
X91375312Y-80595808D02*
X91327693Y-80691046D01*
X91327693Y-80691046D02*
X91280074Y-80738665D01*
X91280074Y-80738665D02*
X91184836Y-80786284D01*
X91184836Y-80786284D02*
X90803884Y-80786284D01*
X91946741Y-81262475D02*
X91851503Y-81214856D01*
X91851503Y-81214856D02*
X91803884Y-81167236D01*
X91803884Y-81167236D02*
X91756265Y-81071998D01*
X91756265Y-81071998D02*
X91756265Y-80786284D01*
X91756265Y-80786284D02*
X91803884Y-80691046D01*
X91803884Y-80691046D02*
X91851503Y-80643427D01*
X91851503Y-80643427D02*
X91946741Y-80595808D01*
X91946741Y-80595808D02*
X92089598Y-80595808D01*
X92089598Y-80595808D02*
X92184836Y-80643427D01*
X92184836Y-80643427D02*
X92232455Y-80691046D01*
X92232455Y-80691046D02*
X92280074Y-80786284D01*
X92280074Y-80786284D02*
X92280074Y-81071998D01*
X92280074Y-81071998D02*
X92232455Y-81167236D01*
X92232455Y-81167236D02*
X92184836Y-81214856D01*
X92184836Y-81214856D02*
X92089598Y-81262475D01*
X92089598Y-81262475D02*
X91946741Y-81262475D01*
X92851503Y-81262475D02*
X92756265Y-81214856D01*
X92756265Y-81214856D02*
X92708646Y-81119617D01*
X92708646Y-81119617D02*
X92708646Y-80262475D01*
X93375313Y-81262475D02*
X93280075Y-81214856D01*
X93280075Y-81214856D02*
X93232456Y-81119617D01*
X93232456Y-81119617D02*
X93232456Y-80262475D01*
X93661028Y-80595808D02*
X93899123Y-81262475D01*
X94137218Y-80595808D02*
X93899123Y-81262475D01*
X93899123Y-81262475D02*
X93803885Y-81500570D01*
X93803885Y-81500570D02*
X93756266Y-81548189D01*
X93756266Y-81548189D02*
X93661028Y-81595808D01*
X95470552Y-80786284D02*
X95470552Y-81262475D01*
X95137219Y-80262475D02*
X95470552Y-80786284D01*
X95470552Y-80786284D02*
X95803885Y-80262475D01*
X96565790Y-81262475D02*
X96565790Y-80738665D01*
X96565790Y-80738665D02*
X96518171Y-80643427D01*
X96518171Y-80643427D02*
X96422933Y-80595808D01*
X96422933Y-80595808D02*
X96232457Y-80595808D01*
X96232457Y-80595808D02*
X96137219Y-80643427D01*
X96565790Y-81214856D02*
X96470552Y-81262475D01*
X96470552Y-81262475D02*
X96232457Y-81262475D01*
X96232457Y-81262475D02*
X96137219Y-81214856D01*
X96137219Y-81214856D02*
X96089600Y-81119617D01*
X96089600Y-81119617D02*
X96089600Y-81024379D01*
X96089600Y-81024379D02*
X96137219Y-80929141D01*
X96137219Y-80929141D02*
X96232457Y-80881522D01*
X96232457Y-80881522D02*
X96470552Y-80881522D01*
X96470552Y-80881522D02*
X96565790Y-80833903D01*
X97184838Y-81262475D02*
X97089600Y-81214856D01*
X97089600Y-81214856D02*
X97041981Y-81167236D01*
X97041981Y-81167236D02*
X96994362Y-81071998D01*
X96994362Y-81071998D02*
X96994362Y-80786284D01*
X96994362Y-80786284D02*
X97041981Y-80691046D01*
X97041981Y-80691046D02*
X97089600Y-80643427D01*
X97089600Y-80643427D02*
X97184838Y-80595808D01*
X97184838Y-80595808D02*
X97327695Y-80595808D01*
X97327695Y-80595808D02*
X97422933Y-80643427D01*
X97422933Y-80643427D02*
X97470552Y-80691046D01*
X97470552Y-80691046D02*
X97518171Y-80786284D01*
X97518171Y-80786284D02*
X97518171Y-81071998D01*
X97518171Y-81071998D02*
X97470552Y-81167236D01*
X97470552Y-81167236D02*
X97422933Y-81214856D01*
X97422933Y-81214856D02*
X97327695Y-81262475D01*
X97327695Y-81262475D02*
X97184838Y-81262475D01*
X90803884Y-82348609D02*
X91137217Y-82348609D01*
X91280074Y-82872419D02*
X90803884Y-82872419D01*
X90803884Y-82872419D02*
X90803884Y-81872419D01*
X90803884Y-81872419D02*
X91280074Y-81872419D01*
X91708646Y-82872419D02*
X91708646Y-82205752D01*
X91708646Y-82300990D02*
X91756265Y-82253371D01*
X91756265Y-82253371D02*
X91851503Y-82205752D01*
X91851503Y-82205752D02*
X91994360Y-82205752D01*
X91994360Y-82205752D02*
X92089598Y-82253371D01*
X92089598Y-82253371D02*
X92137217Y-82348609D01*
X92137217Y-82348609D02*
X92137217Y-82872419D01*
X92137217Y-82348609D02*
X92184836Y-82253371D01*
X92184836Y-82253371D02*
X92280074Y-82205752D01*
X92280074Y-82205752D02*
X92422931Y-82205752D01*
X92422931Y-82205752D02*
X92518170Y-82253371D01*
X92518170Y-82253371D02*
X92565789Y-82348609D01*
X92565789Y-82348609D02*
X92565789Y-82872419D01*
X93184836Y-82872419D02*
X93089598Y-82824800D01*
X93089598Y-82824800D02*
X93041979Y-82777180D01*
X93041979Y-82777180D02*
X92994360Y-82681942D01*
X92994360Y-82681942D02*
X92994360Y-82396228D01*
X92994360Y-82396228D02*
X93041979Y-82300990D01*
X93041979Y-82300990D02*
X93089598Y-82253371D01*
X93089598Y-82253371D02*
X93184836Y-82205752D01*
X93184836Y-82205752D02*
X93327693Y-82205752D01*
X93327693Y-82205752D02*
X93422931Y-82253371D01*
X93422931Y-82253371D02*
X93470550Y-82300990D01*
X93470550Y-82300990D02*
X93518169Y-82396228D01*
X93518169Y-82396228D02*
X93518169Y-82681942D01*
X93518169Y-82681942D02*
X93470550Y-82777180D01*
X93470550Y-82777180D02*
X93422931Y-82824800D01*
X93422931Y-82824800D02*
X93327693Y-82872419D01*
X93327693Y-82872419D02*
X93184836Y-82872419D01*
X93803884Y-81872419D02*
X94375312Y-81872419D01*
X94089598Y-82872419D02*
X94089598Y-81872419D01*
X94708646Y-82872419D02*
X94708646Y-82205752D01*
X94708646Y-82396228D02*
X94756265Y-82300990D01*
X94756265Y-82300990D02*
X94803884Y-82253371D01*
X94803884Y-82253371D02*
X94899122Y-82205752D01*
X94899122Y-82205752D02*
X94994360Y-82205752D01*
X95756265Y-82872419D02*
X95756265Y-82348609D01*
X95756265Y-82348609D02*
X95708646Y-82253371D01*
X95708646Y-82253371D02*
X95613408Y-82205752D01*
X95613408Y-82205752D02*
X95422932Y-82205752D01*
X95422932Y-82205752D02*
X95327694Y-82253371D01*
X95756265Y-82824800D02*
X95661027Y-82872419D01*
X95661027Y-82872419D02*
X95422932Y-82872419D01*
X95422932Y-82872419D02*
X95327694Y-82824800D01*
X95327694Y-82824800D02*
X95280075Y-82729561D01*
X95280075Y-82729561D02*
X95280075Y-82634323D01*
X95280075Y-82634323D02*
X95327694Y-82539085D01*
X95327694Y-82539085D02*
X95422932Y-82491466D01*
X95422932Y-82491466D02*
X95661027Y-82491466D01*
X95661027Y-82491466D02*
X95756265Y-82443847D01*
X96661027Y-82824800D02*
X96565789Y-82872419D01*
X96565789Y-82872419D02*
X96375313Y-82872419D01*
X96375313Y-82872419D02*
X96280075Y-82824800D01*
X96280075Y-82824800D02*
X96232456Y-82777180D01*
X96232456Y-82777180D02*
X96184837Y-82681942D01*
X96184837Y-82681942D02*
X96184837Y-82396228D01*
X96184837Y-82396228D02*
X96232456Y-82300990D01*
X96232456Y-82300990D02*
X96280075Y-82253371D01*
X96280075Y-82253371D02*
X96375313Y-82205752D01*
X96375313Y-82205752D02*
X96565789Y-82205752D01*
X96565789Y-82205752D02*
X96661027Y-82253371D01*
X97470551Y-82824800D02*
X97375313Y-82872419D01*
X97375313Y-82872419D02*
X97184837Y-82872419D01*
X97184837Y-82872419D02*
X97089599Y-82824800D01*
X97089599Y-82824800D02*
X97041980Y-82729561D01*
X97041980Y-82729561D02*
X97041980Y-82348609D01*
X97041980Y-82348609D02*
X97089599Y-82253371D01*
X97089599Y-82253371D02*
X97184837Y-82205752D01*
X97184837Y-82205752D02*
X97375313Y-82205752D01*
X97375313Y-82205752D02*
X97470551Y-82253371D01*
X97470551Y-82253371D02*
X97518170Y-82348609D01*
X97518170Y-82348609D02*
X97518170Y-82443847D01*
X97518170Y-82443847D02*
X97041980Y-82539085D01*
X98661028Y-81967657D02*
X98708647Y-81920038D01*
X98708647Y-81920038D02*
X98803885Y-81872419D01*
X98803885Y-81872419D02*
X99041980Y-81872419D01*
X99041980Y-81872419D02*
X99137218Y-81920038D01*
X99137218Y-81920038D02*
X99184837Y-81967657D01*
X99184837Y-81967657D02*
X99232456Y-82062895D01*
X99232456Y-82062895D02*
X99232456Y-82158133D01*
X99232456Y-82158133D02*
X99184837Y-82300990D01*
X99184837Y-82300990D02*
X98613409Y-82872419D01*
X98613409Y-82872419D02*
X99232456Y-82872419D01*
X99661028Y-82777180D02*
X99708647Y-82824800D01*
X99708647Y-82824800D02*
X99661028Y-82872419D01*
X99661028Y-82872419D02*
X99613409Y-82824800D01*
X99613409Y-82824800D02*
X99661028Y-82777180D01*
X99661028Y-82777180D02*
X99661028Y-82872419D01*
X100327694Y-81872419D02*
X100422932Y-81872419D01*
X100422932Y-81872419D02*
X100518170Y-81920038D01*
X100518170Y-81920038D02*
X100565789Y-81967657D01*
X100565789Y-81967657D02*
X100613408Y-82062895D01*
X100613408Y-82062895D02*
X100661027Y-82253371D01*
X100661027Y-82253371D02*
X100661027Y-82491466D01*
X100661027Y-82491466D02*
X100613408Y-82681942D01*
X100613408Y-82681942D02*
X100565789Y-82777180D01*
X100565789Y-82777180D02*
X100518170Y-82824800D01*
X100518170Y-82824800D02*
X100422932Y-82872419D01*
X100422932Y-82872419D02*
X100327694Y-82872419D01*
X100327694Y-82872419D02*
X100232456Y-82824800D01*
X100232456Y-82824800D02*
X100184837Y-82777180D01*
X100184837Y-82777180D02*
X100137218Y-82681942D01*
X100137218Y-82681942D02*
X100089599Y-82491466D01*
X100089599Y-82491466D02*
X100089599Y-82253371D01*
X100089599Y-82253371D02*
X100137218Y-82062895D01*
X100137218Y-82062895D02*
X100184837Y-81967657D01*
X100184837Y-81967657D02*
X100232456Y-81920038D01*
X100232456Y-81920038D02*
X100327694Y-81872419D01*
D11*
X57151905Y-52104819D02*
X57151905Y-51104819D01*
X57151905Y-51104819D02*
X57390000Y-51104819D01*
X57390000Y-51104819D02*
X57532857Y-51152438D01*
X57532857Y-51152438D02*
X57628095Y-51247676D01*
X57628095Y-51247676D02*
X57675714Y-51342914D01*
X57675714Y-51342914D02*
X57723333Y-51533390D01*
X57723333Y-51533390D02*
X57723333Y-51676247D01*
X57723333Y-51676247D02*
X57675714Y-51866723D01*
X57675714Y-51866723D02*
X57628095Y-51961961D01*
X57628095Y-51961961D02*
X57532857Y-52057200D01*
X57532857Y-52057200D02*
X57390000Y-52104819D01*
X57390000Y-52104819D02*
X57151905Y-52104819D01*
X58675714Y-52104819D02*
X58104286Y-52104819D01*
X58390000Y-52104819D02*
X58390000Y-51104819D01*
X58390000Y-51104819D02*
X58294762Y-51247676D01*
X58294762Y-51247676D02*
X58199524Y-51342914D01*
X58199524Y-51342914D02*
X58104286Y-51390533D01*
X91723333Y-61104819D02*
X91390000Y-60628628D01*
X91151905Y-61104819D02*
X91151905Y-60104819D01*
X91151905Y-60104819D02*
X91532857Y-60104819D01*
X91532857Y-60104819D02*
X91628095Y-60152438D01*
X91628095Y-60152438D02*
X91675714Y-60200057D01*
X91675714Y-60200057D02*
X91723333Y-60295295D01*
X91723333Y-60295295D02*
X91723333Y-60438152D01*
X91723333Y-60438152D02*
X91675714Y-60533390D01*
X91675714Y-60533390D02*
X91628095Y-60581009D01*
X91628095Y-60581009D02*
X91532857Y-60628628D01*
X91532857Y-60628628D02*
X91151905Y-60628628D01*
X92056667Y-60104819D02*
X92675714Y-60104819D01*
X92675714Y-60104819D02*
X92342381Y-60485771D01*
X92342381Y-60485771D02*
X92485238Y-60485771D01*
X92485238Y-60485771D02*
X92580476Y-60533390D01*
X92580476Y-60533390D02*
X92628095Y-60581009D01*
X92628095Y-60581009D02*
X92675714Y-60676247D01*
X92675714Y-60676247D02*
X92675714Y-60914342D01*
X92675714Y-60914342D02*
X92628095Y-61009580D01*
X92628095Y-61009580D02*
X92580476Y-61057200D01*
X92580476Y-61057200D02*
X92485238Y-61104819D01*
X92485238Y-61104819D02*
X92199524Y-61104819D01*
X92199524Y-61104819D02*
X92104286Y-61057200D01*
X92104286Y-61057200D02*
X92056667Y-61009580D01*
X91723333Y-63604819D02*
X91390000Y-63128628D01*
X91151905Y-63604819D02*
X91151905Y-62604819D01*
X91151905Y-62604819D02*
X91532857Y-62604819D01*
X91532857Y-62604819D02*
X91628095Y-62652438D01*
X91628095Y-62652438D02*
X91675714Y-62700057D01*
X91675714Y-62700057D02*
X91723333Y-62795295D01*
X91723333Y-62795295D02*
X91723333Y-62938152D01*
X91723333Y-62938152D02*
X91675714Y-63033390D01*
X91675714Y-63033390D02*
X91628095Y-63081009D01*
X91628095Y-63081009D02*
X91532857Y-63128628D01*
X91532857Y-63128628D02*
X91151905Y-63128628D01*
X92104286Y-62700057D02*
X92151905Y-62652438D01*
X92151905Y-62652438D02*
X92247143Y-62604819D01*
X92247143Y-62604819D02*
X92485238Y-62604819D01*
X92485238Y-62604819D02*
X92580476Y-62652438D01*
X92580476Y-62652438D02*
X92628095Y-62700057D01*
X92628095Y-62700057D02*
X92675714Y-62795295D01*
X92675714Y-62795295D02*
X92675714Y-62890533D01*
X92675714Y-62890533D02*
X92628095Y-63033390D01*
X92628095Y-63033390D02*
X92056667Y-63604819D01*
X92056667Y-63604819D02*
X92675714Y-63604819D01*
X91723333Y-56104819D02*
X91390000Y-55628628D01*
X91151905Y-56104819D02*
X91151905Y-55104819D01*
X91151905Y-55104819D02*
X91532857Y-55104819D01*
X91532857Y-55104819D02*
X91628095Y-55152438D01*
X91628095Y-55152438D02*
X91675714Y-55200057D01*
X91675714Y-55200057D02*
X91723333Y-55295295D01*
X91723333Y-55295295D02*
X91723333Y-55438152D01*
X91723333Y-55438152D02*
X91675714Y-55533390D01*
X91675714Y-55533390D02*
X91628095Y-55581009D01*
X91628095Y-55581009D02*
X91532857Y-55628628D01*
X91532857Y-55628628D02*
X91151905Y-55628628D01*
X92628095Y-55104819D02*
X92151905Y-55104819D01*
X92151905Y-55104819D02*
X92104286Y-55581009D01*
X92104286Y-55581009D02*
X92151905Y-55533390D01*
X92151905Y-55533390D02*
X92247143Y-55485771D01*
X92247143Y-55485771D02*
X92485238Y-55485771D01*
X92485238Y-55485771D02*
X92580476Y-55533390D01*
X92580476Y-55533390D02*
X92628095Y-55581009D01*
X92628095Y-55581009D02*
X92675714Y-55676247D01*
X92675714Y-55676247D02*
X92675714Y-55914342D01*
X92675714Y-55914342D02*
X92628095Y-56009580D01*
X92628095Y-56009580D02*
X92580476Y-56057200D01*
X92580476Y-56057200D02*
X92485238Y-56104819D01*
X92485238Y-56104819D02*
X92247143Y-56104819D01*
X92247143Y-56104819D02*
X92151905Y-56057200D01*
X92151905Y-56057200D02*
X92104286Y-56009580D01*
X57127200Y-65633332D02*
X57174819Y-65490475D01*
X57174819Y-65490475D02*
X57174819Y-65252380D01*
X57174819Y-65252380D02*
X57127200Y-65157142D01*
X57127200Y-65157142D02*
X57079580Y-65109523D01*
X57079580Y-65109523D02*
X56984342Y-65061904D01*
X56984342Y-65061904D02*
X56889104Y-65061904D01*
X56889104Y-65061904D02*
X56793866Y-65109523D01*
X56793866Y-65109523D02*
X56746247Y-65157142D01*
X56746247Y-65157142D02*
X56698628Y-65252380D01*
X56698628Y-65252380D02*
X56651009Y-65442856D01*
X56651009Y-65442856D02*
X56603390Y-65538094D01*
X56603390Y-65538094D02*
X56555771Y-65585713D01*
X56555771Y-65585713D02*
X56460533Y-65633332D01*
X56460533Y-65633332D02*
X56365295Y-65633332D01*
X56365295Y-65633332D02*
X56270057Y-65585713D01*
X56270057Y-65585713D02*
X56222438Y-65538094D01*
X56222438Y-65538094D02*
X56174819Y-65442856D01*
X56174819Y-65442856D02*
X56174819Y-65204761D01*
X56174819Y-65204761D02*
X56222438Y-65061904D01*
X56174819Y-64728570D02*
X57174819Y-64490475D01*
X57174819Y-64490475D02*
X56460533Y-64299999D01*
X56460533Y-64299999D02*
X57174819Y-64109523D01*
X57174819Y-64109523D02*
X56174819Y-63871428D01*
X57174819Y-62966666D02*
X57174819Y-63538094D01*
X57174819Y-63252380D02*
X56174819Y-63252380D01*
X56174819Y-63252380D02*
X56317676Y-63347618D01*
X56317676Y-63347618D02*
X56412914Y-63442856D01*
X56412914Y-63442856D02*
X56460533Y-63538094D01*
X57952380Y-76504819D02*
X57619047Y-76028628D01*
X57380952Y-76504819D02*
X57380952Y-75504819D01*
X57380952Y-75504819D02*
X57761904Y-75504819D01*
X57761904Y-75504819D02*
X57857142Y-75552438D01*
X57857142Y-75552438D02*
X57904761Y-75600057D01*
X57904761Y-75600057D02*
X57952380Y-75695295D01*
X57952380Y-75695295D02*
X57952380Y-75838152D01*
X57952380Y-75838152D02*
X57904761Y-75933390D01*
X57904761Y-75933390D02*
X57857142Y-75981009D01*
X57857142Y-75981009D02*
X57761904Y-76028628D01*
X57761904Y-76028628D02*
X57380952Y-76028628D01*
X58380952Y-75981009D02*
X58714285Y-75981009D01*
X58857142Y-76504819D02*
X58380952Y-76504819D01*
X58380952Y-76504819D02*
X58380952Y-75504819D01*
X58380952Y-75504819D02*
X58857142Y-75504819D01*
X59619047Y-75981009D02*
X59285714Y-75981009D01*
X59285714Y-76504819D02*
X59285714Y-75504819D01*
X59285714Y-75504819D02*
X59761904Y-75504819D01*
X60666666Y-76504819D02*
X60095238Y-76504819D01*
X60380952Y-76504819D02*
X60380952Y-75504819D01*
X60380952Y-75504819D02*
X60285714Y-75647676D01*
X60285714Y-75647676D02*
X60190476Y-75742914D01*
X60190476Y-75742914D02*
X60095238Y-75790533D01*
X60723333Y-52104819D02*
X60390000Y-51628628D01*
X60151905Y-52104819D02*
X60151905Y-51104819D01*
X60151905Y-51104819D02*
X60532857Y-51104819D01*
X60532857Y-51104819D02*
X60628095Y-51152438D01*
X60628095Y-51152438D02*
X60675714Y-51200057D01*
X60675714Y-51200057D02*
X60723333Y-51295295D01*
X60723333Y-51295295D02*
X60723333Y-51438152D01*
X60723333Y-51438152D02*
X60675714Y-51533390D01*
X60675714Y-51533390D02*
X60628095Y-51581009D01*
X60628095Y-51581009D02*
X60532857Y-51628628D01*
X60532857Y-51628628D02*
X60151905Y-51628628D01*
X61675714Y-52104819D02*
X61104286Y-52104819D01*
X61390000Y-52104819D02*
X61390000Y-51104819D01*
X61390000Y-51104819D02*
X61294762Y-51247676D01*
X61294762Y-51247676D02*
X61199524Y-51342914D01*
X61199524Y-51342914D02*
X61104286Y-51390533D01*
X77185833Y-81329580D02*
X77138214Y-81377200D01*
X77138214Y-81377200D02*
X76995357Y-81424819D01*
X76995357Y-81424819D02*
X76900119Y-81424819D01*
X76900119Y-81424819D02*
X76757262Y-81377200D01*
X76757262Y-81377200D02*
X76662024Y-81281961D01*
X76662024Y-81281961D02*
X76614405Y-81186723D01*
X76614405Y-81186723D02*
X76566786Y-80996247D01*
X76566786Y-80996247D02*
X76566786Y-80853390D01*
X76566786Y-80853390D02*
X76614405Y-80662914D01*
X76614405Y-80662914D02*
X76662024Y-80567676D01*
X76662024Y-80567676D02*
X76757262Y-80472438D01*
X76757262Y-80472438D02*
X76900119Y-80424819D01*
X76900119Y-80424819D02*
X76995357Y-80424819D01*
X76995357Y-80424819D02*
X77138214Y-80472438D01*
X77138214Y-80472438D02*
X77185833Y-80520057D01*
X77566786Y-80520057D02*
X77614405Y-80472438D01*
X77614405Y-80472438D02*
X77709643Y-80424819D01*
X77709643Y-80424819D02*
X77947738Y-80424819D01*
X77947738Y-80424819D02*
X78042976Y-80472438D01*
X78042976Y-80472438D02*
X78090595Y-80520057D01*
X78090595Y-80520057D02*
X78138214Y-80615295D01*
X78138214Y-80615295D02*
X78138214Y-80710533D01*
X78138214Y-80710533D02*
X78090595Y-80853390D01*
X78090595Y-80853390D02*
X77519167Y-81424819D01*
X77519167Y-81424819D02*
X78138214Y-81424819D01*
X91723333Y-58604819D02*
X91390000Y-58128628D01*
X91151905Y-58604819D02*
X91151905Y-57604819D01*
X91151905Y-57604819D02*
X91532857Y-57604819D01*
X91532857Y-57604819D02*
X91628095Y-57652438D01*
X91628095Y-57652438D02*
X91675714Y-57700057D01*
X91675714Y-57700057D02*
X91723333Y-57795295D01*
X91723333Y-57795295D02*
X91723333Y-57938152D01*
X91723333Y-57938152D02*
X91675714Y-58033390D01*
X91675714Y-58033390D02*
X91628095Y-58081009D01*
X91628095Y-58081009D02*
X91532857Y-58128628D01*
X91532857Y-58128628D02*
X91151905Y-58128628D01*
X92580476Y-57938152D02*
X92580476Y-58604819D01*
X92342381Y-57557200D02*
X92104286Y-58271485D01*
X92104286Y-58271485D02*
X92723333Y-58271485D01*
D10*
X77128095Y-43607419D02*
X77128095Y-44416942D01*
X77128095Y-44416942D02*
X77175714Y-44512180D01*
X77175714Y-44512180D02*
X77223333Y-44559800D01*
X77223333Y-44559800D02*
X77318571Y-44607419D01*
X77318571Y-44607419D02*
X77509047Y-44607419D01*
X77509047Y-44607419D02*
X77604285Y-44559800D01*
X77604285Y-44559800D02*
X77651904Y-44512180D01*
X77651904Y-44512180D02*
X77699523Y-44416942D01*
X77699523Y-44416942D02*
X77699523Y-43607419D01*
X78699523Y-44607419D02*
X78128095Y-44607419D01*
X78413809Y-44607419D02*
X78413809Y-43607419D01*
X78413809Y-43607419D02*
X78318571Y-43750276D01*
X78318571Y-43750276D02*
X78223333Y-43845514D01*
X78223333Y-43845514D02*
X78128095Y-43893133D01*
X118690476Y-82457419D02*
X118690476Y-81457419D01*
X118690476Y-81457419D02*
X119023809Y-82171704D01*
X119023809Y-82171704D02*
X119357142Y-81457419D01*
X119357142Y-81457419D02*
X119357142Y-82457419D01*
X120357142Y-82457419D02*
X119785714Y-82457419D01*
X120071428Y-82457419D02*
X120071428Y-81457419D01*
X120071428Y-81457419D02*
X119976190Y-81600276D01*
X119976190Y-81600276D02*
X119880952Y-81695514D01*
X119880952Y-81695514D02*
X119785714Y-81743133D01*
D11*
X132452380Y-45504819D02*
X132119047Y-45028628D01*
X131880952Y-45504819D02*
X131880952Y-44504819D01*
X131880952Y-44504819D02*
X132261904Y-44504819D01*
X132261904Y-44504819D02*
X132357142Y-44552438D01*
X132357142Y-44552438D02*
X132404761Y-44600057D01*
X132404761Y-44600057D02*
X132452380Y-44695295D01*
X132452380Y-44695295D02*
X132452380Y-44838152D01*
X132452380Y-44838152D02*
X132404761Y-44933390D01*
X132404761Y-44933390D02*
X132357142Y-44981009D01*
X132357142Y-44981009D02*
X132261904Y-45028628D01*
X132261904Y-45028628D02*
X131880952Y-45028628D01*
X132880952Y-44981009D02*
X133214285Y-44981009D01*
X133357142Y-45504819D02*
X132880952Y-45504819D01*
X132880952Y-45504819D02*
X132880952Y-44504819D01*
X132880952Y-44504819D02*
X133357142Y-44504819D01*
X134119047Y-44981009D02*
X133785714Y-44981009D01*
X133785714Y-45504819D02*
X133785714Y-44504819D01*
X133785714Y-44504819D02*
X134261904Y-44504819D01*
X134595238Y-44600057D02*
X134642857Y-44552438D01*
X134642857Y-44552438D02*
X134738095Y-44504819D01*
X134738095Y-44504819D02*
X134976190Y-44504819D01*
X134976190Y-44504819D02*
X135071428Y-44552438D01*
X135071428Y-44552438D02*
X135119047Y-44600057D01*
X135119047Y-44600057D02*
X135166666Y-44695295D01*
X135166666Y-44695295D02*
X135166666Y-44790533D01*
X135166666Y-44790533D02*
X135119047Y-44933390D01*
X135119047Y-44933390D02*
X134547619Y-45504819D01*
X134547619Y-45504819D02*
X135166666Y-45504819D01*
X77185833Y-77829580D02*
X77138214Y-77877200D01*
X77138214Y-77877200D02*
X76995357Y-77924819D01*
X76995357Y-77924819D02*
X76900119Y-77924819D01*
X76900119Y-77924819D02*
X76757262Y-77877200D01*
X76757262Y-77877200D02*
X76662024Y-77781961D01*
X76662024Y-77781961D02*
X76614405Y-77686723D01*
X76614405Y-77686723D02*
X76566786Y-77496247D01*
X76566786Y-77496247D02*
X76566786Y-77353390D01*
X76566786Y-77353390D02*
X76614405Y-77162914D01*
X76614405Y-77162914D02*
X76662024Y-77067676D01*
X76662024Y-77067676D02*
X76757262Y-76972438D01*
X76757262Y-76972438D02*
X76900119Y-76924819D01*
X76900119Y-76924819D02*
X76995357Y-76924819D01*
X76995357Y-76924819D02*
X77138214Y-76972438D01*
X77138214Y-76972438D02*
X77185833Y-77020057D01*
X78138214Y-77924819D02*
X77566786Y-77924819D01*
X77852500Y-77924819D02*
X77852500Y-76924819D01*
X77852500Y-76924819D02*
X77757262Y-77067676D01*
X77757262Y-77067676D02*
X77662024Y-77162914D01*
X77662024Y-77162914D02*
X77566786Y-77210533D01*
D12*
%TO.C,D1*%
X56905000Y-47650000D02*
X56905000Y-50510000D01*
X56905000Y-50510000D02*
X58825000Y-50510000D01*
X58825000Y-50510000D02*
X58825000Y-47650000D01*
%TO.C,R3*%
X95162936Y-59915000D02*
X95617064Y-59915000D01*
X95162936Y-61385000D02*
X95617064Y-61385000D01*
%TO.C,R2*%
X95162936Y-62415000D02*
X95617064Y-62415000D01*
X95162936Y-63885000D02*
X95617064Y-63885000D01*
%TO.C,R5*%
X95162936Y-54915000D02*
X95617064Y-54915000D01*
X95162936Y-56385000D02*
X95617064Y-56385000D01*
%TO.C,SW1*%
X55730000Y-61750000D02*
X55730000Y-62550000D01*
X55770000Y-62550000D02*
X55730000Y-62550000D01*
X55770000Y-62550000D02*
X55770000Y-66050000D01*
%TO.C,R1*%
X60130000Y-48877064D02*
X60130000Y-48422936D01*
X61600000Y-48877064D02*
X61600000Y-48422936D01*
%TO.C,C2*%
X77091248Y-81915000D02*
X77613752Y-81915000D01*
X77091248Y-83385000D02*
X77613752Y-83385000D01*
%TO.C,R4*%
X95162936Y-57415000D02*
X95617064Y-57415000D01*
X95162936Y-58885000D02*
X95617064Y-58885000D01*
D10*
%TO.C,U1*%
X73475000Y-45360000D02*
X73475000Y-49170000D01*
X73475000Y-49170000D02*
X81095000Y-49170000D01*
X78301000Y-71776000D02*
X81349000Y-71776000D01*
X78301000Y-74824000D02*
X78301000Y-71776000D01*
X78809000Y-75332000D02*
X80841000Y-75332000D01*
X79317000Y-75840000D02*
X80333000Y-75840000D01*
X81095000Y-49170000D02*
X81095000Y-45360000D01*
X81349000Y-71776000D02*
X81349000Y-74824000D01*
X81349000Y-74824000D02*
X78301000Y-74824000D01*
D12*
%TO.C,C1*%
X77091248Y-78415000D02*
X77613752Y-78415000D01*
X77091248Y-79885000D02*
X77613752Y-79885000D01*
%TD*%
M02*
